<mxfile host="app.diagrams.net" modified="2022-08-22T14:37:10.288Z" agent="5.0 (Windows NT 10.0; Win64; x64) AppleWebKit/537.36 (KHTML, like Gecko) Chrome/104.0.5112.81 Safari/537.36 Edg/104.0.1293.54" etag="lPgSFvgTA_lwfaUC_KvD" version="15.9.6" type="github">
  <diagram id="963_bo-RFlx6LjmCcmcF" name="Trang-1">
    <mxGraphModel dx="1209" dy="618" grid="1" gridSize="10" guides="1" tooltips="1" connect="1" arrows="1" fold="1" page="1" pageScale="1" pageWidth="827" pageHeight="1169" math="0" shadow="0">
      <root>
        <mxCell id="0" />
        <mxCell id="1" parent="0" />
        <mxCell id="AtL4cygx7HMGAABz7VWH-1" value="" style="ellipse;whiteSpace=wrap;html=1;aspect=fixed;" parent="1" vertex="1">
          <mxGeometry x="40" y="30" width="80" height="80" as="geometry" />
        </mxCell>
        <mxCell id="vJ7YU2dV-ODnhvSaT7o8-1" value="" style="shape=image;verticalLabelPosition=bottom;verticalAlign=top;imageAspect=0;aspect=fixed;image=data:image/png,iVBORw0KGgoAAAANSUhEUgAAAggAAAHqCAYAAABhmLZ3AAAAAXNSR0IArs4c6QAAIABJREFUeF7sfQe8XUW1/pq9z7k1Nz0EEogJSWjh0UJHNEgNRalBAQHpIiBIEZUSBcSCgID4fD5EeYr/B8+ChQ4JSu/Cowgo8JCWkHJzc8spe8//t2fPzFkze3Y799zcNnk/H/ecM/WbmbW+WWvNDAH7zyJgEbAIWAQSEaD0CBdWrRoDTsupQP2vA8BN8BH9Opl7V8lCZxEYqQiQkdox2y+LgEXAItBfBCgFAmv3mQLQ9Anw6IUAMJ+VSemD4HtnkUn3vNTfOmx+i8BQRcAShKE6MrZdFgGLwKAiQN87qA3G0O0A6OfBJ0cB0DGyQZS+Bb5/Gpl09z2D2khbuUVgABGwBGEAwbVFWwQsAsMTAbp83w2g2T0GwDkaKJ0HFApaTzzw/a/DhN7rCFnaNzx7aVttEUhGwBIEO0MsAhYBiwBCgK7ef3sgzqUAdFcAMhEoNeND6W/Bp18mk+76lwXQIjASEbAEYSSOqu2TRcAikBsB+tIWTTB95rngktOBkg0AwAU/hhwEpVNYDV5lPzL53idyV2YzWASGAQKWIAyDQbJNtAhYBAYWAbpm/03Ad34MDiwAAIfVFnCDOOuB+N3zvwddvZeSWdbNMLAjZEsfDAQsQRgM1G2dFgGLwKAjwE4owKfHwJrqgQBwKRBnU9moLOQgTPxPqJZ3J1Pue2/QO2QbYBFoMAKWIDQYUFucRcAiMDwQoKsXzgYgJwJxTgQC6zGLgfiXZjnATMKvnEsm3Xf18Oi1baVFIDsCliBkx8qmtAhYBEYAApSCA6v22w8KxROB0k8DaCcUMpMDySb+CeXCrmTqHz4cAfDYLlgEJAKWINjJYBGwCIwaBOiKhWPBcU4GB04FIHMjHc9PDsIiPP9iMvnuy0cNkLajowIBSxBGxTDbTloELAJ0+aenQbF6MRBnEQBMzEwOYg8yKD+8DRVvL7LePW9YpC0CIwUBSxBGykjaflgELAKxCNCuAzaHKnwfHNgHgBSNCU3Wg4RTjuExB/GPVsDzbyST7znbDoNFYKQgYAnCSBlJ2w+LgEUgahR4en4RNp68MzjudUCcbeIZhMYEEolBUIoxwetAK18gE+97xA6FRWAkIGAJwkgYRdsHi4BFIEoOPtinHVqdQwDc7wKQaYkQCetBKjGIJQfBD2Xw/VsAyLlk0l1r7JBYBIY7ApYgDPcRtO23CFgETORgPWhqOhEc+g0gpD2VHPSPGNSKp/RtqPoXwJSxvyHkds8OjUVgOCNgCcJwHj3bdouARSBKDjoPnAs+PQtIcMcBtCaTg5TbElnmTOyBV0MpULgDKuVzydQH/mmHxyIwnBGwBGE4j55tu0XAIqAgQFct3BaAXATE2Q8ItEXhMcQaGPV/HlIQqaULvOqF0FX+mb2C2U7Q4YyAJQjDefRs2y0CFgGJAF2179YA7g/BgV2BxpxU0PFSeEC/SIFask9fh4q3L1n/3jftEFkEhisCliAM15Gz7bYIWARq5GD5npuA2/zf4JD4kwomvJIuRuovvtXqT2DyvV8kJJePor+12vwWgYYhYAlCw6C0BVkELALrGgG6ZEEBtm3aGmjhFiBki1z1DyQ5CDgBpT54sCeZcvfSXO2yiS0CQwQBSxCGyEDYZlgELAL5EKCvL2yGCWQ/cOE6IGRGvtxZghNzl8gzBOSA/+nTl6C3vC/Z6MF36y3N5rMIDBYCliAMFvK2XouARaBuBOibC1pgTNshUIDLgJDZuQsaMOsBIgeiUZ53Lax2LyRz7yrlbqfNYBEYRAQsQRhE8G3VFgGLQH4EmOVgEhwOjnMRAGwCAE6uUgaEHHCTgSnOkdL3gVa/SCbff0eudtrEFoFBRsAShEEeAFu9RcAikB0BSucXYeV6nwHH+TYQCCwH+chBUFXDCUICOQi75oHn3QuV6hfJtAffzt5bm9IiMLgIWIIwuPjb2i0CFoGMCFC62IGVj+8NxLkJHHZ1cn75te7JQdg7SnsAvO/AC5UryR5Lqxm7bJNZBAYVgfwLbFCbayu3CFgERiMClAKBlQt3AoDfgutsUDcGDSMIyJeQ9foE338FAM6CSfc8YI8+1j2CNuM6RMAShHUItq3KImARyI8AIwcr9tkRnMKvjAGJaVJMKvCsmjytjakuBXMBATmh9BZocb9Kxtz5QVot9neLwGAjkLa0Brt9tn6LgEVglCNAV+67O0DwXHPOS5AiuDWCINRLDnhjqL8WqH8evL3yZ2T7ZyqjfGht94c4ApYgDPEBss2zCIxmBOiyvT4OheKVQJxdAMDtHxb1EIQ6XAl6IxULBrMivA693uFkowde6F9/bG6LwMAiYAnCwOJrS7cIWATqRIB+uOdWjBw4ZG+AjG8r1FlXLZuBRNTDK0SBSl6/Vo0Pf4b/LR1sAxb7PWC2gAFEwBKEAQTXFm0RsAjUhwBdvu8G4JDLwCHHNo4c5ND0OZLG9jCOHIQZqlCpXkrWf+Db9SFkc1kEBh4BSxAGHmNbg0XAIpADAbpswRgotpwNQL4FQBokoww3HOZoU+6kyeSAF0dXQ191TzL9wWdzl28zWATWAQINWnzroKW2CouARWDEI0Cfnl+Ej005AQpwA4BTaFiHG3a8MUOLMpEDVo4PVX8JgH80mfrAhxlKtkksAusUAUsQ1inctjKLgEUgDgF2nHH5PoeB6/4MHNLRMKTWFTlQiEHwIcVPEf7cCR69Fkj5KrLe0rUN67MtyCLQAAQsQWgAiLYIi4BFoP8I0A/33gcKhZ+CU8fLjEnVrwuCUB85CFtN6Rvge+fDy96fbNBi/+eRLaFxCFiC0DgsbUkWAYtAnQjQd/faFloLNwIhO9dzg3JstQNNDiJGAnRSIdZUEvnBB9+/DyrVL5PpS/5eJ4Q2m0Wg4QhYgtBwSG2BFgGLQB4E6LL91wenej24zsEAhMcdNEg0DSRBaAw5EFaEEvj+dVAoXk4m3bUmD342rUVgoBBo0CocqObZci0CFoGRjAB976A2KJa/Ba57JgA0KX77RhxgGAiCUA8xEIMYG5bALlCqgO8fQKY+cN9IHnPbt+GDgCUIw2esbEstAiMKAUoXFODDwiIoFH4AjrM+30qrfewPSWgkOTAq9gyBiKnEIEiACvfom9DbtxuZ+df3R9Rg284MSwQsQRiWw2YbbREY3gjQxeDAaXvtCK57IzjOtuHDzcH/M2liUl9YAnscqa5HoY1cRf0yx01KiUkNVzlX/HvAp0eTDR9YMbxH2bZ+uCNgCcJwH0HbfovAMESAfrjnVCDkR+AWDlO0P7MYxJCE4Ps8EitDvGA26HB7chADzTgQrSvunQcK4NEroNJ9Bdnosd5sbbSpLAKNRyDPcmt87bZEi4BFYNQhwO47WLbX96DgnANA3FDrI1HUEKkUd3NilsJ1EpCTFKQSAy2BqXhKl4FPzyHr33/rqJsgtsNDBoEsq2XINNY2xCJgERj+CNB/fep4aC5eBwTCy5CYFHJQx7hfoD/SiTbMfJAf8FQ+EWc5UKrywaNPged9hUx/8NH8jbA5LAL9R6A/S7D/tdsSLAIWgVGFAH1n77nQAkuAONOVjkdIQqDgg9gDUl8cwWAQhFRikMFyoM6GKlT9W6FUutAGLY6qZTJkOmsJwpAZCtsQi8DIRoC+ulsHjG/9NRSchaHJwCB+iLAkiBMCmvuBWRxSIg+Zol6HFoRMxCA3OQiJEfWr4PkXg9f7QxuPMLLXx1DsnSUIQ3FUbJssAiMMAfrmghZocr4MTcWvAqETaqcLYkSQ8rVOErhGjjsCyY43Ztba9SOdq4pMboVaW1hykYe+Cz49Df4y8S6y6Hav/gbbnBaBfAhYgpAPL5vaImARyIkApeDAsgWfAlK8BoizZWgB4PpPHm+MKVRKKEwShHWAuyD0rANNEOolBpoRIRZGhRzwVJ7/LJT9Y8nHlryUE36b3CJQNwKWINQNnc1oEbAIZEGAvrfXDHDod8FxFwHh0YhC8khli+86EF9q4olZDMQxSJyGp2P/YTcS1jbfjZBwuQiBQETLlLUMEzkQRXreH6Da+wWy0WMrs+Bu01gE+otAI5ZPf9tg81sELAIjFAHmWmghJ4Bb+DYQMo4pb2w1EPqe/ZeTBJkmAEUXUYJIYI2LrQucIGTBExedVYFnKVd3b2QuO+5oJq+Ugg++dyOsP+lcQm4vZ2qKTWQR6AcCliD0Azyb1SJgEUhGgL6/2zwgLXeC485gKQP3gtFqIIwDgjHwco0uiDgiwfM28orlXANsYAKZyQF79jm+NvkTXQMVbzHZcMk1uZpmE1sE6kDAEoQ6QLNZLAIWgWwI0Hf3/D0Unc+w1MJCIG5EZEpPu0ZZWBLwLjxXnEKKos3W7Jyp+kkMGDYpTAL/TOnbUKqcST720B9zNtQmtwjkQsAShFxw2cQWAYtAVgTom7t/Ftqaf83uMhD/AkUXuU7ZRBJMtdT5JkPWBudOF6PUc1kNGDtIrjnyMwXw6VLo9s6E2UtfIiStgNwdsxksAgwBSxDsRLAIWAQajgB9Y8EcaHMeBtedKgvHgYkRyYOUPyMRcU3Sgxm1hGIn3p9XIFPRaAAxkLygDnIQ5vXA934JPr2IbLj0X6lNtgksAnUgYAlCHaDZLBYBi0A8AvS9+W1QHftjaHaPDVPpRxbwqQNcDiYJQTBjnHhC5enuB8VU3yiLQ14lnmF2JJ1WENlNlgNcNKVd4HlXQ1flB2SzR7oy1GqTWARyIWAJQi64bGKLgEUgDQH6rz0WgeveAASm1PiBThI4cdAlEItTECYEfuJBxi4k1CyIQsSXL8pLa3WO3/O4EEzFpsUbhBYC7V9MnAOlH0K5ejH52EM/zdEDm9QikAkBSxAywWQTWQQsAlkQoG/tOAua2m8Ex90bAFw1j0lZa64FkQFLJhm4yH+Uv2knHrBiVSQbT9cfaddfUiDblqGgrORAYEXpe9BVOpRs8vATWcbIprEIZEWgP0smax02nUXAIjAKEGDPOP/rk+eD614MhIwxuwhSSEKcko8lCfpGGwUwpHko4sYkgw7PPZxZXApGy4HhS1P7PG859HrzyZy/vJO7bTaDRSAGAUsQ7NSwCFgEGoIA/ccnd4Bm53pwnZ1kgUocgVDeBpKA3QhMKgX3JcQdgUTNjbgotAjHwZZwWYlBf8iBgKPqPQp9pUPInEeXNWRAbSGjHoHBXj6jfgAsABaBkYAAe6mxvXAeOO5FQIijnkLQgwqDHiPRI39GhEBeqGQ63WBwLbBnofklTHrgoqwq8XhEY4chDzFoBDlghAr6oFq9BXrWfoNs+sxHje2QLW00ImAJwmgcddtni0ADEWCuhf/bfVdw3ZvBceYalT8+yaDEEPCGREgCtqNnPAKpZYmclRSPRA306e6BIAexJEIMJCdHlK6AavVa8JwbyKylqxs4zLaoUYiAJQijcNBtly0CjUSAvrNLK3jFq6BQOJ3pXn0HrxkMlLpNRxnldxGNH202lmDsdIAm0mRbUFmm9vUHkLyEAOl0c7UxJxZi26i94eDTt6FS/TpU3vsNmftGqT9ds3lHNwKWIIzu8be9twj0GwH65s47QbH1TiBkoiwsTgmbJE7cfQeK8ucsA3+nexr0h6BEY2KlXAPuSchyZNGEsDEQso4LmOLq971XoERPhVseeoQsBvE+dr/H2hYwuhCwBGF0jbftrUWg4QjQtz5+JxSKCyPvKjCdHtHy5guQ0kiCvBpBu0lRnG4I/utjK4FBtBmlXU6SIKvox1GH2Kz9tBwoI0spePQFIN5BZLo92dDwST9KCrQEYZQMtO2mRWAgEKB/32l/aG/7c61sg8LNrJjjnnJGLceEgH2NLlMyXpKk9TquLdxAEcGoEYQAF9ooywHregpJCX6ueo9A17JPkXkv2+ehB2IBjPAyLUEY4QNsu2cRGCgE6EtbjIH2KQ9DwdlarSNhV65IHP7B9J1Q/EwRxpQnAxu5pSKwIEQkmuHthiSSMFDvHjXMasCRzkIOxKCUK7fCGv8MstXDqwZqLthyRyYCliCMzHG1vbIIDDgC9LVdToXWpqsBnDZWmVH5C82IfjQSgpgHmiQJSCMJvB4jmRBEJEtb+uE6iEN8XZMDblgJm8MqL0G5ch2soVdakjDgy2JEVWAJwogaTtsZi8C6QYD+fZfp0FS8FVyyO5AggEATJTJIkWtH+bOJKGhxCsaTDSZLAg9MYG4HHMkfR0Y4Nqa2RAhOA3DMQwwUpZ5Qd5rlIEoOOE+gy6HqXw6rV91Etn6huwG9s0WMAgQsQRgFg2y7aBFoNAL0jd3OgKL7TSBOeHJBEgJUk04SxE+YACjKWteoJquB/uIjJw4R10AKSYhrs2xjnYglGiASfkw1XGhHGeOalxQz4flvQrX6DehZ+Rsbk1Dn+I6ybJYgjLIBt921CPQXAfraDhtDsfkGcN19AYgjy4uQBHQvgS5pjKcWMrzTINkIskywP/lNinHuCxnTEGfpwFtvU2xE0q4+DdH+EAPerlQCob8AaToRQSn49CWoemfAL/76V3v8MW3c7O+WINg5YBGwCORCgL6x6/FQcH8QWg8MO/W4i44SAwi1JqTFKSDuIXPiEAP5u+6+kKaDWoUKscGKNeUIZKrSznDKIAvyudwKmOigwmuWBQq+/ziU6JH2Yacs4I/uNJYgjO7xt723CORCgMUeFNzvQcE9StOw4Ud2nXGgWGV0ISo/xmVg0NmqVUJLgItW9D+KSRB6MlbC6W3RTzuIFiBrQiohEHkaRAxYHzJUqiSJSa9/XS7dC+3Fw8h6S9fmmgA28ahCwBKEUTXctrMWgfoRoBQc+Odu+4Hj/ic4ZAO1JKS19SBAkzUg8h0+omhyAySwCBykiK0B7HseH2GyODAig3thcnEksRcTlo0iBxljDhSDQUZywJpNAcqV/wdVchaZ+9fl9c8Km3MkI2AJwkgeXds3i0ADEaBvbjMevNYroVA8zXhrol6XrqyjZgGkoIU2x8cdDeKJWSYMwYxxlyQJ8iCYQCPcHBFM8+7y0wZlHZADYZ0oV38ALlxBPmbvSEgbldH4uyUIo3HUbZ8tAnUgQF/bdRsoOHcCcTZQTy2I3b9JocftwLXdu3BNREhGXJlaQi10INwkczKhkApDzIQSR4EDGQyMh2XPQAhE1hxJwywDTQ60Oqi/Bjz/u9DtXkfmWXdDHctiRGexBGFED6/tnEWgcQjQN3a9AtzC16UiY4o3wbUgqsaWBKU5BpN+7OkGXeNqBMP0kiOuSzSTcYY4koC0eZ42myAeSGKgcJS8JyR4epzN9z+AincZ+B03kbl32dcfG7dkhn1JliAM+yG0HbAIDDwC9LYNW2G7Ge+C604ISQHXMIFCZ/593fRvUMJpDzJJQmESS/w7ZQeP04mdN37PQStHjzdQCEzwQetDLEmIufUxNynQSE/W/LUTCfEDbyzLQA4E2/P8t8CvnANPTf8TWXS7N/AzytYwHBCwBGE4jFKONtLF4MDEiWNg7NjDwKl2kGP/dV2O7DapRcCIAH1hhwthTMuV8kcTITD5941KWChYLXIwVYGjpsm0/A8lBiHh0SfBAUzKX36nadcIsTFGPNYxc2IVdkbFnycokZsdkkiIV30ZfO9oMuvR5+vojM0yAhGwBGGEDCq9esNWmOzNBHD2g1b4JhRpM1TgenLEe+eNkC7abgwSAuxRpuL4f4LrTgk9Csh6oLQp4RijQhSENcAUOBATpJhgVJCXJBnbotWBPCKROIpYC4bJJdFfkpCTHEQUex3kAA2dmQUCQKXyCPje8WTOY28M0nSz1Q4hBCxBGEKDUU9T6E+gCM4Gc6Dd2RcK9EvQ7M9m9l4KPVCGa8ii9y+qp1ybxyIgEKD/O/84aG39ua5/ZfyBvvNPsiSwGw1FAj0GweQSMLgu4qSWKb4wri3YkiAfeIohE6zjmCTEEJtMUyYnMTAq9QEiB4L4Vap3Q6n6RbL5429l6pJNNGIRsARhGA8t/cnG46Ct90AowvFQhN3Aoa1MjoWjugbK9DvkiA9rZuFh3Ffb9MFBgL4+pxn8yb8D111YU+y8LdjMn+QeYPpMM/vH+vcNVgijlBJWCElj1MMFugsC63gRpBghNrriNREW0zik3LgoFG/WGANchZInb0AiYhdpdbPfEXmpVH8Nnd3nke2ee29wZp6tdSggYAnCUBiFOtpAr99oGoz1Loc2f09w6QzFXBqO6iqo0m+Swz/8YR3F2ywWAYYAfWHbT0BLy6/BIdPUuw905amb4VNEiySyCb4D+RM35ydZJoJjknFK0PQ4VBxJkO4TMQH6QxLqsBYMNjmQfIuWoeLdBN2d3yBbvbjKLofRiYAlCMNw3OmPNtoHJpWuApduBi4pqjs7PqQOfAQV/xJy+LIfD8Mu2iYPEQToyzv8CAruSUCcpsitg/rlQ3owX5xVAeteZurXrQFiuy9iHTRlbSw3IAhxREKcstBBxfUa/BMmKwS2RETGSCsvbdceN8ZZ4w3Qpj9aVA5ygq0HuCDf7wLPux66ur5tn4geIgtyHTfDEoR1DHh/qqNXQyt0TD8HxpXPAZdODsvi995jv274w3Kg9Bvk0A9/2p86bd7RiwB9fNstYFzzz6BAdpJzTVGQtYccJXkwHWVM2vnL8lJIgp5OaQdjGdyCEBdAKdZKAkkICEac60PpV0odeS5S0pszVMiBIB++vwoq/sXw3MqfkkUvl0fvahidPbcEYRiMOzu6OG79GTCeXgSt/jFQ8JsVc6+4sAaTBEqXAfgXkkOX3zwMumibOAQRoK/seBw47pVAIHx3QVee7LOBJDDSqu3I85AEVhkOZkTgGNvA3edSwfP0qZcu6eWitxtUc4koEMUqaqcYIlaNnOaDPMRAKO/YOZPRehBnORDlijb5/r+gWjkT3mn+E9ljaXUITlXbpAFCwBKEAQK2UcWyUwr++rtBq/dVaPH3BYdLLubDRcFROkkg8AH49Kvk0GW3NKottpzRgwB9ev44aHO+D657EptoQlKkkQSp2GNOKIhylMDFmv5VbmY0kRIxBJEdfXBhE9Ky2D0QR07iwh+k7k8Rj7HWBo08pE2boUwORNt97yWoVL9E5j72UFp37O8jBwFLEIbwWNLF09pgPe8oaPfOhmZ/ntzBiVFjmzdOEpSjYyzB++BVLyCHr/jlEO6ibdoQRYC+uM2uUGi6ERxn67CJyAVgUozy2mUfnVgIJiiOI9DcCBGSkBBDYHpsSScJvGoFUtFWXdLho40ijSEMIfVRKmOcQoKrQh9vhRxksDokJmmw5UBva6X6NPR5p5B5jz03RKetbVaDEbAEocGANqo4esWsqTCp+wJoqx4LRTpZBiJigcesCIIk4KNWnCBQ/zxy2Ee3NqpNtpzRgQBdAgWYst0XwC3+EAhprfEDTcEr7zDov6F5KXf9iGhEtTjnIUmuCU1c4Y/B335CbIDpJIPpHYnYgMmgeWlPUgeN0DW4CRc9WYOIAW9i6izN6lowFVTxHoFy6QSy+ZOvpdZjEwx7BCxBGIJDSK+auRmMX7sYmryDoUCbQwHNgxGljBWWgziSAO+DT88lh3/06yHYRdukIYwAfXHLqUCavwtu8TjFFa9YDrQLj6TyRCJFptfvCUi5N0DflStSKoEkGK9bRkBnCqBEJCZSr6bI85ZnHPNhRA4YAaEAVe/P0Fc6icx76oMhPI1t0xqAgCUIDQCxUUWw/cn3p+8M43uuhFZvVyBOURXQTmgxwAI0sOIqn+WH9wHo+eTQj37VqPbZckYHAvT57beFIvwJXHcaO4IoAw6F8kTf6e6GuM8RZaq/xmh4AEkvC5NjZafOy1IIQoyiz/pgFHZpJIYUxFzsFMkT8XFkm0xZXArrwnKAW+uzOxL+Gzp7zyTbP9OZrSM21XBEwBKEITJq9AhwYcdpe8D4vuugtbJ56FLgEeJilGQgIo4oJwAO8nmKwEUKHwD1z7cxCENkgIdJM+iSBQWYuPpoKDaFVys7QfAfN50rJn19J2+yHOi797QbB2PM8Xl26vpJBlPsAuIOtRYmvCPBup8UV4DzGgMZtBMg/bUaaIwgQ3Ehn0pImKUMXIRPe6HqXwOdPVeQ7Z/pGSbT2zYzJwKWIOQEbCCS01PmF2GL/zsY2qs/gGZvI7aQmWWAkwRJEPAOTjt2Ji0J4l6E4BSDfyE5fMUvBqLNQ71MumRmC0Nrj7f6hnpbh1L72MNMXut/QaFwcOyjTNhipZvhI3MVkwTxNzeDxUofA1EwnVrQFT1WcnFuCVOden+U3T9qiyAJMsARj5woJOkuBdHgFG2cqqwzBiOK5qWRgxTuoMxP3DafLgPPuxjcwi1k1lK7zobSQm5QWyxBaBCQ9RZDL9i0A6avOBpaq9+Bluq4SLR49PgiZwYoBkGcZJBH0pkADi5K+jo54qP/rLdtwzEfvWWrdphE50Nz07bQ3fkX8pk3bMR1joGkT28xA5rbXgTHGcuyxSl8rFQVRZ0SbxCROHFkQbdIIOVqUv5il680Wn8ZEmk3VobB6oHJATec6EWybCKYUScpCmdIEK+mn1KJAdLkmdIKo0F/CQnvVKQYAuD5r0O1eiG8W/yDvSMhx0IbJkktQRjEgaKLN5kMk1aeBS3lr0GTX6gJIrRrYfJTBCjinRUXrJgU4HgECivBcy4ln11+wyB2cZ1VTW/bsBVaJu4Cbc37AKWHQNGdDKs655NDXrUv0uUYBfrsVsdCczO3Omk7eV2pSuWo7/hNyp03QpQRUfJxhABtg9PqZ/pTP8mATP66tDOVJxZhnGQ0kRPRxNg8+g+JQQ0xo4W0c6PIQdZyEC8JG6f1p+r9L/RVv0zmPfpgjqlmkw4DBCxBGKRBoovnbAiTV50PLZUTwfXalTsOhDmV/ZebLCMkQQhlsWPjnwOfcfhwzWookyvI0R9dNUhdXCfV0tvAhcK8LaG1+Thw3X3AdTYBQorgV/4Gez2zbeBBXycNGSGV0Oe2eRCKxT1HehJSAAAgAElEQVRq3cGXcRk0Ieep0d04AiT2jQYRXCh0jn4rYzCP0ekd00kJnaQwgsAVsKwXWw4MIs8Y44DNB1q/xU8KwdD8G5FqMImKiVOInUODTA7SCELwe9X/G6ztPpJs/fTfR8hSsN0wxA1bUNYBAvTCmTNhg65LoK1yJLh+m4wSl9YCxNIxSQiUv3K1rYEkyB0a7YKS811yzPIr1kGXBqUK+ovNJsHE1nOhpXkRAJ0GDtTO7FfLV5J9nvv6oDRsmFZKl2wzHiY5HwBxmyMPM2GFp++8ld90awIGQ3M/GMtBJIEp+uB//PSOoqdNextxm6LhvgJ95x+xJsSUp5zgwOtSv5ZZ56GovERrRNIerQ5iIJV5g9wKWciBSFP1noI1XQeQ7Z5bPkyXgG22hoC1IKzjKUEXz1wfOrq/Cx29x4BLndp1ycI0GnPnAQtcFAIWn26IIQmU9ECJXk2OXXHxOu7igFdH75zTDH3NR0JL+7+Dy14ZdFml8jQHAKxdfQz5zN/tEc8co0Gf2OJUaGv79zCLIZYA6UfzuwyoMilZdMJgOhZo2tULooBIgkIQNGWN+4mD8jAJ0UkC7k+kz8gNkGQNEMn0/4ryIm02SWCTGB5G5KBGIjwoV++GyorPknkvr80x9WzSIYqAJQjrcGDoBRtNg0nlq2Bi9+fC+wyQv5SNBIqAFtcoSyHGh0rGGQiSgAWwPMEQmGZLUIbryec/On8ddnHAqqIUCPxqTge0dWwLrvttKDo7g+OIlylq90Mw94rvw6p31ieLPrA7mRwjQp/Z+rdQLB5S021JJEGP1jdYDpJIgq44I+4A07HDmIeh5BoRLzqmKGG9XQpRED8iKwQ+tSB/xv3laY2Bi1jEZjkqqe388zjIMDGKG/c85dUUf7qxWZRLoRsq1RuhsuJbliTkWHxDNKklCOtoYOg5MzaGqX1XwYTuQ0JywGMFxAiIz5gQ5CYJyJoAUIWK82NyzPKz1lEXB6waevPMFhg7cRtwyefBdY8Bh4yVF0YpD1ZxOeZV3iP7PTN9wBo0AgumSzaZDOPbXwbXmRJ2T7dMaX5z7PrSj/0ZYw4MloTI7lqQAr0uDDh2QegvTHJrA9vNa6INWxKMhIDXoZCHGJIgm6PdfxDkjSUJmmaOu7AJty2PMh9QcqAAFp39ejt9/32o+N+GqvtzMm+ptSQMY3lhCcI6GDx63uwtYXLn5TC+7zPMasAIAl904rNYg/I3/gWLO9CPa/FQBPZT4J9FwyjKpcQHj/6UHLPytHXQxQGpglkNbt9uNrhuYHE5EgpO+GBV5H9aIJ1XuY0sfObIAWnUCC2UPrblodDW9AsAMka9vVMyWNXCpets090ApnmpkIKY3bUilbT5z5SRFrjIvhKTwucnGfhnXcLFBiSKhiGrXmSsEy56MrVZz5+lLfXMr6FEDkT7ffoG9FUuArrqd2Tey+V6umXzDD4CliAM8BjQs2duA9O6LoUxfQeCA4VQkMWQBCyL8cgQwxXLWEliklDbAVHw4SZy1MqTB7iLA1I8vWnTDmhv/xw0uQcDkH2lO0ESLGSBYVgg4V3pvYQc+LfLBqRhI7RQ+vS/XQeFYkAmi+rDYEijJynupB26no99RlaCiBTST06YxJRYAMFawib+4PuAJGDSoFvIddKNBtXYVjzoOknQYhXkR73NKJ2J8LMqcrwCiSFMO6iT2xKh9TdpzieV7fkvQF/5ZDLvsSdH6LIZ8d2yBGEAh5ieO2cLmLLqWzCmdCA4NIwMF8pMIQnarjhoE7akRq5YFrsonA9dgiBGlZJfwN9XnkQWQ3UAu9nQoulicGDW1ltDa9NZ4JIDwCGTWS+FAmL44aOfiGwJN03XmkPI4a/8vqENG8GFsVsnx42/Bxxnd0WVYtLF+l9v4KJQyAlKMokkGOvWBgTnx0pLWhZ0EoAySMKif6docvXNE/10Q8TNorsbNLcJ4l21gpWGR64bUHqcxWqgkIiMEzii8BNURBrxCH6v+s9CtXcfsvmTKzK2IDUZfWW/mdDSsprM+v3q1MQ2Qb8QsAShX/DFZ6Znz5wJ6/V8Gzp6Dgcn2JWhHYIgCkL+iFEQpED/zNIhs2rNSoDM7cHvWhAXJf8NPc7J5MSPugaomw0tll43pxnGdRwNLcXF4DrrK7hJrJCykZYDRBIopdDrTSeHPfN+Qxs3ggujj226GzS33gzEmWs83phkOYjcRsiBwhYF+XfMc8k4raKTk25ljFO4vLH44aZYkqCTBo0QyI8m4mDIqz8VHWSTMQmNfio6TTsnP71gnM55yEEW8hH2nUK5+hS8tfpTZN8XuhuxjCqvLtyt0Fq8FkreYljzwb1k+2cqjSjXlhFFwBKEAZgV9Mw5U2BS13dhUs8XwpMK/GlceWoB7fyD+jExkORB5MGCCJ1SEF/LS5UEiUAkgcKf4SNyGjlr5b8GoJsNK5JZDTaYPxVayQ3QVDiU6ZygG8IoInd42AITY0nwq6ug0DSH7PfYyoY1cIQXRJ/8ty9Awb0SCJmqXPXN+h1zLNG04xc4BeOmGQuyBQ3G7ODlbl2rlCngmDZGxowvLFmEH6bApFpfUzpZkb/zP/Q+CrxkPr6GjbrchKtpoglCjBX+MCAHjBqg8SpXfgHvvXNaI95Goa9+uoO2wW1AYE/q0Z86Jfpt2GT79wlZzAd1hC/Yddg9SxAaDDY9c85YGN/1TZjUc3ao4PjDS+yhF91vjirPQhLETks3/caRBA+WwCrndHLmilcb3M2GFMeCEG/edjIUCrsDgZug4I5X7v6PJQnYR41dDADgVZ+EQmFvsv8TaxrSyBFeCCNn+295A7iFU4CQ8D4JPJ8UkoB37XwMpJJGzgljICDSrljqJAUySkWLKtGtDXJ8NIXLLAjI2hRR3sHkykgSdGKgzAlT4CJW6lmONjJtaiZjuN1psQaimLxzttGWA50csM+0C/oq34MPC9eSPfp3soHedoQLO/QdSIvkl0BgDFTpM8SHy6HQcg/Z6PbevN236eMRsAShgbODHj9zPMzouxDG91wArh9iKywCbFelKTNpLcAWBWQ5iNyTgAKvcF5dqDMC4QB48Dh0+18ip3Y+28BuNqQo+pP5RXDJtuCSk6DgHgUutCt4CezykgTq3QJAv0gOsk/QZhkoumTm+jBm7E/AcT4tA2gxKZAKnCtpRWLg0wS8NkX5Sw0f/ih/Qwo0orjxEcWYEwVJJEHUI10MMe2OtEdvE24HQtIoMQ15MTmRCjiBTCQFKGaV0hkMC5E5MRDkwEQQgu88/x0oVy+C4gf/Tea+UcoyP+PS0NcXbkibCteCSw5jRi5K+8Bzvgnl8u1k7l3/6E/ZNm8NgaxTz2KWggA9YdMOmLHyazCmdCEjB0KB6/81Biei3QNLjz+jHYgkBXzYxBFIKeyQoAoEu0+eBc87gxzX9dhQGkB63U5joc37DLjO6eCS7YGQgnQrYFKVShLwbpfjVK1cC5VlXyeL/mV3EhkGnT662a5QLF4PxNlOOQmCSYIsR1NwWFHHKX+TMte/Uz5zgqy3XaSJEBRjwnBHLgi5/riQsU2IcZukol6vqFbvNyYexjAJVBD70+CniCVA+mkM1Pd1QQ5Ec9PmFXYt4LRh0OLz4Fe+Ai9M+wtZdLuXVlQsQaALCt7/dXzOceFqIGRySBKYUeh/oALXw6zmRwipv/x62zXS8lmC0IARpUds2AqbVc6Fjr7zoOCNE7I1N0mQpl2dFCSQBP2iILlzCVrhvAQAZ5KjVy9pQDcbUgT90RbrQ6HtIii6nwaHbKRiRNTrksXsDP6bFJMg/OSBhCiXvwZ+6WqyyJ69zjJg9PEtjgHXDYTsFGnuQroyGpOg7axNJMF086ASyyCUok44+G5fJ7yKMo45SYF34KJ4+bIj1toYFRPhMd3WqCEZp8AjrhXs5tDqlR/zuCBQP7Dkbgg5iMOINzRrHXHkoEYufKj6S8Crnk42f/i1LHM0liS8fvBs2uT9EApwAIqVqRKP/g18ci2UK4E1oV+Wiv60byTktQShn6NIT5lfhEnvngTjSpdAsbq+8vAS09HYN6u7EvBv6OgeW6v6tcs6SUBDF2dJAPJ/4JNzyLGrf9vPbjYkO/3hVsGri7eC684FB1pqF0bh45p1kASGF99CVHuPgENf+C0hwsHckKaPyEJYDMiT884Hx7mS+aTklNIfR0KWKcl+tXmt79L14MYIkUDb6zjrg6hLl1KxcQtIizELmnBRiLbGmAYi5aN3INjV3QZXiphz+swQ95wo3+v4YWWstdlUnrSEKEyp/jkZFzQZq4mzVpXydqqol9IKlL1fQ3n16WTr+k82UHqE67/VewYpkkuAwERBEoKRBwrLoex9E95f+XOy62PWmph1CE1cuM68oz4bCz/82tQDoaN8PTRXZ4TyDC94rPg4XEzxoytl8W4teGxICh4e3CiEpAh4xJ+xUGYkge/AhDD2SCdQ91xy/MqbBnOw6OLFDkz6w3HQ0vRDANLBHlUK/imnFBpBEgKV5+9OPvP0I4PZ3+FSN737YxvAmLbvQHPx2Kg+00hCROEnKD1F4aPjffpxQ/10QixRSIn4N15bzNdCxMyfpd0xpnzTiYeIZYQr/wgXQfVKC4epHt0FgUZGKbPOvV1echBU3zjrAZ5mFNZWLiNb/fXS/qwX+tKn59Bx8HMgdDdh7RLTgfrg07J3gdPbdj2Zd7u9zbEOoOucZXXUNMKysOjv0vSdoK30Y2gtbS30djaSwAVDoCjl6QahILEPFpEEfAJCkAhlVyaEqHDGsWNGVfCcC8jxq68ZDPgZRhN3mgYunAcuOQEc6JAXHomXFwWvETMx+K/YwOnWFy57Y90Nvl8G8D5JDnv28cHo73Crkz66yWbgNF0PDtmrNn+FIuMDE7d7x3NPEmOcV6CBSavgsPpNiWJgDYGM8qcYxakrTf0zvg9BL8ukcPF3RumIX1JFfWRpsSY1tReTBHT7YxyZQLBE5paOf5bJN3TIQdja4M6SNaVD4PVH/0QWQd3xCN6bB15KmkjwKF07donJISnDD8Hxvkk+9udVWWCyaWoIWIJQ52ygZ8zcDCZ3/xjaSwuUS5DCmV+L2BazVFgNxGfhFoiQhDhXg8kagUiBThpEoKMPF8M/13xnXd+mSBcvKMD47m2h4FwADjkEHOIq71CYjnzqJMFEHpJIgud1QrW6N/ns80/VOayjKhv96xYfhwL8FzjuTOV4qURBv3cj0DDIsiCVFCcBWAFLyaKJGDGmed5uMEopE8ngDcDzyDMEPZqUaywxQEpd4qLHKSDLH4451GMxWDJsDcFXRPPCFdxS3A9izWeZtYNFDnTehOdW8HfZXwF95YNh60ceISSzrULpMX3xkM3pOO/34MIm+LioMm1K/i0AhUvJrN+/lQUumyZEwBKEOmYCPWnWVNig58fQ0Ru+zMiQRP5O02d5WRKKL2DCUuz4kSBTHnQyEQPs/9X8o6JMEdZbIT+CXnIxOb1znbFnRg7auw+FZvcscGC3mivBcA8EJgHib0wCgr/TLAkive+9A37l02TR88/XMayjKgtTTQ/POwhc+B8ghN/0iU+FYDjEHBNzXN9Fm5RoTDAhVt5Y/GDFmJoGtU1X9hHlL56AjrnwSeumMglMJEd+h+IUlCOKukg1HW1McS3EtimmLNNlVriMgSQHQd1JLoikusPffPC8v0KffybZ6i8v1rsI6T8Ouoa2wNm1/CFWaDQq4MFt4Fe+TT5218v11jPa8lmCkHPE6elTxvjj3evJ2NLxxAkuWsHWgowkgckWwxsCQtHF3bioK1CZ3kASxE6vQv4HKs655NRV/5ezq3Ulp9/fqh2g5XwokmPBdWaFgYiGvkpiEEMaZN+40hIuCUxrgzJwHIPvvQi0+lmy6DkrAFJGj72/UGg6HQrFH0ReA9V9+ljpYgUZ2XUbSIEiYQxEwliXIN2iE2nl8kmh1yWsaLqbAc8t/XpkVmUGMsHSBdaUYM3rO/04kmBwQZjwkWPHzRERKW0iCiaSFhc/kCL2s8YcMDGWUFZsORqpoLQXqv6tsLp3Mdn5ibpufaWvL5xNmwsvgAttuptBGnUo9IJH/wAluIzM/WNwwsv+S0HAEoQcU4TOn1+E/d67BNpL54Lrt4ayJFB+mBhofyu7IeQ+UJ555gteIQaoHJ0YKGUKCwMiCfJ3J5Bd90GFnklO7Pp7jq7WlZR+bbNJMHHs1VBwg+uSx4S3SKK+xZKCHCQBC3fxtyAJ1H8UCDmeHP7E63V1YBRlon+dMQFo6/egWDhJxoUgfZyoJNNIgl4OJnWmOwki+lT7Is1KoO/0DfqZxfoY70NAjYsQDG1CBGSGFROJfNSKNp16QIHJslhDP6VbIkc8g16eKHZALQcp5ICRB9OC4o3Tf/NpJ5T9y6CzdGO9pw68fxx4A2khXwprDeqpbd4k0oIkgPcNMsNeqJQm8ixBSEMI/U7P3+gEGNdzORS8DVTXQl4rAnItYGUviQC6lhkrRD1t5DeDf9gnL4MPJ5AT1jyRo6u5k9LF282B1sL14Dp7yWetWX94X8QpjIEkCUDvhQI5lRzyuPUzpowgfWT2egBNNwMh+9dO1RgUVuSEgO77T3E3GJWuVg+Lw4nZFeOkEWuDiUigjuP0ylHBFAIiOQNPp/eBVYHWvHL3CGZHpvz6wGhpuF5TdX5cP5PaF1NP0rxolOUglhxwYOPq8fwPoc87AX77l7vJ4vzHlOk7R0yk0LuMxTsZuB36qgIVehv0kbPJpn/8KLewG0UZLEHIMNhBNH511Yw9C5N6roEmb15IULFZEVkR8G8MXT1gEccroJ0zVvb6tczBb8aXHpEJkilern0xkfCcLvBgETlpzd0Zupo7CTupADvtCM3kB1Agu6ouBWQ9MFoStPiKtMBFQS50LCTp8P4ATXAGOfipd3J3ZJRloA9tOgsceBhcd1o4n+X/U03sioJGkzTyPS5Dm4dYZ2LNZypbl0hJBEU0XOYxXDok+hVxM2iEROk/b2Tsd2iyCIVudJXg9x6EckxzD5gCFw1imn0lXsXC7TGJ9AxiPg85qCvuIIUcCFJR9p+AauUostXD/6xnSVbfOuC/nKJzjClvZCr1+TcB6T6DzFraV09doyFPhpkzGmCI7yNbrl+etQkd33MVaS4fWLvcR7caGE4uSHmKyYSBNAgFl0QSpBJEbZWxDGgnoZOEgKH4cCS8vfY39bDypNFnl0RNc/aEonM5uM58ho2MCTC4UxpJEnQ8GAT+HUDpmeRzliCkrVr60NzNwXFfAJcUjC84SqVu8sfziRoXPyAVK84bs9s1EhBNAUd26CiTrsTx+yUKCEKT4y8zxhpESAsmUynKmd2dgB8ZjCFPkfsURKV6XzW2pVzMFINx6mRIS6D9nhR3IBR9pEjetjgigr/v9X4FXaWT63E10NcP2oe2wO+BQGuaR4lt3sr0evBKF5PZ93fmRGFUJLcEIWWY6TkbToQ271JoqZwBBS/cu0Z2LMIqUIerAZMCXekJSwLeMZvIhDghIctCQij4s8+5GOiYq8mp7/U0albTxVs0AXQsApdcAi6ZK4lTQ0iCblnApzYSfgN6B4BvCUKGQab3z9wPWlrvqs1l3XVgUMImZS6/05QTJgmKTstwukF3N2ASYJJYEZLAK9QJjCEMQQkeiOtLDB+IPGHN0sWIVOXrBJIg6pJtjemwMhZxYjzu1AOaILksB/XGHfBOZT3t4FMKfd65sIJcT/ZYWs0wnWUS+ub+61NwfgVF8ilVVtdKwdMluIqBePQS6Oq+hszr3yuTedo5XNJagpBGEC6cfg60lRZDwR8bTjjdtSCEUfBf8Xys+C7pVAP2YcYoPUkG0CkASQKwe0EzrbJ8SAh55JfQA2eTM7pWNGJi0nN2aYUx9Exogq+AQ6bKhYgJjtGSwPHLFLhowCRCpnQXjSUIWceX3j/r69DcfEUtlgbtWOW808SDfCsE1xJDLLCyTYtjiCUEeP1oBCTrSYM4hY2VPqtfW6vG7adOmlAhSZLUSGAkyCGYIj8+VRF8x5qVIT4DFxIhI6ZjlTluSBTDXZflICc5EP3w/LXQC8eSbR78XdY5HaR7/c6FzRtv6pxIis614EBRRkqahk7g7sNqqMBigLU/se4GFW1LEBJmHz1lzj4wvfMXUPDWVxaxfmpBytZgNWunD5RgJhx/EJRoiE8wWQtY+TpJiLtQCQlSQRI85zl2P8DJvXUdIcIQ0dMXjIH1er8BjnMaODBexYULIv0mRHnMkQs6dmQxw+mGQDDq1zLHkQTWEP8OcKyLIYtApUvnXA1u4RyZVugroaylUtMkq658RDrEL5C248oNkVVcoSwLbe0VYoF6gr/HCjWiPJOUaczJADGJ9WvS00iCbAfGyHDCwZRO1mkSwRoZYkSB90uxgmQlLDq5GsrkAA1ulT4LnX2nkp0eeTrLnJY85vWF20KT8x80eClW/NO5rl4ghXfAoxfD8g9uJds/U8lT30hOawlCzOjSMzadBhM7n4KmyrRQThjcB1JZ6TEGPrpJUd+ZaIpeJwlCUCukAB2RwhsPrHgVAqGRBI/0QMXZhpy2pl/H/+jincYCkCAs8WR2jBELZ6EosEIP8OmvJUEnCRGCgE6EUO8P4MIZNgYhXWTRpXN/A657qJJSJwkMaywiBKnTypdpsDVB5BPzX1dS6Par2DcZ+GBrTYi6BXRFyTRq2EhJdMTf/OKkuPcbkuqKVfQCJ82GbqrDaE3JQRIiCi+BJChpEf5Dxa3Axao6m1B/fKhCpfob6Oo9hez8xJr0WR2moH/bp90fX7yYuOSCiO3EwJV4uQEqL0O1+mWYcfeD9d7qmLWNwyWdJQiGkaIL5zTTrXvvJO19n1KPM2JfOBZAuiUAuRqEopfCJcGKYFJ+UvELMyjafbP02JKAyYdYCVxo9zoHkS92/aneicnIgQ9BvME5QIKX/9BOScyigSQJop/MOmG6NyH4zr8ToHw6Ofq5t+vt52jJRx+c8w8oFjaO9NdEEoSm1cdZlx7CKlTTzLWxMpYRfImO5prM6SwOJ+XEASYBeJ3pylQE9EkFmXCiQCnHpFWQW0KCGJdOQ9lEEuLcCIrc0GIAJP7aQOh4JBGbtAlft1uBV5o17kDHUOTz6Rooe5fBb5ZenSfImv7jgENpkQRuho2MXTSGZ1AAj/4FgJ5g70gIUbMEQZs99Mw5zdBWOhfa+y4E4vPHhXgifLmR8b0FkS74LyYJuhUBKXaWxXACQprg0e/6tcxSYCeQBCbwCUCfezU5bc25afLA9Ds9Z5eJ0FE9G1znG+GzwEIQaiQBC6yBsCRESAImSOzxlwfB9U8mRz9V1xGperAZrnnokjldUCiMiROe4T0zhoBCZYedohAju3cuchSpwxmJ/p1CRjRRFfkN/S5/M4g2sRbwM9CxdxjgtWwoHwMX6Y8uWbMQBxMOGl5xgYtGQhDT/1wiv55rlBEr6y85EEVV6YvQWz4Htv3rkqzPuNMX9tyYdrTcCEWyj1nPUSCSqGkNrdKfA5Cv2MedLEFQ5GNwpt/rnHWA29H9Ayj4YWR+IhGIsSKwdc3jEbASx3IuEhSVRBJwXAP3yyuvQGrxCLq7IWiD7z5KTuzaLa9Co2dvMx7ag6uT4WtAkDTV+yV2QDpJ4HJPOeWgxCSgtqddpoQtB9KSwMeI7TT9p6HqH0NOfHrAb43Mi+NQSs/urlgwtwKO68Tqi1hFq+/mkSLCY68ocT2NrjBjSIKyXpDi0bc2SQradBQzEoqgtc9kyTAqYcOoRtwtWkyCqa2yP2KxJJATQRLSrCqsiIQjqqkTcgDJAV+yahMQMDqxCD5XvNuht3we2f6RzFfGe68fcAlpJueDE7hDo5XGx69SCiVyMaz84HujPR7BQDNTZ86ITUAvmLUpNPVdDcXqQiDctpb2CFNswGIAUz9PNegPPAVFCsUY9wqkLlSFYKOkDB/QmeQbPe9nHUD6pR0nwQRyMTjkLHDFcsLxFkLQx7kbUNCimGlJMQlBFTpJEDEIWOEopAPFZ1DvH1D1DiUnP/tC1j6OxnT0jsnTYMLEd8P9QcJROJPCNykeLGnj8hjvTEi6J8FAPExKWm+Pnsb0OWhL2sVJxn7qzATvTWNIkNwsoLxKm0Q+sUFg16Nrr8Ei14K4GynIluX2SVatScwnHYHsJzkwEgC00iKWhQRyILJVaRUq9GJwJ11N5t1ezrJuyy/vu12hvfArcGAzmd4AhXFaUVqFMj0RZt31X6M5HsESBD5z6DnzJkJT51ehtfwlIH67srNS3k1As5+hZ9r54x0ACljEwiJTXhTgxWQ5/6z74YXs0dupbEgIQK97CvlS10+zLC6GR+uYb4NLToFgn8nKQsJMFBLnbtCJCopJSwxcxKcb5IkORByEwMMPQAklR71l4FX3Jyc/+0yWPo7WNPT3U/eCiePvq/U/hSQYlVFGS4KiU3EergWxBDIqzpj4g4jkMrXHQFylwtTfVeANTS3XQBJMZCJOMacGLgrSra81tJil7BCKXOTB1gpEnEX7hAVO15a4z2kxB4nKnxeUy7WQgRyIOn36LnT1fYHs8Aiau/GrmN65sJluRoI7EQ4GgNr1y5lIAg32d29C2TuFzL7n/tEqKyxBCFR84FpYO+MAp7X0c+L6E9NdCxpJiByPynDLokQ+jWBgkoCCEIXCNlkwRNlCpojPfYUnyOldO6dNdvrV+ePAda8E1zme3UgmCUi9JEE7rhiUl2ZJEIRIJwn4aV32GJQgY4Gw9Lqh6u1JTn1mQN+dSMNvqP9O75p+HLSN+bnqXhiKJEEgiQIZpX5Gokv+KRSlZK/qvSXKqRukXPH6TQoWxOugP69AxpIETRzH7fx18o2VOuuLsjPgGGCCobk9dMKQNIFjlX8GcmAkFzkIQpC/13sNoLgd2fre7izrjL667xdoe+EGgOCVR/RPh1pOGaWDPgtaXLWQAkMAACAASURBVNV3Gtl6yah0W1qCEBCEL8yZQqf2PkxayptIZcgWITan6xcbaYGHcTEFDGHd1cBXilTkuB69XpRWBikiGRAJXNTbhdIGly4va5pLvtYZG8RHz9uqHZqavwmuewYQaI4sKkFM2A953A15SALuHyZF3JKgkwQp+6gHnv8JcspTj2YRHqMhDQVKlh7xzfZx7kZjO3s62qo9U4tbHPiT45rGlb7a1zkZejunQM+qKdDXOQF610wAr9QC1UoTEOJDoVgGt7kMbrECLR2d0DJuFbSMXQXNY1dB64Tl0DRmDRSa+sBt6oVCcwmcQjkIYa39S1TcIlmaJWGIkgQsKBQpqpOUGBN/I0mCIrQ4XqwZCSQKcajwzwyqYLDJQdDGoA291f8g2yw5Ncv6pS8d0UTbut+GAgnvsomQBBnUEeHLYVJa9av+zx1nzVlko8d6s9Q5ktJkmBUjqbvRvtDFCwp+55v/4Yzt+0LoLsAKNuvu3qTU9eOMBlcDRj+uXrZ2tSDFWFeCOAKpkQR8+VKZXExO67ncNKr0lPltMNH9ErjkcnBIk1FmSKuEaHwGkoAVhTjdIMrJaknA9cq/hXIRJCI44+7vBSc99WCKF3XYT+rFsNj55IJPOs2l5cU1Y8e2Qk9bMxR6JpbL7RP8StOUMWNXHOx7zZ/s7Rk/rVxqL+q7SlWnhZ90YUBrUakSr7i9Z/B9sbUHJnzsTZg0+1WYOOPv0Dx+BRTb1jISUWgqg1OsAHF8IHgOhEI4GguhKziWrsGWhEBJB9xd1oXXja5cxaTTyLyOmqnd+Ls0MqH3UYxMRFIjIiJjFkzbYoOIzx2TkHSxEi8/ya0ghjiqnWvfZHJLyL70QGfpi7D9XzLFB3hv7P890kTOVyd5jRgYD7LgBUHpSvD9b8Cyj24abUGLo5ogMLVyxtzPwYQ1QSAL/8dJgkQm6X0FPvNF2kRXQ5AWX6Ck5U2NZegHSRCyLaiyQl6Gte4nyXldyjOn9PiZLbDeesdDgXyfRf0KoWaaIf0lCTh+ICgLkwSmB9CFPJgMmEiCWMiizHL5VFg29mdkcb473Ic6Y6BH3Ob+4b3mtvHtZPKatZPWp9XCJM8vTmhp6d4GnOqhfT3jN6yU2wrmuEONACAFURteosTGmfCoHQtLRiu43x7/K7b1wJS5r8CkOS9B66RlUGztgtZxq6Fl7GootPYCcavMYhEJmFwXJEHsSvW6TJ9Zt7T7D4yEwKSUNQomk5iUOjLDmNKJ7/Ctl3EkgVWbkTjEBawOpOXASB7Q7JF1oz4E31Xp89DrH062f/AfaWu3/MxeO7uTmh4mwTPQijsJ5UR8y1Qe9ejzpErPhI3vfjTrUcu0dg2H30c3QfjirK3o2MofSXNlRo1d6laEfroadMuA6UbGzARDs2hgxS+VJyIeslw+FcNLZ1ZDX/Hr5IzOH0tKFBx7697xGCiSH4BDJoffo/cdBpMkMMIgXA6auyHS/+B1tvIV4K25jJz1Rmk4LMC4NgYWgl322aW1hXZNK1dbt12zevpUQrypbrG0PaXFXSulMWMo5ZKf8POnkXGS51IVJYFJQX+IQD34CvIwbsN3YNLsV6Bt0ofMVdGxwbswZr13odjaDU7BqxXdUJIQcz+BsoVEIGYlCRElHBPPYSQhGnGQH9Hk1gmBSCMIi1gjclOcdN00VooxCxt/nWgZ4An7Yz3IZDkwYORDN1T8/4Sunm+RXR9bmTYX/df3ewKanR1lujjNF3eBUpCxSv8f+JWzycYPfJhW30j5fdQSBHr8NuP9KR9d77RUPwsAhahrIcXVIOYsQzCjW4LlCdImWSU090BiWi0eKQtJIOBD1bkf1hZPIeetZjcO0nN2WATNzjXgwjR1FzcAJAGvddxe5W90N4L4XrcysO9FTAKOs6j8BCYUzyGLhqe/8Ik9fzFpjdexebk8Yc/engnTHMfbyClUdy71dUwIxgapfKn01Q1iuKTF/zf9FgovTB7yiTOlDVpWiuNSshQbxJkWK4wgdGzwNjS1dcG4GW/DlE1fhJZxK8EtltXrkrGEjxyv1JU7mmxY0ilSj08wuQPnefQ0RknJvxRz1Bi4yBss8wsNFHxhcM9hzFj/tIqzBC6iGaD+mYCPqNdIyEwDOYjkQMBW9f8FPdUL4M2HbiOLALHKaHvp3/c7hbY6P0klCEysxLAW36+ABxeRWfd8L8vUHglpRiVBYOrnnI1Phda+y8D1+Y6ZK2+BCDN54sWdFI+gK3U9/sBwFbMisLT8iZco6WkTSELkDgfZodVQJt+Cpd3XwQY77Qut5Fpw6dyaMNGOowmhEbPh6PcRSCNRSCAJ+CIoeSxS9M37I3hrjyJfenntcFmgSw6+ebzXNXHb7u4JX+ztHj/Fdfwp4MBsv1psEX73XMRAWBR0RcGEX7YlX0uFlKCu6yLkAH3B3AxqXVnJQ1NHJ7RPeR+a2rtgvc1fhA22fgpaJy4Hx9V1QANjEoSrQXIKwy2SijxA5EP8yXR+FC+JQ4SYYOskIgMsnVBSQTv0MUu4IlrKL+1aZtwvfWFkdkFoAKwTy4GGM64zmFBVeg9U6ZfJNg+8lrTe6WsHbEwL/vNQIB1KOgXaWuGxy8SHD6G372iy6ZIHhot86U87s0mL/tQwBPPSMzbdHtq7fwgFbxd2IRJeVMqOHZME/RQDX8Qyb8zOXyKc4eijFDR4ZyEAROZ1xWKBI/6RBJfyBueTaSn45Cl4d4NfQd/kY4HAdkxzKIRiXZEE07sKuksBxSTIgMsYd4NXeQPK1R3IOc+vHoJTTzbppSNua3p/JczvXTv5iz29E3alNLj2mE4BcJnWCzlZOHmUCcrHVVfgIr34Xg8wTCIGEYsAhztU8UzradQgTjNgcRKmiaREX6QTBgpucy8U27pZsOOm+/0J1tviWWga04l2eY0iCfyCIkUH6soe9U/+mfCdiRCYyhcXorHfxAQXrs6gENFHjCa2RAikE8gJXgyZ7mLgBC+iIfgXuckBUvS58moN0PNSKEFf9QogxauTjj6yB5zanZ+SJudzIRR4TmuyPc4TJTCseO/AGtg861HLoSyH0to26ghCEKnvj11+kVOsXghuQPcNxxcxKsKSIFi9TiakUkeTLo40RI5NYiKgkYLUgMcUSwI+uaBcvYx2LdUihYpLwPEBaCHc/QT/8x0ArwDgFwEqwfeB8AyeVi/w+0Z4OpZe2v55oHxNRcnJl3qZUg6SwGSoSI8wEO4G6pWhx5tOzntGCcJMWwjr4vfbjrjNnbK8e0qpOnlhqTzu6u7uieMVxR5+4CqZgKMIcsKOEAY9FpfpqW6CWj45JVOsBYJ+yHumkGtCvc6vEegIi0JICyTt4EOYRBZw0CMpVGHqli/AZvv/BsZO/ydzQTDyo6xZpIyUPw0KX5LiYN5r4pCPR20eG8pl7U+oX3RUL0sWZSIY+KyoGJS4i49qh0BqYyYYHj/VpIAj0MfBlggX4/sbGkFMU/BGZoj6mZRf+S2FHEiF7XfDWtiV7PxA7A2qlB7hwj/XHEkLzi9rZjStIabhVwhd8IFvGkv0Wtj43q+M9FsWRxVBoEeA602fvY/TXPp3UvC0wEQ+EyJEQHM1pF6KhMtJczWggEgmMHSlr1sSEtwcmKiIUdVJgnJGHZnwFZLDEwVlCKEmFTxPqMgvAlBxAUrN4f8qrSGR8DhxCMhG8D/q1syvDCJkFZCfsVUAW0a0WAi2qYojCRSgq29bcsHzzzdCrfWzDLJkwc3NPeX1ppYrHXOKbukrXWun7Eup69asBPwvaS3gJEEjB+rpNzX4sEbJxIWX8cvaTAoULRbb5azuCf0Ug7lAhSZAmCdsR6L+oDWCMWa9D2Duvn+ACTNfg/bJH0GhtYcdoxTTKfEeAAmRpiiDuarDJ8cCzUOsOEwkgQ1jCuGohyToCgsrdDkR+B9ZrmWOKECdRCFSJFldyqqIDGADyIGRdPB2BPWV/Dvg3aYjyf53xQYn09f23oY67h+hSDaMvfbBxNdYNZqsBlgOPeXTYO6S341kkjC6CMIpm29A2/v+g7SWDowo48RgQCx0croaUuMJDBYMuSZ1QiAmqlDeGqHQSQJT8thUqClgaVlAQgEHRuUhCZJECMXPbyKoOgB9AXloA/A5cQiEcGCZ8AKrBL6DGQlrUbcgI/LsPD4CKS5f0twNpd4vka88f2M/lXu/st+zzy3t5TVTdiiXxs6nQA6tVFp3pn6BP45UO3XA/pIxA1x9S8US9hXzM+k60AhFqI+SiIEq+CVRiOllVjKQF6R48oAsC7msCpQdk5z1iaUwZdMXYPzH3qzFKwiCm0UJSugCQmvw8WOSgAmuAoBBu8QFFcaSEFSgcusU/z6tPKnEExQ90vmpJErwtliNqs2AeslBhABoAKVZHQIRvdY7gez44M1xc5K+uOdUv63wHVJwjq+RSENqBbqgYn2jxhlD1f8LAPkCmXnvm3nXwXBJP6oIgnfm7FOd1vL1UAg0U8LuXvyG0cnqaoiUa7AMRMiIwTIglX0GKwJe8KLNuq9e7thNAZOaFspEEvguXs50XAYiCcrvvKGBAA6sDeWmkDQEFoiARFSDz7Ur08WZ/tp/DYGLgkgIMhT816M/JF9+4uzBWIS/W3Dz+ELf1AO6107etlCsHlwqtc/m+3ppkQn1Vi3OQCprBpsYwNClgP/VHtOsqXdBGEwKHZer6ASDsB8oQpA2BlHCEM53OetTyEItP2V3KkzZ5GWYtMkrsP6/PQtj1n8XHFfehBQ2Ra5pgwIVvzGXmmkrKfJoJndZriZOk+pSjlYKlOKUuu7CMIntDIGLulbU26c0w9SXFHUxWORAYFn1P4DO6kKy21Kj9TC4VRGKnafRIrkKHCfUAerC4F/UNl7h7SCGfwEUPu0Ej14NPZWrybylwyYoOm1NqjInT+phnLb7mN03aNvg7YehUN24NimSTiYgMcXWBTIxSRmOd/BJlgAcrcz/VsgHZ6nGcvW8oi14chtcE0xhIoEWaiUeJ2AKmKyTJET8v8JFkUISgvYIBRi4IypNANXAquACdLcC9LaEcRCyzcilIPqmkAPkkvCrT5EvP1U78zzw8zZwJYzrWjvtsJ7S+H0JwO4Vr2X9sHm8kRz/0GIguIJQ+UTb/YfHN2tTRCcTQqoF+aKdC6uqkQhdCmYlA5GiM56AkC3SLkzK4rpms1vJhwhDcFFmjMDGRMFtLsH4GW/CuI3egjl73c1ORMjbGxWFoCtkYcHicTg6tHgNmbRLjN5W8BdlxErhjCRBj3sQQi06aEpoQoxGjMZRJJVnUqrGweWNSRt45XcDiGnWA0x4e7zfwBvvH0UWvWx88ZG+stcC2uLeCI6zuTK8Qsbr88vEu0TGII9HX4W+yhmwyZIHR6KrIYUSDrxkXVc1eGfOvtlp7+OmJazMNZKQGmOQkFcJeNROD7BFFUMo2CjkeRo6hiTopAMrUv3iI+U1RF4/U/ZIQGW1JDSCJGCBFxAD9j8HYPUYgG7unmDt4USNkQvDPQisz34frHyinSwWoA7cLLtz4XXN5RVz9y/3jj2/Um2eC+BOoiQMLzSTA77nR24FVWGrlgMiQhJ1N4RRQYh4BkEu1OWd7ILQMMpLBrJCjJR/stxnbAD9y0AUOIEISATDv1CFMVM+gIlz/g6b7X8HtE35sHb6QUITRxKCQF1EqrFSiOz+Y5iBlCVYy6C0JmWufyc/xwQuKu0yaW70nSiLLSMRyGiwqiSSKEN5SeSAi6rE6ZFEEPKQg1CMLYc+73Sy3QP/Y6qTvrTXDNriXAsF55AaBddkr54xkSRQD8r+rdBX+irZ4q/vZ10GwyXdqCAIfcdst1/z9A//CASCLWlKMGCaJUCfTEnHDw07e2VBG8z9Yv1JRosWcGo8A17swlKBgwFxsJ8ej2AgCUIJY4HI2oW2t2IGBUGD+J+wjwvyoAfdiZ1U8F8p+9BKZOm5qTcQZn1NAMsnAJRawloYwcHxCHzXLIhPZ/fO5JIXBuxVx6D2ez9+23Zd3ev9vq937CQCpIUGDXIELQgpggj0DC0HUXIQJuFpFWj1o46BvowPQlQsEyFAcjQyEYMUQoCPO4ZuabPoEMqZDxLb8XNaZ5aJPOgwSWAaLQpxrgelPB7XQDxoGtMNGy+4D2bveRc0d6wRzePVxpCEwNXAlnuMMsUK14iH7hpQx0UOEwM0gTiINRdRXDHiOy5OIVK9qU5DmVmCLdXFX/vUH+tBKjkw4BkMeYXeD8v8z5O9ojceUgrEf23vK0iTcwE46AloRS5HZ2MUUtQ4SitQ9Q6DWQ/+eaRdwzziCQI9YdMOOsZ/gLT27KCsYfzgkRITEEyOtJiAGMWfRamnvhCZULeJ3CQFV5oUqWJJqJckYOWHdFG9JAHHKUqXglj82r30fUWAleMB+gIXRBCvwKewPG3J1VG1fC45/5mrkxRP3t+ClxH/NP9PrZVK08bULV7V2zNuL0ocFjQRyvBAbYb/p5KDUAGEnKjmVlDIATo8EpZXC17ECllX9rW4hKjVII4YKIveoExqZCAqHnByXX7j1Jp3gUMd9sToJuAZEnVCxGURWhlM5WGXgyyTUmge3wlbHfFLmLrlc4w0yFMPJqtA0KEgXoYVEKNMs5AEXfkEIIZQoH9xgZE68dbyKE0zpRXfiQoF2eEEW6FvehsQtctMElAb+kMOuBiOXaP6mIiEwfc+dELZvxxWV68le0TfZKGv7/1pWiDXgENCd3OEeJlrDSEQOKLOBd9X/Weh6iwkc+5dlleuDOX0I5og0MXg+Ms2PdNp7/kmOP44NhByQWtKPvEUg04agrxJ7gKDGwIjnfpyox4jwKcQ0zvaxEwiM7K/eLeN2s124PizWAAiPVK+eJfL2mEiCcjkL4ViHTEJaSQhKDs4BbFiPECpKQx2FHmE1YNWf0/OffKQRi2+JQtublnZtcEWfrXpmEql7VjPa5qk+Pm5e0YShJANqKQgIzlg+TSXQsgt1OXK6lJ0Tfh7KjGIsRZErAIm6YCD95LANV1XqymM2AONKWRBV/5MjRmIgm55YKuWlU1hwqy3YfMDb4cJG/+TPWMdXq/LOyz7zee4vB8BkwTRGUOeCG4x5EJR7uiDIis014IQYqY68tYrdV1MgKNenoKLXOBIJtVLDiJAGG7YQpMtiRyIZFX6JKytnkV2WRKxItKn9tiUTireDA7ZJc7wE8sbkh576ildBnMfunQkxSKMbIJw6uZzobXnZ1D0dgN2wCxp56+7HtJcDZwkSAT1mIOEAEi2HmIIhvzNQBL0uhQCgKZ03H0K0iRfB0nApEDUayQJ/TjdENShuxu4okU/IJIXuB6KAJ0dAD2tAFUemMw0hv8urH1nE7L4vZ5+kgRyzyd+vWHXqvWOrnqth5eqTfMJcRQlHF7UE3UtYEuCovCxW0HjWYIcIHphJAaqnqifGCikAEsDSQRMjz7nQ7R2gFEjuGmEISdREMtbJx46oRAkodBchunzn4INd3oYJm/yKhRb+modw8pQuBrkXBTJkMtO0XEJhMCUTpHCMSQljkwgPW20ckQuPjIQEbZeEk5B4LqzuC9yWQ7qIQcZ8vi0CmX/e1Bq+i7Z+S7uU6oNr/f6PjeRIjk2fIcnZj5jecuTGDmSyO75a6C7ewGZ99hz+VbI0E09YgkCXTinGebCOdBUvlBaD4TyVRh6VkuAKXYhJrAwQgDE5iTBMmA6+qgszBiLh4k0pPUzYjkQQkmPp6jXkiDiAZD0ksGPOU43SB++sFho7gahJQPh1tMSEoXe1vBiJkLXQF/vQnLR84/Wu/z+OP+PbR4tfL67e8x+FAoHeX6TG3KBGiFgZTvh9QYKIUBuhpCX1ZiAclwRh10obgVzvIEp1iDRYoAEem3ao0rltDKLAqY7WCeFSToHmlzBC5dFGI2g/lOUuazMbFuIu0Mh4k5IsCYoJXNrQvvUD2Dats/AzE88CGPXfw8RUDR/ZTyCFi8g16iJFOi9zRiTEMEJBQ+bCAauJk6BR6DXiYhB6UYIkdCSWmFx6eKmikIgtLIykQvDXDXlq9A3oeR9FnZ48Kna7jBsFH1179NoM7kSCBkvxEi0udom0eAVquXhDahU/wy9Hx5K5plPUeRYPUMi6cglCF/cbD5tKd1ACt7OLNJI9DTttsJcJnweUS/XlsHqEEtGsrgLEAFh5aRYQJJiKQRpEG3NRBIEblxAcR0XgokETJwlQVgspJzth7uBtTuoM4YkBD8FbofgiOSKCUF8Qh/41UvIV5/8ft6VFsQa3L/L7VsuXz31bOoXD6r6xSmhC4Nff4wfQzK4FmpkQAtKZPnkRNRiPTHpCNMY4w0k2Qh7FXv/QSoxCLWx7laoRQioyqw/gkKR3UGUGPd764SBKW9RkcwUsQcwd4Lpn7AMoKxKfELwe82REP4t8gRXNndMfxfm7HUvzNj5r7WHoWTHCUBw6RcmBMra1hRsLGB8LbGGaBYIpVOmmIQYd0NEt8cEVcp1GPlD7VcE3Lj4CJQwK0mQgxMDUBJByOJakE0KjqpSgBK9AfrWXkB2VV93pc/uvgWd0HoXEBLeqKtgqDUiifvJ33gen3Z5Zf/EwtwHb88rd4Zi+v6s+6HYH9Ym+vmt2v1x3Wc7zdVLwQkeEch4hFBMktSjjphKcpKAJwrSAca3HvBkTCMsJnKTlD8zSRA7ec3dIPJLDpBCEmRfeQal77olIfg8wCQh0DDBxUvvT/Khu+kucuGTB+aZqLdtcVuT67Qf2ed1XFKttsygQJqk84DHN4TuAu7/x64FSQBCbEOZieMQauDgS5BwQKIMNVQUvCAMNUmWxWpQW9yIzDGdpC77kCqoFgI1L/LPc5LKWxSBVlXnYcn6P50waNF6XKnz+BgjURDBidGRzWNNEOGNgiQEpQXXNU/c+B+wwwn/Aa0T+XMeEgwHoIqwbEjgIicJzKWDYoKwxmJzQQARQ5BNJCGJEEgihvvD5Vqcu0HXFpmtFbwhSZYDJrgTVmoucoBesvRoD3SWP0k+vvRpXDq97QiXbrXyCWgpzFdqTYox0HmExFed0eD5D8FHqw8m2z/TmUf2DMW0I5MgnLHZv1GnfBtpqm5WW2fIisAWU1KMgR4/wGevVJqaWwIr1ZCiJFgs0Epg6KfFKgRpEiwgoi9SQKRZGbCrZB2RhHpPNwT45I1JEDgEQm5t00vwYeFIOOeNlzMEDpEl82+dtKI66Ttd3eNODIhM7bwBAXBrpxNq3pKwcTWLgXAL8G+RW6VmO8D3HPBv5QZNEAGsnmu7N6mUNSuCohsMxCLcsEdCEPl5AkRmVEmJVZSY1dE4Pk2q4d07bpd0UyhR8/jGRHEcUhVJVAhsE1GIOSKJSQJbYYkBjBT9XhP0QeDiVp/9NUyf/zi4xQqybLj8fgSxSUDtlX9qShe7yiReSfkwGcB4CDmAjv3g4EpsfhFWvdrIGYIwlZnDLXSYsGCNqKmK2L6iMnGWgSAHSJSq01BzKJT8pXDHfXvq96LQN/Y5nxbI9yLMJE4rRoYMdUrNsxxK/kUw+4GfZpA7Q5EXmGbpkG5n5sbRM+c0V0vFbxQ6ei6WylcOXpKrIYfiFoodK+VES4CutGNIhFIeXpwpFhATScATNnJ/QhpJQBYSSYoyWBJYnWInhNuvBy7205KA69Ejz6VS5jsSnzwNfWQx9JT+Qk78qMs0ke7Y7Y6O7jWt2zm+e0tvX8cMtoFiBCFU/oH7OfSWcELAf2PWAS4BQuNCjUSEHgmhKEJrQ/CyuNicSfIhFXo05kBaKeRwRAmEnDJxxEBONUEv+M0Eug6Tw1WbOPqBBUxb4rd7IlWNEkjMFQ+Cul2s6X9srQhz6q6HyN0KBqKA4xVYfl4BtnAo1gZZRq1dbrEEMz+5FObsdQ+MCS5ZYtc2B3zdVV9+1BWKnJ/Y0phACARAOJ8iojPELvD5F5nfMSdWoldw4gkhxiD4Do2HTgrEb+J7BQdUXn/IgRTLBq1ttDjo0Qa8C8tKnyd7LP0lxqfy1Mf3cie33ZfnJEOYNsQkcg0zbmLVvwf6uk8jmz/+VmblNQQTxnGlIdjUbE0qHbf1vOK47ntIsTKd5YgoxwzxCHLC6wwxabc/yPEIqZaIGJIiBAu2qAhSgBc++9tEElAi+ee6IglCPWqXCIgdm2iPT94FD/4Teoo/IZ9/W952thgWO1ttvcOcitf0ud5S+wW+77YJpR+eJuBKHxES4V4I00n1zI8lhv0W+cJf+Q5duTlRzYc+hVOW/39RfiiI+LeawA+bIHLw3EhH1+wGYvxx2ppmEqpA51uhhq7l0WUyqiqqm7DVmK9DzRiL7Am1X1SyUEPERBRkpYkkIcRPEAWdJEgqYyAJ1Kew3ryXYfae98K0rZ8Fp1gNxyK45TOeQXF3AYLEqPy18ZLDod+ToK0nWSxSwjivaSQikt4QV4AHX045LWNcP+S8xHJGrzRG3RgVPe8E+82QLy5P3DHcMn0R3i3vQw5Y+oGAJwiHoa/v2QlNbkesdjE2mV2JZv4nFwRdCVX/UvCaf0rmxr8wGVvvEPkhrptDpHn5m+GdvOW/Ox1dpyJJazhSiBV/RleDnKdpxw8NdyCY8rLvdKWtfY4ofYObRFk/CUctk+oTZXA5JLEzfW4oSUDR2SKgUaw8JqCkI78WF4kFFHY/CF+EnNHCfSIFTRV8+DWsdq4mX3j3+SULlhSWr6jsVvGK55bKLXtS6rQppxO4dYBBw1wk/CFGTByE8keBh4xAoHaL5vKoBRGYUCMOmrAXlzSzerH2RW4F8TUmB9HIAvFNMjHA66TmflXFgiAPSWRAX6mScBiXMCIDxkI164MSlRi9aEk/mYB1h+kuhNCggNogy4+6G8KDDhRaJ62CWZ94EObseR80j10TvkLKnjFXN9m14UQYKnAmKGZlLeuKGS9GXkuqskbgY42G14iJTER0csY2x8YkICuEXt+6IAdBnRT6YE1lbt0ptQAAIABJREFUMdnlwe/iJvivfOo30FI41GhF0GWr1vZ4ksA7VaX3AfXPJBsv+Xt+TTY0cowoglA+cseti+uteAgK3rjkdw8Mu32pJHWrga7IU5S6ePXRSCjCmYoD2fOfTEghCUkBlkkkx0QSxKVDunWhvyRBKlAh6GICF3WSECSX7le0e5KCMsWSwHZ+9Im+jybc8Kcbvltc2zPhy9R3tqTguoFLQTH/M1IglD2KRlBcB5g0hO2R9x3wWxWFAq7FKSALAU8fosAtDyJWAJ+U4GODowgEOVDIApteOFUYeIgXOTOMIuhY1UkWAl1P8SFLkutiKpnSBAoXEw7FboCtw+yHOKtC2ChpUeDJpNJPsSaIomNJAiucn3II2sA8C+Gz0hvu8BRsuv+fYcLHghd+hSUBCXNdayjgqyOhBjDjkURxADq5MMUzmDRVf74zmpFMhCfhu0i7NUNA2gRqlOUAT6GK/zSsqhxL9lj6qhgx+uwnTqQTWv5TjqBJI8YFLmISz2dkbXazL9ZCqXo2lJf913A99jiiCIJ30rxfOGO6g8sveHBb3L0DnPYr0hUp/oiSNZAEZa3rpCHpfoQ0kpAWIBnk7wdJYO2OsZoMG5IgIu7rIwnVvtZlz939WfK/D+8/xfeDe1L47ixQ/uKkQhhEECp8FPDFuA37zMmBNO8Ht0jyWAPNosDVv6KsQyXJnm6QcRvqJk8NToyoebR75K1HMk7dsdU2jJzESN0bXf5GvYL0H/7TJOPjBEocWRDlCdIQciVuQZCZNKLAtvWYJPDc2DJguGQp7YRD3IVKDC5BEhyP3b64xWd+B+v/29/CuBTP4BLQuQCmaWjsFB+/UP6se4IkcEaMNx6CJSuKS8xhjDRaH1gDRgYpxd1g0p61SRWdHTL2Bv+E2pKJHIh1oRVvzGuIO5AMAOX3yVroqV5Fdrr/m/Ln5xaMp2OKK6GgBPFoZqHofQhy3ipYGhrn0XuAwnFk4+i7EDHLakh9PWIIQvmwXbYtbvjBA0DohFDIJJjwhRDKfZyRj52uZI1BgJgk6ApZJwma1cJEUJSTEobXxxJPZcSQEhPJYdjw41bid2xJwCSiv5aErKcbTJYEVygJnSTgCG+kfhg+NUZY6u6Av913BLz08AFA/UI4X9gbVKK88LZEEUPAQhQDORTchSAJRc2ywMiEyK+4AzjREPtm06uMXDGE5Qqyic891FzayoNNBrkVqglV4EeHWY1M0K3PmF6ImYkVeK08k/iotT9QuCKFqUwppOOsCoTv8eXviCggkhDObpFIuzdBsybkIgksLycrQSWcJAS1NY/rhK2PuhU22vGxkOSxOxLwRgFhoytT/NmkrDFrqgmz4JVSdKwHIyu2sug7NNdrlhhtrURedOSjHKf82c8GMpHFWsHKzKBu5BAb0sYRi7i4g0j64Fl5+gis6juD7LH0eQGz/8qn3oSWwkxFM2c47ljrUTyBYLOmt/cgsukjdw4pzZ+xMRlGLGNJg5hsyYIFhU9s+uH1TkvpRCA+v28XkQTZS1OQIVbOuiUg5XPScUb2G85v2LWbFLTUYRppEKRGzso6TjbgNaqTHFz+cCEJTpwlQQQnYGEmSE+NJHjlJnj2ns/CK4/uD5VyK4814NECnLwI64FUukzBC+uBIBT86CK3NARxBFIhRoITayREtUwIpR3mDFvJ1T3vhrzWyBTULrgrEuARlwSOvEaav4ZIWEjtJ0ELwv+KuO0sQkPd84c58OkDXAaW4yIcQBISHNzIEiKFzS9dEvnRL4Iy8A6ppCELSVDdFVGSwPrieLDNUbfCzN0fgmJzhd+REEMS5NpDSlqOsRi8CDMIv5DKVUc+5XRDnKIX6zsis0V5mM7xBkh5wViy+iaMaGSkeaaZYrJWoIYw+BpADvBEZsVzmVClJXYEsbssH3LyXt3rGtLsnK2czEma5MpvtYu/YvmP5z0IT03ehyy6nT0gPpz+ZVnrQ74/5aO2m1+cuPqX4NDNIFAa+J/YWceSBHyqAc0qJpvTlHQaoYh5GlqugaQASVP9OsGpgyQopIT310RUhBDBlgmkd6XgYnkznG7AQk7XSLksCdpuKZYkhMqV/Q8LSs2SQD0Xnrv/SHj54YOg3DeGJw+fs8bvJ4gARnyUMXjgJyQO3L0g1bqwGgj5ztU9JxAhFDUKEIkT0K0MAjsut0VOFcZQaCu/SU0fmmAD2lKDQqrg8DtlqtcmhEjVH0GBuEjtEiT0l6i+1qLw7gJ9Hcuv0B8hZ6gpNKlf+DXKtaT5SILPyId626JoT3CyIWxz4NOgsNkBd8Hsve6F9gmrQncDoli1+SdkBUISz0tRuPgudqeuj0TGHX1cXEFkYOtxNwj8Ud/l5DTNnBiSEEcOIsoegaXPEzlIutriwitIX6IPQWfpS+RTS14KUlWf3+MEZ2zhpoiCT5r0aNEoySJ5+BHb7r5dyBaPPD7klam+7IZbg/X20vnzi7B910XQVP0KEDpGcS0IRZx2R4FCBGKUvkmpi0mCJ0XEaqCTjISjklhSywWWIX+qJYOjZmzvOiQJUjEiASH6qZAErnQlSUHRQFIWBRl55rpIgpwcQCmBl5YeDC8sXQSl3g7uYsGBiSIeIcwj7ieQO3wXq2X9+GMtT8hVeFocuyB7EuKi7PzxZ7nBE2UIXSTqxHlrFw9JpESEIGd3corxz0IrK9NZU3dhUqnF8MRSUyINr+9HxefazMZXIGs3LPBEMi1yO4SV19wQ2J9fcw2g9ZPD3SCsDNiSENTmizsVRIwDd0NstNPTsNn+f4QJM94GIl9/RIpMrm0xiLoyjVGkOnGIkF4pmLSNNy/PpL3iNFoSYcEEQw4oKsiYVxv5pPIHjBwgOSGmQhV6oc87GzrG/ZzMu71M/7H3XN/zXyBFpyWiD+NIQhxBwAVgvVKu3g+zH9qXEHGt7/DQvEkcaVj0gB639Txo7/4RuN4nJQNkc0JTrIlHCpE7gK23GJIg0UpQ8iK/kjamLUmkI/Y3TaFLpY/r0NqfekcCLxPJmih+yPK3Tk431EsSUCdEO+MsCZiwUIDXntwbnrvvWOhZOzE0p8srlf8/e+8BbtlRnYmufW7q3C21ulsJSSjn1KgVycFkECCRow3YfNjYOLyZcf6YMXj8cHrGz56xjcEGG2OCx8bGCkgogIUQAgmBkFAO3ep8u/vmc85+X1WtteqvtWvvfW737aA3o8+m79m7duW1/r/WWlWFwC1Bi3BpE+/KiDQBLAj+IcYTRHIUXlXfWYIQBDE+dQcu4WrHT3f0A2O4BRqpFDMCOPkc7VTPST1jWTXUpm75FsdA9H6EwwAaEp9QJQswF1PDRmpVSIiCrOjTD5JdCnpSUp0lIZTrLAfyX9NBSrL9Uc5WcO6GNWfcS2e++p9ozSn3hXCBBCyMquV5gTEnMs5huKUeeP+CDCaAnnZ1RpUPEhugMtBSX56D+I/Wt1J0jRUC02WRJ/Ow1kLQAF3JN9B/+HyyfzPN9t9UXHHtk+W9Lz667PS/QMOdS7JugqQoUyGVKSs4xjrcL/s02X1+ceZNN+VE7FB99rQmCKVzLL33jJ+m0bmPUae/PInO9/MCBhN/K6jysFiQBXYYSUcN6A5MGvYhaBEVRmN5+4kkSJmol+ZFEkSLgTTJzgDMW5RVokjsBTnqkA+Dx9sRw98ZBZqQBFz9CupFl0W/N0SP3H0FffurP0kT42sYQl18AQAqnJbon+tdC6GNEazRzRCDHYUUxNTWYhAaL/ghv3x3QTCWEIKszkWCkFAL692NcQ9WEWTjZL1IxTk2f+URx18hPQMA8i5HHsyRCHr4URghsSbElWsgKHJ3AxdWY0moO0gpaJLgTtC6uT90p0TI322DXHXCw3T2675IR57+g0ASkk5qcQfIoFfQAsiyd+ehr086EIRTB28AoJay6s4w0MmoCZUX6EStBDvyR5UJMo/6GPWddsmAuxZkYZDLq6QZ2j77k8Vzr/9Mec+lh/c7i36/GBt+Z20cAWICVgbamDbX4oVzbXS/XJzy9SsPVTKQq9f8ZfwQat30O88+aXRs7g+K0blXxYFlkPDyYrQPxifY974nGuIRKqtwa2nILcWQRWbytuCYcxWogDZsf1QCsQ8xDblyNF9QdHUkQb5P+pEVm36DSgxiCQ40SdC4hBqS8P0r6Nv/9l6a2LUm6EAgGWGbI++U0F0PzqrgQMJuiQTrAO6iwm2TuvpnKqAYKuciRLYQ9b7Z9Cj954c/irR2q76HMENuuudVvpW8soc4hdRiAB+wDsiSEzX6OyXeZGEIEyZwnmhVkGkkX0pgo6gdfa5ZBzbk0/E2R/8Kih6cJER3RfWMhEg+siSBYx4cK1i6bjM9612fpLXWkmAJgHagcbllL0tCS4KE19jtlYDmOc1eIQHqs4ojagkNDgjWt/I8h5QNz2w5tr61U2cByIFMpsnet4sN11x0/7++bOzEZ868j8Y6f2x3AEW4a9ipUOE9uFADwCzLx2nnxFXFebc9bWIRnrYEwQ1X7z1nvaoz2v37YnhucdDkrBkQcOpIgqaxq+6mGIHMwDfuVLD1Abtjrq6iqG3ddJQaSIIq2v1NEkIwnOLQvLZAJiyCXfhMGixJqA1c5DzkvS6gYJVlLQnKS1DJGl+wT6MJ6cE7X0h3XPPuQBISV0O0BsTgQiAGLl6RT2kXZRNwITRQjlaSDtStlBXdDrEMvsvD91Zg2bsR3jRYDnSXrMkAj3GuHI/B+w58Gl++O2I2V49410FOoQSQD26F3H/+ra8+Qy9wbbQmJOQhFhmyNC6HLEmI6//wDVgSKicuZt+lQYu+DN76KNYHcVMsPmycrviF36fVxz4G9zaghStiMjcg+afiQ+LZk/SfJRw6QSqDnM4cC/SYaTBVhfSSzv/k57ZMP3CZdtXVBWShYl3BCZ6dKgtIDiT/J2ZfXLz0+uu6dz/vlcVo54vFyFDYBYc61//IWASSwRjo+OU91Ot9tDjx67+TFYRD8OHTliCMX3Xp4cuW7/l4Z/HkuxLXQgV4LWBmVv4JOO3PeARXtiEJubMYcII2BliKksHJ622fKZK05pHpo8Y8ciQhZ2VoueBJ2un7P+wcSISzjSQIOi4kSfCKMVTkx9/+CfruDW+jifEjVWHqtkdjVfBrd4gnCL9F4tN3GC8Q0vC6n7tVlHNqDYiiKvn697z9Pk4jiFVgr0Rl+LWToxaO1AhX39gGNqNLk5r0JZx/oDqPq8/Qo66BVCcGUEKiAKoZbRNBXWesBPE5Bi+GUiLZwA+jraBp+2NdPILEIoT83VHNQnJKWrRyF13xC39Eq499OBgzVTclvc3y2gLq2lEgJzq9Bvx2X2ISkDAkgyZzkNmpthNlOQMzti45smPLqbUqmGCVJtdCMn8LounedbRn5mW0tlhfjnQ+ScOdM9I5awoF/lTF8waSIDOwX15Du7e+qTj37h2HIB+oVOlpSxBm33L++cPLp/6tGO467Z25lKnJ1QDapUIo+J21DAQ9zgBmtSOUJROhQjqg74Uk2Py0DMhf6pcrH9Pb8nIAj6OdIybJe+kHrDe2e3+QBAxMlL429jvxv4pCGZgkxFU8Wgp4QKsrJM7/wTtfRHde/y7as0tIAsQZ+KqxstdYBLYw6CIsH+Dohy4hB3HXhMyzkLNsURSzstoewh+ez8oFUWFChKHlOWmCFEN+oXLpdIjPZMUv00sWiJLemv0x2DGidpgr1oAXHoZer7csCFHgdrC1IDQ3Arroajy+ud2SYG0SrjsiCORPU+T6wsFJwfogZECsERjrUPrTF8dW7KGL3/8/6KjT7wGSIDLVFJOgrDcGpIhuQQBUuc+pcn6WvJrHs0qWNTEEqJtUXUg5wBiS3S+5vDijLCrtB+uB68deSbSzvGxm+fSW4WVDf1iMdF4Rim9wKVTaC0S7EVHdsd3lIzQ598vFWbd8HjTrIfvn05Yg9N59zq91Fk9+BBVO4+6DecUjmFV4E0g3gfzAJKFlBZ8rv2lngqbPWBIWlCRE0PLjMK9zEkTKQGEh6KMQRjs6r+RRyWEAF5IKTiNxJ6qcWDGBO0FJgl8lWUQt6NF7rqA7r38P7dx6vB6/HM8xMMGI0obkGOXABkKNxJqAOiG6ExLSIM3R7yK4Krwn1l2lKwq+vkQYcy8GBntkusRTFII/P61hrAxOr7AbIv+fB3A+zIghNln141elFGitApAorZIAPSfA71rdDZLYxhVwLU3wYdzqKAQlJQIeTsDVoCTDkYiSaPlRm+j8N3+Ojj7rriphalpJq9nB9SQArq8f30GegJmkM0Q+GUgzWvoz9xwnjmTS8kzltiU/m13WugGJ6qwHledw3kEd7PpvoH6T/X+g3ds/0H/Gst+kkc7PVuZz0wRHMxbmmnyDk7Oco17//6Ede369eNYdk3VVPFSePy0Jgjs58bmnPHV/MTIbjsfMgZ5oMQTpQeMRcgBr8/PlGktCsiq377waCeOuedVYIpI0UTFX/WANlgutX0NMBbYhVyY+w37O2aylnwfd3SD5IVCrHhzAkiAuCSQVHpGkvyDGQEB/r0kC0RM/uoTuuPZ9tGPrM0Mkga9rsBYEl4GswIEwWJcDt1nBHQ9Ewjg1JBOJco/r/vxWyNR1Kl0TioUVGMSmJaKDZflpA0xC3AbMocRIkYofWw14qmeVC+8o0KKsgueP0pgACGbMWBOkHIebml0rSQjym4A5tD88x5iD+FLfZXY1hH6Rb0P+LoB15XGP0blX/SMdJbsbko6zVjKj1HwDzXZHtVxBpXHAE4Th+ZlOCJ6yIDTzcUGAYQCUWuom3N/HMoNKjXWQCZR0AAye6Vv3s1s+SeP9N/XXzV1MI8XHqFPwySa2b42AyM8cF0p0Jyomzyavo4neh4qzbv5BTS0PmcdPS4LQveqytw+t3vKpYFudB8jarY9eydeAvPYM7j6wZfH3mrZtxQ4z2pdtgxYbXCV+woE2VeLT0H79ZoFIQo6IiSAouIsuM6tx/62JSdBv4eN9JQkoWgziwacPS23tOy4sUYzyLLUk9Mth2vTAerrj2vfT9i0n6QVOQecGBRDJQjwrQR0CEtzHSloDGL2iDWUKDoRVPrsmoK76J6f2pnUYE8jF90KCBzLVOH20QLAFADFEyU7sTBk+1LSJ8siIhroiMu+CewRXVkYnek9IlT14SwM/Dv/ENL7b8JMMSSg8qIeaS17RQoB7F2L5rh51uxqELEhVNK2QB29FcMcy9+nwkx6kC97yOTriGQ+llhQZqIo2tmb4TPwBro5wXrcBeJwh6QJL/VYGSJUEyzhJ8IsVOFiw+THmNiT1qXFVJPolA+QWNpPpATrEThv5LrLHNKdeOUdTvb/urZi9qRgd+jgNFWtzQ4FzP8mgkhi6NOdj6/b30Gz3/cUZt3z2kGECNRXJNO1QrzJR7+3n39NZuufM2piAJtJQOR/Bgq4FUzi/wPfWPEiCpE8mviUke7mzAeVnEJLU5JLIko95BC4KSA66u0HTc8dUzioAdIsReWFiJu4G94CVpipZM6W93uDVl25zTZbraYCkKs68u2HjjzfQt/79Z2l823GqCTVwEYFe4xPAvYDP0NXAbQqkQYIBOZaBxTEJbER7BY99aLU5+EjIiCrneDhSmJpxjGOvBaYgQ1nBmcRgF2VHvw+L59TtIKid4beheTVEwQO83S4Zxi4chYxfR7qQIwmhWwPMC8fwvwwRsaSkDL4DD/KIO5YI6LHMfVeO/x+NmJAdkI4grzv7h3TRu/6alq3cnpo+c5o4637g+W4Bt4LTGTmwziBkkAkeK4uEXAXoLSvFcqBSYRqZ+IkaG7xm0VCuhaX5kgOdZpmOdnnNlXfS9PRfl2s77yyHiguzwIj6v9LfVdz0Frg6hJ2d/Uua3PVfivPu2nwoI+7TjiBMXvnCSxeve/QbCVC3rqwN6NuB3qfzEdpW/Twz94kkWFJRQ1ISIc9ZDRrI0P4gCR6cGfSkbr4fhHSBK+FgkQRVknZ15iufiUkgevzey+mOr72fxrefQFTCtc/icvDf4Soign0MahS+g8ckhwVXRw5EApdIsnNBPEsZ6U2mmRAG5EOiKFkGoiiYoEXRWgx0yfAJaYGhjFDNyJDTjUp+0pW+DkHOosANqroc0n2OQg9khktWvjayM0JjC8TUIE6UwGpCU3NWhKqrIWTlD17mb7gGPqtARSruC35+/KXfpgvf8hlatGhPhiS0Dao5D8F3fA5YxTKVYvxe38boi4G6KQEwz7S4GkKhFoosIzIuCmsG48wrFgKWVSUBGcitsx7I81453p+e+2J5WO+UYmToipy3JXR1pXAW5Fhm5EYNBKHfv5Pm+m8tTr3ph/+HICxQD7ju7r/r7D/pjM18IPrxRVu1gaYlCWagNZjN5Kfy13SIUoOrAifV/7YkwZgdFZV4NYJWgvnEJCSEaBBLggV9CVgE+KtoBpevCVwkoo0PXEzfueG9tO2p0ys7GYIlIKoJPTsAYw6YEMmUEJeDP2zJrzxguyLUKcYvxFAW3JGQEgRAcmkCr+qiSpV65nUfqF5Y6IdMMEYh1ZsK0+EbaRN/40z7yNHBkBEaZYkCA7wvEXccuH7B3xHmI18R+wS4G+KZBZLM0Itaa4HSCP9hcyyCEBggF+B2OO1l19G5V36Jhjuz8YRMHTwLukCkUZcqs8ooWJ1YLUAsnw4af5AwX/04s1LmctkTEca1zrWQmEOqeWE743SFyS0ssgZo2siBfDbb/9dy8ezScqx4bnpCqiQYfGdDlI2UA2oNnWlqduZq+u43vlxcTYfsLY+52bNAcL7w2Uy97gXHjx226bpieO7kRMOoMNSstBVIIKgPNZRUtY4kJIA2KCGxMQO2bl7FpOxTQsx1VDJWAATFimthUGvGwbAkGHlecJIAUOb/zChVeQ58QJf6qoRyyjhPErY8di7dfes76IkHL6GShngdBxYBdDm4MjsuZEZiC3iQlaNEqhB0cPgd/xVQhn7kKZS4H3yyGJqj+hyDDtWoI2WgrEbTfXWxFLQzio5VIPE3A6RMcTbl54iE6vys/gVLgVoCUpRMIwSiXInxI+JD2FWA1oIQihnlIW5dhGc1uxqSC50y2x6FRARCIlYFrl9Z0rlXf5FOf/G1NOTxIUMKAH/D+zhnUsVRY7pnohnzhsGw6tmCsL63ZbLwVJDD1h8V1QCuhcpEqoGm5DH0Sc3CHqJWq4Bkv5krH+sPzcyVS4vjCwlUTMqzejODcaC7K1W1yWfmPkNT4+8vzrtrYuHRcmFyrBmFhcl8oXPpvWnDT3eW7fwoDZWrWHtWHZ6NOwtEo3LN5h206JdDYAZrs1pYkmDKr2hal7fNc4FJgpdbKEflOBNgmSiompgE1APW1QPyG/SbKBsgamGJmQK6pgXlJAqsosjQCuBROOrOOpIgqKn1szEJOZJg7fShbru3HUc//NbVdN9dr6GyPxwhXXYwcH1114MnCHIiIQO0SKFfaUezavgb4nCh7WKgSB0DqYVWrblGEMOpjGEMpGhLBlAx6GooM93j9InKE3RkKFmsFpIkBgEkMCThg4lFgQvwYAzu78SSACDPLVPybUlCDHJkqwESBv44AnrsuGgtqFoRxCLBtoLQ5OSERbEihNiEUGRJI0sm6fw3/SOddPnNVPhroqU363xIPGExadbJbVbqKDPJXMB0MkhQB6lPDiWsuyEq5NgM306QYZjbZkqm7gvVO+bbShn8vo4cyNzL9VHumz6VZX9uslzaH6PhYlgCj7NuhSbkTOKCrPDJ75Ko199Ic8W5xWk3bq30xyHy4GlDEMqrrhrtL/vBpzvD3TdQ0ZflWrSzJhqtyZJggK5CEiwg21U5uBr8hG+zDGSAtRIzgXkcAJLg++pQIgmuPq5fAZgVvBHwWcPUkQRVQOYbdFugkpIyEvIhRKaGJMj3WoeCpidW0f13voZ+8K230uzs8uhy8GkF9GE7ZHImQsgwWGJjWq2msVDi7gc5ojikDeimU0t0a7JorB6SJFMhkAXQmhkxCDqrekaC6nP/OtW8mj/oRWxbyNJoa9cIiA3WQHghCSn8S62iRY7/UsLB092Xwq6GJFCRiw+8CewRdfEIHPAYqs6BjxxzEC0QkJekLx0Cid0wEOPlR2+kC978eTrm9O/zkczKFlm3ScyBDIgKBga5sGumZaWOoM58IBu/4F03OdO4EAokE8no1wTlZUjCoLsb6gI1sdhG60EG4mrTF1R2+iUt7rodLhrx28SvsjjeRBB08gerEk1Mvac467ZPHiJ8oFKNpw1BmLvq4iuGl+/+UxrunRNasZfbDxUcoS8wSJGVCFr0fMqECLSRBGuKaiAdOGEUfHhVnWjSjCWhiRRV6sxaMll9LCBJyNVF22MDFQG9QN+1kgSXn56zAJ2TALwsM+dBEjTua0BLAo4LK7Beb5Qe++Hz6bs3/zTtHj86XuOssY/hDwfC3iUgdysY8hKOa+b/fLdF5aokwA+lCYTUmACwQsjwGrKQuJET/hoUv9sK6JsIWIX6ODwWVA1vrCIJYibgafSOuQpZrCHxUCWRn3i8s6+Zu5RJyQTLCIhaZ2yWhpdN0PCSCVp95l206tR7adHqbTSyfII6i+eoM9xP5k/ZL4m6ROXcEHUnxmh62+G0+9Fn0Lb7T6fxR46jfneIetOj1J0Zo7LficcoYwCikgTpD3YleBXFVgp0MahlgYlR0ad1Z91L69/y97RyzUaeF6Y3dY64j2VCBUKYTBYcpNyqOYd0FbKdZGIG1taLR56rYibu4DEHOoFy+UMZyTTKbfmEBIENmonHP7MEgfnAcEn9sTnW9ywHDVllJz/LRjbQ0TLm2d61xSk3vSRf0YP/9GlBEJwY9N964S93Fk3/OnV6y+K4M1Bjp1cAUJRtA2hbK4IHImMZEGHUHhuQJGj6eQK8xCMkk7Mhj1wf+G9r2qH5HgiSIG4AqEu0kSfu1XqSAEyijiRFqke5AAAgAElEQVQgovm/95UkiHKykeMRtBMkLYh2PXUSfePffp22bT49uBxUn0d494YSsbzDYUohV/5fBWchAhC0KJdBYTV814b4gACkZoGJV0ULwItnR/QQY26i2My9CjmFgVNciIMVQ4hwjFqvcgwIA2qFtEQ3hVQ95hdjFJYcuZFOfvPnafX679PQ4qlww2aF5Ige4BdKOGREqkq57JU09eQqevymZ9Pjt11EvekxmptYRN3ZEerPjVC/L/0ddi6oDaLmIqfgZhCCE1Kf8uKv0Xmv+WcaHZkShVUF54pZPzMa+gje2WR1yNWULpevcglTloAzToLA8FLLhH+P/S4EPTMW6p7E8WkgCXUEocF64HPuEJXLZqnsy13dA5CEVACSCZTvaqhEr1/SI1tWFM//gdvScsj9l5P3Q66Su171vCOWH7Hl4zTUfUd0mrpq7uPOAmz9vOMRbPkWiHPuhwaSkgPz/91IQkJaMGYh+uVVayYkQYDcLHtrSQKwLlFSwCdS5/yAJAHiGspeh26/9lfo8YeuoMk969gBwASHAxC9CvR/x/sdfUmgQ2VzZFjXxzb688FsEwRWeJWt2AgJuQbJbgShLejfFxD2n6rfPxjsw7N4KLP8DsWLMo3gK7gQp7fR0IyTChVO53tXvVyfHY81RnGNBCgALHrtjjj/TjrmJ75Gh51xn7ceeLIvgMFEKuBSPSmIbo98mt7UMG353hn0xDcvoslth9PsrsU0uWU1zU0torIXnDW+KGtF4OOXQwtj24bGZujCt36OTtzwHzRUSFC7BfmGg5IQwHNaXScWz6bkd81kkjkHr8OjTAGDkg4baBkFIeIOTm5EIyQcWjd+mEwOW2HOpI0cSLJVc1T2eion2LVYneTvGpJQ7ZYMTuya/PninNv+qDbvg/jiaUEQ5q6+4DlDS2b/tBjunZUGCXoJNJFZmWA7bGWyot7XeARb/gEmCTgpE+EZoB5JsKUgwYAERuWvJnAx6e8IHHrIUTIG7H5Q9BI0NIFa+h4S5kiCK05vgQRlmAQmGk0jCkkeV/JlpejfozXBKicMmCzoifueTfd+92ra/Ph66vVHNVIguZcBzKChGqmloKqj8X2qOUJtrIvC6F0FSAF7XKgywIO72/egTCc7PXzWQhus9nWgzeCKr9TblNHW8kgYkdSV6yP+fYVsY2kIpIEjD4qSnvGia2j1hd+n1effRUPObOyrK4OcISoyr6Vc7TpDEjJVn9m+hB6/5VLa/eQ6mtx8GO144DiaHl9B/Z5bkqZkIARcarSC/9udqLDiqE108bv/htae8EC8IjoB/hwwAxjmkKwO3XIgnMgttpllzga4VHDYBEfK5K1UOwPqid9LOt7mh3FBqOMgPyGCOVDNEoTMJVArutR3vqfMQbd1Xov43BRS6ZKMbp6d+yqdcsvLG66jOmgU4ZAnCOX69430T//We4ux2d8vOv2xMOdsJzfEI/gWYvqWeIC6eAQUBksysmALYzqfnRWV+kp7bZsFQKWcDDGyAnwg3Q1NZXsbuxFwr4NybeDrZJP+B4D336EUirKwAVWi5MAaYZUn5lPJF8vhvKroHTKX12VBu3c8g35812vpkfteTBO7jqESXQpeB8dYAj0LQTlSNLmm4B/6KXQhb6sULiTTHeIXoueFCQBOGdQAdkpxXnIuAwYTyjRNFUh9AKO4P1QqErJRA9b6mP9IksEPJRBcYT2DuqTR5eN09AtupLUb7qCVpzzkjzxO6yBsBDpFxzU9jCn90BANIDXT21bQlntOo6ltq2j7D0+kjXeeRd2ZUb+zQXdIJFsnZQtkSWtPv5+e+/OfoNHCnY+QsZwlHQ5yVAHYAcA6RxLqQD0JSMkBPAtojgxkUQbyqCMxPkv4WOtbU37WipHErqZAW0cmlnWpHO1SORuTN1UxwaQMlMdqVcmDT97rb6fN45cUl3z3/oPGBGoKPvQJwpsvXtcfmvndztj0O1EfV3cPIN0zYDoIScAYg8qerwYwVk2ZaDwTQGRJTcvKe1CS0AT4WSLVEpMg3+R2WeBMaX0/AGlpIgkJGeC8BHSVGzSRBFFWSBJE2YCZtpFYSLlAUFB5+uLN9ZVJH4kSK2huehltf+o0uue2n6SNT2wgKod4pR/BKZIDc6IhKL3QBZ5VBBLSh1sgoZtkJuIZNQLuPgjSTlU2dScYoG4NzlinrL29MbQhtDYCeeyK4CrA/2xaBN4kpShwPatYWo9nI4SzDVBkbLxDMTRHS495go594dfoqOfeQiPLpjLuBe5X6RupSEJS7EP4nVudlkSTmw+n8ceOpvGHjqSHr7+cdm9cS33ngnDpdXeDIwh8KmO/T6e97AZaf/U/UDELMTSJ5QqJg8i0CIgNPuGdKzmEs8+Szs+AcB0A7w05SSaEzOk6OGqwJOTqjPojNy6qnmrKW9wjWjZHfQkHsbJQmaQgkzmg1epnKhPymqTp2Q8Up936qf9DEObZA+UbN5zXH579p86i6eMTglABwEzQYBOoNW019LJmtOi+rr4HAtVMEGIClqxVKs9wBu+jJWFvSEItGWHQyI2D72MAcJ8mE8xoyYLoQf9cMpbvahQJoofEJeinTd/IZGWSgAoV6+GVd06hAlEpC5qaXE1P3vdcuv3mX6JebzH78qPZVE9c9N0m+SH4hr+DhztaHhSiM8axyCcAyI21QbqeN+iHkw9lHyC3TEz3oStlHhoyY1b8cdil7EgWwhNjGZDgTRMYqX3LQX8S4qeGO6+f0aIQ/5atiy7tyJIJWnnavXT6e/6Wlh71FLcMlba990GRJF3N+8pDXANuD030W2QbvZkRmt65nHY9dCTd8/evpG0PHEcuViXGIogboqTOyCxd8v6/oRPOv51oDuMOMseBJ7IlwoIDDCQmkRmoqE4A6BJ8BmKQRE5agjFIugomw4NEvuDaTlH8/r3rMwkgNLJr68y4nYUcQ1o1jeu6RX2iFbPeglDCGYf55hrQr7Qv5BxUVS1b6dPs3JeLU295/Tzhcb8nr2nOfi93oAJKos7sG89/1eiSmS8HzcgdbAFHfw9IEhQc7FIKNOwgQYsV14It3wDk04Uk6GRuIxsthEbBvS4f9NmD41vKRxCWMTOL9hhQGM3x6WKLARgF1Esr+DMrEdL4zQKSBO6P2clldOtXfpc2PnYple4uB60PBCOyVtEu8NcGSwSjAWaUJuu9MVxXh4TTgTU+ulFFsZYldyUDDhOTODxVhYdDF94GZZ4qGolPENwFosAJA+aH5+ER06IcSeBvYgxCcHUoPMuFTFJMUdKFH/5dWnPx3eEeL3sOQ4IW4hk2RKKRFMg4IQECtHJkcctSuuE3P0y7H19L/b6LU3AWBL6/oSRaunYLveRXf4+WLJ7gLpTyIQZGADEHuqrjohuronTRZKTga4GMTxFN5hgUKM1qC1zMpcNnrnmJycuU4cu3bedKJXgQZ0wtyDSRA/fRWEm0cpbc7pVyJs/9jckqFpVFVCe7LZBX9u+ibXteVzzrjgcGAscDlKit2geoGvliyletX9Jf2vlEZ/Ged6lfN4knAADOkQTUVqrnDcloAu1BDlEaZPtjMoEbSIkKdSYNzvvc7oZKXARYFao25dAbg1hFkAQN9A2MSV2fJ/nsJ5KA5ELIAJIEfSaIBMgksJS4IMDioeOJdZcCM4pNH8X7Ivq9YXr8vufR3d/6Gdq96zjqdccUCAUQo0Gl5NiFUAeMFctyZq6qLHQrwwBY5RUXGwTSwHYMPowBhw7qhS4kOKqXKIOuTETNkomQSwLkfurw2QnSZxmSEE8bigRCT1zwj0KDpG9kvRmy53dEdORlt9Ipb/k8LT5iGxVDeBw+d0rtgg97QFkH79hTWtK0YtQ+3/HAUfS9T72Odjx0LE2PL/VbJt3Oh87IHJ343G/S+jf8Iw17kiWDBNaqxIQCOlSIQ4KVNTEJOjkEbJsOSYK2JYDP/aGTCeuSg5iGujQRm4TEZMpIXMO5MvibNoIwXBId7gIQSupPSr8ktpNUfyJ81SCq3uxYER6pEz1Js70PF6fd9LmDCrqm8EOaIOx61fojlq7o3dkZnTlWdHbC3CygZkmCJQSiQARAc3bZJktCQ5Cjlu/SYLk1K2gV4JbASQS2pM2Yb5t7wrZbJr7pn1zA5X4jCUImQJg1UNG4H1BxSL9VSAC/EAU5MEmQ72pIAipaIQ2WJPg0bSSB30O99rggxrtfT48/+ALaNX48UX+o4q2ITRcbfHqIUcUAIvpagvfQqmAIgW710zRxdY/dHPVGGriHCiTq5xCnoHCSJQoRbHxaqLMvy563rESB704QRetxEwqQUCRlHmCqZvIQkgcZXfHMB+nUq/+BVp3xYxpe4mITxMyOLciobKlwYklQVhNRJWdpUBITethti3zyW2fRQzdcRE/dfSrNjC/1RGbJEdvpgjd+iY4/9854YJZWBeUjo8btkhVJQ0IKzLeWXCigNaRD+UhsRa6PZc6jyyCXF2TSRBIECCrtE9mVcqAMLK6NHLj8XYjQ4TN+fvSdBQGuyohZGZ1up0ilibJN2Opb/rBPszTX/QSdevMvup3KhwpJyMysQ6VqRHOvfPYLh1Zvv67wOwuawNCuhgGgsyAM/e/nr/kdNFSMRq8ELWZW35U8Bth+mQhqC1HxI2XJDpxHi3XGNifC2+CmSdLlyMZ83Q3Qh9rOGuHwfYe7FUSxGBJXRxK07gDwYLYXnaIDmoy5fCNuBatY8D3ofa0LgH5SD3O4EpCC1L0RhnXTw5fRk49eSg/+4HU0O7MyVJmVtRXSCihrujSAMHQrp/ZdGsE9PIX4hszQ5KZcnLL1RMHnDCDo8lGcUVGzwY4yvcH3Ad0t0zvVTpwZkgRJwAGAeBUTiqjerUDOnL+JnvGi6+mYF36dRpdnzqvJqutIcBLfMhKXiirNfOMfhdHoTQ/TQzdsoKe+dzI9cssF3vVwzIV307Pe+HlavnKbv1pc/0MgT/QI51c7aXLAmXmWtYlnVuVtrgWtWw5qcGFgGmGtAdk2ZhqZCIcdgBq4s+Prkh0RCELpTtp0xgRQLZVYgiYUzXW3VssU3Ov9E22deX9xyW0uQOaQ+K+paQe9gr2rL/qDzpKJnw+6zIKj1WgZUGtyH9h3ubQiuwmggNbS1a48Q6JhSE1O27bWweWL7bJExloqbHr+HXVQqGhdLEeSLkcI2khCjmzZb1rqJGcYIKBK31WeCQACmUNJzpIEUaCwrNZvxGWQ83WauIRkF4YhCaGTwaKAcwY1HbooiJzb4bEfv4iefOgKevj+V1DZH0m894nuU39AavrUY5J9Fap3L+gQJ+KSKqo6jxROnYq+TlwBqeqwZKGqH2P5KibSWIgPEKIRv48kIzk4SSwnkhCPZwZO4fvKgUBJNLpsF61Z/x064x1/E3Y5RPsH59KwqAPSwwKW+cbUni/t8glN1tPbl9Ojt5xHD1x7Ce3euIbOvvIrdOrlt9Aw3gqsk8EG6hmVnhAJIN64G0bmq3ZsLvivMuLQ1KYyYe5XdjuInKTzJRvw678F9uWLtCecghswybLB3ZDpf1/+mulQXp+oPx3bkF3ct6EoD31rHEKvfyfN9T9YnHHTN2yPHKzfbU07WPXy5fbeuP6RzuKp4+L8tSSBR1dakSUE+E0LyWgkFAb8dH7WWDZEmzYRD6txLRHR0fn/AUlgXRB1UG7JKs9S4EziTxaUJECchiUWPnoNlZsoM1Q2zuoBq0Ibs4CBkGh61TbIsgSWJ2WHpqcOp6ce3UA/uvMdtG3z2UA0cNWdCfzTKAZ2h7t4BT7JT0WElZWo2kAoInhJ1fxTy0dBG1ijWhxea6UAHPH5hUwR/6MSAqLgKxAr625hzJUZsjMI6w8iMqoLSYJ4MFy8gzASJ2KdLq044RG68MO/R4vWjMcMpIukKK28JLEJkhaC2yLp6nR+yThwVv25Du1+Yg39+N8vpU13nUyXv/eTtGrV5kygXg04VzS7Xa3XqH4gnjotLBnxfWsIdi67NusC5puTtewzkJXkPRAw9Lnp0EAFsa4V3scvj5jWEzj7zoLg3QwZq1eljmbegQrRKZ1P4mJPxqnb/aXitJv/oi7JgX5+yBKEnVe8dv3KE++/3TvfVLuxhGKt6ywLKqOZeAB5J8oB5Xk+JEEV/V6QhPm2obWOFnBbXBY+vyaQBuVXqWuNVSDXJhwHbENt+SBROO5JX+dC9VlBaDpQJNaSoPWQVb60x3zTRBIwjzaSoCunjJJKAgikfLdPfoi6c4vpkXteQd+97RdodtZdQRLe+//1By5xaJ7fFpgGDyZpBdj0oihxNwhYc7lJPimQI+BapZEnEoMRhUS/mpV4GFH+X1X0KfinjyV1WPnBqQkhF0MSfNnyTA4uKokWH7GFLvzQH9CKUx9KPOr1yhlIYsiUCQqAVuXjpm+i7PVmR2jTnafS7kcOp1Muu5mGutBjiV7MPE86F4QPgbmCADVAWln9mw/DpAwl6kq/pk65MnNIhGRFs68h7pW2IvlXoeH6ceIKOeBC3PPVM0Tuci83lHPkXQ1izdWzSOomRK4tpjrZieXK7XU/RuMTHymedYeER9ZPuwPwpqYpB6DkliLm3nDxfx5euud3QrKc+wAyaDP1t4F+4tsfIBagzjWgvTlPd4cKFcyivbI8zJMk+PrOkyToNwO4GyrjZsYy124UdAV77hdLEjBOxOe1FyRBAwsHIAmqpGQ1FgE9sSRIXRJFjKIGRETrbawZYo1wCqpf0Lev+0169OEX09zscirLYdYvKcj4myJ9M4pwQCO8FhGJa125KRFW7UG7Rx0vsmeVmxl6HTKjcKM4GLIh+WVW/6mVQGqL7WQSwGclVGBWngdGQIW7SEnZDafm1Xq8wyE+l/wWr95MZ77zU7Tmwu9RZxh3OEhroW62mqqaYm+rHrNBfNLnPmkNsXAbG2YLoqkZ6uwcJnLbIuW7RIPX+fRRxs3cs5YtmAPaDAR/lE+LcjYdzv84taDufC5GRjSidrey4sbVnAdRV26yLQddFHXgw2W57nK7GEbcuEscAssFxtOgvk+yROGrlpXjR5pqrncNTXV/rjjv1h/V1fJAPj9kCUL3qg3fHFo8cUmcg+hnNkAjoJVMNBQKsCLoRM0F4oHmkrzqQH+/k4S9WKX7Os2TJOiuKQjS80Bs6bX8dv+64MjArlM7NHxTS5bM2PnxyH1nSUEdSeDvdbyaSIIrrEa5JOMNSskDtTIT0FsZkpAQVROzkLgbQFsm9a4nCe6LPTuOo+/f/tO0ZdOFNLH7aCr7Q2mMAjedKULU74xTsZv12iXGrWg6tQoBv0mwoWbIhFNkdX7lACSGuQxRSKexBBWE656j5RrPO9DGw7kGANBwfoKfgWwtCTWQUwwR6UtasuYpOvnKL9KRl91Gw4tcOLv7EMrJauoBSAEfr11//gKgUMqNiCZLoh0FkbtaAoERwThLGky9suCNbYNMpJwsWrQELkqW83Y3SLyEq7ecKCmybW4tqG27LBosw838FqCR/vYEIZhr3GFJ5ZxjaTxfcdyTPrGDZeImcsXaOdTrP0Zl/23FqTfddCCJQF1ZhyRBmLj81UcvPv6Ru4vh7uG+4qpEDegn7yzwzHMVXwf4WAauiCt3NmRM9k0xEfMlKrn0OXDNkQS3baczRDRaEC3qBR3HYFZ0CiqH3EEtQyFNhwHUtU8YeNChrHj7VDjt5A520eEIJl2adorL/TEbbrGbF0ng8Uv6ewCSIKZPdJeo2V4qiIDPBeS2SdWSBPnG7kww8QguGW5T17pBxkm5UC9fhPktwRcgpe5gpc2PbaDHHnwRPfHQC2hycl04+VAk3J+CWOV34X24JKjifuBvQxeGPqsnCpk0lpMm+UXVE+tYV4YlpfwtzDNUwTHnOpN+aK8esgQ3KXqo0eKYWPt/eDuaX82XtHjNJjrpVf9Mxzz3FhoahcP5G7U3gLFET86XWOhYSK/xriiXj5OznUTEnCUZLSQNOpAW7GGELVFQneKVRGQqlQmRmSWWmFSS2PktcmU705IOIekNCLs3JCGpnyEdQBB8oKIjCLlTFXPCkmkOBqI0gm6/dKcqvovOOOqzRfH5nOmqceYt9MtDkiDMvPqKq0ZWjH+yKPpL5xd/wMqrFpga4hFUMHASNlgZBGRxRPCZJTU6kdqsGXZpVmNJwIkJ4Oj10MgQ0dKSiiW9IOMO9B34jxVE8qxOoBDAUNloe2q2WglBmHH1Z4Lg/pwsiCbnnI2UWYbpXytg2bgIIAqSXvSX9D/2t9Rb02D0tuRlLAA+35qIcM2bM0z6aECSIPlnQD8EfEFDbNtsDINbzHRH6ImHnkfjW0+h++5+O83OrmQdFBRdTgRC18X5VZ9G6jK/rYw2MLAuf22p2aGgosTgWFFOCaCnxCO+MiTD7oJIAhg5LZcX/mGywKrEdebiw7fQia/4Fzr+ZdfEI3OT/fR25VinpoE4eAscDjQcH+w/l3pIL2C7CiLnchh3lz248QYwx3mUyAb0pk3TBK7WBeHS+mbY0cE5LIwOCbUh64nerKlbUgT0lcpjG0mxFrkGIiLtkiSHzRKNasAHlbOFj0XQMIu6Ia5MWpMwUTF23vDH090/oF3Tv1VcctuuhQb8+ebX1pz55rcg6Wdfe/EnRpZPvpeoHPEZJqbbjO8bW7EvQYtSViNoGdJgTfF+HpslVasloS19zgwf6hEIQYdoJVGxvOtXsOXQEBXuduERVjpJ/0DjEEhzykTeY39Yc3slD5AA16yuU2ZOGQZ/njeP7nYH0ujyJ40xwTFIys2RBJbqRGHgfMHdEKycMa0SAlRQudULWrFYUWHfqKUAKpwcCW2JB5sZrAJMxol/VJS3PA9t78+N0OaNz/JWhfvveSvNzi7XQ3U0iBEtCn7aIFABacjEFiRVbHQRKKIm5KQiSjFZEG0BQyMCipFq0RBLgDt9USracNsiYL9vL5AL3t0Y3XFyaRKQAl8aBDCOrdhJJ73mS3TCy69JSFazwgMfe8gwJFdrgoyDoJNUUu4b4Nxz1gf3iQOsXR2iPWL+zu1UqAFmnFfJINWAdaIf4EcFxM0q3wYawqgnZiqVJwBNq7d8d9XtLsqMRMVKyGma5E6ysQTBn4eQnjJZC54NqJrrrkrN5/rXU7d8W3HWjZsWBFD3IZOGpuxDrvvwaUlXDZVv/tHXaKj/HPQ1ysKLJQzcDizVyWRqAtyaFbwIic/HaquGIEmPF2bV4rIQF4QCEqSRMhLiMDhJ8OeljHWI1pZULJsLZu2hgmhI6onM3YITaIMK+IgA1YETf5uzMuTATYuC/Bwp91vvymAm3T5JNOc2GtfcY4HKi7E5tSqZHQ3Y3wji8q3Nz2XmuwsVYwNJ0DwRqKVfalYsvuwBSQL2mVWQFUuDAAv5HQ+Tu46mH33n3fTwj19Jvf4i4zO1dyLEExNTJRCR1SoH/V135oGKScgjpg/zqpKfFQkAcivOIdAQdmsI9uLRzMmhiXFbpFCLikuM72gIvciV4W2hQQuISyYYFoYXT9DpV/8dHf8T18UFNHIt+7dvtet3kUee9/obbqBt0pm+anGsVQe6Zy6LnR2iXTrxTUc3xQiIZQ3yzoGqlG/no8RSSN1R3gZ9lkwKriv2owQepwAQJxTqsKRMkEns2+ykzvSRJQguDsERBD2pM7NZw46hLQve175yL2Z7u6lHFxZn3fjjpmlxIN41NOFAFF8tY/LZr9yw+BmPf5o63dMSrVIxPSNoZ5Yfdat43+J9IAmo9UAmKyTBg0JNpL+fu6wsrCZMAAw0qLMMOBfBUV0qVnWr/urEf53xlecEFoUrqYeAn5E4bW+Nm2Hg/Izwurpv7BBt2+qcfYagWeKUIwQi4I5kmFWU72doD46ZBeNEwWWueZb0vvm5PkCLhW1jjQujEgAJAyGHRiUKzro0TMBBUdDcxFL6+r/8T9q69Ryi0kW9W3A2QYkVoJYC82cPtBEFG9goIlfR3/ygGqMqOyyi51a7IHNuQ3gkuxtiZynwy84Gj4cu0JG1vGC3y8Bb/KW94fAkBWJ1S5Q0vGwPnfXWT9Gxz7k1nExZ+Q9WwIomMnFMepma+NjygNjwMI91OsfATZ9kR4doZ85thgpFRAHmmAXYOhlWZcwVUDnC66QxX9OQtiBFnRy2bl6RpoOKwKD63ECZbVeiV+WltMXoCJfWEgQ3JWckDgG2GJvurUwH6YZcEzKzRx9NzL2iOPemf21KciDemV49EEU2l9F9/UVXd8Zm/qDolEenztQ2070FEldOU6BcWywAf59MLEtEWtwNctlTjgT4fBtIgrcKEJWjfaJlBdHaOSrc3+4/XPGioKqQaSJ+UmNFqFUGOVMlmtkzxwjn/OhJfTKkIwFr/uFCFTbPEE1OhIDHvjM5DEoSpD8tSYA5h/om0T0I7lLXTJ1lPrSRBJ03pu8d6CfzgccqF7xoxxqVaCK5+diJyZ3r6LYbPkq7dp5A05NrQyAqTHtZWSc6LksWwsOcN82/8K85DXY1gmyLRSGfd9WF4PUtl+e7wP1P5f4Fi7ISrCgfBAIgrgq/o4HrGnY3iPVAGsPfsyti6bpNdOab/5bWrb+TCj2YwE0Inn+o4nIkQDutTf2aj30dEdzEsMDt9e67QAjDgMm/OfBsA91kVkB+DXklYIjpjGXTvxKZzvSBtVBKjEWiL6B++BywPvRBTR9b8m1lcvUs0XCMQfA1nin4PITQ0PAJN7ptKE13tiafnPuj4pybwinCB/G/1noe6LrNXXnpR4cWTf580ekvaj/IZ57xCEgYZJJm4wNEsDLastGSYbSoAlBT1JghCc5SsLhPtLhHtLKgYhVETstkV3xGILQCPx8rQgYIc8KoRbhybXlteTS8t4LsZa4g2tojmtpDNNUnmnExC7DPSEyP2seyQgcyYduAv3N/I8nx76GdSdt5fihRw7ZxhZKyMwBuvEBB0eAK0PSv1EcE0rosbJrLIKkAACAASURBVPQUj0/Z79CWJ9bTg/e+nrZuvIAmdh8TiALraBGD7O4Fy4flo1zcrNQr437IWhQQI0DJVK0JyXaDCCy8mpZb8nSzANfRb0JI4DTImTt3Ta/NkYBE/0pW5NVAxZCeD1ri9h120v105lv+hg479X4qhnheoiUgqzgteqU1BBRO4iMUh7TPGJR0LnByV43xIaLdHRYVK3MIaBl5NCAWplQOIprcFtjwBvemzxrbL+VAQLG6F6QeA5RbkROcXGZQKruGRO/zXQzm/IsQqAj19L2D/SN1b50I7dc/z/VuKU6/8dkHGn9tebnRP2h12r7+qpUrT3zgz4uR7hu9+S5qr2pYtta8IT5AJyEMfFPAYK68nMaaN0losDz4OvbDPSzLSiIXaLiiR4UjCApSUH8BEfsuB252qWpBK5H//Co0KiejUCrBQhmFg7OrQigMu0fBtmC8uyTaM0k00SWanA4Bj9h+dOUocFrrDvYh672kP8D8Wql3xnUAOqv+nAQE+Uz/Mieo9rG8MCShMl72vfkNfe7uedj4yHNo68bz6eF7r6SpqdVRuSEPzlkD6ohCo1WheiytJQranAYerspIgyuBWeBqurJSzwUwipmA80ALB7sR/GLVnJkQOAdbHfj8D/fp2nO+Q+e8869p6VGD3q0jBfI4paxmH/Uud4Bb9O4aItrTIepZmTWAj3KGZEMmZALgRn4scci6EDIEIyvnkC6rM2Rwc4Qj820TSbDtzAYy8l0MQhBk2vSK4GYAXpMF0ORhjhSmm5ayAz/Xn6HTblhSFImfah/nyPw/P6QIwsxLX3juyIodnyiG565Isc1oqDaATlwLba4JVhZJnm3lZfK01glLLGosFT4Q6rC+txSUi8tADOqAGyf+vK0INQTAKgkFzRrwScDbAKDVB/OxMvhvG8p0Q+K2UE7OEm2bJpqajKs+TwrQciBtzSx1lVgggbDp6/oKFa77m/OQOIKKsrGWloyCw1VMRbElhyqk80Lb0UISVNkHAuSIwqZHn03jW0+m+773dpqaOiJdB+HUTxZCDPgZMA8Vq8Yr+JrlCIdgTQ0ZSTDCLMbijgRZ1+PaAawAogu9fhayEAmCbAyQC5t8PKKPSXCnL2ZcDEoSXD9ISGOfjr3kJjr3Jz9Jw4tcoK2JC4hbJ+avmStfGKDRWAxMyGmcCtnpSEJwKSX/ZcEzQ0QTl6EMWAYuKu4Aa3QwJEUB2uRl66W6xMiQ6AmLu8mkARbAYpriCdTJ52PjeBz7c3cxmCBSF6oy5Uy80h95+0q1v6vDnwde0Ukc17Fp93OKK7518wJMnr3O4pAiCHNXXvTS4ZG5P6Th/mkDxx8ooFnNVRMgWJs+cz0zAl6FlLSQBIk/wKHBw5XcLXIr+1SsnSRaREQSX4CCoiAQJ6ROyXkThHms2FE4QdaiCVzqM49gxTrFVBFsC8IZheO2Tc72iB6dIuq663nZtOc+1XEC0E/GES0FOEfQSgD54fh5RVJDEtQdUWMpUBeAUca+zvYZ/k72S4ba2D7DQMdsP/NHvqyQRa+7mHZtfyY9/uMX0/3ff7NeMW2zbwpwRPAJ2QYZzMYT1BAFtCposww/lzxTTOBARr2wUv5goiLn3nDcqkQdhp0JHKzIuxRC1UV/8KFf0h6utxzLLN9LWzvDs3Tyy79Mp131hXlsf+S+srsAcK7lDljyYCe9ZKwRlgk468HWIaIpcSchiZaJgDqzBbCb5lWiI+BHkiUjtboNUE4AxS0iabkodzBLK2WIddAyCJSbBleFTMh1U3ARWxwYTxCAN9huqUXiXPe2wfau2f9UXHjT77Yl25/v7XDsz7Ja8569csNPDw/P/V4x0lsWEu/lTgWdPxn3A2rAZFXvJtSA6RMFbbWZrCozmtKV3SmpXNQnOmaaihWzPAnt8b8ZYZAyEUwqwYq5la9Bk+RnQzm+nwxw2Wd4bDFKSq6MgfKDMjWPBteH25LmfIKPTBJNu9v3wC3ldSB/K8pW+xBIgvvGki2fbgCSoG0ylgS7+lK3h/S36VfR10kcAcaX+IkTNVxOiepYQSOxvRJM5f7V9nao3xuh2enl9J2v/xo99tAL/RXTInsV5ZDshgAXQtaqMA+LgoodEwzRFIbji0oIIhzS+o2PQj4EZ3i8/U/BCSUoTABkvsLBSBKg6DPuOyoggQx8pDMHKQYrBpdfltQZ7tIFP/WndOwVt9bruKQe0EB0k/jH0ogmdSkjY9wo8Fj76onRcBaJ5m2AUoqR/pC5X5F1qVoGXCvzHZUsFp1DSauDoN2JDpAgUOiinH6qxOIwqapYcBt0m1vIrZkM28aNK6U/2wnnT9hqVoSlZvwyxdaO9Ez32uKsG1/SNBP297tBm7W/60HlVTREnXP/ExX0X31hqsTmQxLarAZBpURZyRGCBpKQCA/OEJOnyIdX/PFd6W4Hc7sRjtxj9sUvFEGwoK7IE6U0B97JLEBgys1mC9hoRcgJuwU6m2aesQ9WcfnsOv7wRto0SbRnt7OjE/UzFqGKKwIUMoK0/s0KwsR7BuKRdGTc0qrP+SPVzdhu63qQVQ9o60Rhi54Ca0JOci0RQWUp+WH0uPQdd8P0ztV0w7/8lQ9k7HaXqHugUpQTESUFbaA+OFHI5mn4t6ps603wfI7jBBRjgbmw6AdLAK6+09gC71xw/eiSyHkd0mfMC5xbWHZS+GzLkkaX7KHn/MZ/oWXHNMUjIOCYujVqWG1Qmspnh8dMG9TybSCix0dDPILPpkYeFdPrEAzN8KKvsA32uxyR4EKM6OS3MYr84FgZq2CODETlHvW8bbcuJGpIwnBJtHoyLN5UbkJ2LkjRn4cQNWrsdBmmAVA1F7JRmQLT3Wn6xxuXFr918OIQBmjKfucGoeNf/rwjacnuj9FQ952qfdBMnyhta2ZFYpAhCZUJudAkoYVUOLeV243wjAkq/A1huZUykIRKdG0NiLa6GSxBOMhuhiy4N5n7LGCKVFrBNq6Op3pEEzvDNslZF7UlR5qLVQDGHxWABjuiuwE0QTKPpN7KACJqJrsbMoRLwd+Inw05sK4DBHTbl9pV1nQLxKRCEgQVmLC4GIX+CN1/99vo7tt+huZm3BXTDXEEdUTBGtWChFe9hpB30rU58gF5IklQPJBvxHrA4Fk6QIRgwCSGQYiAEoBwAZl/LBYH9y9bGaKxQZhCOK0pXCDVo7Vn3UUXvP9PadEqtmYlMJIhBGpV4D+wE3L8oUJ85ANOnLgsAFjd3Q1bRoi61iWorMC4rcy8NCBpQTPuRkAig/IBbC676jd6SeeyZeZoFcy42hKognmvzcyRHyE+IDejTBASt3L41t2sWk6l/ZMF0QGRVZPl0rsJt3nq5OLybzxwYFC4WsqAzdj/1SuvvPAMGin/hIryBcnJLh7j2iwDViNlADuvgXh3GUijasSGPKLWrO6u0MkYv3dn1dApu6hYltmyqPVCgpAT3JqVvYARzjQLZPtzN4P63tFsb4XXCqYR3pxJHriBdvJ82zjdJ9rp4hRmww6IWd4qqSttHGOpE6wapLy6fxNzvWkTun+SPsK+sCQDLAlaphcAJpXWksDzxEpxJU7CzCf1A8OYjY4SLV1ENDxEO7afRTd/+iM0sfOoBOKim9vsUADPTvggDWhMq9dsUciLKVgpDHD6BTQuboWMaM05AbgLfDsAnCPhUJYRz1pgouBIALYfXQzheUkjiyfopJd8hU56+VdoZIk7TnxAj4HWGVuvtYpWz6z7Qb5BS4LRZ66D3K6GHY4kWAJZsaJXVs1RfVgyP4C7AaZeVY7lJbMyZHsJcrZZGUEOPBk0ApHIr9VFRobc6zEXOM4WBIQ+zrfv+rKGW+U4Sh16NoKve+mGccf0e4oNt3xy/yNwvoRDhyC84fzLyoI+VXTo5NAzoLzFkpDTHjr4GZBPJoYhETboMLfLIBeT0FSHhvR9t1PhpO1x7laYNJidfRkNIIrvKwShzc2Qe8+TIwfAlbrYern8WoIVKwLb0DZtelsaK+gApD4PUCrOzOoJwmywKuyYJupOAejCaguzsX8nyg7AVdPJHxiHkkzCeHV0Mo8MUcBPbN76nXFLVcytuf6Rcea5NjJMtGwJ0eIRotERoqVLqE/D9OOvv5S+/fkPRHSz/Fx0Caz0tbTEqlAlC7ELa4iC/6Rui2SUcRRXhFKxAIRs5NAjHmr/ebjaWS3zoYoc0yAnKMqK3AQvesMB72IQCwPXN/CPkpauforOecun6Khnfbs5xF2sGm7c9G/DBbhuCwIOjiSMD4fdDf2a+da4c0GAV5DLLAhyREAqntMrdQgrVh0rHwlQG1DXctItiKEIlAMj50meoC+WdIlWTuvRJGn/F2Eng+vDbDWgDP1QsEfqAvO4bXCnux8vzrnxl9qS7a/3hw5BuPr8lxMVXyAqF0W7JipaleTYF20gnwV9YMxt31ui4nurxZpRQxLcOQflKRPUWcHAhJM3p/SzBAKmAa4SBcRrAb7iRI/Kq42MVIQsIxV1UfR1imFvy0QllCUdIOQeBYy/1f12gj3dDUc6TzqGPkk06/4QN4RxLxh893MztwJP+AmQG02P2jKa9HVE7aofJVNdD5KvvDRxDoOQhLFRolUriJaM8g2fI0TDQjYKmp1YStd+/Hdp56YTTXhWDXADiOFNkV4MgEDo0FkeX7s9EqwG3EkajIhioPqYTf1SH2QsYjFQyoMnK6ILBYiBmAtcHIL7P+ePlvMRfH6QKQQsusRHn/8tOvttn6alazeHEoVMALYunELPARLnjv3vynZxCNtGw/ZHIQPIrlAuEXRx6iaoKB9jbIAlpjJ4GfDOIaz/3M5rEPyEOOBEqFSyethAIqPWchLlvlw6R8UKJggZ0lTODoU4hAYO3jq+/Lkc2hXS27F027q7txTnHbwDkw4JglC+b/0IjXffQ/3iz7TTtWYcbOYH11gB/LypAWyZUwtJEoQgIFBVCAGQCFRSDpuWERWnb61aEbIEISMUCWkwIFRnplehN5KVAF9mpifJayQhIQAtaeZtRcgpmjZTI2sA+RRJgvQD/uve93gDvFP+T8wRTW93ewDhjAUhRMYdUZkLhozkAgQTaXOg3NIe7LPsTguXYQNJcN+7q76XLSM6fDnR2HD4PeSu/4YJAH9+/3+9ib53zdsdIoJJ3SyGcyt80Yj2HeNoKAJAvyLKGYsCA6tVUhWiwDjlT0nU+xR4CCVwEXiA71YOQAzpuXYM+hLEGI0E3Ag9QIm/57wlvkL+dVsfz3rDZ+mZL7qWhkZnk35sBY5sAkRxYFiqLIXYIEGu+cZF4W8ZJZoZSgFU9aTIEDI5MwKqUxBka+RV/CyVQUyUaNXaglZJTQo6r0JgAFxdMuAuIan5FtsAr12AarFihmjZTJ5guKzdiYqzvH0043UZZIw1ziXnpYEMyl55b3HadWe6K0QGyXeh09hhW+j8B8qvfNnFK2jp3G9RUf5CsolaFRcesWs0iyjqBNAwTc4+2hBUKKQjIaSwHKoAAxCXHHHQepX+boX+8VPUOWKC52wGVHP+4wSIuWIIdAn4yXsrTE1WhFw9zNA1Bk6Ce6RWmC0YCvBiOTVxFnV5tlkRUDFUAjrBzJrMHS7MGRW2TBFNbSPquuA1XBILIoneycQt+GxgDOqUqicJ2P/mb6xbHUkoorKioSGiJcuI1qwkWjpqFC8wgYQ4hy1kExsPpy/9t8+ieoIgxUTNhh91RCEH7MaigGIRm8gEArHJlxP+x4p4PCqJq4zXIrvEfNt5qCcfb8Q+6kgC4ExmvckRrAN6r0FfjUxhJ4TLj+eFr51shXTf9ml4bIqe9xu/Siue8TjXv0HV+ukksRLcYJkvuuMCQQ7jITgAQ/tM0DFRYLA6JaI9I0TbRtKTFrO7G2Ce63yuIQ4WcK3MJtUxfVGRDVdGLqDSuAw0T12O15AeoxOlbqbOeuXDYTNEizleDHUvf+cCX0sXhwDynR3dAdC1ksQ+KMsn6Indbyief9t/GI18QH4O0IT9X4/yynPX0nDnfxIVrw46PaMh0HpQ5xqwGkQn6b6ShGQZxJPQEhVbZxB00Ibl0h7RqeNUjMg2PARy93cNSKpuz4AJf5Z8awEKBU6AE/BisEBAETRUVih82BabpoYgQLLa+s8rTY15MtdHKuBWYUk7jMvCHfk8PkU0x1spZZXigMVZIjxgOETJKFEsv9KemnH3j9kK4FZUbuXvrvUWUuGsAGOLiJYtJ1oxxu+M6dTGh+hBOwwsPHzT46vouj/5Hdrx1EkVL5oNOrTQY4kCgn9iNRCR0O5Jz1JIiILl8P5bJhBSAZMP/Ey8QB6+fX4Cnub8gMo9DAz4EtjI4+xvgVQ3A+YV9EO6y6FPx6z/Jm344B9TMcTuq9ZDjiy453Sv9NKAC0qfjPOV7N2/zoqwW868gBFFndC0JVKDPSBv65RCcMWyUTchyGe/R51iCAt2T8Uly+2ulBufe1IH30lXFUdMEY3BRU3YDv68v1tIeXhp1ypaNaNakipnnArJiLtv++VW2j33geJZX/98bjbs72cN1d/fRcf8y6vWH0f93lepKM6ILgZjBbCm/LadDa0BhqKtEPSaQH8vSYIlM0N9Ko+aoeJIFyUrx7yhUt+L3QxtBEFncB0QJogVo5gxuf8bhTVDBnJxE43gDkIcxCwMBiqpnKMvqRf80DrW2P2wn6ScHElI2lrnOmCgdtNish/iGuZmifoz4RyGij+R21VriUGLBpTpScEo0egYkYsfWDLkLVGBTAFY2LYnytn0kSEJ07tX0vf++e10/+0vo7LnttzAfwm3rh6OlMyoFotCMrSwSLcEJOaZuh30eYUoCHBE4Pe4IOLs4wBDmhCcyKt9DxAhYeQIcDGTVxECxHBcs3sWdkSG4MYyBD7qkPv8QjDj5T//EVp3wd3zV6ZCPnNf4js5CQqmQgWcclzCPXtiMZFzOSiBsLKUk0lOk9RPyCbKnSBzBj1RvhLEZAG1qGT1Sq5vJM+2b1kXapeIGAsZckdtr5kg8tvRM/DIdelPyDHWoc11TaqMRWY8M6Vgql003f3t4twbfn/+k2jfv2ip274XMEgO5evPO4to6FtUlEsqdkSdowagF2RnA0t1AkiGmFTetbgncjEJhiT4kxSPn6BCImUt8NaanC2gWjN2DrR5BPwr42aYN6DnwBgBXRE4lRicZftcZkMf6Fyp8csrKYA86khF4v+va7c94Moo1ERrxCCoMCJGmSZ9VKeY5RtRb5YkmP4fgCR0p8foRze/iu7+2ptpZnI5z8SIKBGUtdY8oXg1D+CDwC5gmTQLUBTzTYIZc5YDXsmnogjAzQ4ED9e5GAjAKvVNV4IMOZHUUQMPmQSINYH/DdseU/IQSAgEMJZEK456mC7/xY/RkiO2RctjrSVBtGXCAFCAW7Y5SA/B/EBrlpTrk5VE08NETy2KJy3WzUGYjtW5K/JfIyOVb83cVxlxda5zK2TkQR9hm3NWyqpM8syNExrlZLRPxeGTRHJRU8404G5Qmh4Kp7hi9iB+MpK1/9ruqktYUo8mu58pLrjhna157ocEhwZBeN35r6BO51+Ugle1CpA5DFrkid6UPuuuMDKXgHpG4yUAP4AlwU8aJBpVt0l5+BzRcbupGAOmKsLSCKI1gW06ORveNxEEX+eMkDeCew7oWvJIXChGeySABrO9Mf6hTuGkwqttE92biw9o6vfsOzH343wy5Sb9ujckAVwBvg6GJMizgExxGyV2bW5eudS9Dj18x7Ppjq+8jybG1ybqRTAkPKw590C/qFnpy7c5EsFArEOeO8bZiJCvh10NKyHgtrN4hkVx3OZoz0uIRCJaHcIVTHCng7gm2Oog/VD6nQ2hInErpbMqpAQhNLGk0176ZTrnTRLbwQxItxoimPMY4kjY1XLyG5lPHTqkB0VFRcrl7hoh2jqWrpYVtDPzOhFZLh/Ty4DaPPS7HDLivJZ2iBzh5DFwlStXP7d1C7/9KZmoZ6ycLOpR4c5AkCu8rV7k/MNOBnseAsjmPJA111UgWm5e/S/a1H198fwbwe9RN94L+3wezVjYghMZeN0Fv0hF8X8nEVGNoI9Bi6IYIcdBti8mE9nkUSEVGcDHW2xQmzbWGya7s1AdPU3FkRN85rcRxpwVoU4gJC0ezqPtswKJVoR9iAuoFbIaK0XSL1inGoVRmx4kujFNxoog6b2SBbDWfq1xJ0iRCtCo1IEkZPsEyvGfyW9WYHUxJ4liMiQBXQuaDhUqK1yr/NAtURJtvO8c+sbnfol27zhagdEqBJzaYYbWxQ3AuyzHTpFdy7Er/uSEbAHcULL9JsFKjCNgcdUgRvchXsznuz4GJ7qAxYD3UEf/J/sR9BWzD976GJwVqcUgxCKE45zlzselqzfRJT/zx3TYST82Zx7IHFhI3WoZRUve7uCkLWNEkxyPUCfXMgJ1MqcDZOchDlxmzst33sRvdQEWxgRQs6jJS5qLRICz0Zmba4M8c1scnWUXCUKm7WW3Q6W7CKuiylCH5NidVlC3WoQNCjAXgt8rAkKv/AY9tutdxUtuu38hZ8ogeVl9MMg3C56mfP0Ff0FU/GTUApWlQ2ZFvpc7G1TZWy1myhzI8tByA2SLu6F0AWRnbaNiqSOGIlgCIpWZlzLf3CSfN0GosRok2rjGIlGbpsbsnsy0FiBOwNGYMFGBVdAM+9BlYkhCxVxoVvTJCj3XN/IMANuDLpTjq5BRdILZQk60jeYUuWRcMa99JAmSL9d19+Z1dO2ffZTGdxyXgi+AYaV7VWSaLApNlzjN4xRFBfSaUxnVRRBCD/W/JOpfdDCUqzqbzzdQlwbEGEgfOB3g7vSQq6HEIiEEQEkFWxTE0uB5hPuf0Iii6NLxl9xE63/qz/x9Efpfwg+sJaFOzSLo5L6xzxp+S1aTw0SbnashJ7sRp8K85krXyWHd/EdctE2Tb5z8VfjNIIsYkRMbjJ5+G/i5yc/ommLlDJE7A8GIsT6Qdvc71HfnSUiXJGrK6re6sZTeDLtssv+5x3PlPbRz5gPF5TfdVJ/T/nlzaBCEK9ffQkV5eRqcZkkCHJrk+8KAc8VqwFKeKFwjnIOekSCTJWdZaLMktFgj+mMFFWdtpWIE29vAplWYYEJkzeWZ9zrpB7AioAJAYamwfH6Z9HPLyYpGKLO3RiY++kGITC5NgxVBFVaOrOAzC/auHHtZDZAEJGmJkjGWBKuotF9zykXR3VxnLc9l7qC2Ek0LpMn/2aHJ8cPomk98jLZvO5mD7FLMir8yJn1RhAyOKTgjNQp18u8rotx8UqLmqVsj6/JKdyMo3qJrwdfC7FoQmBOA55MUFe8liNH7JewRy8ZiYOIO8EjmspTdCyUtP/JJuuAtf0XrzrkrdK8fHu4YCZDTExWhV3lbZhIFKTpAozC5p2XI8ZvEJwPzJaBlqIvjMTvGiHaORgtXAtQWVIWs5sBWBStOBj8wmbT+NlhXeGbnUTKxYA6j3EJRoT/r02Fzq8G9UYcVh08RLeUzELJ15naUBfV3c0BvG0lI9ADoZVTR+cc8V8r7aKb/oeK867/alGx/vDtUCMImKsp1aYBiRrNUDkoCkpANWuQ8ciRBNFfyriG9DHKWVMz3XIXUZVEe1qPihF1Eo3KRU1DkaX/g5G8QmHlbEQZh6G1WBPt+ADdDayzCQtSL+xEFtM2K4NMCQRNljMoI38uSp9WKwJWQrhGFJubEpJwmC4vAILoqUFZygV5xvuzceDzd/JlfoS2bzkz0SbzEKD5GoK7EIcAUbo5RaHBJGPdCJBOZb5CQKM+vEgcdJm/i5//0MCQ488C9xHzQ8uDfMTuxBMG94lgDf5aCHJbEz9zZCA7zQnWDBcFtj+x0enTyC75KZ7/+72h4DO9kAZKALg40OQ+s+ZUiNXxRk8YdnLRlcThACf/TSZAhCRb4dA6jVcy6GFIDW0XPifyFngs1ScgzLPISq6uMNSh0/tPHHaD8hkxTAuMeOYOAC1Bcwodb1RIbZ+koKOxkqOpGL0vSFxZhM4jbCsK9cjvNlb9WnHfd/zvwVFighK11W6ByarMpX3HOYTQ6ui3YWFrOK/DjapYjnoHypBsE9KMWisubJpJQSc8TV77RMmssHjox7XtDEtbNER27hwoXPevznMcV0ChEAxEEV4BpdNIeS0DaCIIROPR1qxLZ1zwHsSLUkQp8nlvJwOpeBRuViq27IRFtJAGVLA9tVFgyFgO6GpL4A3dGghFhVdJVxbz1kVPp9q+8j558eH0QGdS1mry6KkfhjVclR7FLLQQx05RLCxDCd6LTAZy1NbyqT8THWi2g/v4YpIylQhtahqOSEndvQjTiVseI0/EgJC/1anFgYtJ3QW+ciT8HQ7ZQhjgErRC7Q1Ye+whd+La/oCNOvbdqqsdDnhZM6UoDB1DzLumORcGKoPcMyHdgTlA9UQO6Ku8yuPLAkoaK0k1VUiv4JyaOWvdrOPyoRUbktdvBcJg7A2EORiAj+wxV/anh9LApBqLIZ7iOTd2fU0d2/Ltll2b6Hy0uvP43FmxqDJjRADNnwJz2Mln5mg3Ppk7vJohAMtjVDKxhTBpIQqpxWDslmiV9lk0fRJ/HP7bU7m5oiltAjZzIBuc7VFJ51CwVR7ugRTkCrmYlmQOBebkZGgiCr2eN8M+HRCDByYLW3gB+S72ydee2JjM9069eltl0miUJrOiSscu5gmriEZpIQtJXovjQJQEmXdtG0b91AV5c7lMPnE3fuebd9OQj51PZD6bRyumtOX4O5nmrLMJ0B0JQERMG0goRiWQhhYn0HANG3FhPqR8QBalCWreQT3iGxAQqgiqgsktBRFxA3nzHlgG/a8FZEFzyfjxbQU9Mci/YkuGIVTE0S2e+4gt06ku/QsOL2M+tOMd/IKYjBiZ9jcAtEwDHAntD9Jb49zOkQR65GISNS4jkGOEKSOfkT+QCykEsqNUlhnygjpDdOIYDT9HhfAAAIABJREFU6Kocm1wnD27WJPrKyC/Ko6jDRd2wg0EXadKQDMFwpylOD1OJWx1dMrYooNFDu6MBbS3vT2IxHBz0y9+nzXP/14HeyXDQCULv5Zf8XGds7o8S8K0sbdrAeRCSYPIYaKdC25kHDRYNncTzsIoME5XH8M4GdznMfKwIKIiVY4UtGFuCYIVnb4HYrFpbQKuV2cuksKBckds2C0eGJOTqlpAEyZMLz5KcjJnf51sTHJkoJa9NwBSJfb6PJAHLKYk2PXg23faVD9DWTadRvz+ccPGoa1MQrJABANomoqDvEnFrIApZ0a4jHSYfBE0+ThmxKZ5T4HDcozW7qgvvJkjaAWcaaCiAJ0eyKyHoft9fYh1w72T/JN/tEGIWeAcDE4TwVdgGufqZP6IN7/sELV/3JFdVM2XrhlzuJIAvPm+eKzBMSVu1NZZhpKlav3EWhG2L0CRrMkB5qFtMyHOoSwVp2ELKYlAL/t4aiY0WUm4njqmXEIQmkqB6hPt42SwVq/gAO3FBKEmpQmUgCM4lk+p4bwxHFZvIfXUAW0HYJZjtf442Tn24eMmtMnGaBnbB3rXWbcFKqsmo99pnfbxTlB+usKy2AMIgqSyxImttloRDnySU7ijdZ06QP+7TtS85KrcqBNk4Bdcd4mpIJicMgkTsY8fPB4gRMP1Y2LpxJRIBbat/hKvYrgFjEeDTKvHIEITGIEgB770hCUKSMpaERNpY0ek8z1kjoL98lRqIkLQfx6Ekcm6Fa//uv9GeXWv9BUz2/oJaN0PGBaFdzGA6P6IAoG90pJj+q/kxIZA5mnE7BDCXDOE+A48rvFMBrSUcwOdcAP4GCq2LBGQ6QiA3N2CQIhKosI3REwFDEKquhRjU6MvsdOmSn/pDOvai26nowA2ikZWECYT+ElxJ1xEEmR85SydyhiaF7glNQfToCqI5PNEVRwYrI3Md3qu8w9yVoMnQ4wD4NUHEWITVMzjPNR3/IWm9VcfIDra7spPBuerI717wBKFOJ6aU0l/YVLoDk1TmeP5J0UgSEh2ZDiJrG8hdnkSlVs50vza3rf9zYy+44Z79jclJVx3IwnJl9V922deLsdnn1N7UqCzP/THIatxsf0xAj/NIwAQGyw+o+e3Lb7Mk2PfGomHzyJEbeFa6y3dO20XFKkcS9uLo5SxBGMCKkKyqM0LfCKp14J4hBY1gzi8rYMoToUJMYII0EpwWkpDNF1cCKPWwwPLTxVgStB6DkIQBrC5IsixJcDEIqG84JqHsd2j7wyfQF/7yL6ks4/HJnnPKfMQuBdEAtRRSGLEL7zPuAE0LZECGx4A7ioAGOdpFoazWM/Xkq5dCW1Tk2UKQ6F8w/Ws+EG+g7fboGABSAZUPP2Kw1psixW3gYxD6fHETXwct2xs9f4jHNocYifD76LNup0s+8EfRzYB97xsERAfHysmngGKWKOSYhKVd0JlKQky+e0aJNi0NCfVzK8cysJKfoCFOFvNNckOjCzB38iFpgMVUETOAsOEmdbsWRCS1AbVALbtJXIBiSXTYFBXL2PWjzRMLDraTxWKuQ6XbIiqEwxUsHAhlNqeXPM6kRCDKZWbMunQLTfZ/tthw7XdNz+/XnzWzZ7+WmWTe/YnLdw0tnlkeJqPVEIMQgowGS2ISavLAyW9Jwd6QhGz8QVt7shoxqAQnPKfspuKwWXOQUgZwdTLCcObcDFmAT2Zvw86JqoAkZkHfnzklMg+Co2PS0EYsp1GB5VbbbfkmGUbzP/albaeX8RyRkGk+D5KgeaHSZO02D5IwM7WcHrnrMvraP/96ImugwsPQDUAWbJxCVTTyRKE5PsGsoFQM+A8jFhgYqbPVpwEi4ncOyH7yGIMQ1DCDP36C3/Nrf0aBxDHy+3joUdBPvl2yQ4LdFqEa/KEjDX6bJAcq+lehAD29sSzpJb/6y3TYiQ/z+Ei7M+Z0xRET5FcBd+xTBB6c0wDCCauENNwH9OjK9ErouliCygzDRVYmAg8XPBaEpRoJEeC2ZMtnnQMqLJADeOD/NCZ/m8aNzmiPitWTVEiAYoKM0A5fN4Zyd1jSHkcQoB5cdylWCVaWJMTOawXisryDyv4HizOvO6C3OrbWa39Shc1rrlp2xCUP7yqG2LsnWivR03tDEtiMJRqxzvKQIwmqiEHgUCuhorbmvKYtkLk8sqQoCphfbxw/TbRmmgrdApmZ/Ek7LElo8s9rB8FMxfxtWSBs8kVbnIEXzgww19V5X0lCThCTPAeJV4BZj8LvH2dcAV6HGZKQRB0ZkpREVUN9FMGxz0RbZuqNOMB57tx8HP3wP15Jd3/nDdTvuX3tUetmea801Zrv4XkcKgDkinjsG1Go7HiocOe645xh14XUSdqC4Orbg3m4exv6SpR0xPUMBc5XfRBsptAyIIBRyITLRI5hFvLgSsVrpNk1ccLFN9Ml7/vjhOSEKgogco1y9zYIiDcpZ7/iNoOU8jKzayDOE5+tsyJsXBbnTyJXKB8WQmrAmftfnfOJHgVloJ/Dyr2ubLTcSXNlZa4ILfrUyaDpD5DDclGXOmv2ELmbNxNZVkUHohTIWuksCBNwAiVaEhLvpCF+olMg61Ygnis300zv/cWzrv9y07Av9LvWei10gZjfrpPffOnys+7/RupHD4Ksek0mVjJJKtojblnUuWZJQs59YPJpsmAMShKy7oiMi2LQ9nSIynVdonVTVCyZi6takKlkT69/DoAsgqICaQXYnFmAVoZEyGpmc22UMiqR+R6c1KAwcAINRE6wHu7vlsOTsM3aZLsCyZEerrNyLiQSbp4JSWBl0UQSZPLniFWiWONYunsVNj1yDn3n5nfQE49cQN3uWAQ/nQ78R92tiyx6ld0NFdEBRVvh77IaNiKcuUchiluKXGJ98LWtqILwIFFc9mCksGCPJpIkIDFDKNRsEOMWpOBgQeAOwFsfmQDgkcq+TL2nQawRJo6BvxtZtJte+V9/jsZW7p6nikUrQNOnuAzfi2/cVscnlhNNjVTPC/Dz0lg0rD5KqmZlYZC4ImMJAPUT3RL80B9LYPWa0SE5XSbepKKgYtkMFav3AIkAHSplG/eekzlPELR703ZplSpkBWI3ctXODWu3nKG58r3Fhdf+zTwnzD4lP6gEYc/Zr3370pOe+HRtbEEy6QaxJFiGyJpClfbekIQW10dWi9lvoB5IYKymqxAUzseRhJUl0TGTVKxwp3zZWVWzKk7ACoESJ38DQdD6WWEZcBWu1awJwEtmX1ueAMAI3E2Kw3+S6SsMYFIwtkQC2ux1La9Acm3CZ9JnSszkJQacZkyeSsxwtVFjfTEkoTu7iO67/SV013feQNu3nhjICONDBLfwUTz3HUA2dw4B4Gtiyq+AdiQEOJzhb9xuyP2bs1QoCYjyGxd7TUcthzLCMbUSIAZlOreD7044k4DrFcUWCAPEVSRuAwkglODM5O4GOCtBiEnfXf8s/SLxDkIUZIdDSRve8md00guujxNPiIhvlsw/AHckPT6tIBzqPWs5MGkSy5b44GGOijy4LPeMEW10sQggC0IOcjKE+kxBUeqWOS2xshgxoJ7IuWkjJPVvmlwQiZ6Nsqc5OtE+fIqK5RigWOMyBZLgCYK7w6JnrIBYHSOr0r3hXyBxGW8MaCSiXllSl36qOP+av0qe7+cfB5UgTF/20g+PHbHt48YhGpqcs4dmQ64tcaghCS5PwcKsKwCWJXVAnUy0tsDFHLFou7sh9w0/c3I+yjscDuejQBOBzAEht6l1JbqPVgQU0BxY+vf2dEWufB1JQNZd186sYrBkJqc8cke7GlGwCkcuk4lRfmaHSaY9PkunfRjA/KpLJ2G6FSppC1gZBAhq+qk/3aF//fv/Tps2nk3TMyvNypo9Inwdsvros0GH4iuPGkeLNLEK+DwODa/sQfySd7ZMIAq15SSiHImIzVf4QQiclL5mNaKxCYYIuI/EkiJBiF7UoFAP+BxT4LKTd7w7IhAnjDlgwJUtj3pxU0jlT1aUstxV0Oseo1d85ENU+PmR1ptrH60gAQV5cIA0uPkox6bUgoX9LpcQCInMOXdb4SZnRXBBrkaupMoWfCVrld8a5EM9YZll024dANyBLl8CuZLbOj2v8u4ABuihPhXr9lCBJ1xqO6xeAHdir6C+s7C48yOSfmC5S/QujhlijXxq3BC5IZop/zPtmP3D4vk32kjK2pHf1xcHlSBMXfyy/7Fo3db3Rq3WAvZ+EAwBqNggMyArQYusr8NgNuTje0WXNaAx7bM2kpDZ3dB2dwPWLRGcWHb/6JI6J+w0mrzJitAAmgJiyUxqMwEOAsI2Tc0lTlbBJG2GH00Kpc0iUAnOhIlQm2+m7H0mCRJujyQBTbWZfpdVovg3dZwK+sHNr6EbbvxFPvgoBRnRf7LojF3AJwrWTXHJP7eVcZ+IQl2MQpTDVOxyhCO1JqgOV38/X3mjjeZGKi+XXQ6wchPrAnI4thj4bBjsZddEcjcDxBnI+QeBM8hZCHgbZIxZkJiE0cUT9IIP/TYdftIDzXocqptsgVQzUTWUIeESKFM+ryTD+rLdfB9fTLR5CVukcvLIAuyntMxlBjtfTMPR375kIc1WH1v9ka7SI18aRBflXBBgxRvuUefYHXm3iSC/xQS/26VDfWdBcIclVRZh7pG1LNSThILcFuR+ZYd2WNWy3pjo/SntLH+jeNH12/YV+Af9/uAShA0vv2nRkVuenbKv/UwSlPm27G7IkYS92d1QiUnwWsf49QzxGICg9IpF1LlgMxWjfd7lMICboQ6McyRhvv79QcyFFStCRrjrYiCw7on/PmcKHERp6ERIt3K1ERQMYNLVzABxDbqlC0mC1HMwktDrjtL09Era9thJdOsNH6St205OV3Zu/z4DXYhRY5B1Pla/EhZygHfHZdwArD1wJ4JVFPU7C/BcAsvDa7ZGwspdy1GRyBOFwKMF6GQrI7pNQj3UaoKBgj5wMJxSHfAyArlCZ421wHeN5gXfeWtEGQIS2TqCZyLIbgjZzeDSdIZn6eyX/SOd/aovGLIvpn8D/KIXKoGL6G6QwcNvAZi0JCAJqG/s6t2tkJ9aFu9oUMIq5cDM4C1+8XZTz5YCSQi+nvCRld8EhA10gZhKgHAkB9wGtdBBnYAvxxMVLcFhnbl8ljpHyIKLP6wgo+jXSGTcVmLvYujy/RVYD0kuJMF9JgdvGDKhnqKiE3idlg0XWbnnE73P0tapXypeevPGQQF+X9MdNIJQ0m8Nz1z2zdvGjth+oTZCFS6wyaAJjAC1gLuktq6CQe9tkEFaKJLQtLshmRBtFgljHRki6h/Zo84ad8EI3+GQAzg/5xtAU2dl8rHZ8ggVxVncCKi2zJpYhDriYpWJltVm4bB1zSgzJEV1bRikfFVgbSShoLI7RN2ZRTQzvZSmZlfR9Nxy6vbG0n3UTJD0NDad+R3a9cTRdNf3Xk/bx12cQboKjK5h9sgL54B/RY4K1Zisr/0/7eCdDJNORWMB4KxCl/K7XCCj4cRBzE1eNSQhPI4HG2kMAhQZRZeBW+rlP+bgBP9MykzbH1wCqVshuDDiWQuBfPAzIQVOp+O2Rp+9bHFM72hwpOGIE+6jF/7Cb9Pw4hlAdJmQoPfS4Q4ownn77hD5lniJWmSweTOjTNKD3Drz+ealRLsWRS+IURNpjEKiPGEhhLpAgN1WMqOjdKdCSOttSBa1RL9hH/Ez7UHUHUkVCyrW7qZimTkgKVeOPuNc+wWVU6P+wCT1EOndKGztkrpJNyvGYTuYBHsyAY3DoXJ/T/W/SOMzHyqef+PjtcO7wC9sVy9w9vXZPUq/cvSRz/3ODSMrxk9NBlwkuzIJBiQJlclrNFHYyAz+34NlSYB6JJq3xoKStAvbVFC5vE+0eo6KNTPhRkichEYY0r62k9HGCdj3OcCHMc4GClkwH2BHQ8UlkBGa1jQNykaq7JO0ATsMTjInjfmQ/chu69P0rhW0fcdx9NTOU6jvDiny3xXUnx6hmV0raNf4UbRj13E0PnmUJwmyw8EDN6d1iiIUJ/+LfRDfBHFJ+zirP7nNokNFX6EnLXxXB+ppjEJ1OtaBez5PLcsSBdhhoWUwEKa/wVKh7hAOwcQ4AiESlgj4jgDriVoMZHIIQZD6m90ISC40CBJIhRzR7LsNt0QKEQlkYfmaJ+nSd3yC1pzmLnAyZds5btZN2bgFHVjOy/5OdI3wzAr7SBX3jiVEW5emwXhNbj11YVgTu5FJ99PXD/3vZvaqPECobE7P4Eqds6jsbNCsoR4dos5x24jcqZZWvvEBfhuEztfbWRDKGTkLIVEs5M/VUP2b0WESe8Lpwi2QhiTgSHTLf6Jpd1jSNY8dKKC2uuRAlUuP0q886+gX3P6loaUTxw60i0EGJRmDASwJ+J20tkISDlRMgo2PkAlU0ZJm9Z5dbsXJ52Ws4w9V6i8dos5x41WSsCAHJ+XAssa1oUmNUvBKzwqLTWPMkKIkEuU2yDf8QYJmubJzdQRRqCm/7Be0Z9OR9OCjG2jT+ClhPdkdppndy2jn+LG0ZdeJVJZ4FKuU40z+rB19d+jEZH4Qfuv/cvnp09gOdRgkcU5e8xo+GIzuQR9BLIJgieXg8yULJkbBl5LkCSTCPq/w+JRwCJ4LTESx5tVXBTyjqd83D0iG3MMQ8hRCFIlRSA8ZSqyB5/SB2Ify47fB4oBbKPveFaH9DVaFkH9wT4wsmqCzX/oFOvNlX4Ioal48+FJw8jKQK57Dbw8uCPT8nXac5CPtsvmicJk0s8NEG1cQTccTOevvUQnzLn3vjjKGPON0Zx1mYKjiQuThS/SGlWMkG3ETSBCknK7g9i7tUmfd1vBxoicU2Vk6EGtiA3yQovSL+vdEvmD4/FDC+GgWYYx9r7mDuGr1JhH1+jcRdd5TnPNvLUErCwfjZmQWLuO2nDYO//Jz177wG3/XGZ07KqTdS7DPfmfyi9oEgFOEcMDdDbk8UANqT87TTaBt3xuSoJpP21V2OlSsmKX+iuGUKLikniQYYamA9V5YEVC3ZIS7InxIErTfGupVKzRt5CTTXlQY+nqQXQ3kwX/bYyfQnd9/FW3edYIPUpqbXEK7Jo6kyZmVgaRVlJGLCxBSFBSnqASvLjS9ey6AwJAftEYcMk6rhMBnp47f8HXIFE4VDECWDrOstGUVzkqdhbY61SN4VnSodQskolclBOH7an7Zo5thpwPqE7l4KYiftJWxRouMK/WoXgDEQ5AGE5h4uZLqcAR7BX8gEb5P+YppJRBQpi8q7FwIhgqxLvAWSI/n7n/69MyLbqSL3/rnNOSj6EX+APBlha0xF64XOZbFdwJva5XYJp4DujKXMUqHGQIILSGRvHk+utdPrSDaKZc4IW8RQiAjZAL2pC7wmkcqJQ2VjVRxpvlej8ipnyd6BUiHu0ujwq1qXKzF2j1ULNsTZ34FEUF2E6wJcRX9mREif9wyV1KFh+OBEt2I7bA+wFBwoj6hTf7lbPkgTdOVxSVfvQvlYX/+fdAIwhPLf/ZVR152x190RrprI3NbYJLQtuPhoO1usJYEmZ9wj0TUanH8s0GSubxKoiGicmiIyqNchO4eoo6LykIhljLNFBCzl5Y6IAgnyAE/ULCTNG2uhpyv0ZCIIFJA+lAajRJrrJ/7Lu9qcG6B793yavr6PW+k0l121Bul2bkl7DpgqHeA7KvhIpEFtFnY1YwY69Nx6eXwUDaNasyBHioqigkVR/A7hyz5b1VtrMwZO3wZUe2BiLn7A4L1AIlGnBlVUI+92k4UktlkLAop8agrpxoLYWMTwqI4gJr7X7c4DbmxVcT/kJBMuVgpPPOpAFuDqZgBEjh6wNTSp5WVXbA8hEQB/APBSq0Hcn8Dl6fuhUDUQuBoIA19/nf18ffThjf/Ba0+4X4eBohcz2p/XonCglTnr7NMIFj5K6mbIKStLJ6HbjeDC1b0e/7NvQj+t4AyD4acG4J6BMUTkVA39Yh8S8PgyuYgWSE3mf86aeNz2cqo6TBNogPCi86J24iKLnRQRu/ogobnCXMiR8zKqRH///E/vvgJ5bSyiDUkSvepMqnI1NNVoZzujRfd3ouLDdff3jSiC/nuoBGETat//mfXrL/9I53RuZXJYA501kEU9lZyUels0AJWW+hWnXS8dcXDOjj57fOIyi5bn1QzwlwydVEzIYLbAKQJ66Dtjd85M3d/XYeGTtweQrdd0G2ynx8BXRsJ9RwA8FuB2gqeFRLQHlpcndlvQPCvU0j+uW2TA/8OzXYX0fT4Srr9ltfRHT96Kc32FhMN8epeFa/8BlB2oKvkKrQNPAdAHkKbGPZZ4Yn1gNvFylatC7I7QU5j9MqHc0isufIs9m0lTpdXzkGCAojilIldJpALsXPJtDTXJcs7jQcAGQJLAIpCKKu6iwKtCVofBWOxeoj1IKC9b4dgE5j7FcvUIsBy0QOZFcIhAX4eB4QMxX89Lvh3kWEoUcH8hRRwPuJmCORArBg+mtHXfOmqTXTR1X9Jx17wbe604N8ODZNGWVWNadK+Dr9Et2QueJKsAtPCUa3HFucqe3A1kTsbAQFT8hIrRlJNWMn7vhV5kb4HwDckIcbR1gF2VQckIyokApsHxMI/XjYX3QuoK6y7QQHK1QXZZUHl9GjYyZBrt6gZb+WDnWuif9Cqwf0jKibFxJB5Od2bK7rd5xYXX//N+oFa2DcHjSA8tfaDv7f63Ls+OLRo2tmtWBjk3xbAFcGx39W5KQYlCUgAmr7JAf7ekIQscRDToiEJOIFrvzP9iP3Ebet3xoiOn6LOihlyV0sXi7uBMOB/B8SK0BCLoG3NWRH4ZY1ABsGy4J/7JqRzpGB8fC1NTK+k7Q89k6775rto99RqFvhwyFHhruAGoQ6r/fhMiYG6EhioE7OmuBrY4+jRBvIQpYSWAR4HbY3/7VbETEAQ3FmjiILxesxbESIB8FOAcUXz5KuNcXoJbrBairqqIpZVcA9TLiZMxMg+T/hxetdC6PDwLMUzyZsJDOSheMeXJYUvBWC5rv6KZq6jO05Y3R38nt0G6BYINzFGMuMJgnyqRCIAR7zcia0PCSkQgiBbUOW2xz6d/+q/pbN/4stUOEuf/gf1i6PAbw3IJvai0Hc8aWNdLWnQNDj6oEMUXPmPjauIdi6G+onVjdvlbqEVkoVIZ2XV5aAxCWC588/EauAHKW1D0i8prwkHHynnAnm1zziCxC303e6F5eBeSLohR0ygb2QUpsaonBxNF1wyVqxzQ1cIA8LbhlMdiF2WEA6fj7v7od8vZvvPLjZc8w0YhP36ZzJ0+7Ukk/mWYz7wZ4efefe7O6Ozo4NtY+RJn2qcVJaCdkpLEjBNvgMBkucHbXcD1Dlq7TQmQ9qAEzj3DAlSUz95JThE5aJhKo6aoGK0SyWNEi3rU7F0No1VkN6sgK6AmyZIWXRWQTRYEbRte5lvpW+gAyLCah3nphfTk0+cStu2HUN3f+/59Mims0JAod+mxILrTfFsMuTnMZ5ALARyUqIuF9h6IO2QeAJpO/xWkyk889NX8oZ/RVlzv4bcYaeDFIdbGH2R7Irw34dVtlhrI3XIgTN3VYObINSA5S1r6GIQR4mcpzVBSELMAuvadHBSBHSGnYiZaOXw+rrqZlBiIaqCgV6JA2yzDK/c//C5CEIaknsZYsBiakkIfXTypdfQBa/9DC1asQub2uIeEJSywJW5qEna0ajx6wgJj/GeJUSPrmITvwhcRl6ThZp5n9MLQKTD9I9megXKXAwBv6w/50BIhApHDNsdLmno2O1EIy7uA3QY6hHzOPxM2+O2OfYnRuOhSKqXIZ2KPrhipI+gP9TaJc+sju+VZXe29+yRi669NQW5/ffroBGErce+79Orzrj3LUOjM2H9mluB163KEzDIWBsWjCTk6pUse5rrnQA+MN4s4Nt2CCu3wj+PIMhkspvvsA5ev41SubJHnZXTvk3O114OjRAt7fv7H4pF3fkTgEFW8pWT1qzC4UYkhKcZ/KMcV5VXOTdE37vzRfTEppPooQfPpy27juWB4RW+IQgK1t6KgAGHwcwf/PkQL6DCHdIGlSu+RayPHIrC+aoySrc3hm1PeMYMExjtFqEKqWZLc2FiIFNJyAKTB15TqUUj5GisAAkBSFfvseRM/IDPyuTF2eOlUJXdDkbMBLCr3whBkRYL2At4coCmugC4cIgB1AuW/GBBG9Q6EL7xi2N1L9iARLkZkuXWn6rMZzBoHALudAh/C1lYd9IP6OI3/zmtOtruYNNlvDTIuASsJSEHFjaPAQFF5rJYBfodonvXyYk/0WVQAdIUHDkwJ8HXgLNMSDiGJwFfP80jsAeZNuCcAewgLFZnhrJk45D/tWyWOmt3hNisRHSwjEy/qeoJ5bj4g/6EuxgN3ClJf0h9JFCY5VfryGVIsTk9J8Lhp1b/OcV5/37zgCO4z8kOCkG4h35r9MjjnvzsqlN/eGVnzDu1eJAyYJ9dFdvlyjxIAk6GWqDm/JNBxEk3D5Kg5dlvQAnrKOTA3z5T7QoTey/6TXEGvpW6OoLQd6vpIaKxPtGiLhUjZp+w1Nlt439GL3aOnVGtlgc0v1nGj/PbCv78SEJ3ahHdeuvr6f/j7k3ALbuqctGx9j6nTvV9qhLSVCUhfUIjIAIBpJfAlVZEVEAuii2SBBDQd+X5Pb3X5nmlURAQRX2KoiCkQQQExAYUuCCdQAIkqT5VSfVVp9l7vW/OMf4x/znX3OfsU6mq5EvxkbP32mvNbo3mn6Ob23efL9vuuEwOH1+jO+qemeHhHrC/HbeBuRlCIGIUQB1gQBYCCxBEG+opSONNbeuCu3DRhu3WJKji/bZLDeNNLz5ZHlyGNHGExFLUJpMg4hiAQ8NtwXKeyUcT4KySakChQ8pQ2oWsLuMTyJpQioDcMkE0WpxE6S56vwWxEXALWMvZ0c5wN1gAYmZFwP3ASHADABCk8xRQBIlvAAAgAElEQVRw9kM6Njop/Pi+yIKQwIJaNtohXAkKFJav3idX/8TvyZkXf4V4qeDNDAswo9EPUd/w9xJp0XNQ/JkTJ9OWXQWzbYMWTer46Uco5qrCwxSVrpPiJuJz+WSK2H+y7zWlnsn2EWDCZH5v00Fp1hzpuiXi0Aoh1pFpTq3SHieAkC4XhK8HvcVmPOYjXy9lcQuyzforgMd0+xy58ZEfat74xizUtvuiTs6VewUg3CHXrl9x7rG/WH3x157WnyoPHjoBZecLz0q82P2zos6ItqKo3Q47ZgrkOP3PCwLYujBq/iWjjxO8WAMXxbogMLPQxeNadNoNjTSXzRBPFW6EUVaEjJnL1Er60detbLdgZOW+Dm8P5ybki597svz7558qe+86V6aHivZ1Vx9MmeEZ+EFDmqIp8xiFbZ2H1FFX8mRF4FgNAhg6FA485JgFM/ujvfiKErhAnwoK1NSauQL4XicbAwEm3CxUgURdsidkDA8cbBvbkPkQpdiQAhedXJT+umSc6LVr8KsEIFasCTDbO/TJlH2h6HUvaBkE5i1x1uDdv/J1jDfgMssAKVCkFiuIsxbiWBiEeAwBW0JgCdCOw3977dAMJZbFEH5wgBDuCZkLlbRIr7I4lMf9xG/Llod9VpqYllHZvXZkfgJwI9VBpCOSHcg2oPfgL5bxiPNthkpE9q8Q2R7iynOa1v5zpZxlO5hi9ufi0MP74TgGthLY3PxgJZoh6DQjSOobS2fAOrkg7IGpQbQeNEuheypqkOVWIWp4qiFIMVgQAqFljzjAwbKYDAHFlPIKw2eEzgAOQ9w/97Py9X3val7x+dmTAwHmb+VeAQjfkddtXXPO/j9dfcnXH9ufsoOpXDqQws6UyALAYRwl7e2NoVwXmwI5Tv+nAiRka0Rr15W2hfKkNXD9XOxYPJBoNIBpN/WkuTiUiZ1n979YV0NsqxA26CADd/SlBBJtI9tuvUTe+zevlgPHNqR4fQMFhtVFehaICGVfWhJKl0OUi4jkNjeDCcZ4PbMUYB4ppkGXiXcPBZCI2ia3IqjC1zY0d16tGJlCtniDkD6Z7k8bFt24IDVSFwsyOwcUBjZgWTD54fLdXA+jgEIVJBhZ5ixOwMK3kWn3H9+PWRhYeUOcpQJHwIVNOlgpghybICl47T+5IDAnVDrk72l+2pCeZZHiH7zGgRsaLJ0S5zEgRZL6i5aGuK6WGmnBlEiZfOg1fymXP+WDMhE2TXGoFvk/EivYD/57aUnw1cpBAl7+gqdAFsoj0k9f5KtWuiZ7oRV+jaREWRSm82PAHRQo6DKTY6ktp5II5CHfwE8YH6fyoBPtO/bD6xceXXNceusPiEzA8knyhqfc0Y7dTYoChKWdxLZ0PHxk6Jj94NZHBjBFYL0f8GSPOQ1gffbN/F/y5cnfbl75YSOS+RX8Pf31XgEId8irH7T8nIPvWnPJNx4RLQgeXQtpVAMDxc43Saxc8S0Uy3CPQMI4wKIce+2ZqsQkJVubK56ptJ8xF5iIlTpdy+6ltkaChEp7sQ2dV3tOI81WC/QplbTLpxGKnMcC0/28zxSMHJvN256dWSoHD66Tj37oZfLlbz+MrASm+FCzwCL8AyOr2Z6UuIGEGGMQlAN+h+ImMBEVmYEG3ZyhHwZMSaDl4MAsDeQcjS4PL7NcWBfi2pBbgbif9/yu/otdjUMR2lB64GJ8pWrYJ5+fvuYCN/KOf1FAoWAFDkB0XRONACmFMqt0aKDI5SviBWiXHPWBWwBgaaBTHOHWAIhwHQPlbfQe52wTN7CE+gVe9wAZEri3zFiA6yI0FV0KiDswN0PswlwWbStbHvqv8n0vfIcsXUmBipl2w4srzmGALx/sEG9jhU1AgjMXWHmXIKTjfnDGFLl1s8hx5P7XXAumlUuQb/zqw3P+JQXvhEDRJgAaUPadugnQGzDT63ftx8aH+fVa6Z1xQN0L5ZwZKTtvlcAnBwnqYggAwbiulIE2dr5sbGzyPq8pEcszl2NmMbd/9jdlOPvG03Xk870CELZNvvb7lm068PY1l/7Xg/tLYOZhqTWfgsykYhdcQHkRPesLKaWckRCvQA10LDa7YZz+u1KV0PEIxZ49UwNQJxi8WAIqXgNewxrw6rfSnj+Q5gFc1a0UTmDeESAhW39T1N5EyZz2Q+edNRLKHu/de7b8139+n3z808+VmehKMAERdx+oUxCKr6MdBgUwddoOPFgWQgvw+ccqiRA41p6bWWsWAnYbJEtCKqts7zkqvQQqIjhwAKJwIE3X+jHBhtgEyE3+rkYKKBKdr/VSij7bmGm/mqZX9qtjTKcnglxzngKJ6HhrGQbJNeB6IN6qGhhWHeyydQ65mwLK38kUlpS4JuZiiDKWAwKtHSh0qA9T/BgvuwRcwwBsmHtA1ZYp+tglBSuau0ArNCKoMUwvgQPVWjgFkg5valvZvPVr8vif/B1ZvjYcPVz8K5VZ5wZQAf2QnXFg17N2oDxZnhQZEJk2szZ2rRfZtyJ1VLP2dcCBr7IRzyhgoQhVR0T8D9892rWUSNzScSNk60N9LZuV3qb90kTXdlEjIiNKbqACEmx47mIIKbMA9hwDYspeZRG1SaKOx5HdV44nfL977n9LO/OG+zVA2DFx/eOWbDj6B2uv+NoVakHA4o0DEu4NSwJJEkimsYCFEYS/6BNQ7KXC9v4X0RYTZ03RF2autIUs+yhASMg/eeCsyGayVfq6FOY4KGvwCHNCtpYLVVjsmgOPH1spt3zjwfLZf3+afGfbJTKMAZahf2sr7vyNI2EdsOBEResMIGzc0fVgO3y2GLALIs7J7kNMA+aZBTHymMk86nInSYsMhCR7QZSayXuhD+rwih1IBicyaKEr71aFlNngd0Xl0aQUdX/dClOcFKPStKeKoME4LmfjRD98Dbo8jc7UAZNbFqvAij9OIjc6clyBy2BT0j6e9F3XgQo9Qcl7tgHJcsQvuLUiAYSU8YDxFb+FfsJ5DHEdDSTE9tSiocdG2/+HrUwtOyjPeM1rZfWmXaRNGIRhxXCNGIfxAfNTdquhg1FN8nOZgiUBEjTxgRUi29aT3CY5V+V/roiYgHEOALQPHxpXfXVitw+sOC24z9Bv7k9whrF5B1Zdc1SPdvbsBQbRxebMwRRpc2cCHUQ7vUSGh6di3E6E1XFDAQawBrhomi8luUxIFvqQcS1H3SL7594sew69rnnBvx3rvKJTcGFekjgF/cUmd8p1T5jYeOz31131tcv6IVCE6G9sdwMrNVaimbKpKNFRlgQeQ629jiVhDKAysh1iKCWzJJEyac0EW1HWuTS2RkuQZe2Pml92nfoY5XKIfGD3BYBwyazIRgp/z95l6bMrBBpefPbOiBmZmUa0e/jAWvnYx35YvvHNh8j+w6HAkSlg2/1HRRaY1qwI2Bu3VSsCMgrofoAHsxaoAldQkFIcIbhKy0KyHJg5Izt7QXfIeMfat7sp7AcVGAABFJuALART1NkSos34mpINonNP9K3rVR8HgwIEUPpZDgoqlKyLUs+xL1P0LDgoU4HZwe/NyJpqHJiJG2wHmuPv6bOxkIMKBib22RS8WxYytkvlkeH2V+VPwIULLGWuBGso6nn0FQIWLfshlGe2I6LVcpDADr5HuGABjf/t+utl4/nf7opevLxahcWoh0rQUKAAV3YEEjJZWFEFpOuM4HVc00tEbt1Ehb5YnhlRW3MOw5yt7YeMzfUZH/EI10S+A8cziLQtZQ14kpZycii9TQekWVFmLxRzj2OrVaDsrlEGEGC1g4vA5bpZ54KVDE04AEjjy39j2U/9Hpz7fdl98DX3a4CwXa598uT66besv+prl/aXHk9Oz7GVIwhylNJkgj0FICE0736wRYzBiaMypk4cRk2xj3iuYxUYAyRE/hljbWpZDrgWCqddOpRmwyxrOl18f5cLgQQSGA4YxgAS0sjO71wkf3PjS2X3ni0yNwwHpuhhSX7MK1sOLH5AlXrP4wZU0Yc4hKTkYzBRBBX2G43LCyVBiMTHwhf0bbt6GPTJXZACLwFE0jqpPDI3AGIfkslAFX1CE/6gXoI1gO8x0zyABqLXM8WY3BBeuplYK1kJ4uxU6XlfAB959VklqQIoFOmM6ewEvTe5LgwgRMWUXBRJLHC7pRUBgjYdwAQfs7oBQOv6u9YfAJna71792PrOrAeBjotCSO468EhFcy1EtKDLkLUBVwMFKmJs9vcJL/0t2frwk1hJNwMWtBEp8IMzLMCGAwpo7gRSZbYvcvsZ88ch0FkgecAx4g0MfXjzkAO4XsgA5gWAjxJIIJARc2CNG9IMl81I7+y9ee0DzJP5A6SU8R8YIwcJ0cVwOMQgaDll51EHCbks9BgDgAfLVIpfXaYUcpllzcG5t8vkweuaR9+PLQgRIKyefcv6h35VAUJYHVe4idFzxFhTjovcxbPiOuGYBPK3nyyQ4OMaQ7GPdBGMAg+LAEsM0JgPRlkTJgNAGChAcEXJ/UHp4p3yVrUAER1QUYKEHEh89lPXyM2feJ4cn15OLgLNItCgQexk1NUQTX+uYMnMj1gD8/0ruAimQstIAHPievjrQY3K1Rp4qM+1AYiYsMksAl6J0Q50cvOBrkOqF6XzxLNRMaNvEtqZZSFihPRcJt+cpBydOlvFK26JQB2EtO6wFqjIVhASyzv57h595qmRedwAdtWAG5YNYJkB+lIUJGgMAu43/z5bYkl5xV054g8ykUEAIV6nmgd6ILdb9ZNVwtwAlA5pGCUWRtLpmuKC9cADEONpTg5ANFMBACGeyJSCJmNbVFchDk+tCshweNBTPiAPe9af0na65B0bf3zfaa04e4aeoI9OPOm5TMAS37LSdLyX6EcGfZGd60TCAU7M98SyXvq4VLbejH6IMyiudb7jHlLY4QCtet9WhdGf0Q/h/hCc2FsbAkCL+Idyviz72JJQziWMHwAhFJFyEWMu1xIkgNeiqLBO8RppeXO3ISwkthE5MHiHLFn1qubR77v/uhju6F93zcSS2TdtfPhXHjix3ACCyld76U46tBMdseMt/eeQehnhMVxGP52QathOF+6zkwK5yOwGH9uI5zICrazF2CChAByx3wWsBvOChGIdgwXhcgYIvOgjTGQsUPz2XPknxu+ChJnpKfmHD79QPvP5J8jsYIkxP9c0CM8kZo0KGwrcqiHqbhypVnZEswMKpDAqEHCLhAcg2XWTBl5PAUCCwELa8SdQEWfkgsMUbBgLQhkcHFBwomc1gEnynGsAkti1ZSLEWUfhZgrJQETu0iQFH8ks9YkAx4wlzQ6s8g2wAVYIOyNCX555zRK9MGiAavBAeQRumyk+I9GyMFLcfKsCdjkLwe0m/qgSdCRoM87Pnot/eDdNVoXQefCYYegoaGRrqeupwYUaiJgsHakYkloatCASZ1KgRoI1jngEz2QQufRRH5FHv+htxjzMbwQIMN/OX7wtUp4AVZk25rkzj4WxmpbLNXfqKfwe/O13rRHZHaqksUvB3yzROG0KCsXrgYUsB3KC66ZJ4s129AUrfYxJ1yGClf5Q+lt2SzOB8gE0Tx5XCZqUYdP8/aPNNQCEQ1NmUuYD2ggAEJjL+N91VS7/MkuhAwlr7+jgHbJ/8trmv91wdCQZnMQfsqU5ie3O29TO/quePuzJmzZ975cvmlhxNFfMGYGMqeDuTZDghDoGSBg1zoxxjJNr1zJaHQUuSgBQA0ILgIT5AAxL7wgQgouB6plXTIEZYgdldO7LmUSfSYsQ8vsP3r1BPvqx58rn//MxMhjiBDXbfpvSRS0CTxUMoMCtAqY2eNcPa0DoL2ID3G9Wh2g9KQIRMysCxk39YNzWr2oytjRYP9j5007DBQgUrZdrhphSwYacBH1Vae1csdPaQcaoyb0MTixAQYYhrZcOuaR6CkhDbGKQlo4xk93+LBS2KTqYVDkYMd5i9+Ej3BMR/Nj5kwQQsAVNlRexw+Zjnq0xtAVwEL6jz7jpI8UNEGEgwwWauys4S6L7GXUTNLYA/StAAbhQzIJn1VKx5fLPyJN/+n/l8jMuGRZsfgPAeDLc3oHjCfvuD9sb9HdXaO2g2Q9SoKK9+CzeIF4jnibFmmOPku9BQGYeItN/ylQonil36uibvCPN+iPS37hPZ1go+WzNlAG76z8CJMSzGKKLwTixMxY2gXHXtZiJxDyJm4qN89HhO2X/xKvu1wBhh1z7VOm1b17/8G9cMrV2P60amVNYSS2oGMdUquO4FeZTjp04AWX4ZPmYRxlnCn8BJQ5kOQokLDTGkRYGovux7kkCO7PuUJBiBAjruZIiCYaSGbP5zMOEzMAx9a6RO3eeIx/7+A/Kl776vTJs+mqOZuuAWwAAGEjZV1IUARrgLkgWBVX0HmvAwY2u8NnNkAuGZFGg+aGwUQZ6koVChZaJhEJ4qfXD3psdqZt0P4oihefVDwTB4qAAzzOZUkZCGiWAgv3NsHkOFECesFjEfjmg0dwRzC7eT+b7t50+2AGbLg4OjLMq3Qak2AGQEISYQt3cYoDdvI8nKlvKPCAQo2EG1l8Zt2DXEb8A94Cuh+1WzbIAIBAAgup3BCsCENj9saCSuh7C+NZv/o4855dfxYxqnzHIgm8yVVbeg5dIEYCMBbgpEklOcFSfo9CsIoeXidyxMVoTXOHXQD9jC45LcGItzP1Gxeg6YRiAAtqZM2+E57KCrGqVi4MLBzNt3SVNPJiJ+TL8DvCfLUC2OWH+9OW2ZtqjUzI8BFdLeNfIfgLP4q/xVWLMHEl31oPPbqBhHx28Sw5M/uL9GiDslmufPOjJW9Zc9Z1Ll2/eXdDeOCAh2+Z0AQbeoksyRmElIVTABSvgTMnV+vVtCL3wcne/wI59JCCojG0sFwEEwwJABJI9W69ijrwWzOzh+kQr7WXBxRAAQqnwC0aE+hoFEuJ1CAGWej3Zs+M8ufHmF8jXb7nSMgjCfXlmAqcrdk5kRMoinoldUQqkH+SCWgchiJFBgkofN/3BgsCAIbZJ6ZT2XacE0MFzzMs34z40mY6CNvbw9U2K3EEF1pYAQqa8AT4y9zW5MGjXH8BYViipQ/KAIAkbK0mmrAYnZ3NZlCSblTLGmAtQUD2LgcBFjvVraY98Ld/hJ4XOlREBViilMsYrEA8hAyFc93gFykyI7Ipn9G9wMXh/FJugIASll1OxpIklx+Qlv/3CQpGZVi9EF3NJqbjid9OlhYAtTBDcaIzYpWYr30Frx5ZIu2ODyPEQHFzwekUW5FijAgqMT3LrApRrRTYU8sINDdY3WxuatUekf+ZeWoYSZDkMKawLFXkEgAWAcGRKhgEsRZeeWbhMPGWbKo4/6OiUwkrgMB/Im8Z7ZPAuOXQ/BwghSFF68paVF26/dPXWbZw4bRRxikFCVTHOE5NwUkACOHYEWKmBhJpyro59PqVeAScdV8c491TGPyHSXjYnzUZD5oVs6Sr8wqxW7gAqIGHvrnPkvX/9cvnutgtMaWspYk019KggLX9sVQiVWSlYkawAqsSRnYCAJqteCPcC/0WRJd7943cPVjQzv7snKHYBr5vBBOQOPe8gAsCClL66J/QdpYDIRJSs6mFx6FxjoUMbzej4yKwFJkdhMnUHhvqnAQ9Kco0yESmTjJndslAYbiuHLnlJZQQWuqqCHx+6Lc92yA17KSjR0hV03eJ8wn/Y5G+BkOinKHCkSpYPVeL+kwUinrPgzYfrGoMAEKA4Q/tWUGBtAnBQNcXwzMt+5znSQ6FCRgGu8FnzFwqe71fbRR0fkE5Mj5hmYy0du6oAhZlJaXeuFwk1AOJjJUjQVrtuB77XxufdkkL25jjGoQAKUNKQIwgrwLPhbxALW3ZJbykf61wIdO6rlPXVTYutWFiWABCCBQGuwCSS8jgM5CgBPGT92ABQ2j4ui8kpLBdk46HBO+XI/dzFAICw9My7Ll1/xbdYIuXWgPBLlt0wUpIVTDBOPMAoa0DGYTaecfodx5JQUbKLMfV3FHA5rjHiEpwwT3SNbA5hLCEG4bIZac6Ys/XnAbpmLDRD6Xsb/cz+PWfKH73n52XHnnMpqNB8/eZeiG4GKN9wqBKCkrh8Mp1tkCwDRlwZKDBujCBCrQhR8MW+yEKAMs0RoxDH2/2agVDECniWhCn52L0+62BGVZmvJfosKDLrEwrbLRApIoHtCQYt/G53afsVI4dAUTnL6R22stqOG6hSexg5rAnpHlga8iOn3eyf4WUouzLFMR3YBM9ALILNu3sGAc4WZAHg+AMsKNwS7m4Iup2VfXi/pYXA6N9jB0zxewwk+rSUSBRDAkCJz1nmQmyKXA4GIn78114kU6tDbNY8JZUzWoFpyN5CFUhA9hT8hnYy64SXMkya0CxELmjnJqTdvVbkwPIkewuQ4OnGWG8oOVaSRu/1+AKbCDYCbJ5XHWrsUgEWsJoF68HmfeE0rUIOFUiAx4b183Wk9p0Z9Vp7NAQpwoJgRhsHKARuKIREAVWpZwqQgLyZJA70ocODd8iRift3kOL2iWufLCJv6S89funmR30prVRnK2NUe7pBQkE7aXtQvNjOeEP4c85TWYzCSOWccWcCJTVAsCBIGAV8xugjjm8cMGTCZqIVuWRGZPOI457BdNl6FszG99B9Rw+sk3f+8S/I7dsvkGE8whhBhFZvgM5H0DUPQYUpmBDxCZHHLVDRFbcpfFXiyHhIVoTcvVA53jkyuHE5WTGy2IU4F9xj46PiSnFcyJKIt6qNIMUccHxBAhUopBSbZnMwBS5m1gN2L8S4Lyj1REj8SWMJksxPJKtzsdMpVK3YhtztCpnhj1wOfp/tjIyNkh5rIyjx2gROqpSBQecrxFG4r1/HG9vC2D2bQRvSrANzIcT7kLoI0aNKOuKEyMLJPaGmAJsABTWq68AG6m6F0sUw1EOjssBEbTtZEfAMaiQM5Yff8HJZtWlf4SII7YR7Mkc7CaSCv/Hiyssl3fgSVN56fLYQOLDlD3oie9dKu3cVbaJSYLGmIeK7R6TaNWs2JtnQPZEIajEJAO5JVSTwYW135KLKi2g9CJlycTh0k38srlXrIZTrkIBJe2SpDA8t1ana5kRFGuRomk8m6iBDEDALeQHwYNPSV2AWxPDb4cEfytJV196v0xy3yXVPanrtW6U3uPTMx35RehO2A80C/oh5mSfiKpdKrLYbtvtOVKGebpAwau4LgYRFKXUCMKOeG3m9ojkCKn/gjMg5eH+2aDVmLUFCdg9/ETlyaLX83Qd/RL7wn4+QYTg9DjttHGQUGMbcDFFMx+MVsNvHmQpcxyDIVQMWYLjSnUBmyuS+sDYjjqD0R3IlaLepOBOCG/VcA+wgLAaB3RRWmEllls0fVobCipCtTmmZwM4fAMFAgCpNsnwQ2+hUTeFDjkORxF1rSlmEvNJRIm0SIMOuRuVt625KND1HlgP8ZimSXlMhjg3KnMAJxSWofKczDrBqnsaIsyJMkVIcop6ASa4Hii1wtwYfCW1pjlHJGXCIo6IYBKQ4IoASKY5a0wAWkKHHIMDF4ECkCFpUwDOMbonnvuo62bDlVhOApEABfCxYNSGjpDjdheLKEC6SUcDCno21HBId6vugZ+LryQVxuzekOq4xU7q+Pyg0HxEUIQ/RaDjDHxiv4xRW3A4lI6vMm82AfsKyhbLKm++SxvVLARKc9TBvWgtloAIf5XIqQskAEEIWQ8bG1B5ZPfyVdOZIAIrWQQGH8RgAx8Hh22XFyuvu7wDhCU1v+PvSay/b8JBvydS6/UQ+FUUU3tRpBwlG7osBGH7vCbobqsp5ka6AbLy0faiNzYl6XKtBYZ0IlsgtA2kusCO7wSUdPioYsHafMcaxo8vlE594unzqn58s03NLUraCxxyY6kH55GhZIAVrrodgdeAdPU5J7DWhKj4CEOM2Pt6HnTlM9RKtDlYjAeChOPXR4wEyKwKsARDs5mpwVwSADFsLsEswn60JVSjxJMfSwmaHPkHduxUCipuwBwABC2oofTMfx2mY8nabRREOhLHE+5w0ESNBFR15E2WaIFofYjqk2UoITOiw+HyEPG7ArQZQQ8wWrMQ9fqE4wTF2m1wOyUpgIMAAgFoQoCjCX6tp4FYJ9yV4e6Ent4BkrofChQBggowHL8NMbgYZytN/8o1yzuX/h94U4Ja5LUxpYM0y7YTNE+zYmHe8PgokcLXErhI0rV+MpyftvlXRzQCrl75mIE5QCnb4eO9M49Yk5uOKk7S8E5x+cFCRWSggq8n60B9K76y7pLc6lFWumFE6cr0y7xpIcPCu2nt4ZJm0iMOwsep0ujKPvZH+zjp6La2Je5gc0IvIgdm3yYGD19+vSy3vkF96XNub+QPptVesvnC7rDx3e+GTqdk5x1GUJ9uScAIgwaV5ZoOtuw2coUqkWir2iv+s6gqw8fIYOgGJuKdcqwpIGDU+tBlqpjygld6lR4oJ1Mx5JcN0GWhubol8/nOPkQ9/5Jmy/7DtTGLaEKUV8smMFHyolkoNVEwxABRDYLt8N+XjkCXj2pjthMwG6w+WAQcC5bHQcZrJBZELhZQFobtfE/Lxj83JryeTZUp3JIGFGgouN5MTIfuUyThdB/6n34pAQ5dHqbZBRj5FSqTLcCcXaxXfHQywyT/1SqRjYMFEJUjedt9JScOyUGQqmLKF/kvjsobiH6qcGNkxXEzBha5gqdgRshNie3y/K/dk7Ui/Ix4C7gPtR10WYQwpaDHLcrDzF7QrtSCEf0980f8rFz78U9m7s1fnxtPu9pac3C4+yPrg7pBCI3WrFSkxwvoFjZzpWKXl9sBKaXetEwnuhlK5l+Z8AwF5dzV3gl5zYwZhhe65DiDeQpYEfll9VHpn7pNmkq2bxGfMGw4gmOdyLshZye4LAOHwshioqHwLMISRwoKIn2i+LlvpnkqXemYM8EaoPzF4q+zf/9r7NUC4beI1j+nL3Nsaaa9aesYBWX/FN20FmSdO1B5gkTkAACAASURBVJJQ7HKTpOm406oRvmMHDdbAQ23HbluSrmRNk1VpVIxv1O6f1qj23Cil3pmXCcsOkl6ENaHXynBjK70HHTbOKxrLvpbMZ9xAl+/47gPlz/7qZbJ77yZXW0hfTKWPKeMgy04wLuLsBnYj4F4ACXcpQHGjmqF99wOeNB0RIIHjE5LVAa6IBAJ8h8+xCsbpKSiRn0NMmil2E6iwaCDmAJdNbJjvk8FAsou6+yKSVhKiAArISvDvKQoiP8SJQEQWfJjekrkfCj1h/XJcQ+yTwET6Lbkvst09WCPKXpjvVRhrOwYg8JmMd87fDgAS2MCx1h5jAFdNaY0w10Oqnmh9RvbJUxpz8GG/+YmN6f7Yt1VojHaOIlDx8S94q1zyff+QdqHuWoAGYW2NMxJwjZmuizHilah1SsanWgmZHZ+0VgEm2sMrNFBxZoL4tW6WTzv/ihbMwAWd/JjxABFb0pg+jcSLrcjEQHqb90tvzaG6i8CnzjKJ168GFEp5HI6Y70l7cJmEYkkpo4qtdhCLBh6wIejI3Ir4pM2Dh2mEeR+Y+12ZOv7L9+vjnndOvu4Rw8H0O5pe+5De0lnZ/MgvccQTUfV9GCQ4nY9j2SiDF2tKuAISFhOXUPBdNdiw2l4RlzAKYNSeDTJlw5w0DwlVP005ZjKp3CGMQOihnWEjb3nrL8utd2zNEFBWDInPR4gZC1YMBS4D2+GHZ6JKBEBwIJEyB1LdBMDzpKy1XXNRIO4B8QOx6Vyxx7lTOqSfA5GdzkhjikHiKT4g1TPAjk/7UPkIxW7fK0FUHvfgAYjhnALy/VPMQSITgwUuudkAnfrKZLfLvvRsnJXv/hWI+DNkZcjvUVdGCTZSjAMMblDowAEpRTHFgEHBGmRyOY4CRbnloAwsdIrMFLnhdapboDgE7ggFMzHQkK6jDLPehiDGotxy5lbIn0fg5WOe+0654uobRmn3rrXOV7wECQWQyGIKUEUIFGErwSAgi0mAQzw8p8GS7dGl0u5aLzKttRC8d3e5aV0A3117VwWI6cQklDtt3vlD3qZ74Kd3zL/qqPTOuVMaP9KZRUqlb/zMwCHhbCPGdAYJUEc76CtAmLacVJ+3jjc1ZwDBrAxp81ADPUmfgP/jUNDY/tnfEOn9WnPNh+0Y5BFkcpIujwE3T1JP1Mw2+aUH9/oz75KmfXjIId78qK9If0kotlPZ1Y5SkgvGJMxjSWBlGldggV3zKDAw7/WyzUVkOCyo7McBJWCqcdwTFsiUaYOaBaOypquH0j70qDSTdkBJYdbuRg7XQcJHbnyBfPjTT9HAPoaIHkvQ08qJYMIaGOgEEhY1E0K75EqANcAPQ8oOetIYBC2/nNIn0X88ATJuupCvHEACYhZyxQ6wooIhxNMATKU4CZVHFq8AYGFSwfcfNg6IHhUg+p94D1wR8ZUz/XlIYqZckiI38JLJKwMBkT3YkZEUMb8pd1xEMmfwYdDRycnCGeNOX4VuZGUDKh0g4WoH1Q2tf+y8debZIUy6zJq5EI7Gik3HcSmda7xieobTJT3AMCYVqDzSWEXcTxkOSFmM4zfZhdTJGDxJZy/ACuBuBQCbEJhoZaTNkvDoZ/2xXPW4DxDyIitB0sKJS1iZjRLXka8oHYyAIVY0L5JEwIHenR5xap0cm5LhrvUSjjw245M1VVPwBd8n4o3PxOE5QdqHnMCqWQgKQOjZiaH0z9qn1gN922lFyvb9l8p4oxWFH7d76Fo7FwDCcgUILDt5+CPmlEBCqScwllRJ0QFCaOvA3Ovl0KrfbV7wvrKww6g3f4+u3ysA4Q553QP7/en3SNM+Okx+/YNulaXr7k6SpzS3nzBIOIGYBKapMrgFYKJctVo8ACRRRqNjgITqc6SYM6bhHcIY94x61q8X41PWzfkMawCyW9lKe+W0NCtRTbGzOHUzH63LbbdeLr/7h9c5N2az8t06du6WjdCHKR41B9IhSqhf4DEEgddRljmLI1DlDyXrn6PAMakTnitjDzCmipsi3UsKO86V/LThe6+REDCpMswUNOorkEsDy+zuAhd7cE6iCVLobiJW+udYBOzwYcFIbysFGJJq8N5shIkc4PIm8lB3AbIJuGUuxRztM9puUOAIdqS9gY83KtVGeqZsmfS0jVQJ0XfyxgZ6r50cCYJyJW+dG5BKu/3k6dNwgOAKIJCAQkfhJ6+QaHUSMKF4OxVC8gOZcDYEHfQUx6oAIbkZhvLIZ/6pPOQJf5MEe5iMA2cG7rU6CcSzrLUcEBSZCRHl2ruCJirBQ6a9I/HGZ+I5BMGCcDyY2EEqrJAD8TmiqShRCjpURkjKPs6ZgDYMHs4zepqnx0qAlVYel/7WnUpj8ZrxcWcTyFqchFH2kedC4zOQEAHCgRXSwsVC7Kz8ZWOorI3zM4YXmyf0kbVFU7l75mdl+753Na/4PE6dSnRyCj6V0vwUdNFtcodcv7HtD9/bNO2TwpKs2rJDVm3dQQxB0sKvnqi74QRAwrxK2BiwoweZcWnOHfBQUcLVgMMSWY4AAKPAUza+2tqNsrCUqZAkcGrrsqyV9vJpadbhPAam+JrQyJnxyNFV8kfveaXc8t0LckLxvnDmgp3KFlMcgzUBO27EJFC9gng6oo0j/tHgxdhzKICU1UGwQkVmCk1nMlj7wSoRZWoRjMhKnd0AlFGhAg8m1mQd0PawUzArArkjEhigZ7JHINDxbFrn/LUXpz7ywU8pV0xFqJpDKOAbVge8LxVe8V64MpisCvIHWPC3jXvNteAy041XcGuQxQEs4P24prex6neORcj0ANVKyOIROCPBLRGpOJMZGjKrQLQyqCbXv1wbQewshfhziimI+svqJaRDmThjAe1YOmRseiiPe+4fyuWPuakui4s9QeZd4JfvSp4uuqLPGFlpMQMFoC/i1cyypzEM8ajjABCCD55t6q6YST9jNvgt63KUS6GQH072hXIH//Vb6ce6B1ZkilcQ1jufUkX1OR9nD5JeymVXG4pF7V8u7azFYJDoywCAE2maZ1qiwgLCXRTLEt/10bkXyP5V729e8D4Un6nTyUm6eq8AhM/JT02e1V/x/qZpnxnocun6A7L+ym8VO80xQUIWAYVN6DzKNXvH45rqC66MqzaP6T6noxHFh5CfDCYaExCMHUQ5ZntJwtL6F2vvVFK0Ga5PDaW9eFqazWbxivdW0qlKmRQEzLAnn/r0D8jN//gMOX5cc4kLD4OSOVsR4EbwoEM+OMkUanQVcB0EtQK4CT4DD6pks0OW4MaAeyM8mwGI5BooFb1p2yx2II8nyNMy8byrY8g+HxOQASlsky5RAbHXPxMoKVshlzmFkKLdoQIFcimY0iC5B+eBkb+BLmYF2jQpqaZ78C0DDwAlCKSEewQuCFgE4riULsF+UNj63WiTn3chWRY7snZY0RtLOzuYiyLuAotAQz9Dgas5olwygwQGE6iPYAAiHQ1tvBZjExQgPOmFvycXPfwfKyLezDYAKn4HmAtyit8Y2+9dw/p7UabzN0N9proWxoSFH0BEZpfIcOf6WAsgM7HjC4aVDacMQiQrgcsIpVFLVDWcrdTuBZIyeWJ8v+Gw9M/cTV7NGpCgNUpa2uYNsxgtQ+ce8KNEy8Fw/wqRuX5uQQn1OlRwFeuSlt1jCtB+Rz7a46WGHrRPlO+/6ZMcUnqSsEC1mXsFIISR7Ohf9/62GT4nfO4vOypnfM83pdefuxdAgnEIE7M72YiPqu6G4lmXh+MClDFcDi4Nc54eLwixMo6qxWHUGlQAQbk24TyGrbPSnE/Hk8M8n5Fcd5ewe9c58pd/+xL59h0Xcqv0lPmPPQ4hKf6o8H0nrmAg7oLNRYpSyWWgImIGakGKWQXFKNRKq4HGIiAgMUVOs5siARpNqXSNb6mO5O5w4cAxBPo84hEYgLDQwWco9KQrKF4AUohiCJLsLhwPjoFLy4GxJNwH1lFS/mpKBZly/IEGHRYy0hS4hhuR1cCtF9S/Wx0KjA0wYC4GUx2axkhGhhQ2Z4GKDiI4AwLAApYBDrocJusEFHv1pEd1G5RxCHEwdJojzmioZj8MrQ1p5ekv/g3ZetW/jZb7NTzgVgA8ZlrZ8IceTlZkKmTgwIUXpThmQrEMFBCZm1CAcDiUWyblarE5DBriO8qaI+VdAIM4LOcNdhWA+AhUYNhL52Ri6w5pJgvLu2tiyE9SeT6eihrsPJe8rZhXiL0Y3rWStH5yeWQAgOeCKZTWimKpk9igsQWgOhxc3Tzxw/9yKkEBt32vAYRt/evf1zSD50UxPDUt6y//rixZVaSlxJc/piWh4+9x6s9Bx9gKcsTz92QH7/NhZT8GSKg+57bVMeZ3otaETNoq3TjF2G9BIZ8zI82lx3KaXQAkBOvBxz/1dPn7Tz5Tpmem7Fltc34rgp20SGmLtcqHCQCQko+WAyutHF2vdKiSM2wCAdm5DVyoiVG/WzdMIGPedk6DWybYpeBVFPWZBDRsgT0GAQteuhpqICC5XOJTmRy0L3YADF4kijvjxWmwYJJUNiN67SG+wGEKWREqlRej8rd72UVgQMDb5hMfS5cFrBHY4TpgAOyqH8us81FagvhQ10BeF0FjGBJA0GBEuAkAjCjGIN5qoMHjG9j1YLKKCjK59SEGPfIhTRYfEdwTCIi035/9U6+Xsy76SsYTifHYSlCqCQIAyI1z4EepjWTZ8XarVgS2PhAtgkaGfRnu3CDtITuPISMfAgAYJixz/j3RO4gsGxoImbUUK1YCFr1z90p/LeLYCrXGzNBljjzWoQJWylX2sQYXy12r0s/0bCb+WF74lAtrBQOEbL7gaxGZaYcyaB/bPO2mf62O6RRcvBcBwqv/tGnmXhQMCM3ErKw+f5esOGvPPKb70qQ/IiYhLBIF63aC7Fxq2GpmK3ACLgdWmOVq3tPgRfCkM9S4lol7Mg8CHt5/BaTFuZpC3zQnctkxaaYKt4na24lskxVh185z5X03vEi++Z2LVZzPQ4mhlxRwqDEEavGHKVIzCGBF4NTIqOTNRYAAQlX8uesC7gcdRzjXgeIHTGEjiwKR015i2QSAF00yd0TKjSa3Qmw+BVjaRHSNuCCSLx0ErRK1dqU/hv8CXKQriWjCFOLa2ZMID+y+lbT4rLjRB5Nh/N3cErF/IxfvgwCAPme/uIWANpsEAOJ9HvinYwYYSdgftRKsY08lJLFh1zAuxAwouVLVRKW6tOvn0BtT2PqMxhfw8xzPANARmo6uh9hmABFaxDkEOcK6wOWZUzxDOuoZaY4vvO6nZd1Z240meOfKqXb2VgjDZ7TkmrZy8FLGbPbGyYLU0Xi12IVwbdiT4a6NGsnPbgVXdqDdRIVdkYB74OlI3516I58TMPL2jcJWHZf+Obu0pHLtPucZ1qDcD3RBIYRqVgSSZ8PjUzK8a4XH75QWk/nmmrsYWESWllZb2WCNnG6nm7nB9zfXfPgzPJNT+XkesXwquxXZMfHqN7Uy9wqR4VQogLL8zLtlzQNvY3tmPoDFWBJUxicGW4zLYFTmAkvJ+Nk5Kt9Vlys6NkgIbS4Ql6BSiubFhFVevycgofas9V2Zd7t2IHLpMWlWlS6iUhWlRfzs5x8jf/nBl8jcoF8lNFpdklcJCHjdAbMExJfAIMGUdrwvK8UcEt/yWIXArPEa7oOCx2mNxs1tTGM014ODAMpWgDUB1oLMNQIVqm+wh6OpMc4ASnx3lISX2wr8PrYUcDyBzQlme7ufyVEvpah1lrPscMBbghshc0Y4mcEVkAocQefCdpADCM2SAAlr37r7Rj+RZe0cBPysJ+BqSwwagrJVJaw7evSl9wXFrD5sZxmzFLii998AEgxk+JkMqG5YBB3C6pAFLcJyYHPimAWkNaJmAgCMxVP4oVMe8zCUl7z+RbJ83UEWYMzohBhsbUrlzrb8qJsJJGSWhYI6FG1STIJ12wEI9lzbl8GODdIeXJG7GJyAClOWX6d+TUSkKZSRefb6S2XtPDmU/nm7pR9KKuMfgwTQfPzNJufdLxIkuPhSHhqGcxgOLEt8SzoiAQDuE5ZAzMkHnBAu8S1eo7c13d4lc8OnNc+4+XNVoXkKLt5rAGF779W/1PQGvyzSrgpMvmTdQVl/2W0Uh1BaDE6Su4FeYqdGt0vMQj3lUq1CiIXpvVzVKpiouQiKnbpKRO2PpXkN8NwT14lL0UImjQJL5fWVA2kDQFg/m9u2nTnzBTlwcIN84OYXyee+/FBfyyogKAjeixcFjinKLEfF5wBB3Qge0IRTExGnwAGAKL4Ud+Pp6GV3RUTLrEkxAABOe2Rg4YDA1BkBBN3d6YtUdzA85DiuOlk0ouIz60iSZRR0aO3EtjLBiSwDAyEoHY3XWgQxVusb0A4psQNiBfRKIsVujIGSUs29QKWX48tR90BG4pH8CUhEAJHmlLEhgQ3dxRuvWHqifjUAEked4hO0UiMpdYCH8BcYnbMU4q122mJsKoEKBCxqOWXEEVjfABue2ZCOeXZrQ1kXQVr5qTc+VyaWz6R4Cnon7uvPGKZIVQR4tSl6Bk4nE4GxhtE4eM5Bge3+HWgQL7c9GezcGFP90hBJ6WYyK9C0tZVYIcVHdiwQufJGTELYTIKPwrXe+oPSDyWVY/xaWbuAAEoGCli3cD+F4OZnSpne9mR4cLkM7RyGFDOkDJJYFA/S3LN1cbNgkvNYJ2M2b2umvUVmh89tnnHzl08BFqg2WU77dPUbghR/rG2GbwplEAJXTqw8Kmsv2iZLVhoSnFcpj+luYJpflBIsLAQuFUeBlkKxsrJ2kDiGxcHHWLhPamtRAx33JJByUesD0KJ/24lG5OJj0pxjcQgd0xy9iFbkttsfKO/8y5+Xuw+tXpjeynBdAIP41/yqCFZ00GBpjeAsK3ak2giuAzMxUQVElYn2e2FFSAVZkutBXRzBIqHPcQVFlxAAMwBLuM/BEwEDqxCQlD4VYUJcAvqyPbUuta5v+uwOiLi+GlWhrO636xNkkKLf8VuBey06I8UewI0ayZXiIhwkmMwj3BvvAysUMQdxlK7UCFBEKwOAgj6Mw6J0TqywDQy4dcI68+OiMaYSJOhzsf/iZEdYJZApwbt+ZQD0gSObYRkxwODxB5ziiKDIohqjDORnfv1Z0gTDWsnPzC1VN4G5IPx9e/EAfZIyVtJ3p4okxGptO/WYyojvyQBCtCBAGZsiTGTp/JEIEF1BkyblmRFpJ/vSaNTwULN0Vvpn3ym9FWQ9YKDh69UNkE4/sZJggk/LYZMjEBRopCeD/SukParxU8llCfqja+gMWARyBg5A3wQyWFGe0ldmAHjQ/rPMzf5E8wMfuYVJ4VR+vtcAwrb+9c/vyeBtbSMbA0DoLQlxCDtk+aa70nxZafFIF+NuOBUgocNTIywOFd6ruwjKeIqKJSG2NY81obM+JYHP43LgcY4CGSNdL9pue/60NBccE+ljjDQg7MDjRqwnX/3Kw+Rtf/UzHbpOZsZMErK9JFkO6GCmuBuP7xnAwF461yRwq4PdZ2NKu3kTIg4gUpwAai50sxysH3rGowMdaBAAMKtAskjYwmeuhVzRc3uswksQkVkoalaAolyS73JAJhRXkJGSgQhc87+VYEWMD2ybXBSFBdUABXb+fj9ADOIB4n2pgmKWFREVfp4FkQIRWWlT/EDoKLIWQAZbEfQ6By0iTkDnkSt3FUH6PAIbHaiwdaJTORHPpCJMfBT0ihX75KW/8hLXSfoBAKTzFgorAylvBwm4VjzbAQFGCCWIiO1wyiO14xaE5QasiW85kyHrGi8B/MbP5IrcATuLA8jzcFrjpgMycca+Sho5y55SO4/7nU1llfYGPRncvUra41pmOd5hit/vZt3jv+Peok1mukwsIIg5Cs8PyRH5heYHb7z9VIKCcrlPV19ZP3f0X3/NhBx/97BpN8PxuPKcPbLqvJ3SqOORmKRQjK4sT6Ilodz1+wsb05fvY+JxG3N3Xn5lPh0XQW2btQBIcEqt9LvY+SzkFvG+zIpw5ow0Fx8TWUb1OwrzdxT3bSPf+PqD5C3/3y/6+83hVfqWXc+0VjrhUZV2cimo3kcNBFb6yaoQVUtRUdGrL9o5DL4bd+Xv2wQCKcTJDBKo/LJbFez35DqApSK1m/rMJESW8uggARLJ/rpydkmlbVRUil3n+IXEbKysq0YqKHE1m2TtZ4DASJWVemobbggTlhSHoHUHNJzS9wHMLnBLGIl7AKO7HJLSd8Uep0epjQwS4k+p+BECCXWsZH2wz249gMvCwUAOOvRAJkp/dJChboYwNgYGUdMPWzl763/Ks3/69SNkMrkS/I5KECJZhqxWeBdIdJirBi54GFo9MRPMIQYhZDHAgmCok0MgnMnJNRCvOWHaB8YdHXcD+MFeenAZrjguE0FXhBL9TIWlrOUpOBDPlAvpmWIsGGg2bQU4bQAId66JNRBYzMHw6GPKGDBZTKrnMWRjL+IVwlhmhh+Qo4NXNs/78LYRBHLSL8+3nCe9M27w9snXPaI/nP6ANO3ZMdAoFEzauF/WXLBD+kumc3MOJAsTVvxc7LT9vZcK2L4vFLi4KJBgxDpK+WdjPQHXBCv0EjxkktYmPe8a8T2VcY8DHjKm7lpM2pWtyJWHpFnDeci0I/A+enLrbRfJ7737tTLwAEUDGSXFjaBOVbKaaQDF7hkDbtLnLAT7zIc2WRvJ7QBFTZaIMJ4CSOiR0Nav01NEJenAJlhMbBel/kmt0RD/0VkMXqchri8EFIUFelsOAXy7AiwQVk930wl0qBijQMJctLtyd98pjogw8nCngbkRMrDg5KyKHBNzHRDbQN8AASlewVbLXRWZyyFmMlBsgwMCKGu4Hqyks1sj1O+vz5qpP6ydn85opnwENFJmgoMBBApm8QlqxUjAIP8eAyEJcCioGKqbAvEQnPZoBZUUb6D8smVKtK1cdNUn5ak/+tv6tuKLLezsBsySVisVuzGq3wd7PAwRrIkLhW/vLZEKazcGJ3Z9GADCRk1zjHSKw5nYVE9Kt1CWjDdA5gazMp1f+MVE+kOZ2LpLeqvCKbJM2IXAqMqP0t1QPkPf/SPNIXbXSDioabBzrX4DI/r8jA79Ousj42Nnghzf+GxMFugf5XA5NnyvHJ6+vvmRj1LZ4VJontzvI0Twye2k1trX5ec2rOlPfrZthheqgBnKxKqjsvaC7bJkVfApjblzz5yWTCykxFgBcpG/sXfJ9pLK1cLL61wf0XeHH2v3kZXAeN3soolpfA4FEHJisnUggk2Eh0+19a3Mc1SbxftpQzGxhxwS2YiSy+inBAk92bZji7ztz66Vuw+tyt0HPt8uxeQbnkLhQ7pY+mNeAwFWhFA/IeAKXZQELFAXwZQ+dv/xtEgtaqRCwEx91hef95AUe169EdfVl5gCIDV20F4OKkNiN+7nMeRCRmWNSRW4R4r1cpXM8Qr2XKpfoIJcH7W5lZYAv4UsBDFjwKBABe/GszWhlFypo31jZ/s9ziJqSO3Iz2MA2UbFimBFKsIEcneLA1mXea9gCj6xPacpaicIEnQR4K4AKt1cyVTwYkwAAgYOdCYAC1Z62U9uTKAiAggcIe3nMFiq47CVqx55szz+Ob+fM4BWBGPhllcdqgGJCJSMXsA8DjZAOLZCzlzUj2tv2lVl/Yi0c5Oa5nh4WRHeULoPSMGGI7vZv+UvaYTLwU1E0KitNGcclMkH7Ex2fdBrvGWESuts803WGSfwn2obhfUhzF0Bgh2qpAwKku7GJBiA0uJp5JLwV4EAyxSEyYaU+PnY3O/LXdO/2rzk4/u6EvLUXBmxmqems7LVHRPXf1VkcLnS51CaiYGsfeA2WbbRCl6cCpCQbXPwpgpFqxIkDTdJmtyy4QJ6ERYCFurcbiHsR/dP49LKNibxIF2Z8BmdZiqWbLtd2dMBZzzPecbZXjAjzQWHNQ4hA0P0pRHZc+fZ8qd//VNy687z8rHTUIrRZoOMv8X0RRz5DGuBCohUn4AUKjIZvPoishas8BLaxC4cLgO6P7NSxPsIXNhzqV4DBCGnL9KBTZbJgF2/yl4IQTYvYu0AtBJg8V0+Ly8ElZpGsLFT+UfbNFX9vl+L93oQopFNgg94TfaMH9WcrAQaT5AAgQISKGYEGFI7rOwjydo98SThYJ63tjIwoKJVUxwN4LgbQEnO2Tu2nwojoZZBttuPt1DcAWUd5HEH4KlkLVCLQpnZYPdF60EYAAIQ7XoEB1x4yVCNXQ9tPv4Z75QHPfaD9mrYelCI6mqsAEf0hs/zAQtiZAA7pRLe/lNgI/evwY/tzBK1IBwLZdKNNpxc6zv1zP3AShdaE0o+FpaoxCRMzcmSS78jDVLCnd5Z/tkgfMi5/HGhEy87eiJZhDUYLceGx5bKcJ8WSdIhIGK3bCaBhkDXDsuJramRNDQCUj7FGXm1HJ56y+k6ybEU9YWmOPVft/df/ZmmmXuksoky2+rzdsvKs/dI0/d8o0LZ0EvNlJAxWzmrqiN1MdYJWgcQVMGrSiHjggy7Nxv7Yp4niRkeY2vCPWqzMs/OWo4YpwG59oxZaa48JLKkXIuc0e8+sFH++oYXyxe/eVWHyEYBg+w6hIgrbzvQqSiNjGOcI2gw90KyHNhuA0DAihTBYqAuAU57pJgBFDpCvIJZJFwBw5IR189eEPqJrggUeSIpYb+TWvVdCBQv0jbdLeBhekU8AcyTJOyTHCW7QYE1w1dkPHRIibMPXI3AFUAuESPPjvxDUKMDAwIXXjJZrQZRjMZ2rH13BxCu9WspLVJ38AAjVOHQgYDJX4otiFfw3Xb8epcVVTKgEfUVxxvYdS2KZJOyuIL43QBCfC42Z2DC4hLUbWF9R0uF/v6cl75ezrkoZLEVK1gqcX93pND9HlbyBDI6QMDYb2RgIivPrkZrj03JYNcGaY9PlaU70/iz4UFxw8RUKu6KS9JoOY5kciATW3dKf6W5FhgcdAiWQIKiXzJPnAAAIABJREFU7yRrSuAw73fWFWl84QyG4aFlVtzMmvYlgusNMibhJzee+LqENmmdM5EQaMRA/rBtZa55efPMD7371GvmylKdzk7R147+9X/bNoPnKjsqgyzdcEjWnr9N+kv5uOvFKPQxFfWJWBJcYdYsBotR8guABFbMo7IHSuBTAy8MXMZqs6AC9DEKEBXX23Co2yP2a8GkElyQWTGc4Hjjx58vn/yPx0EULwwUyjGY+R9VErkugrsY+FAmdz+YxQB1CAAC4m4bZs4cDNRSH9WcaFwe/lBcQXJxQDBRu7YO4UTK3LeaxxDo+umkHXiQQMyzGCrqnO91W6W1Rzt9mPLxAsyxYjudQvGn/U/2eqGU41hLVs0sBdYexw1AtjrutXvs8KJuPAJnNSRPpJM/9afjKQ5qcjZNZy94ACPuzSo0pgBGbw8ZDVlmg00kWAgydwWqKyILQq0KiGvIT38cyI/8/M/JhrPu6LoHfMXpXWeKHSmOlvrLJjxs2xlAhGZqICPrp7BIZGZBkfbYMhkEF4Mf9wwFmu+mc/xBipsUKrrVIVGlU8Q19NpY72Bi095oYeqYckv8QvyThAv1jYuF68DbzUADmf2t3cG+lZbimJ+YmpaIrkcxkRbcsQp41MECmMHEJ89prp2WafnJ5jk3/FlHWJ7CCxWxewp7K5rePnHt/y3S/g/lWQUI/ak52XDZd2RyhR3+4yM8RSCBFdliFWqpBEeNFZLTiRIf5okD6LRN2z0eJwOF02lN4DmxzLriqDTnIi+5bmYczE7KJ//tqfK+jz0/LkTHOlDQSdWqYH2i/HFMdYTLAQzpCh9ZD12rQUf5g1l559+HYAEgyOMRuq4HtRxEl68fvERtuPuCJADiBlh6sADxIEQzUhIAMJGaAQ63E9SAAgQwhLG/BN7Vw9isc0bMQCmHXTEDdNDBUOm3IhMN7gc+h8HAhZKVxTNgo2k6OuiFDLOaonVPZBmb4Lt3tS7mwYTJGqG/6Y4+BxQotDTqvAVdOI1noOJIGSgBMCBrgRVVUiuFXg/uhTVrdspz/vsvy+p1oeS8CYBMiasrpmNS7VgGymyHylvjXXUnOwEMCLBRCK4YzCPSHl0qc7sDQAgWBFsLUrhQ9qXXIsXspKnoEHI3Gj/XW31EJs4NWQsWBF3Qv4uMBRU+CRcGAZkmBK/iNXTV5NzudSLhmGcXcaWso7fkr6wADZFwqW1+tYXIkdl2r0wPX9E896b3nz4N3YFhp7NrkW29617R9IZv116HihWbVtZetF2WhziEzM9kUozfVaYo+cWrQACPpV9IIZfKPOOhUhmP6rty3ei87sevtbvYeSXZoZ9OwOXgYySpnMmAxVhIbAzW5vCMofS+J+QmU4PZO1Ph9R9fepT8+Q0vkeOzS0ZSYRc46JX8OpVfJneBChfEJqSgRgiisINPstbcCYJryYIQYwq8mFJRbTEyt8UhRHdDshhku352L7gAw+mTLAnIahDXMwESLBJbDjLhZPdra0nARTM9vQvFkInYk3yCqT69rMReIT7BR9DxqHlrsAyARE1xJasCUg1T4aM4msiuBE6sDoKDAWNnzE2zFYy9kaXAVgkz+auLIt2r7oCCgCwQEcAApv8ycwE1D6ILxA99KisqWvpizMQISh+FkxDrEJ7FNWRVJAvH1gs/J09+3u/J8pUHzc9ik+RgwzBxtgQ4Q0C7sCArFVsNOJRWAvAtp09SmwAWwYtydJkM9myUcKqh/wPfZfKEdtDelI5XqysSrWfkaW986YxMnL1bemsO5f34c+lyaouuVd0L1hHWM5P/PAgQfuKp8Ovc7Rs9RiKxVw4SMktBmKYbDfO2MsNM8fri1zjG9isyPfi55lk3/1Mx21P6taSgU9pZ2fiO/qufI83c+5VEABBElp25T9Zu2WlxCKWiH9OSwIozm+VpBgkFrdWDD43LeZxJOhsDZVK3YJQCJIRfEcDYkRE14FQABX9m3LVOz7cTrTRPCGZAjKFA1qbVvnHLlfIXN75Ydt19RkYWNVBQtSDQU6rAqUiSHcbkMQgop8xZDjEWgHYsDibshQUAYXIL5zRkLggDBClzoAAj4GyzYmj0slkV4GaAgKOy0SpUWIAQWCncGuQAAHF46WX/zZuCAlHzbAIKeSBjjNcoFX2MG4R6ZrN+Iq7c45WnNHKscemOiKTqO30jdQs/4kBEtdCmKowIVIyrBZI2NuBjn+GiiDt9OmchPxqarAuIM4gsqbEBKp+LOgqZe4Ge90BHBCPWLAgWc4AzG6IhoZUrv+ejcvVT3y1Ty4KPnRi3tBqUAEG1ojEcaTx/zhYogsUykNGJnPo0U2QMFFV66VgtJJxFsFwBwkzYSdN4a7djjPRb4AcfuivGQnn2W+lv3if9zXfGzWNyyxWxAaWczXgoAe9CcHanxdKoAyx0bDHFcft6WxaLN/B5lfFAaFCvO3szEOCx0/RToahWZDD81+a4/ELzvBu/cDqV9L0KELZNvf7i3tyxb2gskkqFQAT9pbNyxlXflN7EgO2A9DLHVVylTRJLOwZIYMlTEt/IuIDi1bGSH0tR3xOXQyTdPPtiJEjAveV4F2k5GbEuwyuOS++cQxRA2QUJ2/ecJ++96cfkm7ddVHExqMl2nH9RfFk9hGAVCDItBQvaAOPvmvEgfTsDgcz8qntUeCINSa0PdkJk3Ezlhz4ZsRrTp7MT1LVgaY1oN9wcYx3YZIu4BItfiK4IG69ZDjwlymnHcg/ivQnA5EAhP5+Bz2ooAYVFPbgCYBJVeZdLelXuVsGwIBWOFfCn4G6wexVkQNGmz2CT+ByyF6ICphEQiPD7S5dCBAtspbCde5hHtBzoQFKGAlwKuC/8GlIU+Z6UdYBgxI4FwdqOVgM/ujmsU9j0hDmlOAQ/0dGyJ3CgVLAsPOEH/lCufPhHpBdOJXR0OlLb5oo7To1SEiOLQ9tUrAT4LYwXvODWFaPTLlrPgMLw4GqZ27NBZNjPLR5xyDhrRB9JwNesBrkjnoJXSFaEj6sPy+TWHXpSY0d582anABYMsIh/wGLaVAFq0L5rcbqHLB3xkKa9qxw3ZUWP4n0EBrwJm1f0KphrYRRI4KFhgzHbfkKODF7ZvPAmnAM+jni8x/fcqwAhLNOO/qtmpZFIYVEtmA1w45XfkSkUwhilaDsZCpXdMdsUs9nWQIJJj1JSLpSh4C+0ZpqvKV17b7UMi7IvH8uouaEt0EIBikauXZQgHT4Zy8Ix75hEhmta6T1yr75Lj4vIQcLRo6vlbz7yI/LPX3oUjWF+YFAFDdY+iidp9oG+ENQucOsCWw1MiKWqiwlMuETjGIJYSI5qGWgqgspxKuncqdIYmwUYAADBdzsdElsLcj/oY6QcMgABgmMw4PDCQUvNlcAgQVW0AoH0dAcWZL9GNcQ7dlNE/ryxgMs+IjElxcK6AJazughxqcIzWbnlVPAokXOR7mjgACIkAwEABa4AqS6CFzOKBm8PIEwHLyENEnEIABo4tyGdvwAwwAdBNUMFCemApxDECN4L4EMLO/WbWbnmh/+nXHBJOKgPu/b0niOTZKDB+L1Tr4Ce6Sh4eytWZ8Js1+MDjcwWLjK4a60M7tyYyxA19aRaB/Y9gm/3jtg4NFsyWR9YYYbnls7I5Hnb9awF5w3SeWgbyp53/IX+T0MnIMF9Z/ePABsmr4f7V8VTHBU/I6DSxkVzikAA/2j+GTYqQQLkRfybmKeZbf9Ots9e2/zM33+XVuCUf7xXAUKY3bb+9Tt6zeAshQcJIKw48+6YzZAWGBxSWrtqCniUhaFU4CN27J1QbOqbCWmUJaFKnBVlzERQPsN2Wf9tAYXO95XAIIvuYiZbzLjGs3BEv+JjDkiz0oomMSI3imuHjdz4qWfLh//lGpkdTMxL6FkMFa1TLv+ww++a+l2x91UVerlj2+knywE/SzsrBxPWuQMC22mVv5fuClgnwuPZSZB5H2ox6J7FoGPGjt7GYGuqXQNIJHbOXBVcCMmkUwkUIOXTdQYKdpVcD95jST52kqOykP3YsQQYSIgO/bR5zGMODABE1qPRBsyJF+/PanqjsxOdFKmWA5Pl9Dns2OMT2YmLPOZuvQLda1gj+MzHN3s8Qx5foOmXlE1RuBbCGDZuvF2e8uw3yeZzvpV4ISsa4JqmW/I4zMQsLwwKkxmu1EL0Pc6DvrsLglUDWyBSbYXBXetkcOd63zEHhUbRIeSZIIWbyQJyGfj1VofTa2XivN0ysR7xTKUVEnqgUOYlSMjkdSFkgViqz4wCCSKDXWtT3IUxQoUF6fA2UvSJKzyNWQmx3LCif322Gcjb5L+Ov6Z5zT/wyVT3f4CwvX/9B6QZPBsWhIC6wv/6U7Oy+SHfWMS5DKz0igV33vItROF7qoCMUqGyws3obFx3ByHCscBAZQ4jx1C0nQGFzhYOuiAnriqAmAcQFPIjCx0M8ur8aeldciD1BQFAz33uy4+W9330h+SuQ1qy1GbcGV8HINQcEHG3z2cwlEBBAYSCBd7Va9qj7zBcuSffv6dQQgqQRcClIGobuLwtz3uAJMGOCeNLOygvu8xbDAcC7MBMwlFbpbGSPSCSAQvkClBw2GFWT4Yh+XHQ3pMrYoCE1AYXS1Klkmp5EfQgUACl7mQRfsusByQ7K4oeBsJMxhauB7gG+N7yREa2OCQQUBzeRBkLWhERVgczeZSllaO4WSgWQUHS+Q/8nDz+6e+Qtet31jMVQKCszCNr21vAZxdlBSiogg0QKzMzucG8fQYnRlRtT+b2rZPhvsC77GKje2l4zmA8XGIFgmbx1v5Ze2XyrN0Z3nEhwcNNRE5yo7ihIntSzAQWrAQEFcuGvYO524LVhHgOrFl4ENUwOArY2HBZFkEC+vDhlmjbZq79zebZN4w6pOOUAYVyqU9ZR6MavqN33Rt7veGvOkAI8MCU1cYrvitTqw4VypzUSKaksv2kPTNqx73ATjyTVmSxOCEFXcy86lawe8ZxObDyL4FGdXyFyyEDD2OObeSYa24aXdt21VDk4fulWWq+Q3Y12Bh27Nwqf3LDS+XbO7ekgdjazwsKcE9JVPD9m5JXwAAZajEFHpgYghqThEonNeouyAsrQTCb9SG6FehoZz9T0BmdBQ0CIalYErkT3GJABZ9U+1o8hK2TWhWw60b7SQHAeFtaEtxxQAInfBx9RoPaR93M744HbQD/VXJICt8934xFaUfPDgz3arkrIrkc/LdqFkN+RoMb+eCaSMZH35D5aZFxXFZ9kfYIYeeeHxVN6Yr2THbyYwwwgLuAXQ26qcHhTHGd6BTHzIIQjQsan+CHRA1FHvrIv5NHff9fypKpcGQ6KfcwjvjSEhyDHrG0mZwLyvsYQNTa8TdbqdqYMWHefzs3IXN3bpThwZVJ05VugIpbwIenhOgmeu6qt+6QTG7dJk3PDn4b5TqA4vc5sDwaARKwWvxsdiv4i4AD/d4OJmVwRwhQBAETvzuGNz+Zs2oBEtwaWGze2GXCPNuGGgjtbzTPv+HXTreCvtcBwm39175kspn5E7gYYqCPKbqVZ+6XNVuDm2HcXfqY9y0qLqFwqs6roMcFKSNATmy7Ys2AROC3xWCgfIvVNrAtS5uOagxCx9RFJDkKwHTGFaqeDaW97Ig0Z1s9i9BMARLmZpfI2/72Z+VLtzzYZV7qrb4OxQpn/BJ/yw5XojMQIlYw1O9VFQ0k4LpbEug+Uuix5gLHCzhDF9YKKPn4NwUt+o6ibMMe1xr16IMsDD5LBQoaKmjClX+zdhkEaFZCUcylE3NgWggghFRUggJlLQRzQdgLQVZEHB2CAXGUE+QgXBSlXCSlrco1tV2NJYhsklIYHbCMcC14qqPt+J2Mw3fPWsgLIvkz7BoI/YaYAogZr4AIVwUdCe1BiNpHPLmR2vI0yoHIxORxufqJfyIP/t6bFQiiiCwr7ygySkZDOWWgCHfyG1UQ0ACddCwJdk+muYvYALZUWDuhzPLcnWfI8PCKYgOH+BqMyZAAMixrihnXwqMrjsnklm3SW3bcgAemUlFVDBy8XdYBpLwdGJTXqN0McLAsdk0vw8NLZbB3tVK2WxLz5Y7DinJIx6LN5iBBW0TADctktmZau0PZ18wMfqV5/o1WEuD0wYR7HSDcKr963rL+gduC1UCRtS5q+NybnJPND/2G9KLTsYwfoBeYzeIegoT5lOA4CvpE4hIcdBhwqCncEjzM90x5r7dHIAHPA2iMmlvWzzwAppx3COrbfFzkwftTEF9U4M6p8cM/fPoH5UP/eo0cm50iqk/vcBQgGAkUChcBBxYi1iCaM0PxIz6AyeMRFEjUsho8W8IPVEqxU3zsNMyPukEi8OACIT/UKapDCrbUV1ECiySEYpKi+4oBFEzkZELOxVBKbMx4JQ9PhETGUxlJFFaD8JvWWEiphwATHsSIe5ys1UMd58uggWMM7DRHjkfISDQrsUwHOVmbiBNgoKJxDlwoqZGeBwqqJSA75tmCFRUkpFoHWYXEcB3ZCbAexPmizHIOCDQWgqs62udhK+s33CFPeNo75bwLvqSagoFARTmTWczWEW+K3lgJBLJ2WHlD45uFLWMsfVu1WIZhAAh7Nkl7dLmRjVlfHPwmdkaJ8GQYgcI1PjdLgkwMZDJU0V17kCDqmAo/AwAgLhu/yzCyCrAY6lgobM4ZA+iXwf6VMtxPJZbRBQMB+NYQWOwEXAEJJchBe4T5ROSbg8HcKyeffdNHTh80gDQ43T1W+tvev+64NIOoIWK6oy1o0x/IugfukGVrDySXQQlpFvKd+/20bXHiKLcuEMIjdvFu10zC+oQzATpEW27bxrRGlO2MtT5jWBNA1Lk+d2GQvUaXT/mY25UDkcsPSbMx7AZoYDCpi8gtt18ub3v/T8n+w6udIhcNCoox+nkLULwWm6D6zDgwpjuqK0E3TxzAiF0QlUO2HUAohuS7eCh/fwcmZK092j54CqVbfDXqUFMfHUSArswon8U8JGVvW5JkbYiPJUO+YoduGGIcN0z/9DoQjpguISgx1UgoQUMiD3Y1UJ0CdkIUMQEYnddEwEFPTJaRNa1eA53FEKETlK2dD8GkGlk0czsYNQEkRCFjq8MWBOtjvnoH6cwFHP9syCeUV0a7BgLUymD1DuIQQgqkAY4ILuzZtpXztnxJnvT0t8vadXRCof2sytnoEIwRaYcLGdk9eMboId/a1+INwsqloEMHA1DYrk+7BZaGx5bJ7K4zYzXBEgDE92Hg2+UErG0dN4TdEY5wfsAe6W/aS3FnBCSYx/AZ4/TfEv/k8omFIgAHK+uMGdCIy6PUViNzO9dZ3QfjOcZmcB0QIAALs9cI/IvNsEUgp/4KkNAM26/J4cHPNz960yeyeZ2GL6U6OQ1ddrvYOXH9l4cyuFIxqEoJdTUMZcWmg7J2y7YEmk/EknBPQQIT4HzBi9lqnniAX2KqGkgwKdABAiQdxgIJJLUxvxrYGgUUqpaSYmxBhm05Js1FB0XKRAUDCXPTU/Kbf/Y6+fbuLbXQw+o1l3+2UB1A4aY/WAlspwsrQZSn2NmXcQrF0cxBgAYQYUJPFTxcAZz6CGFWuCFsR+VxC9kOy8YQm+SYCHshKml1ug5G2F3g2xZTxwwiMs+/Cz2VPUkp5KAgfAsxCIgLyGEBs5G2Y1dgbaWdb6h54LKTsHmWqYC5wYsXWR9tphMb0zOs7HVKMC7GNXLTf1E8KZJlsiDEHsxSgTiAzFJAYAHWBw5cjJsCABF2HZgrQVnGNh/xTzdQMYw1gJFeMytXPuij8sSnvVN64YA63+lDCoyofpiQZtrlxzobtvWstpMJMqOtMBCOruN77HOlreGRlTKz/QFJqYE/aNiZUuTfnTDsQ38ovQ13y+TZu1O9Ayc2fCgVe02pO5mnDUnZF6ufjouCnmfwgSUZ9mRux3pp58LZ9nAfgO/NY1ABQKjazhaUxNpkKvCxkssh/Dxov9Dsm3158/IP/x8e/un4fJ8ACNv71/2RNMOXqWPBKpdZnMDkimlZf/HtMrHEDm+CwhpbCdIysrLj5/16qdQXUND8Qt1mWry2exx4eIIgocPnNauICbFsHhXXDa/bfO36b0kjtGuDFeGgNGumTZjkDBVUwg2f/CH5wL883RdulAWBjRAj77FWPDMhMCxVKlRlHywHKesh6kO2BvD9URNyjAF2RwQEoqUC81LVmXyOsEbY4lBbKiTsfguY9DiJOA/e5VjNBLcqQDYzSICCZQtEktjpNUO9JybgT/qZFHz8HgpNqTBjHOnPWXyBwxIvgUFBiKUSD80CHIAUTRnFEYKMmEzJ/w+yjAdMIcUQz9mzCUDQIU+ejmhraDETqZxyUfPAlHw6zdEGTmWaW7YiwC0RnwNQoL+wHgxbWbb8gDzmcX8hD3posB7bajpxG22U30eY/XNwUQo4+t6NFCz6rvWba/7BodUyu/NMLGCXt5l+rblMMhpfBddyb81hmTx3h/SWkqUxe4bG7h9JjvDQ/HOhIJTZwDRpKB33Ao8ydwkMp5fIYM9qLQwVWmPji7NyN4YgsyI4EzLQxwsunrUxN4P2I7K/eWHzE3+3P1vD0/ClWMXT0GOli22969/Q9Aa/ngMEZcIQh7DmvN16NkNJCGP7+0cox5KH1FFYENECloBqG4kWlZJq/ZN0zOY14t5xduy1dso33BkLS2FrwJmzWAtI5CpD1oFM229FLj4izXmHRcLnklEbkZ27tsob/uhXc8ooZWVBN51Njf/O65diCVJBJGNCZDB41UO+Nyl4Bw8AARh/FlvAIAKCiNvIzZkpC6KwAFAxJidCcheUpzqqbIPQY7Vun2EJMCGIO9Lr0xfNT6YWyUXhSpvdFmbUy0jEQBOZ8z3KgdjI3RzuIoDJHaySjnB29mEgAaCBV207/g6giL+nI6AzK4Ipb5C0swVlKng5Zm+HTmY0N0G6J9zEWQ4cixDWKgQ3ciCkxj2sX3+HPPMHf1c2bgr1b5joXZMkyreYD93xk1KJgCHcrwAuE2Dz1lLoCK86UMgEbwii7Mnsvg0yuHsdFTACIeQCB+47lYOJ/ZWkGmmWHZcl598uvRUhe6OQm9n3cZV7rtQ1VoeJbx7g4P2Vfen34eFlMrh7hdacyOILgA6A9+09JANhsoC7bIW7M39d2RroKx000+17mx/+0I8VIvC0fL1PAIQ7Jl7z+F47+0kttGEFTCxQMVxbfsZ+PZtBI4sKQlpMUGLl2ZIozXKRE+sokMBbIm67BBkqqHgHnD7XlLDdXx0b0YW/vUoAZ3x2DGDCbZRjTEnslbGPAWQg79YPpHnQ3SLLcRIbkV1PZDjoy2+/51fkv3Zu7W6iaLp1UFAAExKd8VGcw1AURQpW9sjG8dAm49r4B1zNZzWYK8EtC7lrQXf9VK7ZaZTcF7AqxC4IjHBhJDdPpmqQUYFzTIFnObDE1c9lWWW2ASiWYIiAtEl7lohTA/xMWEf3QUqBS+ontyQwuXWtCBbQaE0i60DN9LlrwKMnCBAk5U1yFlkMGb6FW8KIgF0ObllISrrrkuDqiIhVSMGFuiQ4RwHXcc02F3AzuOsBvFwEL1pNhS1bvijPft7/lH6fSwmDcUqQwO6GQrmXGQ4dZqkAjsgEJUgoVUI3SLEdTMjsnZtleDCVG860FUqTs6zuTCUUOxjIkou/Lf2VoVIiCbvKENKbL2RpaQEgOk8y3MCTt0v87htC6pTH4sNqZLB3lQyPLHMgpvxmroZy/NwFz8fPg9F5aMBxRV+kZw61s+3/0/+hD/1Wtsan6ct9AiBsm7ru4t5AvtjKIKx+FqgYvk2uPBYBwpLlxzoxNfUgwTEUbKYYS+BtzD6ugh43eHGk0h5FIGMo4WyMFaAQ57lIwMLAws1otTGOMT6Tae1Vh6V39mFihhwkfPY/nyBvu/HFHbLvgoIFAEHZQswEKysectGkogJjPIRJg9jc7cCHP7H7IQIQkwTuVghggXdTVJ45cw9wPQWSnly61e9XlYsqdbAk5BaERAjd8xd0H59W3ICCyzdS+wG8WEwBDmhiOR/lIQc7AkdQtUQAACU9rxSh/dP5DHFEfHYCuQewqgAR7oqgZxIQsfX2+gkomUwY2UNuQr0CnVGngJJZFTJXg80hPsDnJ8Q6Bwk84PdoRbAaCLq86bAmtTZYaeahyMTEjFz92D+Xhz38htLkOEJxl8qaou0jeiEAUX53vhgFCoAIjRaczQrNHqYwNynTO8+Jxzy7fjYFiRR1/4EfdwCscmrJpQEcHKTNB2tVojonBhZ2LOusE9ZmHdfBCADA8pF3cHGjQMIkFIbas0baY+H0WWUQ46I8HiGbL1kJuB8HCRYsC6DR0TeRvvYOD8z93MRLb/7r04QJsm7uEwBhu1x3bm9CbhrK8CoOVDQOlGZiKGvO3S0ropuB6/uDrxZQsNks2dyEtag9X7NWFLtyf6H2fOGTMomYE9pIkGCKPCNyUu7jgpXSClCOcb52GDSVLg1YE0qKGQlA8rVq17bSfO+eWB/B/xETD4c9eeWb3yKHj2vaVF4oKQcFXYiQmqxaGSKzYzdvFgLOXqjs6NU0SumIVu4Yhy4hcjvJZAABDmDUxU6pjlh8srV60SUWYCnmQeu52zhsmilOgQVjXqK5fkjTCKCg6tL+mwc3smxWhZ7uTKSsz7jlwcepH8IUUupjGZNglojYrr5ZdhXkmQ4MMMrCSfRslvWQzmxgi0UqgATFb/3GZvJ0RAAdPCMh3sCAjQIAsiIABHA7tmaxvLPFJISfl04elBe/+LWyes2efMVAxDCPgxkaOxQpMRAdyIR9AL2xKjMQQIgIpgAANTOnuza04wAQjn/7ArNIAUxX3AMel0Pej9Bdr5XJrdtlYsPeFLvjSHAESMjkFuiegTiWsEhRHBc0KPJNkyjkXIg/CAc0hQJRYJcEjnRT4BC8tCzAAhebNyBWVF1kawQJyAA2tzd7jj+3+ZmP/Hu6fvrOjjwVAAAgAElEQVQ+3ScAwgG5dv2Rvvxe27Q/7lXG4GJQDC4rzjggq8/ZLf14qteYICGTNryo44KE8EwFKMwX+9ABCSN22azIRwGYjCkW2MEveK8JPixDxjiFynWZEbdIaeHYmjAuULC1ii1ddUR654UcZ/pHIOF9H/tRufHzT7Yfx7cUVOVgwUN6JLQqyPgZMQWRURU8JFcDAgvtfnM7OBgIH2IbSIOE7RzCjZyP8RJfN68/b72KAEeV26Zy47h5pwHhmKwKcHGo4CpsBbS+UONKKgAE/I2Vv91ti1uqEWUtwALyfCONEvIaZOsug9QvvHnlEdCukK0PNtBxCiPYO/wexa4rav5sM4Wlgqs0IjgxZDRkMQ6wDtgJs15MSbMfNEwByp6sCNFKkQ5vihzn2RP5dRm0suW8L8vzX/DGjmVHiZEZlSwD7u4Bw/O9UPigEfteeybrg9pCtx0LhLUZTh4+tlJmtp1NdM2yifoGuGU5PDGUic17ZeIszliAYDF501HUJGz8Y+Vax2oAIiSAgtV2gq6oQG7Hfg6uhcFdK0QGIYOBPCLOjjRv48No83PMwcHKNi6ABH+U7zHAOydfk/aDD2peIFZW8vSBg0ylnN5u8952yBuXDycOXt/I8Ne6mQx6ZWLpjKw/f4csWYnKfOBoIoKqKZ23JNzvPDEBmfJUYeD//LcFnh+lgDuKtQYgamAgihsdxlht2P2duVA73JZK5XnmSX3j3s445h/jMNQXedReaZZZLILLQG3o9u0Xym/9zbVyyKwIxYh8bOMAApZzvl5UZdELKLm5L+3awdUxFsxjB1JMgtdTyAompSOeS0AA/6rv/KMcsPoLZmHwQ5riUlAcRHlaHIADxTTw7l+38rn61xZzYKGvkIKtXOGztzcBAL1KZy2QJYFJJ8ETilFgVmWgEBWqO06SwY1ByagAxMLSEOcY9QsXTzI3gh1THTOooYPi/Kl4ko8FFo6yqFEOBDT4kQ9gCr9TkCK7FoIEo6JLsR5C28ozr3mTXHrZpxPPZTt112BKDx2ir6U/WlOepcDyDpqKmLZzX0VYVIIcZ/dtkrm76JAmX3ylPcY2mRsspDNuvEsmH7BLelOclRYaQDny0ipQCBlXuIUgZIVvm/SuzAZYp3UBv5VyNQMbjQzuXinDAygKRTxmGyC93eIJeCxYG+N5l0W4p8gwVWsjEfexwYd6L7rxWfwmT+fnUsSfzr5J4LfNzv6rnyPN8K9aGU4oJEgRRmpDaGM2w8oz7qZCGgVIyAi1mMqogL3q9UIRuwQcdxdfs1DQS+8Q4xhWBn9mMfeOUNgjwUAxxmyc7sSl7eIY7RcUNrxwWnqX4oQ2e0fGpEeOrZK/+OiPyae//ogcDJTrRa82rUZhcbB+s6tmCWCLAeoPqByk2ITsABqTSv485FmyNLhSxxHQ2Do4yGDLAe8UWHFr/3oF2xSLWI/BljrxZDFI4/Jn/FF9PkUe8B2pj1FQgp9zeccVD2E0KdwOSlq5+R+vj5WzWg2Su4FZzHVAZCMFGrFmAMglKnaaD767yABIqAQtgowNECT3gOJjDUJEuehuFcVULCkMBq4GlFJWflCRkp/oqG6LVJJ5zao98pIfu06m4tkLTOAg3AIglKb/sQEDA4KaD7QbhNjdgdBzrcj0rvNkeIhKLDtWcQLNmwiXe6301x+QybO3S2/pdNqCZ/KX+vFhU5vg+0ym1H4vhA54my+Xmq9qfdCb2kFfBnetkvaIVXt1A2FuFQh3x0Jq2es0OnWipteNMfj5MGZxcN4XaY7Mvq758Zt+s9Bmp+1ruUynreOyozsmrn18r5U/l6Y9J1ZTJIAAwLB0zTFZt3Wb9Cct4hdSpbb4C/niM2IZdxd/AnEJnbGNUvCjAMQpsiY4EY8Yz3xuFI66dck+nmWjXdqKPPwurYuQvYNGhsO+fP6/HiHv/ocXy+HppV05ZUSjsrEABPzbPFScXA296GqANSCzFvCBTNElYSKcMyFwHaDBmFotA6SczXURhQdcFbpF4K26qv3sHIa029FnVfI4OHApZKrcLQtJOqU4hLy4UlI9Og4TYYUKwtWUgeDgJLM2xBnrAvGxzv6KYOK31xmVbzrl0cfiwYxc04CtEMkywK8/ugZi95zOmCwJ+E2VfjhLAe4DjIcsDmYRUOCSQIaXSLajobmiov7GlgNYJhRc+EFNETOkwMZHfM8N8v2P+xOiVAgKm398G0WVQwCJDBzYCtYAA95o3FFz5cVSKBWuiQywkLZrNYD3+C2XeC0APVivCOjz5pPy7q09JEu23m61DqAk8fbZGgtm46VJ7WRgKtNeuKe0QFTa8SmV7ZLyxmOB56cn4/kL7cyEa39lN8Qt2GV/XYWroJMSSfOHHDM3o8YcGe+HZvYdeUbzkx+9+d5SzPcZgHCbXH95vz98a9O0T9BURyUaWA+Uxoey8eJtMrXycFovR2G1HeRilOs9jEsoAYmvbBEvUSq38g2MsnTM1/58bRB/mxTvonuV7hnv+QJXxzPPmQ5lfwwgwm8hrfGs49I85K5OoZFgnrzz7jPlz//xRfKFW6/MeEJHV7h1cqfIeDzUNDJ0n7+CBGV2Zeo8DoHdDsTUnrkQdgwchAiBA3dD+g5MgO2FVzPEWCAUIJztYCjFAdyO7bzjeEHzpugzkGAvAmclGKDwx6xNhgjGcHRyJGdg5bAigQEiPiL1hCENaIC8TFGDTJKCL4ITbR06LgFYLtSo6CSRYVb85rt5AIMmAgQlSVVs7JZILgMbS5btELIT8FxezwDZDUqi/Ft++qOCk2hGkJf9+Ktkw/odBc2ahnFRVlY4HKXIizgEJzb43itlmTv4ugQNHOyXXByDuSmZ+e4FuceD5Y/TauKXZtkxmbrsFuktKQohkRLOeZuyjkAohkMywZ8NmQbBStafGwUG+DnqzC83MjyyVAZ3rjaXXJGZYLIj/AlgKT2WQIKxXpKvfAFAw/jcfwof5mS4d9/+NZt+7pOk8MYTcyfrrlK1nKx2F93Od+UNZy3pH/9fbTN8cWAgDVbURVfVoFuF5WcckPXn7cxVA2aBUGknPFMq8ymtbAVOclyC92vc2NkQ1JTyqDHUFaRJu0R8vPLjgo1ynCVVjGznBA9/WjaU9oqD0pwZ8p/zzoIh+eNfeJK8959+SI7PTnZAQd1uUCc3t/d0qDylNkaLAsz6qB8f/f5WHyFTzuYOthMaY6/I+S7SH2NcGBQ23A0QaCwF4HPETh4uirgry10Y8FZk50Y4fjBF7NaJ5CQwQz0tNe4tirXEUx/zTIUUU5BSB7096AA399POm4w8uiNH8SM14YPkNDmmkR4CBtnyADcAbByM4Sk9ErjR9QJ5w6LyDuFddk1dCAkjO0AwKwRwci8exBQAhVV2tXMUvNhRHCdKI+NvKsGsMQcADHnRpEsu/Ixc89S3yuSknVjoO31733Es7lApAhbthVsdCI93yRiDgxph9y5BRFlsCeCjKizxpmVm/0aZ23OGWQ0CIoTiJbBK4LVZOitLH/QVCefqZMo9+uvZIlu4P1guZAAkE3CFlbEAAaUiZpBRAzWuN+jHtpHBwRUxQNGHhLggWirEDkSQEBUXWQHQXDkPBlN0T/wYluPo3B29F9943qKV6Ul84D4DEALP7pp41fVDkd8M+7KyYBIsCU1/KGdddYv0JswNUdJzeDPjKOJxlaevUKHM4/UTcDmMGluHL2sWkXsIEmprVWW+BawJGdWcmDWh3TQjctV+aZbNdVwJO/adK+/5+I/KV2+/yP0WCwED3zSOS9HkGmj7VsY4rk86vCmvvkhm1MwFgVL2ZG1gkysBAC/C5HrAFCVqtkYAARRhL8uEUS9YPjj+gLMVImBJAjoFJCqxpRYJRHh8QlLWQJlJVlGEQrSmFjEDmadHoQTv5GPf2OVbPIFfM0AULQimSP0zwJIr9dzjqPdrvID2h34t5gDkC/a04ESAAx0DAQW3KuA6rAt8D7IQ+Ghni1mggMTsxEbrRzMZtK1+b1ae9bTfkQsv/EJyzRiA8pcFn5ZfMOUdFc9IbZOABJdSxu2dgkhGGc5YtXa7FovjO7fI8MiKTNd7/A520HCxLTsuUxffIr1QvwbKMNvRhz7xktyxT+itYOaOrAJl86aKbvIpjWiHFbmDA2AhfSacuzDYFwokLU2xb7C+8ZIZ78ZLbNmzISZwwajCxZszqT6vY2iPz/56/8U3/cpJ1PeLbmpccbrohk/kgTv6176oJ+3vSiObYUXADhkAISz+mrPvllWb90CyQK5RlycAEkrlWQUQFcUJCTjW8ybZTjVIKMcy0j3hkjZ/XZDAnXYyjUCKHetCaty1Um3NRNrJVuSiw9JsOSgSSpsTJbZtIzf9xzPkg5+9Ro6GWITiH3rpyLbFEh1AQlD4PT7rQF0HKp/5tMVxQULuR0VbnMWQVZiJzXLKJKl0y5TIdi+mWgJoyAvScKxBPKHA/cNlpEEWnOjuBgILtMsvAxY77gO8vixwEDIvlOYFi1I8glkMACqYXBwwqI/RUxAVCOhbL10TTrKemWD9Q/9ksQoFwHAQYxRFu38XA8E9gNMYi7MbdIwcc2B8FdtNR0mHyWw9+8vyA098u6xZjdoHYDLOSkjvXzUF3eM0Tvf478SwWYZCR7NqK1FZl+6Hom97B/H2pifHvnmJvu14pgnze+KNSJYrjsUSyv1Vh8h3VCpv9EUgoRPPUHmGFbMOjIkkFyYMEtiCEJeqAiawvqap25lJmd21JqY3qpWAGiH2g/wKp8PqumbIXDOL2PXBspXmwwBhuG/6ORM/++G/W6xYO5n336cAwrbJ676vadu3iLQPrwcqqmSYmJqTTZd+V3ooTzpKmY9lSXAOhBSj9R03LsH3r8VueAGXRUno1TiArt/9hN0KTJTZ5wX6KJ+DhM6YCetYWbNyW2nttavnRK66W5p1ZcqTyJ79Z8rbbn65fGvH+dHUm4GCk0a1eYwBg4RUQ57vIbM/5gB3A+Q7gQ4P3nJ3g5VZRnnlTEAFVdlzXcABhqoRtW8VIFDkVIaZzJWc5ZADA3vOrQdJ+ejjKtVysqTvnsXA15htioOcsLuvkYZbDrSt+H/CmfydXQgOBMr7O0qeQESRVcFBho7vzYqgVgyLIwh/OTUyllG2UvCZ1SBMkE9sTCmXWllRF2CiPyOP+973ykOv+kisoujWAFiNOuWSS0KvgIJwqVYuuWoxqMUwjLjGcQxKgDJ3fKXM3HGudYdy4CQuzbYezlWY3HKHTKwNVRLH2d3HSVhDNMfa9FmxZ79TTI5ZumzYRKD2QOc5ngOr1xB/sEzmwgFNbtxLIKFjFbChEyulxjrpykWfPLSgtwbtdLNrybrmuvchzYUHdto+nzRRezJG/B15zZlLJmb/UER+sBuHkMIVAxJbv3WPLF/PBzgVu9c4oFqAIKRVDjSzqPhsVeZR8pCp8S+BBL7uv5VEaO1yXyz9xmpjxFzKPuebT9bPyQAKpMpZ0/gYcgAxPOe49K64yyos0g69FfnEF58i7/mn58vM3CTvVU4GqeUvg+sjRIOBKuNxQQJXXPRnyIXBLuYUP5CUfhJkUNAcBa0KVOskQIqkqokOFeLGJT+PIYwr8EpSwaz+0+cyWmFekMDm/2SjIL8+RgQXc5HFgN2/ka7HOGSZDeQyAIkzu8AawH/dikFlluH9YgOXxzWQm8F2+mCbDEDAk8kxBRYdGVzoMSbBqNODHGN/eYpkAB1nbrxVnvLYd8sDNn+za1vGTj1T+MS4mWuhFBqc+UAKNg6DmRBkX9xDVoJ8h4P7dEs8vfcsrX8QL+OF5Eq3WXFclmy5TSbWEDhgIFzKtaR5548nyPV2Wr9sKUoAQD+Wu3dvj2SOjy2t2dy+1TI8GDKq2DqnvFtmHICPs+nyUnfayMkgAxyzg8/0fvyGR51kYbfo5u5TAKGVN/Z29A+9uWmGr2hlEGtapnoIIXARUqWVqRXTsvGi24sDnGogAYfGVxT0fEq4XJmxXQ6hUbepUqfzAI1aenJmvkMzi7UmjAkgFgIJ/nvFXeDvpFzf9K78l2yeOpd2opX2qkPSOwcVFhPDHj2+XP73B66Tr+y4YNGEvagHWJkH02klaFGtAeX/mcHNFeEWWz5mOu36ASBicmAUHl03QVTQKDjDu30zv7rC90cBLABu9IW5qo6WB7w7tVSkV253+atNYYm6hgwv0pXMRdHZzafxJO9WcUIjSBOFkEhJBedI7kKgWAC2PGQlldkCwUc725ijC8BGTTEHmh5ZFllCsKHGG6B6oyt9D5BMIACgIsUbmLQyt0S/mZVHXHWzXP2I96n1wFkzrFVh6owmc6bgsigSM6zd6ECAghuzPtjujbatXfSVuSXo/jDNnsjx2y6Q4XQ8Lif5yY2GYxPLZmTpRd+Sfsgyy7GFBjOyib8jX+2BCJDQfnHTgi4BGhinHNJ0fezlGtfGM+zJzLYNInM9ia4DNB/Gh40EBpsBgSL2mqbmgcc+VJtwASTk2Nyb+y+74RcXJcdOwc33KYAQ5retf+1LmqYNhSE2w82gFiMGCCK9iTlZG46BXhN8XLQy8XNNkd3TuIQF3AUFPy8aJITnT3dsAoOekonKuAUn6BEgrGzL34k7f9MK+TwNJIR4hCfslmYKJ9olAfnd2y+V17/vtaeA9IsmC5CQorPHsCS4jA47dvvSyW4gn6fXRtB54lyHTHh4ZTny7QKklI4AD19QKROX19MnS7cE2CUpkuRaTZHuFnJIukAFGQoUMcRQ0kCmQqqM6K4B/936ZvZ0ywGAihVEiqSRzmlIfUOhYzyQ2ymDIpIipTPq2JC6mFdaTGcyIOBR8X1MSYyiJAGE/GhnBQepBoTeGzvCs2G9LLVx47pt8rSr/0jOfcDXUkyBK+ZCqUO7whLRcWiz8maNWttpzJMC6W/X2qhWYNS3OxfKK+86O55FoCsDv7/SZ7NkIEuv+or0l4bMjLDYpXIn+ocsQfwDbo1/fVHsY0dzJ0XNt2efSZnH6zVwUij8bAza2HB6Sua2r/W9Ac/JhxqZx2RJBgSwRjZcxmIAA/7qMBbomEZ6R2ee2bz8pptOveCbv4f7HEDYMfFLV7ftzB9L0z7QAUK0lCnzReI0yL987WFZv2VH4edyW2NOSMrtWfaQSYDufQwyMsKbZwffoWNyOVR/I6LCO8r8dcU8OsxAirocY5VxRih2rCfTCSv3kUx4D4ECmMTEzWBdK/1H7xDpo11jvFbkPX//Mvn7r1196nmFQEK0ImTHO0PAzW9JCIFcHZAQ2nU3Rnrv6cAnK64EYeYCB2rYAsKyzAVTqFAehTUhNKVpkRA+ATgkCaaKTb9zS2CTaEI1Je3kSQq7+5Sd2pid1piEoypogADC9Ow6iIY3bVnTHpPVQVmytCRw0KLNM1RcjKyHOIIiFsHHwIWXkGUAIJGUfCwF7S6DVDfBqyiaWOmkNZobIpy50O8N5KpLPik/cPU7dK3xH5TdU6FGhDGK6UjRxeWpBRgWtRSicnRNpP0Qi6HcdjJYdjRlHNfMoQ0ye+cmaYchophMAQGcLpuWpVd8XfqhQiKLpQ5IgDK1mxTJ5vI3ewZIciGQUACA2OKIwEVuqur6SDeE6omDA5qxEd0JDAbYyEHXdbkByknGQ5wRLsk3hAkkNHPDg82sPKx5+YduOfVCb/4e7nMA4VvyC1PLJyY+2kh7dSvDhushIGo2XgvBiktnZd05e2RqldWRGKWIs+vjWhKM85N0tE+LMfMXu+dyHBmxoqMFYhPGBRv31AKQyah7GJuQtTU6LXJ46WHpXXBQJKawgslF9h/YIP/jr94gdx5ad4r5Bb5/VZxtn4ogeSwXlGxxOqQDHjrG2eRfVEURJNgF1gUmpJJLoeJy6JhWzQ1A13O3Qy7kHWZEPWHAh9a3ChOyUBGfnLmfi3THLHshD3JUxV4JanQrQn5mQ3zrzgLkFsA1w93arkEcU+ARgHAWQwko4v0ADmxxSPULooLDgU5kDdCUffj6YVXICyaFcXs6dujbUv/Xr94pz3rim+XMM75tsQl4P+HNEEPD7B31LxR58btzQHoneqljfpwn/oAY0hV62V6ioXDL8Z3nyuDwalOSyQTUW31Ypi78jvSXHzGWpfECCDHXOmC1tQv3xOPYSZliTfCSzbXWNRWncfhvmXyMBE/YqxxbxboQl0bXfvaOM6SdU9dhNhUvh06vj6cQlzIpfAUrPD/DL/Ge7via4eDGRvr/vXnxBzjV5RTLvnrzpbq5VwZRdrqjf90fSDN8eRuT4SARyIJg9sIAoFeesV9Wn7lXmp5x4ygFminjedwFrMycQIuXCymWEb5JrP+fvTeBt+yq6oTXucMb671XcxISwpBAAMEottjaDq3gbCuNje3n1CqfAw79kQG0HctP2xbRRuVzgqa1nRDTQBijoA0KogiIBlQEIYSkqpKqSlLzG+6953y/Pay1/3udvc85971XlXoVyp/k3XvP2ePa6//fa9gb3xehz1kTWtwWUZvbyofGyHu4gLAPl6A1wSyVuZKqp56i3qO8D9OD2KTs059/8IvpD975HDq3UU973F6h5d2+W+TRSYldSIJXMHwZFOtuRxK84oBdvZ1VywlYoaSsCUAalCK1d0nI1AYt5IwhbCdA0GYgCErPvYWfg887ADE/Bc+qo5UjXSe/+fdQ5NgygRc1oagC8If64UwFD9TSE0k79GQELmEK7gW0PvBdEeGyJrYScKyx+y/EIkTxDmhVgGBEPEVR3AxE/+bTb6cv+uxXqQUKiJEFaa9MoowEVjBaOfjPtaBE9VxbXdxKcDdMRnO0fv/VVK65YD37r19Sf/dpmrn2HuovngtnZ3tZwv/UTPwImH69IE+SdVLTrzo2Q638ZIwCryteJDgewaQftde4FzaGNL7XXEjl1qwU7YUOr1OXd/k3maJQt6UCQAhCU1kveKuMeXBj8jO91dMvLh7GExQjNbO9Cnbrpd3Tv/WbesX45eaW55DuGEDWWeTc55nFddp9zTGamTeHcVh1GxNNeVa0qJ909eymQPUCWxMy6YHpGAseE9VP+3FaopDrV6YsXhBoX4yIWhMhi7aqVO0ZudTH3XhXQ0Enz+6hV73jG+kvPhIuctq6pOVKQDeC9+eL+8FvzOwKz7gb/HhE9ydwTEKGJFjMgzRGJ+Ogcex4BhIhLU+6HcKzmC4ZhSaCxmOgddaFEPkeZzc4F0GYVm/FANGScqwoBmIgUBjxUrQcxCQClzG6GnApizfOGukQyMHjGFkb8GRDsDygVYH/toGJ6E5wcs9xCWypCJkKIS2S4x84tmHv0jH6pq/6KVpefAAWprYOaBAHIHSCEFsaBJGMUPGg6mf8ZxjzUI4HI11uKjWyIBqd3kvrJ66wlxbZf/2KBvseoplr7qX+Lm85qIE+yKv8aWHS61+/drgpIu88TBnwFiLdsHbZvRAWifsrGbgIwAzSbbMXzO2NwOPcWuL4CmPF1uQDyUTsknAEIVgWwsFmvGnwU1xVG71J+X/Rt7/hdXgx5oXTdc0lR2r84WqErvc4vehRo8HozoqqfUIQvHYIh3N4832vopWrHqBd+09SYeyArF2UfOa/T4HXNIA6LUlwykbWuHR+m6wJmiA1AbWMUUeLgi4rOcbQv9rvuXpAk5u7Gq5Zo+JJ5pTFkSxQ4/v80N1Ppd/582+kex+88iKIahw3IJc8eaWAKZB2p84EAv2UFvThkiV2GeOz3BP/HhMDC8U6gBGVaLSlccqoFhcgGRCBWMRGbQciHp4V+PPQ4zMMMb48W23CRSDCDTEEsHPFUJtw8JFvBy8DBmsbj6AIBIiLxAewW8CrBdsELAtJBJ/AqOviZ1CNeAKCpzBG10RzRWw98EGJDkoqes4XvYye/Lh3h513BPha/bYRBxGWBGkAJOPHkkGHPHcAbg1Wh6rq0foDV9HoJO+miQZXHqPZa8ytjGtK32rAVP0TmQWSELkTQGEIS1TWs0Q3awGRLH9R4HRD26RM94c5qG10zz6qRgPh6LL0wHVgn4aNgyWRvP6jdnLdbBoDom0JOZCJsvrgpJo8b+Y73vjei6DkWqu4JAmCGa4jg5vfRTT+vAA3vPJDJIKxIhhRm921RnuvvY8GM3jgTgvIa7BLuPDSO+8MyCWj+FNEIFg/6iShxQrgdHX4lyNDnkzJg9MCe01vRdsQZaHZjLUhRxScZrapj084R8XjT1Fh4hF8e0bjWXrLe7+S3vD+r6DzG/7q1VYR38oDSBLcrY58RoKVSzsfflIighD7HDkGwb4rMWQqDVL5KZ01wZMETQycZnIdq5lV6/kH7rEgPPYERikhEIAw7fw7xxqg5cBRilgMEdzBt8+1sF70gya6308NWibMb1ZfcnayJwMm8NC953Z8LsPByVHY2fshEZLAMQKcNomuAWVwBHLgMiawLK9z5DAlv+v0WQuS3eAPROJshuuv/nv6D1/yC9TvmeyclILxo5i1EvAsJeIR8K4GXOhAxHwPeJS14kgcsOQfcT4vq/4mo1laf+BRNDm/y34ePuZemnnUYZtFFvzsQUtH/vZIbrkZHFDIDfXpwdy6FCKxvDcMYZYkwFKJ4xTAdKHAfHJulsbHzemJfLqqNxZyf7wlQZYeXLgmSxPKtDINGwcJeDRNYMbOIjWavHZ0ZuOW+Zv++BNb0Vzb9e4lSRBM544Mbr2ZaPyLTj/w9c/uU1gD7jpV893exxyjRT65S4SiCaC11S4VvAiCH2nEHGBOa02Yhmz4tkxDErZiTUgu1CYLQMYKmrSWCDIEOZb6/BwbkvCvTlLvCsipNveXnFuml73le+jv7nnKdq2B5nJkh+CU5raQBFMjuhyiIC0GfnY5xJ8dIqIvVhMFn3bmHhTrQNCTfApCONo5UAR8KlgQHDAzLXCaLNLVAnAC3b52FYNllwemUrqh5zvWHND7cEtPDOxnXJpwYJHNyoiOUnZuBCr51J8AACAASURBVDm3ACwB8n1ENCCuQW5q5Pfjkx1DBgWTDiAsvk2VpFaW1CtG9J1f/RN0xT6j58V0FGTNdjXEergfcHEzYnhhiaQUMxWUqV6WaCLlEcmDJwDxAlSLvihodHaF1u57tJ3/2evvopmr/A2U8ijKIpvfeX37Plm/FQQn637bbuu61bLk3zOZnJH7BNtWW93+R1tOgiQQ0ejEbipPh/MeXPN0OiPH7Pgy+GckGxFmuM2BDWS1FzrhC14oDZhNyv/Se97rf/5ScC8EbXBxVO1UtRylH/q0crBxJ1/c5OyFTsK1m8F8nt21Tvsfe8QxW/7nNFtYe9iC1MFHTouo9zNlYNnRSE5BEqSMRBsbzxVIgXEOvFWfOrW147jpslISlR0nViJ5slXNVUSfez8VK/FRzB++52n08rd+Kx09ZW6Vuwj/tkISIr3PrggPg8m4BLvfEBLAwY1sTbAzI2bOHFEIpCIH/pLyyJAsRbl3+X9F33kSIJRDPgdF6ywBHACIgZEAtq4DscdPe9d8OSFLgUmDk5U4kBBgNbqHATIabOZCXIY7w8APdZT9wMGMOq7Byym7PsSgySmRru8m3dEcivQ5T76DPv/TX0czw3UWdPdfIQbsc0ZE8SMvaYmR8ICgG8FRc58MZIwUnquQlxtblLxFJjqu2TapoGoyoLWHrrTWg9nH3UXDAyfShhC97v37Urt8holmkhB1XwUh+qUQ4gAUiXB5vBE3cB/QZKXeYemOvg7rpSoLGh3ZS+YOBlu6W0BizYs8InB4kp37xvTG0LdoeMBlQVV1pBpPbhp89xv/6CJotU5VpEav04sX46F7Bzd9pKDyCSGTwa2wOkFw3+977HFaWDmpTOAAkLq3STLgn4/YH69sBcxN4NfV5RCVoclFB7IRtbNhh1/rO89gog7RwrFuC3Pe4lbIrMmgnVrGERROuXtCxWcdp2LJK1q7/gt6+98+i37rXf+RRhw4daEFcrMkgbWMVzRW8bKJ3+8iIlcFmCt5V8XmSYFusTiDfxa1jt8dYqS1qzK2KPA3GL2gIcnDarBEoO4N+/1YJzPfhfTHmGgES0Icj+AmMXIfyI7flWBvq+A24IWu3uIQgheBTOCSBhLhxNyXx4efQkYEXgwV4hn8AUli4Qhl8E2Ojz34j/Tln/NbdGDlcMJKoEeYBTdlTYDfrAoSIUosIFh0bNFh8EHLAQMkqzTZuYMbw8vKZDxD62f20/DgcRrufcCdUcIERzUNg/nCUlS7bgRvi7pAWBDoo7IDeGPTpQ47JOqZJElgtgGFJ0jC5Ow8jR9Ysu4F8fr5OtywuCOWZRgA4B2JN/8vLMyVobspiyG2nFRl+c7+aPR9xfPf/KELrc66ln9JE4TDg5v+G1H5w06WZQWDDSFEGZkpm5nfoAPXH6ae8flNQwa0sDNA1kgCryq9PjsCs5SXshhw2fq3HID751HYpB+Z9mjSwroqa2WB/sqzIFpt5SXfaSozTTzKgyMqnvZARBLG4yH94Tu+md585xd1lfWtPxeRBHfjY2tMgig+VJb+/D2rbMIOyOl1OF9B5jOORehMFJQdIHCIGuxH5EHKBzG31gGWNXYV4Fsydco6wIcrRWWBhSIsYaf/UfyZCAjhgDMSLED7kx3t72wR0NYGfWBSiJHAMxOiFE0faIjtcb+bTAYwSmJ6pX9naf4kffGNf0hPe/xfUo+DpnV2AAO4iuQQAZXfeQEhMcDvQltihZdUCjG4pzIWEHWLHk2GJh6IaICbLilaKdhkldBu+zu7IODdVtdCDKIRSUi1Jfsdrz+0WCpiUfVodGKJyjMLYSSkC+y68/+1ghpbPCTjGAiLpSVq+tgq4d735RgfTFn+bq+cfF/xPW88v3VltT0lXNIE4Z7hrZ/TrybvrqjsGYLACs7ZEEBr+M/mu72PfpB22UucOuy+cQxzLodIc/ALTQDvn4nIBQola8oOJCEC2A792QwpEhCCvqWkImdtibQokoe28qYgHyaz4VFrVDzlISoWg7vBxCP8xtu+i9778aduz2roUooiCfbaW0xP9LsNp8ggAIvfixQpuBzYmsAa0HyG45IjtwNbIMDeGbkdIrlhuI//ax+RcnjXHl4MzUy8r10CELTIMQZBJ8KhSiDyTpx82ZokMFEIXsVAHEpMuedgQs6WcMpWzjDAcuBvDkLkzAR2WTgvJlsenFtCiId1oaPbwf9mbnj0sQfD3gbd+Ph30hc+7TZanDsT3AAMxoIWtUXnx4KtCLADjeIS/Jihe6GWgYBl88FOYGmyy04TjkhgXAGLI6oWRlQM0WWLwJ5a67ndPICzHWx1eqLIfK5MaF+kV3V7YPfOYIFd4+8i/RY+lBsDGp9YoWp1xmN/cPVFTdQ3M/o62EqHUybWA+YiSGBijHiAxuVP9r/n9b/aRQ1drGcuaYLwEL1g9+qg966Kyk9zroU4/8gtI6dF+O/+7IiuuP4I9QcjP4Y1bTZdXIKd/FQZXLeaqiyQNpSh16edFY6+arBWRO95pVIL4slZN2C7VtNXCfIidW2mvNxYccUdyuxXVD56lYonn6Rizs9tQXT3/Y+jV/zJd9LHTlxzsdaMmxA8OrmVJEQaJA4y5GgkezobWhPYXKl2ULA7EVeFzI06ZCma1+BesOJldV8MFC6gmglBEC7Z5MDhR3Uxd2XlXAbBRO/JCIiE6ExPGlz7fMAhxydDHEEcmwAHIInLQKdehrgCdz6DuncBUiB5bNyy92TBWgd8gyWWwbXR3fngnrti5W76D//mZbR36T7vCs8BMdqcNYKBSrZ8x5eBpyymSAMjmAQZqCOXk9aKCKG8LbwiWlklMmuMI+xTgIpAV7NAJmIJhBQw6wOSIP2EJWy7zRkP/nupE5e6rsvNbxgimANl+g9D4gqenF6g8YklotJF6Ej/efnCjl+WDgO/fR7aaxcC/ujknhNEeLqk61X1kcm5c98284K3vuciKrLWqi5pgnAP3TRP/d5LesXk+x0FcFYEvpfBLdmwzXB/l7Ry5WlaNgE10rvU7jsDSlPFJTQBXwpkt4kktFlHUpG+ojhaCIcmHVpCUIPWiEWCdOjyos9q4efa6LS1XbDl489TccNDVMy4nU1Z9ejOj99Ir/yzb6cT59y97RfnH5AEVg4StOQveLLtZqD3ikqUBgRXeW0hsQZiTfCDD3dCaLOmkfGYKLh3xKLAbeBpB4docDTwX2E+bGv9TjMQCt59gv6NlgCnH7py4oDGkK0gu3zeN+NSlDRG4f5xyqHtsAdun+oo7TNfo9XBt00sBpZ0ADjbA5FcW82BTCb/HcmJJSmYJeFG1sctFGTuWWCrwsxgjf795/wm3XDN+1wjZJfPAI9SmSMOsDgsciSyH0SpIZFIIaeXL7DUpN0QUKdJJ9m9SiSXpoGuiLgEfGAgT5GE2loPmTNiDsZnUroGHfiKzzghi0GYJS/iQ1Fcj7MyeQGVSTGHQJnYg/KMyV5wv0f8WYwwEGyolnS0NmVK0LXo5Q/CTTwRqarR5M/7+2aeVXzDbf5I4IujxdpquaQJgokLPTK49VkFje+oqOrzvQxujaObwa1i/m44t0EHHnuMBjN4Gt804NxAHlJC2gbYNcHP7ZgTpMK+28GaENWRsCZMC+xIrmoLnddQh50/S2CqfUnyIVo9EUficuLKJ56j4vqHqBi6tTQpB/Snf/dM+qO/ejadv+BHMStFD24Ae5gSXBVteyIKFIkCEgckbH4vCtYEZ0FOWRPquzRxdYBvVBOFeMgxFiG+BFpEmiO4fdyB6D2JQ/DK1A9LFEOg4g8k+8BrZwT2COKiuxvC1c1uJDA7obApknHcgr7QCawRLK4TL1o+riCQCgceckETEw52LdgJNVaDUKazxJT0udf/MT3rxld5a0IiMs1tbRTi8nfmJw+e+IhNj0yiIsT7shz45yJC4GWntkNPLLyZCdHyKpH5b4SuekPBE+1RzkyALh/BUWTRDBojKpeRUCyRIEBdkR5R7YdAwQD8an1wnzi9EYm60bBrQxrdv0K0MfBrOLYAxKco+iXJcqyu1Ig4HMcYiUEESELgN2s0Hv9o//ve8N/bAPti/35JEwQzGEdnbnlKVdKrKxo/VTIYBOy8a8FrHrf+Kyp6JS0dOEXLBx/0t3DxsG6SJERyjOYrFPSUxUDtqDVI5siGXjdNJEGTEwT25GIDAK6tz9z4ZEC7jUTY8oFEpOpL6Ai/jQtrQUmppYpPPkPF40+6g5TMZTJri3T7X38d/cmHvpDWRhfjECXQWJokiI/SNbx+6qLvdNKawO9wMBR8tq+x5cEr24SsyCFL8JvDDfdOctNlgdFbAECsJVmRXRIgIui0SAUXuuq96wTf46VijzMO8iGEwQ+a+xyumBaCkSjL6f06OUASghYBEUskCezG0DdBQtnRKYq+/U+88u/pGz7vl+ytjbHQJoCYAdxyA73LhzmVgjAuIRVLwLIUPKfBvsNsI9UOlqOSaH5MtGvD3q9g/9nH+R2eLNwJg+zjGseAQyQJYk0xLmJFErjCJA/SRACHt4UkiLzHBDw2wAQFOT4zT+Njy24NmK/t4RxA9MyfbJn1r0l3FQkIY4h8EIJ8IQzEy+epybnVr5i55Y6/hh5eEn9e8gThHrppb69fHKKi/EGOQ3BWJ0fvmRTgGQk2o2Fhg/ZefcLd0aCVKIJqE8ixdlHrIfZxgTatmdnafpuCsMhC3CQRqS3ALez+E/rG9TTTNlQitbnw7yXLzLfRkoQnGpJwmgpvEj11Zh+9+t1fT3/x4WeQueDp4v2DHT6nMdoMh7BFCCTB6EibrBfcD/K3sibw7h0UUDiRDYkCy1kYxDg1MoAI1+viCtzzAZY8gYj2uRBk6PwZ0f4yqNjwnEyxWB18PZpb8+6fl0EE/Bxs6PpmvcK28XDKof3I10xDECGLFJeHKYxCCCDbIjo/wRMNHhdvRRBiYBoBCVVXr9xFz/3XL6PdiyfcG8iHA4LEO34RTE0IEIGUtUHKzZAIbaFAy4NVmJaRhJk13xlCML9BtIstrSl/Pq5rIDRIAKL1rdATyYboU7B65HRJLv4g0h9cl5Z/Bvcg9+6EoiDzIvSVOe+hR6P7d1O5OivcKA7PYbIO+hz6H3URp4d/8EE8LA4hrtSnTE7K9/SP3f55xSE0FV887dVU0yVPECo61DvaP/PNVTH5NaLKnvfpYg2c4KbOSLCuiF5FywdO0dL+k9TrA7NHQlADzQzIJXfB0VYqjDGSiprw5wBvGqIANtUU2DbFUOjnm8iRBvVaXQky0FZelzJTEoljiu0oKh+TEAIXj528kl71rv9If/3Rz7jIK0zt7E2bVfCilS4hDTGpCNv6VGyC6zSe5oaEIz4PXitNj01CBjxQgLaS8xK8VRUDFXnoXak+eIsB2H7HaYWeBIAOdcsUTlkAIiDT6MVZLBBwdkLgm3jQkSYJ3gpRix9wQYaYVeFcCU5u3fkH/K7vR0RAMgclmXd90OL+xfvoK572KrruijuphwFwkeRlAF0fbCTxBjwyCeWkrQ+1eqLFoeRflWdItckIMv+NdAY8B8Q0rkrJGP8YkYbEM7Uu1WU1WQ+Wb8VXWzO4YBawDNHRc+SDCsu1Gdo4upeo9ETADiMT/EA2pPkypYo4BCNd8EHImATDjNzsau9uIOptbLyo+M9veslFVlidqrvkCYLphUl37FVjk/7xWXzsMlsRdLqjUx/u/4azY9pnbnpcMJeKpMB5CmDOmsqndTl47VoD3CZzvGonECSvo9VkN7gKdEYGaupUm5w2jcuPpEa3DXfBHS0KUb1N78DY8TsDn91gL3dyKZDHT11B/+vPvo3ef/dFOo5ZK2rIcJBLnrzSsT1AkmC+4Of5GfldWxQ8SbDvuEqja6ShDmmSMvtiTALaAsLf8V9OFyrwj6YIMgb4OfzduybwdkcUOSEg/A4ThMiaUAf6SCy9G8K11VkYouVuyvRWArk3wYtSnUTwUcrq2Ga2PPj4g5XZk/RFN9xON177bhr2OWNKISAvGwy0kwXLKMO7eiQSkJ6IAXXZswsAhcLEh/gFDcwLG0QLI6KB3zjVXANIElAGfeH253oMDFYdR/jhe8rkj2s/W65lBa4QfoYrw7XiV0TymSgGIVI4NDqxTJNTi1K+8CL0xbE1jwWPCXdirUbWB/RS2B/ciYuyVMvJpHd2/bHFD91xb6RGLpEPO4IgfJR+cHmhP/gFKqrvMvY9DFYs48PYxeXAloXlA2dsLEKvZ/xf0+zgczvkBqJRY8gZsGOtiEIuAtFAWvRssVM2WU4HwlErz2vNeP340htIRypIE1Gga/uiepvGDtpp/jQkQZ2TcOLkAXrFW7+L7jz8hIdhqcEZBnDTI/osg5nRX8Jsn2PFi9YFrZR9qpRSeP6YIBWjAAOamOuQ/cDmdr8jkqEHsuDzsyIY8ztaTvNzYg20w1sQXCtUCqQPNuQAQVsu75AZB/wOX5rO5cmdB+we4dgDqCOyBhR214/LxdXF8Q3wG9z1IMuUCYevd6a/Rp/7+LfRFzzhzWT+rt+pwONeUwg4mS4wMZJ5fZqiXogw+uIt8O8AhgbwVvUbl4JxJ3AKIwLqtCRBEC7yR6k4TGhvxGESAYQ5K4YMgXkHda/qW5Ij8ZdgWcAhNWuuKmj94wflbAgB94gQMB9Cy4Vrjxu22OonHEaFmPCzFr88CynKyZt6P3D7v3sYlFSnKncEQTA9OTq86QfKiv5fosket7Sb3Az8hHM1XHHdEZqZ46N6N0ESaus0t6NWFz5pkMwRiGnK18/az6Y9uZ13B2Dv2i6pC2QLtXeqbY3vsL5U4xmV050oTK7coN5nHKdi0e3o7nvgKnrl255HHzp6XafFsL0PKZeDdzfIxssrZIcRoEhr1oR0cFiIMfATgBYFUySkXEb9QiDwVdugRhlme/+sOAbirARPZoB78tkNaMpH/ht/D35/a6p3LePnZRTwrga8M8E/7Xb9TuTdf7m94ZAk+T66zMnXJ9YKPzLWuqDIgoimizngJdYrJvSUq95Pz7nxlTTs+0O7uBd4IJJ85+3OIuJ+viyg+4O0+D4E+w7HIfgXosR5JStRmQCgfBASkoZh6VIYjdVAEAwG3xYNisBOhvqsF4j92d9AJI8q0uN3zUkZrJGGHAGAtmAsQS5OQdoCYy36Eb8jGp1cook5+8APrbjbPEd33xu5Ff+bHzQnfMFaEJcbEw0WJrb4ubKse2F19XuLW97ym9ure7avtB1DEA4PX/h0qsavIKqeLm4Gu2Fx4Gj/1zC6yIbgfptfXqP9195v05EijSTaiQd0m1wOTecQdAbjnOk+B5hAEnS/tIsAtbLSOSJaWWtLwjIR1ZezvHiNzhVoycu2EeamNl+xO8OOwL4JFZ95jIplRwjvuu86etU7v4H+6eh1NL6ogYuscVi5OW3iXA6QSMaWA7BLGiVVsyZg30HBR0TBI6ybAVZYateDwWxqDpy+DXEG7I0KUQSu3Jg0BOuD6HsUAW1FMEXI+QMcvxAvS1cO1+NdBrhExXIRCIJ9A+IZbBnR6ex+VKQ9HGMQ/sv1SqChbWewLpjfr9/3IfqGz/xNmp89F9ve7Y4+YQEQ9wKjtflvh6ufI5BLHayE6O8nPsIFX4C5P8GcGbJiLB0BqFBE4qjTFEloAG5BSbitEU9KFFnVujUG1KgNdjKhsfZPD9DYRy4bh1brF3QTSJCmWxOGl63fdUWw5Ng4HyQCeMyCig1iC4Mdem/OgSXH4xsTCO1eKB/obYyfVNz6RhPhekn+2zEEoaLn9u/rX/OKsii/1RuVnarzmsCJcHA+4jkJBZW079qHaGHlVDwJW45L8HVqoRRtpRYkhjhHRKHBIlEDUtCUCBrShpw1oWOsQGcC04EotLU9236YppqEtlgUqorKRaLiM44RHVyz6Ur/cviJ9Nr3fC196N4bHgaS4JWdKCqfwcBZDl4ZRkGHwcxQz3TAMRPlC4clRQpR3fzI76LyVbIr4CxToEEckhvhUCOnwzF+AXf4ruIQiAhYBUGJEfGAoEP/tlgK2HIQygvgL78JOXDoUX/WI0TNGuE6bl0Stk8hWPG6vR+m5974Cto1dzImB4huGEDnxyRKl2PkqCOiVhax7d5jkG+dql8mNs5UMOeEmEBE41JAwqGJQiRTCrj1GrWAmFjYbClgsMTYCSQJUp5G07YAQ9a1qm7dnuhn/yG5YStofHqBRsdWIjeBNNX3hwGe14Uz9oFFAYfe/uS2qBiHEJabd46z62E8enm/mn1BcfNtPtUuhqdL4dOOIQhmsI72b/62sihfSkR72YrAtsb63QxGLQT7oglYPPC4+2kwRLOgArloNFLWBGTSCGINAJ/aLKTcAU4bhUKb2iKLrK09qd8TRAHLswtAiWZTkGLjzr8FzLP99WORJRgwVikJNkdvz1ZU3XCKimvP2sNfPnHf4+k1f/1sev8nLuK9DTiMAtx+gK01gZWNG/PafQqaKNh54vdj/OBJi4IQvZ9TcIrBibWgzDUOoqhC+3RIvAPqUFsaDP4Ys+ChzPNVoRUsElJGcDvwEoCaPLDHu3iM0Q3vQJqlB3e2gDjzIrolOIPBT1B09TOepRDIwZMOfJC+9sm/TyvzPp0RgRPdAN66Ea8g00qFUugG4IdDYAoqlzRx4CmL6vNfGqvB3JhoYZ3InBPCzwr6qSLr09/sXhC5ghdFpljnoI0+EwPA8izF4LvQxoiQxLv1YCnTfVKKIRoDIw492jiyl8rVGUggit15HDPgYg3i8gq46pmXlXYfohEvWoPWG1RtVKONb+6/Z/51xW2X1umJkdq6FFhK1zYcpxdctTEo3kFUPZGDFd3kOC2EVgT+W4gDVbRr/1nae5VZ4ArQpQwNjtO4HBoAXjSVXusJAN0KUcgCewqoWywKmijUFvGURCIXI9HYXx6vHAFrJgrVbEmVub/h+lNULK7T4RPX0Bvf97X05x/+7K4it/3PWeUKg6vdDvancNujh9ngN0aigUCPgOU1E7spMD0y2uxGBITH2sOziEwgDE6Mg5AFnZvIZPBTE6wCcJ6CEkfMcIiNev4dSU0E8hJCkNRJinCFs38maWnA9tnnwn0L8ry/B+KpBz9Az7r+djq464gbJNnNZxeJM22a5xhImBBEEqXf50k033N7EGj5ZX6PGwIL31gNzKFH5r/64KNIPyAYKgAXWeJnGn4XGeJJ9ZVIXfxZ/Y7yqi0SSGQahrg1kwKtGDJ0rj2T87P27ANzxLL9pucJpNynAAcb+Sueo9gNs0z15k8sC2BlwTHHvlTle8c0+da5F7zhn7dfyWxfiRpStq/kC1TS4cHNLyEqb43PQIBjlyPCEBOH3nBM+65+kOaXzG2aDSQhUrasSaBDTaCW9d2rAEYNuFqQdPvw+RoR4LblCAcc1az71haf0HavQ9tYpX6vfcdkI2dBYfCanihUg4qqvWMqnnqCij1rdOr8bnrLe/8dveEDX3KBJLRLsSqAkWMO5JhmN0B4oIorFbMbWPHCfwNix8IqhAMAHpSVZEDYKgJwRLEHVnzdSw5MmSr4FETzPYb4iHEudlHI8rS/51wS/h2/9KJ3rKnFAXoM/EUIJuRUR1sHtw9jecMdC7KULQmBMktHej7twAfoy667nfYvHnX+6dqO3YO5HRrTBr041fF7PI8yQ7WF3819EAcOuHdMhoJJ9bWni7KM8QFBLD+8lmAR8iCkgFq+S1gBBMihD+iPz5EEL0exZQPbxUOgyUbDM9wdPx2Z40KFaG/cv5smZ+d9E1w9FvB9n0LXHAkL1gQnlGJRkOn1csnrCskAjgN3qSx/pjf74IuL73/H2S4a4+F6ZscRhPvpx28cD878nZsmuerNWxAYQFwsQnRfg7Mz0tzSGu275gHqD8xlP1slCV6DJQE7s2tvA9wmohDVM4V1Q3RB5k4HsdmqBWg/+n5M027U6CzZNUnrEBMBOizo09Sc4fJJjTtRNVdS+VkPUv+qM7S2Pk//5wNfSn/wnq+jSak7dhGXYsqa0PfKisFa4mzQ9+vOQ5BARngWAT7GIrBKiN4FBez/dKPn2+DBgafOjZTPZIDps3BuRUuTh5C6GAG6LJtQltQqgO5TFtn8LxySXRK+pf5cAq7diKu5eIlbas404lMYQ8AhUCKxRHh3AmQ93LDvH+jZN/wB7Z4/wTaZ2K9jsQME236Gg/lNWeajP4BHIuPMLjUiElCG/Q0En3/Cevh3JnMmhXvveWcxkOd9GQz+UqTOikEQzgQCNpEEkImYszSAu6Cv4kJJPZrK4sFpSEAYjhUCtV/ak9VZGh1fIRoNXYwJH4oUxDsQAP++EAQeVqzWWonErIR+OVeOGHr8H9XkBI3H3zt40RtfcxG1zaaq2nEEwfTy8ODmvyMqb3RuhuBiiN0Mktsgzgcboz0oaeXgKdq155S39E5BErK++JxfP7MjvlAuB00gNMDa33MkQbZ8QZBShKQzGfLFNMUvaGLCNaNSi74DGd9E1oMB1PKGVeo/8TiNij69/c4vode+76vp9OqizYd+eP6xVYAVqo+wZmsCgH9sUfAgbtInkQkI6cgpX/eeWzecUaH6LimTyqVQGou505j2VRElDFzEAEQ3om46E/EJ8D1PueAbH27EYsSNtuWoUw7dcVGhDuaI9r/h4KQQkwDrEjIf3NKoqF9M6Il7/pGee8Pv0OLM6bAbR1VhFT+gsbUuAJVikJIURv+bjVcQxFAiF6E7CnsYBZwq87c58Ghxncie8wI/2mnS4ATopjBNJqoLeNuygVjLOy2ZCrW1zDLfQBTEpYbDoeTVPpOpW9VpYnRGJ5ZocnKXJ7R+erHf1t2AWQt+nUBzXcyQXx9uSXgiwG1x8yzlgC7u0eSOYm39BcWPvOUjD4/O6V7rw6UVu7cw8eTh/q3fWBTjPzBJIy4u1P3Fu123jvNWhJnFDdp71YM0nFsHt5I2X+fM2bmdoiKIvgAAIABJREFUb3rnmj2cKQrZxgWSK0fUej2IMGsBaCurQ5tBsN1UsGM3ob9ycQa2jIbxrNWhUSFVFz+TK5ffiftopcSkQj7tOE2WJvQ3H/tsevPffjl94sQ1VD5sJMEr3Eg56yDGsFRrGQ92/HinBf/l73F8oxWvyAIPqQ7IEvRwoodnG3DRQBEiMQmiqbIhZFpcGzCgkME+Dix0xQqRCAlLIFrh6GR0P9g2I1eHS50Ku5MPhGOmv05P2Xcn/fvrf5/mBhxc7hHA4jrsFNlUzmXbxoFLgR91bCwscgQT+c3v3qMsCM0GYF2Y1EWToWBuX4SiIz+5vO5JCX7OyQQ/kwRmtQ6ZJAjf4Y7hc5jTmyICKZKASKzr5M8JS4i1BogQg8CE7+yxysdWqNoYhHgaP35sJWDu55Zj3L4A+OBmkDq5f16mRfBwDKrzxWT8X3vnX/9zl+LdCzDasOr1t5f453+gQzN7hqf/saom16XuYggaiqkCxig4zbK0/4y9q6Hnb2BzcnCRSUKkGWHx2z9biAgu8MbnoV+aDgKpisyDqfKidyP7cpAWPYbJ+pRwyTNNZCY1N7qcKYnC4oSqx50juuYMfeTB6+mPP/Bl9J6P3/jwSr7fnUdKnu9zSCg+sQLgUhaFxopN/TcHDGBE12ls7G/lm+7QACaADQIkQYdKjFPfu/e9QgUgjzIQGF5lisNFTg74A8CH9vjlDC4KC91oMVCWiN0zJ+npV7yHnnnNW9QhSLwbRwBkVAYht0BZQ2u1sPl5tCKo73DnLwTCD4IJPjT3JxjLgb3rGorHv3FBO6Rr3mVH78ZAl3ZbKCDmlYPdZ7ms7fABdLUeS8h5tChluBOuBxw3KTfMmbESjk/tovED5mAkT2llGoMMSn8jK14wJHHgqQwr9l0MK7p8N98F0QfLycbzhy96w18+vMqmW+1ahXd76xJ46t7BLT9d0OTHHEEonfh77RBSHp0NVMcimM/9YWkDFud2hYDFMOEXmShEWk3pk6mJwrS7dQgHr5EObksD+GpLiCyWJsDOuWT45SnIQkqCu7gfjIlwSEQHV6l63Fl6cHYX/dkHv5D+5M4vodWLel10YjFliILNbsDNiCcD6WBGVOAwSDUCkaofvwPFGewHATN4qopePZvAA0RNRHR2gbXXxq4JaTGIZ2Rl4Hrlv14Bs9hFqYuuPxHpwNiGkujqxcP0+Ve9nW7c/z4a9tQJiawYNFjbz6kYFo86QSnpRR1bE8QSIYOpttr++mFDCsyZBpy6GO3yPeFIAbRtZmTm8APiFzyuIf03oiC6RpJkhCdWLUouIzLjoEyCvGkCkIt/QAJQExZdtvtcjga0cd8eqjbMwo/PYuKgTumuzUioT69Nb/TuJOGCtTaDkRfno6AJlZPX9qtjzyt+6C/PXAIw2tqEHUsQjgxv+Swqq7dVxWSPtiJILILfIaMdIWQ/EM0tjmj/Y+539zR4KhEE5wKRBNZUAqS4ODYTeJgB07bAQz3zaE2QxYfy0xJUWFNMYA9O9VWPQx2TgkWn1lZ+GOZoK0Rh14SqKzdo44mn6T3G5fC+r6J7Th5sXTwX9gHMdABFLnc7oBJyna8TBdjRohKT+fBfat91ci54A8q5DMHc71oXjmGOptvHHmgO7LAicwYCEghFHFBsghvB9t6TDLAu2K+djHB9HMAolzdRRdcvfZS+9Jo/pmuXPkaDngleBmFiUoBAGUfjgfsAdYZeECnkZStCasHx3BDR/Mj9v7EeRICjgRCCDDVoySBAuVKtcgNgc2x9WCnHOqgdvBwzzROWIAmRJQHKtH8Cgamtd/4CyuavonkBF1BNH/RodHKRxg8sS9Cg65b5nzBuoauY5gh8Tlx5TDB8RWye8rJRS4F0W9iHaLz+wsGPvPGVF1Z3bF/pO5cg0C37qz69jIrJN8ZWhEAHxJ6YsSIYoVw5eI5WDjwII+oVSgrAWMvVAC+3480BWI4I4DYHiQMAYhsQ1hZXbiff1OaO7Y70mn8nme3gFfg0RCHqx1YsCm3WCt+2HlG1MqbRk87T0f4K/dG7v54+8MmnpPJctm/1dSopRRQ8IcCMB6XsHa5pUPInvSF41J5TftdEG236I4aiWP3qorYi/JJpC0cF8xJyTYiPbQ6A738178NOPw50ROAPKYwuPiIciqQJhYlXMvuBqqpoUEzoM/b+HX3Fo19PKzMnqSd5murIZKvbcSzN/QMS6elHqLbwQpAgzo0sBQXUMnJAGoylwKQumjgDc/gRrh8BSKhXBjdRtjwP5XMfGGQj0FXdSpGEGrGEejVw80So+Jbg41cWDhSkSEZV+1PjEK0FRxzLqkfrnzhINOk7Y4GUHxMdjjGQUYUDkULT61dBRx4d7ruy2lTV5MODtdXPKQ7dYSJfd8S/HUsQTFji0f4Ln03F5NUVlUM5NVFA3Mcd+M+xFYFTJN1qvfL6B2hmzrgaAIgjN9wFsiY0Be7VFsiUICsz2wSQOesDM/EMUWg04TcRhRxZYWXU8ntj1sOU44PKFua96hNVj1ml9cev0v9+/7Pp7R/+3Iff5eDB1GEIaHF2MXiiEPRiWNZJ9wMPt06VlDFB0KmrCP5GfPqCJYEkSFtg926bjyLHVoSUlYCBnp9XZMMSFBRP/tuWBachgijzVc9Gbw+KEX3NNW+iz7vi7dQ3xIDHVXDKL0CLRwxKhkWigYGzBHCM/N/2OVzEXDCSCxglC9YAVkvrROZaZpzznL6AXW1EIrj4CJRTVoYEKbTd0BcvKUyL5FERimTdfo1GrhGU6YT1QROASBzhrAcmETg/4J4YPbjsYg+8xSCcY8AFurol3gbJki8nWAV0fEEYl4h42CHkcygKKsbrL+r/6BtesiOYQWI6d1K7bVvvmrnlScOyfFlB1bP0mQhxymM4ZRH/YnfD7NyEDj7uGPX6xrwYkwSWu20LYETNaf9uAEWMBosALbejbgLYFheBbpd83kJaJOiYWHFliIf0cStEoe3dljH3bSgXKqqefIr+YfWJ9Dvv/Vo6duogjS76ZU+pJYkWBd6xuf9GRzcHwXWF8CY+YVVwj8LBTMkAN1CC3jUg4hnpWOU2YEXTcigSLgXn7YqvbhZ9bRlPIACyfCKS4WQgisG1ZVY0W2zQ/rnj9M3Xvoqu2vVJ11MN+tJVPtPAvuxS+2qZLn4+PNlxFcPlSrybjBYAvuMnxzxnTBvGWmDIgew+2YPhR0DHEiCASmd40Fk+cLeDugMICY8BcxoZEyAJCR4k/c39ZnVAnWSyTIolhpFVGCSSVD9JSCykfdwHRS543E1q86RHax+/wh7MJYQrSvZxdUkTpJ4gGPYrzOzEtkhTQ7aIqz5y3Zzrnz79hOJn/+RoalVfqt9lZu5SbW7crvfRdy8cHCzc0qfqR8xROP4qjIZgRSdoHLPAf5lbHpcPnKWV/WeosPEIsB3htYYaDJsRbWPwhyniCfTC9jrDlYa2XGxMBmQby0qAo9TVVl4O1JuIB7Q/6hMrrK0QhRxJ4jnYBFHQbewRlVdt0Ok9A3rNR7+CPnTiOrrv1P5LZHFgWmOCKMjpbwoscrEKQAr4wpmAabGawBMWLZ54cJRURzU1wWrgFTH/Ls/5UxBBLFCMAzlwLYpjD/izzzm3lgUgCFYEncth//BBunHl7+kLrngH7R4+5N0EjIjRooaFpoAKj0z2XCU+LEn78xNWBrFWeEAx7gMTX2DiDGzaogcmDboRcIGwShcALLk7CM5JENdpiL5TEegB0Uiu44YYBgFKLjBDUPi5SM+qejlWIBJHdBEAy4FnNo6v0OSkucEtEKXIuOMJMvrH8NpnbJoDfS9f1uQAFiW2NNS+Myd3bvxO/0df/58uEeXRuRk7miCYXh4dvOiLK9r4lYqqp24m5ZEzHAYzE9p75SmaX1qNtx4M0pGe1eCTA6MEiGkAjxatKgcXY9aa4EF4KgBuAtcG0NaBjFGdHYlCSuKarCiRwlBy3TSW/Ghb2Ty/yXa5QqphRev7iT40fjy9/djT6Z+OXXeJuB1QKKP0Btdu8Z+G34Led3/hxtd+oX3ErARl6D3I88bWvSQ55drsnzozwU1pKMccUFQnAfy7thbE10DL9KFIKzfDDI3oCbs+Rv9673vohqV/otn+WghME7M+AJj9Tk7CQZ9C979RniSATyG0sQaYrARDCmaZGCDg8PxGygeiQ1WgYDRXbQF9+nfcUuvNTYogNHwnrkD9TIIkaHcDS4K4dRLjoeVUhAf0gy93sj6k9Xv3UWGsf1aHBvcAX2wmG33vfpBh5B9kmHW8grLu4KVOQBKKqlrtjU59XnHobfYE4J30b8cThAfo0PLa8MwvFVX5rRVNBk5PsID7kxYFZILtwKlG9//2f4uK5net054rT9FwZuTLQMAOf9tBS/rhO+6yZdRzu/aG3a8mCrosPaMaRJ0+9/86uB2i5/ndhrsdUmOTIkFZQG4jKInl1TYGus9cRFL6MzEbPaLJHNHx4TLdWV5Hdxz+XLr/zL5LIIgROiOKUmlMMHUKaUAxUKQgsqKnCAOQgwDsDlQxxsCJHhABv2z4m8gFAC4BFlkOOJTps1Pj3/aHHYXf1J0LnnTsGZ6mL93/p3TD8odp38wJF4gogI2ylIquVYAeIhPdCJiftcshOV6qHNNxYy0w5xkMzfGUKHPKZF4D0BSBgPI1WMpPmkwgmPpR1G0HkHM8EADe/paoV9A1E0+AZQQkdo3Juhd8PbZO1I3a+sFEyv3X3tho7lw4M++b6p6XJoBbI28xcP0MXfWuJt9e932wJOBwuz6Zm6FGt/d/4vbngOMpocQuza+SKvLSbGq+Vff2b35uQdVLqaiullgEP4F4myMLV+pcBFt6r6TlfefsIUp9Tn2s7ZrZvJQwk2twjEY3Z02wouwXiF60DZaJtmyBGlFoIB3ZsxYybROt3BCfoMdC3uE+Jlwn8kxTW3PkDOUjYyGJ2tBARFJt5+J7RBuDAR2h/fQu+nR6813PULvKS2H1+MkX8zIq8qDMZAelm5wAimhGgAi4pEcW3xB/gEPIWQ+1zFsmD4iPEQlw8oekQ5YKv8NixA20sQvmnYqeeeBd9Izd76EDc8dsUGIE5mw6iTR67kyD0ENR+vIHgBceq2zJAw8MPGMsBuYqZpOhILctaqDl51N+9ZYdtSYIKPMpssG/M9Bpi5EmCfi735FH4iPliFBkiIQ2xkCfbZsyYxIJFowrSCGL5PjsvL1zoZr0ojsRON7GypWJGdXjEsUncGxC3RXjusq6RrWFCVRVTqjc+NLhT77h7ZeCZpi2DZcFQbiLvn1utr/vT6iYfEFpb0HhSQsWAree8TNbF8CK4O9q2Hf1SZrftQqqT4VMw77RyZYCNA0wmijgZ/m7gzWhNlstN0RGgJggNKnykm2DPiaJRxPYdrBSZPXyhSYKLeXniIIfgwn16d7+QfrtU19JHz559bRr7yI8D0orbJtCvf47a1XQ+lgwMaMiGAhqIpgIUjQ3I6IuBUIhpCEKMgTSIWmOcdCifS/igcEV8ZTFj9HXHHwzXT1/j8tQwCVq73jgS5TMDyoIz6gPuaLZPIhbTr2gAF1RD7CLAnmFcSEsrDtiYKtMACKTCh5bthamzO0RsCsikvwN68xwWttv/n8c3EyMgZCRBFBrPZK0NqglIJauHOhmhJRdA9LFgqpx3x6pPDk/71Q/Tp06ITG6Dt0/50hD7JJwsoCCGvrtysf15mWnmrxpUJbPKw697thFWPDbXsVlQRDMqNzbv+U/FcXk18z1JTkrgg1itLc3OI2B1oXwbUlzi2Pa+6iHaGBdDbyUNUkIWscJxxZIQqR3coDaQCBqoM1yktlJozJL6rwprQ3S/xxRyJjtNTlqs4qgwsWlkBx7fKDNotCBKGTnmGiDZui9o6fQm089g46u76X1angJuR5g0KzuTzDASHsSVTptMqV2rI+er4D2FzcBlsrVTHwFdHQ9tBM6Dm7kIMJAIsJhRyKeCfcC9mS+WKeDMyfomfveSTcu/707DVGsCuAKkKmGG6kErNVYccYEmsK93ndPCkKGETLFonXCWAzMnQnWWgBBbTjmuAvVJCEKUs4AcTSl+IwDOPknxIOfYQugT73USBoxsClJAo9Tqm1cTw19VNAfgy6OeWLIQ7ZAWMejU7todGLZ35rJpyI6V4EtTnihLxCu0BA2AZaEGgFQAZORq4H7V1UbRTX5jv5T+q8uvuG2ybaj90Uo8LIhCEfo0EI1OP3ucMtjyooQ7JKpq6DFllBUtGvvedpzxWl3BzzfFpcCwsiakCIJgUhEOsV+0MFAbcDesFPPxiYk6hE9uMWdf0p6tEsmeqYjUbBIAdKviUSK1DQAeCipjSg0zRW2pz7P5pvTkyX6i9XPoA+sXUd3j66g8+XMRVjC01aBAJL4m5UyFItxCyzD0ZRUfI4ihiuGQEQU85qYJu5hwKlkLiu4YC0AwVqwPDhHV8wco89evpOevvwBWuyfdS0PB0CAgQ+8wDKFWoiVfVlEoh4EKusZAx1NPIEhAybw0B6LDCxFp/shYZOB4dgG3sx7xiADkCEJuCYikzlbQfyEapIgEaJAEiIZyO3m1fqMCE9i7Uq9Sl5TcQ/cF5ka1ecUSRDyVVG5MbSxB+XqbHS5lqUJ1qXgK8AuY/ug/HAuQmocw5hGbgpp9+Ttg175/cWPv+6fpl2ll8rzlw1BMAN6T//Wb+kV4991a9qnK3oNo2MRclYEyYToVbT3yrO0a49XOJ4IuAEDByh/ZllJ7WY1eLWBJmrfhP6KXBo1IJ2WdLSAYnZ33gS2uHVLmTOb3A44vjuRKBT00GSF/mrt0+gjG9fQRzeupofGi5fKetfa2X1G5R6BAyp6EDQb4O8+R1ZwmS6xH8TZCgk3QgB+aIqKL4jdEKbsivb3H6LHzt1LT971L3Tj0p20ODiXIQLQbt7ZK5EPh0SgvFn07jZe5ilDDAwpMEGH9uRDHyUppmoA6MgkDnXYMw5gF20/Ijh2jUlAU47b4LhdtlIWOPhNMqBdHCkyoAlMpCczwYRCBBIwFA1/7n0MvPRjVxU0OrVAJrUx3LzogxO9bHNsov0IlyuFcfKyaNvg5RzbI/0P5EmGViwT1dmimvx0r3jwV4pD7zBpMzvy32VFEI7RoV2jwal3EVU3OheC2DclWwHBvc2K0B9UtP+akzS7gPPrj3EV0MfdpPvbyU/CmpC1GChQZFHy5CYUqvVVxgIQO2dB84JmTM08trmNxEhHG8qU8losH3rpRHqsbdffZAXJzYPW/W11KERJjl38jJGSh8pl+ufRtfQvG1fT365eT/eP9lyCroeE3qrt6jJAiZgnfwfi4ETEf0YR14cmyTRBFoSdkvhERKN7DwxP0mfu+hBdv3AXPW7uHtrVP+NOTjT11AiAb3e0RDVhiAQ59Mg8xgDtiw8j5dHCyLeJKTCEwPzXnGXAGQkKiyOuYc9fagBFBqCoDG4QWha4udxBNNFDGyUmS5EEAUCVRRHpnwRJT8UTCEFQ45nNTEDhwZdhLdaCKv1z2TKN9WCG1g7vpWo0gCEuHBHg1yXWwfOxVJCiInFIKkQfM3ngLvt33Nfl35Tl+g/M/PQb37sjmQFMz05uf63tR2Ze9M1VufF7TBDsshKgDZEGBsDZisCpjhyXgOcpzM6beISTNJx18QjuHxABjJbSvyPAY0s1eRBF0CGgr6arFRHR4JrV7RlQzLYNNbwadmx/Ut/6XUw0BrqMBKFKkZQ2YpOq337XVn6Y19rGUcrsUkZcV0k9Ol/N0tHJAfpEeZD+7PRn093mUIUd9U8NOipY1PMSJxCnO+LwhSUBVgYcMiQPfOARET1t8WP0r5b+jh41c8y6FGZ7G3KksmtCiiDwcs2QAs3t2UEdyVCEfMGoYFIUTeChDTr0RzVbwFWEVaqG9EVTfookMCgJmEG7hTQkAJR1EhILedUHRURxDqn5RH2g64VJZrlNyEAUkpFyHaSIhZSHpEm1pUaUcJwZ9V1Ba/ftocnpBScRfjxwdy+uAD8HTgrNwf0+m0GTCA7jsHMLdbFVJfI8sXuoWqXe5FfvLR748cftYOtBTpXuKNWlG3svff++3mDmLRVVz5BLnKzucCAlpMAvmNTRy0gcDPNcWF6jvVedpqKn40y8NQEISGhPizVhGpKgAaoGkjm3ggc9K9wakBsAMUVsUmCNRWqSkJIu+8yUqZG1cjivLSGmjeSGlVwXkM/ESkRtaSBm0biwNBU0qXp0lhbo2HCJ3vHgM+gvzj6VJrWje3fC8kuxNI95HqwF/hHPIpELVzwLBIMFwEzlcu8cfeHK39LTl+6k/cOHaK63Tj2Un5rFgAmBEhqZKpWJnnrfNMZkMkS8AA5NMpcnDfzlSXzsMa8vOcoXXAF67UVgpywJ+KyOSRCx8JH03MUaEENgYookCImIgZXvKABk5QUTn+yowTpac3rcQhGh+Yp8ZMcDiZZqqw4q9WMwOjtHG0f3yJ0WrqvOJWVNCGxA4TEAFwMfkBkuawK3jMmkgUubohXKcQxgcaio+mgxOvXtwxe/9d07YTU3tTG90ndwr95OhwZP6p/7pqoY/c+Kqr5xM1iO6EFPYhF8MB2rb8xicHrM73rN6Vj9inbvP09Le88mdqLoclAHCNlx1CQCBrcRiKfNZgDty1VoUG/LEmgiEbkyk++otiSf2QpR8MqjMW29DcDbAiYjNKuviBQhqpEZnOvQnqrsUdkv6NxgSB9dfwy96eTn0d3rB2lc9Whc9TEkdsesRMRKCVXUvBUyEaLARSLqU0kDmlCvqOjTF+6iL9vzLnrUzFGa7a3HY5AjBWJBQJLgJ0RbChhgou+VkJrfWOkbS4EJOLSHGrHrQYGfvK5S4TCmwJOnupUBABBlWghDJoNASAK+xNaMFKgiuU6AuQZrYUlNsQ9AWKR/sCGJiBaPWYIk8FzYPksqiHtBSE3ecmC07Pl/ucqTO1e+sRa4Vx3YC4bbtF4+WKugygtvZHGI5hPCdHhOrHz47zlt1enzcUGj3x38zOu+c8cs3oaGXnYEwfT1Hrrp+v6geGVF5ReKFcGflsjgzymPAQbiOxr4ORezUNFwtqQ9V5yhOROPgBepiJ5AsxgShaCFnACmdrA5MMMylULCcmoLu6G8NpKQArm2nXmbWyIHnI0ZD13iB6YkCklp3yJRiPqGu57MqoOxqip7+TBVMyU9VC3Sx88/jv7PuU+3QY3ny3k6PVmkDXO95E74B+chWB0KlpE4JCacZzDfW7dWAkMCrpu/j56x+EG6dvYwLfRXXY+RDNSWTuJcukaLgp+oHCnw+wFn+jedMccgm5MOdVyBzjLwz3vAyAYVCtj7dtRcEQo0a+Q3lQKIQNyBJDBCKvALIJwAdtmtsy5SxEMsGCqOIeov6i54P9JbanHaHbvWY/xu3BazjtZPLNP4oaWIS9iRVjt/Rxh8NoMppuciWGx2AzdTj70vQ7rqCYuzTPh28jNU3VdOTn7NzM+99f07Ydm2tfGyJAh30aG5meGZ76Jq8rNE1a62Oxq0FSEVi2DKmF8cWZIg8QgKGL2ouTGPwA9IggBKCsQbgF3PlCYbtd+bdtAJM728nwG5tvp0AGaNFDSZ7bnOBCGSsVSiHPVXvVcjTApdUlKfDCrVrpkWApAawxw5wn5ZouDvThiO6fR4iT45uoo+tP4YOjbaTecm83RivJeOjZepvIRdEpEVIWEt2NVfoysHD9FS/ywtFGt07ewxeur8x2n/8AGa6635YEMYMM2ldd/l92nIAkw+kgJ7TgFnIgApYLFjwPPgINIoqAIgKM+0gKZ2I2i5rQEoWhJ4Dav0S5RBHScgPnRcL5kMAekXNiLlvshZItJg3omMsAhgoCADu7SLGRnR6Ow8bdy3m6pJ3+E1ZKq6z9wWHzQLTXb8O9zPEEgAtJ+DEe14stDB8cswVgWt/drgZ2///jbg3Sm/X5YEwQz+fXTrU8eDibkK+t8av3fsWgjRCPHpisGKEEctOCuC0U+7VtZpz8HT1JNjUvXWBlwOVvYy1oQs8GmtiCA1pdshVUekdDoERaYAbktkIUMCorbmgDhHIHi5NRAFUfRN4wtzmSQRuKxbyEJufrOEISgei4O9iqpeSeuTBTpTzNLh8UH65MZ+Oms+jxfp+HgffWLjAJ0vZy8ZXcN4Z5pvTjB89PBBurp/jHYNztFCb432D07RY2fupz2Dk7TYW6U+Jc6OiaanBfhrS09NWo5ATAp3PoGJJbDnFvhsBD5eHUkBjq6fF/cV1MXkQZOJ1O5by1VEPJpiEvA38xLsorF+TQIYWLHJNSKi+iI740TsUgTe6ndNlgSpm1wUWEZuTDWJCUBdjga0bu5bOG/WQQBte7y3zFdgDIEruO+Me8EGLnq+EREENa8Y4MhEJKQIm3LK+/r9s59f/MwdH7tkFuUWG3LZEoSKDs0cHpz6QSL60YLKPWJFEMWdDlhMn65oBNwdzWwOTlrZt07LB07DjidlDm9PhwxrNwVaHSwANUXWAFrZFEb20SlJwp1IDtQeNqLgkSGlbCOF3kRGNLrklGFibmrj0VBP9GzTnCry4c8DsrZPExxbFFRWfRr1C1ovBnRmsouOj5fo3HiezlcLljicGq3QveMDdPdoP52bXBzisNjboKtmHqRr+8dpb/8kLQ7O02KxRnPFOu0bnqU9vdM2uHCmGClCkAN/JdQ1K4IafPw9Z2Ew3xuePmPuPwBSYM8qaJk7ro43rDUywEIIO3q2pkUBhC2BixG4ZoBS6mZ7OJhAmkiCLa4lgBAj9O0UKGsBlyHERJWZIiCCorBepZyUO4O/8/1HC4smakb7VgVtPLiLRg/tosKaAnysgfzXl+ctEe5I5RCXYDU0Zn5yJoOpC05WdIGLwWKBZUQ+jfL8Tw9//g0/sUVMvqRev2wJghnl++ZufdxkPP4dIvp8ffwy2BCiOxrk7ITUUcw+G6LoVbQWSAfbAAAgAElEQVTvyrO0sGJ8pUgENOhMY01IAJaQGS8z0WxtYvffBuiyIEFGOxGFKchMjtSkJNF+13JzZMq1kQJlrdg3A9xbTZXcYp1GITqFVFFlghmLinqzGzSp+jZDYlwN7DHPa9UMjScD2qhmaK2atZ/XyyGNygFtTOZpoxzSRjWkdZqxz2/QkMbUtxkCxtkxSyMTGWFBfaFYpfneGg376zTsjWmmN6Z5WrcEYFiMaFhMaLY3ptmCSyntjYlRtoEOIGQZaLMWyJIA4ehCCGyoWN9aCAqTjmisBPz/NRnPEECtpnVwIh6wwxt6DWgicxnAQ1Jgnw1WpCjrKEVKIvcBb38RdKFOWXNTuBNYVwhxgNgLLi8aA9ycKIKjLQkRcWIQ94UKEUsRr1gvjc/N0bpxLYz9mQdwlbNdakh6IrdD4dIapThFFLhfGAfhgxyFJmA8h52L0UeG5flnFj9/x72XFMJvsTGXNUEwY3Okd/MLql75U0S03HZHg1e90R0NwdXgdhuOs1fU71W0/9EmaHE9tiRoUI/OTNCxCTEpcOR6i9YEDUJZ4G2xNuB7bcQk226UzrZgwLbdfkvWQ1eiYJqUzX7ossNviqVQ/a2RIbVaNWFrfV61z5wjVLnOCGGY2fDHg8d1uTdblrsG7KgIKCGLqQ0X2qbKTloHVDtrz6TJgrmxz5AAQwiq/oQKcz7BNNot+WxCHmAjGeQId+cA1tyVaNecMbdHz/qBl2h+tk7IMX3uASmXI0QVMCczLgLJdGUwkeA61e/6GT1O3IaI4PjGIQHCFNBUvVo8/W4/uFLgAWMQGvVp3VzGdHbeZyiwfHqTAGcpcPcgfkBuc4xiHEIQqDtdETpqD7/i8yT4lzDnppgerT+/t/DQ/ygOvWOsVvmO/jjNEtqRHb2bfnjPcLD+pxVVT3exCFadqpsdw3eOAMRxA+HERR+L4MuYmRvTvked9UGL2lpQ135hsLl+HtLwbJYkWJltAHUNkFJZE/DmADERxBitmUyZKcCrSViT5cPPQw7L2rIe9BihxKZITpY8QTtybcnVlQOappWm54rb3fhOGqUDYejZnVXPEAZjVhdR8+ZSTUQ7bqTDgUQJdVArw3cgV7Z8nwZ9u82zwAIyY0iRiSEw/0z6oXcTWEIQOpnXVZvRePiO+VtIAq4T2GH7tDpphAVPFqTEO7p8+cz2b6eVbBnhliFfPAC6BjapV5vzt0gS9LqSviWsINgXHgI210fkhIUhEW+Abo3CuxYeWqSN48sh7iAiAhB0KOs39NmmP4oFBgmb+V4ROGUpCl4TJg2mgvE7ywl959xLb/uXvODtzF82s1x2XE/v7t/8LYOi+l8uJKXpjgYMTWSBdYtT/hfPTygqml/aoD0HztFgxhHHKJOhBiJqH6cBD9J6XApNYqibUgqzJvAGYtFUHrZBKzHbtIeTKLSAeFd3QLJfrFATyNZlTrIA30DWakQkR946yIR6xJEGh2qGNNid9mAUZNXGO5htWTCtFCa4NpHOqzPPXFWbIQIFVeZAIhkrcxiNO1pZPBKGCJh2mSBCk27oiX1hTy7MqKHW7zNsZRpNiCQhAuG4PzW/fwSWZnz5i0R8QCSXniQxMYmANex87SVWDNaaHJh3xa/OaKoAHWUQAZTnWJ/REBEFIDO67TXZRrcCtAUDL6O2QEUF0Xh1hlbv3S/yymCPXQ83PHojCWciYNwBDL/rovsiCp0wz/MdGcDPJP6UqtNVMXrRcFf/t4pDt23sOHBsafA0y2LH9v2j9IOzC4Ph24jKL+AURgPAtcOTvAJiK0NbwKKNP+hVtGv3Bq3sO0c9ExXtgTMeWA32aG3g31BxAZFIpt+p8qLKmkz5m7EmeCBGhRMBYBP5aAFxP1aIMQEw+K8mk359zOrA0ebagDZqhZHrZ0rhAdAlF4qeo6jsxBu555vqbhpPVYUdOQ7qMzJW9cia6c13hkDYwEiWU60mGswN0U8Z9WJcdUxI2EJgLAG2Tt9BU3cqJkb6kZLlFjNIk7azvzW83/aujknguUB/u11DvJC8FTH6Tvnjca4jc7gvpwZw3AcgDUhmpDz+ncFZ7Zr5udR6SBEHnpMUgYhQG4QwKjvhoon6Hj6U4wGtHt5D5bq5KRWyFoQ0+awE+0oM+MksBB28CbEKTi/5huqbHznwkcq3TMaTF8z9yms+mlz3O/zLRwRBMHN0dPjDn11W6+8gKhfYHmDXjgfgkAbpTJUxSVBWBCAS5r1ev6KVvWu0tOc8FZz+2GpNcLWECdBuh9AKt8ZSyqslUDE1u1oR6mfadt5dAhlTINZWryhUtaKkfV2ISIddd1v/claTGqA3tAdBLLfCat93KC81FrV2JTRSUnb8c1kN4NujMwPw+aZyc4qR5aARcFuAPiVfsGrjqlusNp3GL9MZBF8L9FwXdC4Lsv7lyKTdYElgoMV1Uosf0HPqDgQSl0g0d+D2wLaHrTGcHJQoN1rPut0c9Y918GChez/R34gYAIHx2nLt6F4anzZxB+ruBMg0QAsAZy5YXevJjQxDiqT4cZbhFncI18dz3KOCyvt71cZP9A73X1ncdlsiZ3eHs4P2qKWd30HugbEXHO7f8utFUX6PsyI4ImBkpumehqwVISIJJfX7Fe05uEqLy6s102x3t0ObNSGQhmhmuroJ8KU2wG4rs+sxxzUCovqQJDFNpv0WILXltWU+5AgXrgiop2tfs8DVpT6cnBZQi8asAymK5n2zu+yOQJscg0ydTSShSVab1FLXMm0ZfNvrJvWcBVYFnpElgX9klwgEGQoC+VTLCNWUZpY6kHhkgh2xTU7D+dgFaGeNKMRAXAtcTII2ExxgWHosdD0C4pl3UroCLAMbDy7R+okVN218dLLtHhMSzkZwbQsWA29p8GMTCEL8ngACvsuEwRItP5bO5VAWxfiP11ZPfsfSb7z12CYl6JJ/barldMn3pqWBx+lFN2z0N95KBV2bO4JZgoHgYqdAElyQo77PwR3D5DIbrnj0OZqZW/eLMjaBR4Nd2325Z508ulrif/p39bMG/Jqi7pAW2QbmqTKzRzcDEUiSgDai0OYa2A6iMGVGQoooRGPSEaxzO+/aOE1jVVDjCTo4uyxSMlMD5tTbHdrVWM4WCYOMeQdLQ5dxSA7QFOTByIV53B7TjOCO5/daVFM3AnJHVOAi9o+JRAS+AM5CNBRZ8Y9EMQmsW8RNkCANOTKiTfGirRJtxzWRJCNINpUVIWq3L8jEHazN0PrRPTTZMCmNIQjRPmEvYnLt4NsZIwLhrmp0OrXHlzcxKQI3grgk6u1zP5nv/aVPvep4Qae/d/BLb37tTsfFpvY/ogiCOYJ5ODz1/F5V/XxF1UCyFWTy48OTgvppuqfB6AZ2S1TU7xNdce0ZmpnZSJAEFcSYcRuENa8vf0KSkAOEDrvvGrNvAWsNJDUisdXMBBDRFEgmiQuKdcPuNkW2koSlC2hBPbmVkwPd5PNdCUobmUqNX0eyIgDaAWyz2uICEYYaIe2gittIT6qIqbWgIvDmfSQJpg4hk+pQI0nfA3C2KN5EEgDMZEwa3onIhCcOmPifzbLwbdLBjEgsNOFi4BViBIOp28Gkwj5rd+FhEOQ7BGz3s4k7WLtvN43PzXprAZxxwI/LXQhcZLAaSIuAGDmDTd3F4YiAmbOge9FNwTEkvWLtNf1fec1zGxJ7Owjrpf/I1Evj0u9ScwuPzNzypKos/z+i6pmc0WCXmlcs9XsbnHLGkxgDjfD2BHs+QlAa5mKn/VedpZnZkWtMzW/fdLiSqy8ItV0i0KmgjAORSJGCJoDYhDVBFFMDGGxXfEISGNosCh5EW4G7Dcw61sMzciHdD1mAbCBEWoHbz02kMbNeusQXtBGGabRLihjmlvI05Ubj0YEE6TqnqctjtlgRskF7ytIgC/kCkIRIhlQwYDKA0o9RKugyRSxEU3HbhSnUD37CsayRB3aF8By5B+xpiQ8skXEvBBM/G2LcMwHszUVg3pIg1oB6PATre3nPkjPvnnAlgqXHHB7m+yT/qR4YjE//2+I33vyhnY6Hbe2fRvzbytoRv1d0aHC0f/o7qqL6WaJyvwQsNsYiaJKAUQtOIPmsBPNfI2tzCxOb/hiRBKXw65c7xUOYv/wpVvpOv+RAoAkQN0sUOpKPlEJAsNLS50laNAop4EhJbfRdk0UBx66FLLS6AhLvJ/uUAOkskWkAsSYQbVrJqbHBQW7VAg2WjiQh0aqgjZQlVEeyTdOMTUd1JPVsgjy09T1yOfiKWMZTZn7UD0IaeKMNc8C/YdsteMGgyWecO2gDtkNQVrtIfAflRkReV6qeWruxLRArwa+l9ELUX56LHm2cXqD1Y8vuIibfTncUhAN16bK4HdQZCOZRe70zyANmPIjrhOMX/HNMGCJLh9WzVdFbfeHwZbf/YkcJ29GPtaqGHd27TOMP082Prvr00qIon01U9XXAIgYmMvDqQMaUFYFphAuQIVpYGtPufeGMBNucxC67mSi4xeImKp/pIM9Mne0A4NUE6DmF3QSIKYWAymTLZKGJGPHkN5EFVkQdzPFdMwHwuSwJSBCGaFyU4HatW1sK2lZ3m5Ug+/6UgD8N2Le1Wa9pBrppFdW09eRSIJvK4d+YKKAfX1wKSBwSQY+R718BdBPQWoKAoMjA5wVNCAJ+hmf02gVQdQpJgS7Lr7yHleNJj6q/+j3pb0Xj1VnrWijXh0AE3Asc02nJgiUHptyQqeB6gsGJepzd50Aw4HlpE8Q6SHc23j1cOPVlxS+89dy0IrcTn596mezETuo2G5g93L/1q4re5Fepqh7T9YTF4GpwCj4iCd7X7Z0OTlh7RIvLI3tGwsCe9IZgpXdlWzmJMQYcx7QzO6JGANsmi4IGu0bXgwLLJOFoA/Auvvwu1oK2enxbU6um9p3e8SVWjrzTpd6GurnoJiBuW+nR7znZaVn904B1W3tyh3B1UUBdiE1bOa3t6zIWCnAZtNlvXwNH7X9P7L41sZC15gAyBEkCIGqw9+Dpnm0hHRHRUG4AjKcwxWRdEDnXSYIQOeVlz3w698kDVK7OwAVLAvuunyZUgNMd/Tj416NgUMxycMcs28ZGdzXY0ZM55xMV4zEsaHymLNe+ce43X/+WNvG5XH7f6jLYseNgDk+aHwxeXBA9n6iakSuhRcnFCY7m0JbYahBIAsYtaMuCOUhpccW4G85QLxUwp06ri60JCjy90gxy7OhI+Bf+biYJTaDc5INvANkcOGjg2a6sB01C7CBMGT+QBXo9rmo3JoDcFUj9c61ZEHq+M/W21Z8cmxYipldyG2HoqjnarBSN5AYb1ZVENaikxjZP6WLo0n+P2bKTR7++/I2+eyAUmBLIqCd1Zt6pEQ9+IQfQilQwSvJaxnqFKHCnfFu1+R78+cxDHJrjGgDgdVgdWTsMgJ+/9yBNzvobScGVgBcwReca4DHT9pAtyFzw9gVXjz8Ywmc88CGj7nkfi8DN4eGz7xnSsParw9nxjxW/dPvJHQt8Uza8i5hPWeTOefwhOrR7tX/6w1VRXoG3OMZuhQA8IRARsh3EluBBxV/opC0MK3sntPvA6bBmENibSIJV9lp5dTtgSXBis26HRgBFZQZzniIKtXLY5Kjf489d3AK5d7sShYbnIgDuAkxdLBgKoC8mWciRqa7gnJq/RkLRBNJTAHGrduoyNx310bR1dSwWA/XtKw87SYCOMgFozKDwwmOexbZH7kF/IJOMiUf9CPgxWBAIAsqgt/evHluxgYm2Zg/aHFAoTWZN6nmA/d6TFXnGAztzFl+gnJtQmectJ4D2QJuxrqKoPkj9yfNmfu3V7+069ZfDc63L4nLoZFMfPjm8+Tv7VfXrxoqg72mAEw+s9cBZEZyij+0L8NmDMQctyrM9oj37R7S0cs4ez+wGXim4iCgol4NdLXVrQZjAfHxCEPSEcs4GNwJYaymRz1NaFGrldHBpJMENArdwcpOEpm2X3+Z64Ao6HL5UmyMleVH7gATlVmFqnNtAvW3HnqyrZQwayUDb+LZokBShbHqlk8baRuLQNt7Jtibq552yJgkCSP6BWuYD72xhW4tykQp2xDFikGR9w8qAn0GSwGvNlCntVW4OKRvaxWAt6ZF+UKQOaJCuF+ffZCycmae1+3dTZe8F8fkDfncfpxu6xkr3xHpSUGGJQrAG8EMSp2C+8KeKy/SiZSFiBoZAlOeL3sZPDYbnfrl42R3rlzsmtqnUR1L/qaJDvcP9U7cVRfWcKJ1RBDdQAT7AqN3VoJ9wdKHoE63sXaellTXq+SOZk6csRutJK5u6NSHCUAGIDJnoEptQU4qZHf22EIUGX70GjyQBSBCtHAhm31dlNAI2j2uDlaOJKDQBdKQ8YRmmiEVX4LrQhKHWny0ShjaSldJOnUgDEN4LqQHb2oJzrMGad/IRSfAvdIkVCGjnTfZIQhVIaxLBpg6JF+J6EezhOy2r2Bdpq9dMjXIdgh1H52ctOTBBiSG5AEkAuyNcgSFpA4IRdWAiN1ld11wBsaqVI/EvlmhMiMZ/Ug1Xb5779Tf88yMKHFs8nI+Ysbibbvq0wYBeQ1TdILEIoKh0VgNbEYKFwbkX8H8NmdDWBvNNb1DR8p4N2rWyRv0sSfCA1UQUav52V5u8Uot3SP2emOJGi0JHorApIL+IRCEaqBQQd9mBcntTVhkc1zYrS8uzXUlNF8KwKbIA5KkN/JJt2AbCYMvtMicdVVa2H5m25ortOh76fX5PnzXAhNj8tzUNUhMHEGr7fkKu2zIR9DtR2iSPjTq6mavBTA3WnUIMEsSCLRSeWEzWh7R6bJkm5+fEMuCyE1xfXKChlwN7GmIgFiETwcUXuHeMlQCIhJV9fwoinG7E2RCBW8G42jko76Vi/QWzr3jNazpK12X12GZF/LIahIq+e3i4t/S8olf+d6JqPj5AKcC+63Qw5Qc3AiuwNEnQKZL9YUlLu427IVgSwvJWgKKUevO9DkGRukWidrtK0fLiSx+k06aQ2wICG3bYbW6NVNZDDdQbgFee3WofWMybrAX4WxtZgPJyK09/35h1kgCBVDpe2yrfKnGozU2Deqi1pQGU29qdBN4pQT4H3pvScC11J0E75zpQJEGQEuUNQJPnoHYWgpIR+R0JOQA4BxSmwF02JRmSIMQE2iXtRuAVOLZ/lJM+rd6/QuMz88Js7HHKvjwP8yGY0RIHdiHEZyEE3uDPNYiCQf2plrq7fOZB1CxrPRgVvbWXD9dP/1Dxu4+MtMZtXQ6bWkOX6EufpBc9ajAcv7iqym9BV4ORJRNVG1sRHBBrC0E4LsmKvQXoANGOaNhnCmdJWNmzQUsr6z4QB3f4CWBrIgqZIETRR/aP9LHNotuZndckZBMgKxW3gXgboCaCGXNEIQu4bXUw6csIZlRuE1HAXVvHeIVc1kUWcKH+TgSjS99Vv9vIQiMZaJnv1BAn+zEF0HbVJ1361aWsaUlLrs+4g5a21Y/+jYIcaxYAPxm8djWoC2nwjaiBPsuTPtNAxRcg6dBERMrURCRhxcD2e+JQlQXZoMRTC/bKccsJGLAZyCG+AK0KnP2A1gSXbWC1tk9l9A22KZGOVMgl5rYyPxE8BDBGRTH68GRw9svnX/6mT3YRjcvxme0Q98tiXIzofHJw0zMHRC8jqp4UuxqYEMCOXIIRjSgyIATK4N5AkqAyH4rSZtzs3rdBy7tX/RgGVu8mRoPztGcn6LsfNFGIy3frN6OctYLVktPFNZEClywxQbHCNC2liORjA3h3qoMLarOMqDFqBeoLQRZgjnLZENydFFnDoW3SAF1BNVtGG7nsQsoaZLJrP9o0VNd+tpUzTXsChrm3UkcbS2ogDHAyEHCzlgSUdXU1NK5Vh9pBR3UlCTYYUMtAbF1YPbFC6yeWqPB3RVjngWQj2MgtIQyuAerwIj4HocI4BE5LZNnhMszmzFsWMI2Uu8duHftIWRWDU18y/B9vesc00365PfspggAz+g90aGb34OyPEI1fSEQL9bsa3G2O7p9zNaSsCG3xCPKWZbQV7bXZDWuO4do1EGqpEYWE+X2qsxNs+W3WhIYdXCNRaAPXhh1mCsRT0tnofugASF3r6by777BrrsWDeBFqAtZG4NZqqINlARV+lgS2qbeGdM5O4NhhfnJNqI1Hi5Uh6m9bv1p+byLOWym6iSSgadxH3UtVnUiCsgpYkIfGCui3kAR+ZbMkwcYCJEgCFbR+ap5Wj+4N2QimLhtfENrK6Y2SrgDJCc6a4L8Ql4QJMHB9is9M8NEJfDyCjIWzlkidjiSUxeD8r8288jU/uJXpvRze/RRBULN4hH7o2mowehlR+dVEZZ8JAAM35DTItcwpkhCcEqmYBfjVLp6K9uwdxzEJTSTBLqS6gux+ZDOTEF2GIia5nVVbDEEKXCNJawHVNmtFlLetJjC1Y04SDU/yWoFtE2ccNFoV3HzX/mXfaSJrKRWUsKRk+8/v56xGbcDZAaRbgboDwepMGlr60zrXW1DpbZaapj6YIeD3c5aEXDojv8cIZ4GcxzQRK9BGErgebBPWUbMkNLhFeO6x7ZUD6tGZeVq9z6UzsouAyQBmFfi4wnBdM96/QL3oqGRxLeB10EwIrKvYdUQCE/2YISGx89AbvW+md+qrit+64/gWJOKyePVTBCExjYcHt3wpFeUrzDHMjhDg3fBOwQtx8LuL8C0vTgxhNCBjrA9uy8D/ZwDdWNZsTEKvoqXlMS3vXqf+YOJbFYOTmyzNxvUzid+jPrrfA4EO7Q2PwTNNu6fNEIWo8m0iChqEpiEj8m6X3W2bhUQBVNPqisa1C0i27N5rdWX600heEvLFXeqiKbqa6hvLmoI8NangZB3bQWi2Se83EUIL8iDUNVD3bZDn/Gc+TVAAHVBePxsUAJxkqM4O0HNvy/Av6vYLCWCCqp6zv1f2dsbR2Tlau3+FyvFQsg7kjAOMBYhM/gDuNjvBOh9CZoJsGrwFwg8fxzMIZeJxkDEyXfKnK9p3ysNVsfb82bXeW4rbbmNFvE2TvvOK6bLsd16vttjit9OhwRMHZ24uqsnPGdeWA3Vz7ae+Ftor1EwwovuVqYSnEBK7EHaSNgiyKKln7m5YmtDK7jUaDJVsNrodYreEWxspgNAKUp/ImAKIDmQhRyI0UKekTb5L7HxlHtuAuSFFUpMHyXHOCEmnvgARaAVcNaZNwDVV3QwSLaBXU+Rd2gNjo+cwNWxdtEhX8lCbr9xi7kLoplAE05KWKYqOTPtt7wFwQY5fvDGQ2xXVPCGxsH8j8dRxCtBhJA+aOOB8pJ7DcatlSMTWBaNtxufmbDpjuWbOOsB4AshaQBKCu34544DfM+veBTbaf1GgIccaaMsB+ihCpoi79Kk63ys2Xjror/9C8duPnOOUm0Syy9JuE+nL8ve76AW7h/3+7xXF5KujA5SsICLox+b6GiGICIJ7NqQ9ur+CJcEFLi4uTmj3XkMS4IInO8otFgWtFJJEoU4SIp2c85f7fliBaQSyNsXdAexzINEVQBvjFADcQbHUhLhrXVJGA1DnQHZbyUKH+IBafeqdLtpAE7rNEgZYR50VSGv7MnPQ+l6HFnQqo6OFIlddBLaRmS+sOX5mO0mCKdMqIv9HRAR8hUhc9LqJfssQkaKg0eoMrd63QuX6DHQuBBCKiwGDGy0B4KwKPgtRZzq4drO1wMUUYLvTrhZ53sti0S/fPDNYu6n47dd8tINEPCIe6ST2j4iRSHTyOL3oUaP++C+ronwsWxGYqUrKYgTc+dRHB+/eauBtEvLZ182WBCPg8/MV7b9i1R+m1Ow2qFkLavEJbcc2e/JRcz2kyYTg9wUjCi0kI1VvSpJzRCEiIB3M+13r6xzYqEhK0yqU33RgqQo60/LbtmNvIic8Pm3aIUd8am2ZQoO0tXvTZW+T66KtK21jlnxfyWASrDHokLN6FHjX5s1nJmQtCRo4ccfP5FGnQIZdd9CFOgDSA7r0taDxuE/n7tlHlT0lEctka4Df8UvMgGu77SEHDXji4jIT/fPsHVBxB+61MD6WQgjxiYMbrS7vTT5e9FZvnXnCp7++OHQosdjaJv7y/H1T4nx5DkW6V0fohV9G/fGbq6IacDyCE1qdq+DuaghQGywFTA7CryEDAkmC/bsgKm2WQUUzw4KufPQ56vfiNMqw7oJiqZEE89DUl0C5lkZC0ZDxsHWi0CUAsAXAW+Mg/IzgrginWjrbZvlos5xo+enSN0UUIuKSkEchKtOC3bTxC4l2taVT8iu58UyOeQdNMi1hqLWjQx2bzuroUnbHZ3DR+Y18PnAR5r/JksBVyymH/otcvADLX82S4AHdZwdYpI2sDFxu4r8+qeD0x66kcmMAbgUmBNxZU6Q/6dDoLQv45jNnKYS2O/3rn3Em2HoqJLwn5EBkAw5Xcn0+Xw1XXzr/+7f9WMfZesQ89imC0DLVD9Ch5fXB6Z+saPL9FVWzTpx9uKFX2PEhSuI0kIDE4KJwlYmLAVwV/J1Zm3wwk/luZki0/8o1mpmZeAKS2NVHG4kE0Ckl234aoyIKtvx8amQgCjkTbxug+d+1NOZ2qCmpFfCECa09lzl4qQbMmfZE4DONOXsHkYUsSVFErYvmSI1/br11KS8iGZs0509bj1+xyWZvqqyO2IIkISK3YMLnnQq3g5/zoFlLa8wd7WznXGcj+AZI3cp1wA5/rBtlx38/GffpzN377f0K5nwDcRLY+syZB2483ONwloGtzlfO/1FBmK77mmjUz0mASxtcLRL86Aaq1xv96XDw0NcXv3+Hu273U/9kBC6kiF82w3yYXnQDDca/TFR9KdHE78sZRNgugJ9zloT6yYqGDCBpsH/boEXzvbNCGJJgDlSaXxjZbId0mhxaE1yJ0T8mCTDjzecnhDLkFSEaWHZcj7PqXQSikJPcrhYF1kpbISWi2doIEM/ENEQBxrFplSZJVIvVBYUhpJsAACAASURBVAWjyw49WX+DxWXq9mZUxWa0U5f+5DTTZuqLyupAWjZThyYA4l8HN0BA2ZCilALvsJjh6GLehvvOyHsJkoD16DWkSM14fYbOHd1Nk/OzlghAfoE770Dw39MDITzq+GRfj33en5PARoyIVHDzpRzPPFSfJZbS1j/5eK938jkzr37T3182gLWNHdmMuG5j9TujqIr+qH+4/96v7BWTl1Q0eZJTA91SH2PrAYN+yG6IgxYDKFiC4AMaDUkYDomWV0a0uDSyN0G6iUsBUweioGa93aLgygyvsWJKE4U6odDz3DFQUSsjLiZFQmqS3BGMI/+saqeU2QFwU8/m2q/nrhOgdiUhXi6SxAH61wb6XTVD1zHqWl5THEfjeLbokq0Qh4hQbbfO6kIqePDYAuY/C5BnAF4DeO2ztwrog5fkOajXginXC8QBgwFdcIAdoNHaDK3eby5fmnWWgnC4gf8cFIolDnxAUnRSYnBlyHHKGKMAZxxwxkc4bE6PUWi/8IdeeZKGZ/7v2Vfd/oi8iKmLJHdetl0Ku5yfOULfvVD1ln6AepMfIqK9zUGL3keG5yUk7m6I3ApwPgKPI5MEd35jRYMB0dLShJZ2r8N10fJ0PPxtaZEJRdxOFBz4NBOFmLjwYuxsVcgBV+r7qcCpA8Ay8citimlJQIrItJGGTmQhQQ4b3+O+5yw7HVZuF4DNtiFB1qbRPLVnO4DqVshERAg61tVhCKd+RAgAZxn4EmqHKWGarwJGHAcsD8fUgLctU1kk9LvyviIOkl/oQH+8NqTz9684cmC2+nL7oivfgX2wJ7BlAL/zgQW1Uw5Fn4hrQZHe6CClFEnwhpNeVdJg4ydnqsl/+9R5B3nJnGaZTi3fl9sL99BNe/v96qVVQd9ERIPUfQ3xIUopV4NbiBzCaFMcZWGGQ5SiOIfCnMLgSII5K2FhoaJ9B1epMAGEUZBxxq3gJ8JNtnpmUxkPmigEQhTPubJm5ADTKqIOAJ7bXU4D3Kk2NJGSRmKixrORWHTpHyq7BmDKtZdfb1vVMgabJQwdUipb25JwUbS1OwLulHbpCObT1NNViXUhUF3LSj1n2swbdPO39EHHJOBOX4Nn5jOjbookRHWhyT4RC0FE49GAzh3eQ+XqbIgpMO02wZRy/TKnIXqi4LONOEjRtlLqjd0N2G0bwxidmQDnIsh8+II4aNGnQxb90avGwzO3Lv7hG45sZVou93cvxFK5rMfsfvqRKybD9fdU1eQxIdXRZDAgNYAdGxyipN0N+syE9N0OLibB/FZCoOBwpqIrH7VO/b45UImZOQ/91olCMisiqQTBomClqUswY4KoCKC0Aan/vRG4E+CjpTJHVmrldg1shD41rarO9cJctq3S6PcOfU+ORSazq61uJp2dnlPpcDVNsUXSkCUlHYlDK6nZZtXWRJjbSIL5fTOWBJwnBH8GWiEJ8KB9jhkKg7ea8IJoMhnQmU+YgMSBBW4L3kBq+BImh/+uchek6AMN7Z+QIcHZkhBA6ZoZB1TarywBsec423olRiFybbhBLXrj9/d6o+cPX/vq9/kWbvPEXj7FdV3Wl0+Pt6EnH6ebb5wdVO8kKpccLLjdvWP1bDVgIPO/Rb+470LIIpYRjlHC3T4HLoabI4mGw4r2HRjR7NzIX2WKcQIJEG7LZrALLVamdaKQ2z1uhig07ZLbiILvXyNR6ADa0wC23+kkRSgH0g8rWVAy0Lbao98bUsHbymmLI0gSlNzCTMhB15TLTvVMSR4uNolI9YFBF0mCAGHi/AKWW0xP1ESBwRnnjsHbY3KU2ojfVUST0ZDO3HWAypFPVcTLkyICwFkEihQw7vvsBr6GOQQUeoLCKY0wLi7Y0XdI4im8C0PLSq860utt3Dpz+6tebTLKtwEOLusiWpf6Zd37LXTunv6t39WjyYupqPYEsEeSAPDvMxICmQBCADSh20FK5qkg1yZ4cWXPmBYWNqhnrpbyJCCe2LxFwT2X2nXGRGD6+ATeLabWoHY9XCCiwEpM9zFLKrqQEkVMdFmb2c037SSzK7SDmb/27pTWBXk/kNzakumqQaYxwbeW2XWe2iwWiDJNymCTJOJCkQnezLtNOGQt8MBlSIJtT7xDl17zqzVLQcJlAaBr7lYYn5+ls0f2UDUa+BMNPUlw23kP3uZiJeMSdQ1mUHdBhb4T/B/blmAl4GyHdMYCEwffARyTKB7BWA6qs1Vv9Ctz5Zn/Wrzxjee3oP4fMa+2LsVHzEhM2dG76NDczOD0IaLSXAm6wEGLLNtoB3Drkq0GTBPADZEkCXVLAscquHMSAvD2+yZ4cUy7VkY0GHB2hSs/TLBWcgFgss+0pUZKv/Tg6cOWsK/4LBCFJpDM1ZMDwCwBUGQoJ/25trTV15UsNK26h4ssxMKSXg0RYUjPoxK6hlXVgeDg25001RTEoUt/desb27BFEjGN/knJmRAFdV4B+uh1ECKSCxwPJglIGnAn7t8zNzFunJ6j1ePL1oLA5v9g1cdzDZg0+I6KhYE3/4oQ2PZwjAKv23AssyYLQe96v4QOYiyKca8/+t+T2ZO3Ltz2psPTDPcj+dlOy+6RPEBNfT9C//naqt9/cVHQN1RU9uIARRbq2JGQizNwAY/uX5MlIUcSDBNfWCytNWFmZgzN1kQgpUTVjr6DRcHpk7xlIjQAiQq6Xeqkgr/hxZ7PfFBAn1T2XFdmBlNgt1XCwODeSgC6tB/anQVmVrY5Ke0Awsm2TmlpqLkUmixC02iTDu1PFddVq7VZNbqWM02Xcs9upS5+N5euyGCr5wn9/dHiQ6sEyJgszMpe07x2aoHWTixROTYnJLq4gihokD9LgKAKOPTWA3dwkbc2+PgE6w1hAiOZD8HaYC0P9nfXeRk++C7EaBAV/fG7ezMb3zP7uld/aDum65FSxlbE8pEyRtl+VnSod3R4/ulUjn+xKsovdGofLliCg4WCyuTzDeoEgq0C+mTGYHsIYY1mRWhLgql9ZraiPXtKml9cV+1uCWS0q6wDUUgo1U0RhexOWbsfEmCKPWvNfmggCpH0A6g1AnwG/FK7ujZffA74WwlGxzZEEtARbGt1T7krt3Xqulp219NqoTZgb9JM09TVpZ5pyrsQGhPrZ0AVQhCv6XCOgUpnxPcYbXW58n1BVVnQ6oldtPbgLqomfVesCRLkoEKTaiXYDYcVwBkGYthgQPdtsLck+LpD/EF8lLLjKTpQMXw2ehHPTaDe5L5qcPZrF9/42vdeiCm4nMt8uMV7x4+tOUTpaP9vvpaq8UuqHl3nOmSsAfFuGe0IToEC2EfhipzQCGZ5/2xIjgygWfVid4NNhexXtLJMtLxn3fn9EoAaJn4TFoVaamTCmqAIR2iCcn3Yhmwx8yFXVwrschI/LVnIgUeyfN7tZMS9CZQ3SxZYoWdXWAfCkK27I5nSdUt5HWLDptZMHfrTpm2mrpML7Ohe0EDc1p6uv5tyeXNt3oFAPVcEjI0gcweSgDLEY1MQnTmyhzZOLpAxmobMBA4KNA3B77lBLtOLd/0M8u6/bD3wJCPKzvDuSollMNzAdxaJhCvIZy+E8or+ZDQYrn3N4I2vftunMha6ClR4btNLYvqqLu83jvRu+X+qYnKICtrtlqS3JNgRdgokIglFcCmEdElezk6B5iwJckaCX/gpS4JZdIuLFe3dN6L+wKRCqn+WZeO/ZneBe1Y9s0WiENWfJApxnV4HNBzlnGgjdzFFABrJQkczO8xvfYxTMt+QNokKOTXerWSha/91uzqCa4781GSr41qvzck2Wxp4DLdTy21bWR1JRcehtKTAqA0G1yxJwJ13iiQw21DBjwZdy4JOfWI/jVdnvSvB6BDOWvANNXmLfD4BkAq8flkCFEXeXTnWcmDelb7E9yqIVYDf8ymN3OeE5WHSG6zdNPvopd8oXv7yUdeh/NRzYQS2Tdwf6YNa0aHB0cHpl1QuaLGfy2wIKjxkHAT6EKwG8RkJ/i2wJESkI+NuMG/NzVe0e8+YZufGcttkmCvtdkgATKfUyPp7dbdDDrxSAY0p5bndrgcehQZwlNWxRbKQJSItwJwiNUnCo1Zfrt1d3p0GVLPao+N4pZRG1PYOILolDdaRGG1GuW2pXZupMBE3sGmSAPXb2xgLmmwM6OzhPTRemxHzvT3rAGWq6AXTvj7fwH8OJD8cchSlMpoHhHT7mAa+0Mn+Fg8skw0rKWbTw1kSVK5Ww43/Od/b+KnijtuOb3JEH/GvPRxifNkO+kfp0PJ8/8wri2Ly9U5cnSXAgiVcD50iCe47PBsh/N0UkyAw5y94kgBHr+jNwhkOiJZ3j2nXrgn17MFK+C+VzbBJosALG6SqG1FQbge/2F0rNUhMSxRSfdEiyO6gjGjmgHoaC0QjOCug0uXW6pkSgJusHE5AW/51BNILQRhq45YjDZuJlWjrt5ed1vHpUs4mntlMvWwAYKAVwE2ffOhM/iz/0cJ1q68saOPcHJ0/vkQTJgc9t+OPzyjAjAPfV3tboz/AyAcfWnGL4gfASoCyKEGKvgP2M7oiIM7AtNM33ROQdepP3tQbTH507o9/7583MfKfeoWn8FMjsb0jcJT+y4Gqv/6Kqii/zpXMrgQ8bbGe2RBgbGskwdESs+Bjt0bPuBx2VbS8MqGZWZPlkAFeXGg5gG4iAAjuCWCNdV4KeBQBkFgODfT6OZbopl3nlNaCRgLQhXiwbE1pKcB6m0BiM8C/mXeiJbIFIM4RrdQSnBocc2PcwQqh65+67oQsdFErm6qnS8Gg3U0dm4xJKCc9WntokdYeXLQWBJelYDICHGh7MI7PNnAMwDXAPGvqxvMI2OoQcJ8qtET4913goxRTD0pEksFDYo9yriZFf/JX1cz4hfN3/P57PhV3MIW8JB690CK6tdbt0LfvHd58Y6+iXyYqv8ipp0AS3MJxAB5UFys3dCy0uRvQ4gDP+h1BbI0IqZOzcxUtL5e0uAtdDgmy0EoUOmY9JCP5dfyDiraWeVeWBcgKiUUjbr8orhoJgrc6Bxl2tS5MsatvAmm9IvHZVrKAozJFe7wyd283AGqrtmgZq6mIQKYdrW3QlTS1aRPkIRqrS1hBaZLpATnKZODmJwIXy7JHZ+9bpo3T81SN+w7s+WyBXs+pMH+FM5v5mRS4/wJJ8AuyThac8cod8KgUDp6YKGTCP2NJh6uCb3WwM2lcDP3y7uFg9LzB7o13fOoSpq3L59TLbetVXv4lVPTc/j2Dxz6zT+OXElVPcT2+8CTBBS+665/Mkck5kmAOVtq1VNHKiglgxIjyNqKQU9qZXT9O9RYDGmt6WWdnKFIRPd+UrpYD6+TK6GoJmAKcOxMV7mBLRkQWwKBNXVZ9E4kRYOmylju6J7CoxvZtF3FAspjqR7DCdell4zNdxnvLlSQKsOgLLiQPrCGdwF32Jmhr/yxpsjGk00d20/jcrI0/kFgDaxH4/9v7EqDLjqu80/e+9/73L7NIo5ElS1h4xWYxJoaQQmExhLiKQBBlLGKqKFASzFLB4E2WF5xhcSxsYwIidiyDoYCwCQdCORCo4AgbjDEW3kDGlrxJI43WkWb51/fu7VQvp/v0cu/td9/7/5l/pkelmf9/r/v06dPL+fr0OadtsgWJF5SPIsmYiO3pKwdO5qt41RHLazRhIhvMvCUJkwxd1TcLRPCqQYME+QUHKOu6XNr5zqWd+/4Pu/12mgxmN6R7UdA8V1P3ghfu78MLy2vLJ10PUL0JGFxNEyHZsKOYJUFtgPg39T+IOy5a6wBeTqjl0g4SRInxmMGRy6b6yoEOSQ+gEDgz2l44gz0XUFA0nUkrf0lJ59zAj6OYUpVPqlXBa7PTApDaPjKty3e9TeC0G2mjaxfoqj8rYDDKIHEb6OJvLqvHvDwkhGwmNjFzsU65aGUdBQkyr5taO/KErhT69tklOHPvYZ38SF8poAWA2PwRFFirgG4ELRXmCkIdWTBPglL0mBhJNI33CFrpo7IPrjC48megiIe2Vda8HJ7+ntF7/+Dd+Y2FmWdSY4WUKba41i4ySjqy4SWc1zcBg6NKXaQlUmoCCW7woz7lRKIbFOTmOpkS9WtQlFXNGsoC4NIjIgvjBErxloP5E1NWfaIe5gAKjadYxZsLFJpOfL51g3pJN0zIc25V6AAzTau27TGpRqU8g7XDAVMpgGuGBZ+SlMgnl7R7zQq6ZuA5VjSZp57XG33Yi1kSBB1jDaihrkvYPLkKG48cAD4ppQWSFaVqzRzqlUY2KQk0sJDXA9IyQJW8a1RQ9bSNUyt2KSr9BLTNnKgEqEIaLRBnEoloa4TEIiRcs6g3Ybz5htX3/s4b+ogn12mWQNJ0zgLsL4F74aXLbMBeyzj/CWB8VVFKS6Rkt+Amx0UsoUImQ6uD9lOQiqMZJIhSqysFHDo8gdFSDYVzyu+yJqBsfEXj/q4mWkwZxU7jPX0UjBKMgYUIP40AhIz3TFcAu3EF0aKIG1dvRKaxssFnPawLAfDoUHzJO06HlaZrSSa108JrUv0uJnp8v9vtIn08fTMG060BbDyyBtunlmUKZeU+oJS+uBNwMhpqtGDKmBTLGngba4TGFgZEoCx0MiT0ZxCHFXH1IJMcYWSCvUIw4AR5Iu4NGiSc5qOtd02KMz91ye1/9HgPiecqLRLY7emYhQ8AIvxxdXD2p4BXP8YZ17B8MSBBqQ/XkmCtDAQUyFwJnh+ECa1UZlLxMuQB4cC4WslHn9yQ410ECnI/iiuEtDBJq0TNhHaUf7tlRO09XYptlpNoKlBoAk0Ny6YL0LQBBv+7JMAwI3+UbUM/4aScvAvNCRoCMNO1PS2S96629vB7AhK2Tq/AxskVmKyPTWSCDUPUlgG9EaC/ADoUYuIi40fghS+6jzTqE79u2wEYcm9Sg2Npkd+NozOmcFYAgjF+hg2mv83LrTesvO93791DCV40TSUvzYtGIrvU0S/ATZcMi+nrgVUv4YzrizcCEswiiEc3UCBgt634A09uRgVbWmZcNBEU5HOTf4FL68HysngdksN4WUc6EGueEk8KWIhtrq7ibLUqeDMzAArmQNK0iVMrhI0SiQ+vpWEPKl2AISYHTb3pZN622pzvYpaWNpjf4yRMwUbKLtDUpygoSFhEswCImRU7tr8AQOF3JUVWrd1PAB0J4utVhPBeT0tYf2wVNh9bhXpHRCmIJEf0WkCkS9ZzXN8poO+AWiPq1C//GMdDFwTg9YEpL37wnRRpDgPJgL12MJETtLM6cgIY32Ll5N0Fmx4b/81v3d1LHrlSpwTmnu6dLeQCRgIiR0Jd7vwkg+o/Cedg9QUFCXiSbQ+BdEMk3ZTNsqbe/JVdwf4tPpYAQV830FYsqFDlBwOA1VUmszAWhfKbcC0K8wAF98TeCBQaTvVRsNBoAYiklKbK0Zmffa8hzhOwkKJ0Yyver9e1KzR+3/OKwoA9OhiJirSL18b9ZxfAQ1+wtMd75M76CM4+fAB21pfkewroVCDfW9LytNYBtdokOBBXjyaPgb4qMP4CuAZEOfQf0BpfN2GvC9Tn6k0F8b9GDbo4AgoT+ag+MImSOONVWU7/jA2rly791W/clXMd7N4E6r28do+lC5vycbjxalZWPw2susH2NM2SEItosCDDRj6oz6xfgg8SJBgwDoyucsM0S8q7mcNwUMKllwonxh3jJBROmp4WhWjkQ4OyXUD0g9pmyB+zQcXmXMyq0AIEDPFZriJSrjZalGbX6m0EQlQGTeuNKNCudgLBIs05AUNANxE0NPIzy96yywBiFlZS5J9AT2RFFNcJ6w+tQTUZyBrK+U+HH2JeA5WdQOcZ0A8v6YOHiiTQjos0V4FEEZoJvGowip0kazJRDCRrskElql3Fl21HJVyyQmDD6YeLwdZ3jz/w2/dkcJAw8HMUWdDUm4ODi7DqPfDKp5Zl/RbGqu8Q0btKBNQnARVRLOOiznPgpGVW5WNhkOpKoeF7c+Xg2iTss9OKJ7FY11YLuOSSKQyGIlVzQjQDjmvXo1ByNwg3/riVoEmhxpwaUYb+BNMbEP1YroKmcLW9sCoQXttWpPNdD+Xb6WfRthh1e10hlWbcY7RmBE9t7KRYS5rqL2zXI/1ZGM3d2RCrnRLOPHhQXimo5euYC5RSFgmQdD/MMGsHQnXdYK8AtO63by/glyaSRtM3joda+WNWRWktwGyMaPVUjRsLAplLGsdwKKef5EuPPe/AB/7wod2RVKYabI1ZJHsvgc+OXvHscVXdDIz/Kw4wVBykggRrLaBWBYQB2Jsm50UVbKRBgQQJWNNueNbqYF+WHI0KOHyohuWVGspSK9QUAECyKdp9NKYsEnwU5A7SnFY3uk+3XD+YDcn8MCtQIMq9VSHNohwTTq9tYCFFWc1lXSB9lht94vppLNcD7CQp/xksDnu6K+4dsKinBexsjOD0iUMw3Rpqv0EcNHtNYHwKcD0LYKBzEuADSOqKAB0EiSVBp1M2IiSWBAQSSvNjBANaINTzzPiVk75ZQwXitFixcvL35fjM947/5rbsc5C45OYtlrq0520n149I4L7hTV8F9c4bgdXPt0qd5knAjVhtKGZb0VkE6acGDJAkzvb7uF+CoYnRDV4oJL2awPwNRcFgZUVYFCr5UqTyT1CU2qMedGvEcmhFElMQnonflYCtGgULEYuC3IWaFEbMqkDL+vV6WhXaeGhTnl2rNPje47erfqtstKhTaBAgGCiL2A4wC2CQPM6xjXTJaFbS8/Aya1s9yosEhpPNEWw8tizzG3Au0iPr55m18kWRovneOh2SaAIvYVHoo6CvDwgocNilIMOENiJYQCBMsica7GLfemAMKl5UHyxGmy9d+bv/cUdOhNRjQvSscp5P85692kfVjsOrvpKVO29iwP81omk08RtIELzdIDqoMqCFIMGCCnq5oEoqoIB13AsM7bPgWRNUWRseiaBhMChgZYXD2iqHpXFFnpLWytbMrAZLAdnw260KoWJX5RuUYBQENDkq+hMlovixrcb+xEEHvuDZPhUT0hDPYynoshK0rv4EKwZ2blZwM+uuk8LnTABkxg0i2n5P68SMTScV9/gT1wmbp8ew8dgqTDdHioS+ViAPNGv3QlXZRChiSKO5Y3BTLdOHl9TpPh654Kc7NZYAXUXfIyjeCI1IuSmU1V9DOXn92qEvfCCnUE6aEQsrNOtSXVjDmZCVwH1LN34JTKs3A1TfgREINJeBGCT0JfAjD/BUTK0F4c/Ux8BPqkSVLTovqs/iFgrl6yC/YxyWRgxWlhmsrU1hOHLN88pLuV0Jqw0icoIPQimbgIIHFsxJpkVx+yx1WBYki0YZWtgVn8NN1gWPz6YF0PluRKzirEADafSxNKT2o2WFx8DWrDtRZ/kOBd5Zv+cO1RfM9GyOVhPvJogIhfVHV2F7fQlEKKMJRpRvKtiZTIGCyWvgXCloyuYlRpItUTz1jBmSfcsBWgCoM6Na5GYRWRCgKxurgfZLMDShZuX0b8rx5FV38n/40FffccdkAWLKJGaQwG4tkxlYyEWFBO6DG78EyunNAPV1VhuRp6IJSPBdCn2QMJtfghsKSa0WISihbpDWN0FcO4gkSwfXGKwdmADzMjGG4ZENSqYnUFDbT4NC2C1/BbPXtuXinwMstJ3+207sBsh0rKuARkR+KbtDo2XFaz+FlqlCHviZdXtIaifh9J9EZ1bmZh2TdPq8Bjj9wEHYPLWs3lEQ5kjdTZnhAJU/Zi8yBiKrjRE/qH9pUiKbllkuUcxF4Oc/wDVhFD5aF0QlhCrWIVG1ozIoKvxA+QQoBtOPs9HOD6w8Y/Pj+WXG9LmwyJLnYhkskv8LitaDS6986nRa/TxA/Z0UJCh16if7iUU4xK4c7IUCCit0XvQsDNiefBESW7ebquvvoIGCVu5LowKOHmEwGm97YzND5ENylETMqbEFfERm++wJmBT9gFRiyKSjv9tAAJVeV7kuwNC1yqPf7zJgSAUyFDSIn1OjKGI7Q5cc/La6dpdkel2E5vt+6/ExPH7ikApd1JEB8hVGTRZDBpXexkea8KFkVQqnGBPAorT3//ZLezcg6chDgFb6Oj8CSaKgCOL/GgggIDDtYQZFAV4kORUxJb8fTY4Pl09du3zHbffMJ51cex4JnCdTfJ4uXFh1lSWhuplB/W2ccX2BSFIkO8rCzYyAJv3wagCVpqvaaa4EJUX3WsHYFuRm4AON0JoguERrwdpKCYcOVTAcVd7bDlrBOjOv4SpClwknaUx5RU7rTVaFSE4FtWk1KcWmE2fkasSMT3sdR/+bDiacbCWjfczn5sjYvWACgfcECwEISO1fN4s4X03JeYCD0Vip7WK5xP44gz1rG/HyIqfBdHsAZx5ek1YDaTHAsEHtzBS9RhDAAdmW1wB6sOXNoxtloDS1BgEY3YCWBaXRlaHBhECSiWNII1/iRUekp5qVMFswQ9plDCYwmHzkwOH1f8v+9nceXIy0MpW+EsgAoa/kdrGeAAmsnP6MuG7gTIVAWtWOCUxwlbtwgCqP8PRvcyXYLQ7fhHfBRgAItDWBQgyfLwUjkB5AWYhoBwaraxWMRv4jUDGggEDGEy5RiHbCNmzOsyRfMscmfzBnjYKwfDsLygNz4ZSJgRpynOuaY70tC0TOKTvAIi0MjjKeQcGm8OnIKxEQzUp31vIxnrrGteV7YRkQwGDz9BKsn1zVCY+0I6EIXZDggEADNN0TYICvL6INQeVUsx0zPgkkOZF9bZFcBeg3lXSOAsW18XYkbgfKdKCwiL6W4DQRku5vwdgmDKq/4KtnXnboo7991xxiylUXJIG5pvuCeMhkIhK4H15+DS/hdQD1vwfzdgMqeJ3HgJxW6QWAdXRMzZdgcxpY2GGtBsayIE2C6nMKS+jvikOkpzo2HDBYWeWwMgYYL4tHoPx7+5Q0zlqpBVaFNKBg9VKHlSByeo4vkjYFlPIapc9HyBfuQnwhWAAAIABJREFUq0HERtOKOWeAoWkMZlzaXfzHyPXawQi/XfW7vm/r4jx1I3QFMNg6uwQbjy/DzuZQhS4iHBAhjPjEC2JMdDCU4EAxo+aUVtaYMMmZylgOzf6kvMmtRKwVmBdB0JWWBJJm2UQnaGsDWhXk5xzkNQi+91DAWVZU7ynGk59Z+8df+2TOkDjj2tml4guewrvE5UVK9i549dHVwc7LOOcvA1bbeCWioNX1navWlbjc3AfxKwIKKzQg0Ju0DxTUEtctyWtMBApUOSAnXliknmXDIYPlMcDqingIioZG0gGOgQXdn2AezODXkGpZMCsiHhnQ12fBAhTsBKXfdJJuszA0ySSyWHpdSbhjYrVLwmJMtTiEQukm7tCewQKBlGfd8VL7Mivd7p6aEtVUhC0uyasEkfRIPMmsRIeNqmsDJ4RRo0v5GfnOFR/SUU2FIZCo8LXeN5YAve4wHEFYLshVhCQmrx4If06GRQt59Y3F2WI4+T0YVm9+66feddex5rSmM0gtF12EBHZxWi+CvUxDvwL5w8Dq1wLUq+oggBEELhBQv7kKu+vKQUmY+hNYmi7wiIAQc+3gWgQsNeTTtSiIh6AEUDhwgMHSkgAKsUiAVKsClYGfSyfNuqAWQUPZBn8FtXWm0Xdnsa1jF5/vgNo079sAQ6KyTD2lN+4MM5y+aTdSFW0f0BAo/0RZxMS8aztig+WqpT3hZ7B5ZgzrJ1eUxWCqs7Jrc70aSowOEL+h5crYFTylj86IeJRHYEDhAWXI9WJAPKKuFHQ5fI9BniCI4yPxTUBcYd0dqK8D2ymXtt9Rlts/t/zp37g/Ww7OL523a8vh/Orm/ubmn+DGAweL+gZg1es58COxCAffkmBVnqt88GogABKBHcK3QCgYIf5DhSppOdcO7iaI5ZXyJf4PetYVBcDyUiEfgxqOpg1KOmYlaFLo9lTuTux0RX4uwEKwCFsjIprBjNmIm4BLdBn0zaFAifUADSkAxOd3nt3K1J0DPHQCnsXtMwIQnHrwAGxri4F7uncVOjmnawbQEdF4E3hRNxZAWGxlhUvbUnqfgAHZtAYYGHWgf1WGBF0brxv0FYQTfUL8FIrVzZ/eXNl50xUf/831xUkvU1qUBOZZcoviIdNJkACHFw9PFAduAFb/JAC/CqOYaNZFeYYgJ0RqAWj3S6BwwkIIc6rWNFHNo8VBnVkwZt3CAfc0Tj/3ozFUfUFnZXkAlx7mMFya6MNJbCNPtSrMEP4oN7ywrVag0JhbYZFWBbPXtzwkhRNnQVcR5vSeoERbd44egMG0HVsMLfwsYgdzaCT0PWG9BkUS+JSRCZMBPP7AGmyeETeKwsfApDoyJJXCtp/bPCP2/K3UtAcrpAJ3rxXQ5hb4KOjWpNJ3nB5FG3ilIFgU0QnClqYTMUlEgY6MZA7j5iTZkk/UbQyWt19x4LO/8vY+4sx19kYCCdN2bxjJrXRLgMOx4kR55kWc1a9jnD8zBAP6dB/1S9Abn1aGzZYEeta31woIMCxIsMpdwQullOUz0tpiQHtkfRbEpzbJkjU7KuW/ulzAgTWA0VIFZSk+iyjvhMyHtu1ZLBAhWLALZJFXEBaQxUc9dg2BHmZtiZnidE0fCHjsnm24uScozKRdBOdfcsu2YB9rQyvgmJGHaPsJcklspqoKmGwNYP3xFdg4NYa6xoeSUM2jtqYWAffEL74Relt22yAG+an6EK8irH+iBRmyoqUtaaB50MISmyvBOCPqOaktCCZSgUIT8x1aHngNg+qewXhy09oXX/1udvsxYTrMf85TCSQt7fOU94uWrRPlK7+thulrAPi11nbYFOFg1DfuMiYrCoIEv0QIERQsULuPvWrQOw8ZB52q2e4wgU8EtU+YNx4MaFHfFkw4MxawslrB0ghkiGRT2uYwS2PbaVN95076pvKh6b0TLCBwiayqZn8FJf3mPzGedWkHKMUtLj5dFyx0tR3hKhVkdO4sPa0MyNIs9GPC7aw/x/aSCCiE8+H2xhA2z46lE6JIjYyqWpFw3BBx0M2/VveiIyIx/xPdbZ5MNF3yqXu2Bt/hkeRKkFzJKwK3k/Y5aBvFoJI30rca+IQN+EeKwfRnDxw++Wfsztt25pByrroHEtjNZbIH7F+8TTwIr3n2tNy6iQG/ngMXSddJMiNyynQ+JxYBR4nTum4Z6zkQ1m0GGCQcsqF914JBYAOxfgigMBoxGI9r6dQ4HgMURRUZdHLidmZ0h9LUZZMAQ4PVQtX12jEE2+73G3ItGATTDRqiYKdVgXefetMemfKHoKd1IFGROq313bE650WPvaQnL9OdAWyeHcH2xhJsnR1CVenlS6MSEMiajIg4WWMnfYuaVLpi9TtaASybBBiYIbMwg2wJIPIUYGk6vd1ICW8BYdM6jFEtDX31ULAdNpi+l5c7P3f4quKv2R235ncVeky5va7Sc4rvNZu5vZgERK4EGMCPA69/EICv2Vwns1sTXIhAFYl75o/5NfglFC2qNIRlwYZG2r7Q6AllpXDrYUkOg4GIeABYGYvnpisoBx5gcQQ0S6ike63QFyzYen3AQpvvQgSABJPBtzL4p/MuYBD/3vSJAp5Zl2IrYIkQS96RmuQ8K4O6fHK7KeMR52GyM5BXCFvrS7CzNYC6wvcOrJI2Chhde4y2J8qdOg6Gngb6OsHCRx8gqG/wU/0TFWcUHBBoQJIq6cQKFpRYsk6kQ7m085vTYvvmSx+45p8YHOu6J+s5iLnaoiUw07JYdOOZ3nwSEHvICXj5ERjAi4HXLwXgl1GQQBWuGGjrs0BjGNTPfppmN8oBVb7dRVygENKjp2r5LXnXwQEQ6pjhvfkQBwriUxH5MCgFUBCpnAEGQzyINCnBVMdGvfFHrQotSqHRwbGlDiaHaRj+xusIs+f3sS6k+jBYUOaztxDAkNQHr+WZdqkFAwfKykx82IqT7QGcfnQFttZHIK4VhDOiJEV8BRyVTRWw5xsgyyH2RmdASU2uYsd3wFgANCDg6KQgHQpJZ8i7DUbhk+nrWA1oWVlGhyzS/iDeEW0UNYfx9usGJdx68P5bH5lvx8u191oCPaf8XrOZ22uTgHBevK/c+L4CJjcD8Cvk/qFPbtRhUG1KYdYDRbsrsRLuGA400BtTGBJJW3EAQcMDUMhD29WDCyxUydXlEg4dABivTFujH4jllYiyRdFG0zu3KH0p25Beo2UBuWiJiLBx7ZHRTz6Z+9YFQsvQWJSFoUM+bZM4uT8+/7PsDbsIHiJsbG2O4fGHV2Dz7FCreep0SJGo/jyS7liRVRqXTi8/SkFCBLvwdbJEcpw3joj2CkJNWXrkNxuE0xtz2SDP/erZZ9wyFLLHzxRIkekRZXTDdKtcmn7f4Yff8QezjFIue/5IIAOE82cs5ubk84Mbnzeqq19irHqWCCTCtW9Bgp+iOZZYyW7yqKxjijlmM1A7mNokaHBjGPaowqNcMEC7T2MerDXShFTq3Ylu9yKd84G1AlZXVfRDUcQjIKTSjc76ZgsE9WrsVPh9gYKo15KUSW3DbYAmRTnb+oEIzAep1t+WawmHeBf4aJn2fUADkuu1s0V4nYGOuDKopgVsri/B2cfHsLM91FPfP8uj0id2A7xSIJNT2QVccBBzW7ROiLodPAl4mNXENJhXmPGorxW7PD2gDEhwo1zWbh9kKTwXGA9FDWcK4YxY31kMdl5z8LFP/TmD23Okwty7+7khMMP0PzcM5lZnk8AJuOmLoZz+EofqmzjwA9R5Ua3pmAOjf6EgVr5V9FbBu7CAwgsLJpqsCf7mq/wSJA0vigF7TK0fgWWBWkgJ1CiLAsZLAGsiVHJQg8jaqPwVYoqqP1hwF06aJSLUXYkKvwHQtC7ervTK5gioN3V/mkWVc5uybwEMVh92RGwkznXT8Z7gY+5dz7Yr3hOY7JQwnZSwuT6GjTPiGqGQ7wy4MMBzLtRdlfkDiCOiziigZ6ubxyCe28BaACwu0G1LHlD5k0HwohTcKwQFShA6qGlC+1KoC0FtOTBXFQZX8I2irP6sGFdvOnjyCR/K/gaJc/o8LTb3UjlP+3VRs/VZ+PEnjAeDl3Befz8TSZWcvUH85p0SnQeYrHp2IyPsCTW8ZCAbpqxuH3+ytVwnRQeStAIFCz3cawvtpxABCrgpjrRj43jMYWnEGp6ethz2sSyEC6hDiXoVkoCGa1sO5narZcGU1ny1rnhVpn1T8OnMDhribaTwl7qsCU+7tMNNpyXsbA1hWz6gNIKd7YHKX2C9AQyz6iyOSpZOWBdEUACp8hroCADiVEidGOlIqbmLwMCXsG3Tz28g6eEGYcSmywdDohI32bWrH20y5oT6bDGo31ms1G879PDb7k4drVzu/JXALi2f87fDFwtnn4OfODwqB9/FGH8J8OorcY8JTuJ6W4k7MBL17iVYUt9Q5UAcC53vmlI9Uwru1Uc8G6QaOdsmZmX0oiMigEE4NooriOGQS+vCeCzCJ5sei1KtzAYWtJxI20mKX+7joYK1dSPKlxJOsBLMfy1BAGMUPMSUcerJvrmcIz/nl1TaiSt9BtpCYW9ujGB7cwjbWwMQzofodEhVsqv29W84oQhad20KioIEGNTxz8ukGPoMqH468MNR9AhZ3FwHFmjQ1w8oMKB2BRSSry7E79raUEzuLYr6jUV55vcPnvmNRxOln4ud5xLIAOE8H6B52ONwbHzvYP1rSl79Zwb1NwKACg40o05SHxugYCGE2zZeO7jxCa7Sxp0pvBygTpAWdlA/BK2Y0QgtMjJKPql1wgckFDSI7zzezX5n+SoLBkUprh9EMiYGyyschsPzFyw4w9Xlg9ABGDotDZ68m+eeq6QbNxFDb1al3l7etBc0PGs73atLKGvhS7Cxrv4XgED4GohIBO3x61lc6EWAtQCYU7oXlkjBhMkZEKp8vXziitpaARAseOVqHxzgrBJXBSZ5AS4mhClko1BeiUK6rsiFRYFDMazex6vpay/Z+tzfMfjT7W6p5hL7RQIZIOyXkerJp4hweAh2jtbl9hs5VDcYlZsAEnwbgavkqanRtR4EirrBohCqfmq81D8bZ0aEIjEl4LpEmgyNTi4GCiY0GNF7/Gg4kE9QH1hlMBi2JXebz7IQLrY2hRZPstRqXaBzpMPhUamIDoWaDBhcINcOGETZVEdI2qFu5d8MHFz+UpbSZGcIZ08vwcbZIUwmpTzVS5O/Mcn7ytI5w5swQtekH3MxRKuBtQLIsaHOikGkge2BCw5c24UcXidkUgMFMrXQ30CZLhy4ot9sbpKWBAdTNpi+k4+rN1568m3H80uMKTNrf5XJAGF/jddc3B4f3vj9rJ68lQE/LH3mndF3rQmuc6PnnBic7HEDjjg7elcRjv+Cc22BAMDdzE15nTvAvSJxxUFpq3KxZ7FtnZidYzQoYXWFScAgXpgU+SHkC3VeWuPFXkF0KLDWLI4Jyk8CoS4F25LZEUXWEzA41WMzuLelIaHvur1G8CAO0fr/yWQE62eEpWAE29tudkN6Vx9umq45XqUYDpMRGWVMfQq0v1/UAdHLa+A7h9jrBgX3XGtECA7cUEnrL4HgQNXHGEY6UF5Eg4ASrL6fDSe/WC1v/vejj7zrzFwbU6583kogA4Tzdmh2h7EHhq/4Wl7Xb+BQfy0HWHM3nXaQ4KvuMEKi5Xqi4VUGtZNiPdVnX9Grk662WGAeB6LwfFjiOjM2OEeSmR8L2RRfDwclLC2JNM8ljJamUBYcShHiLU7npn4fq4KrsGezLDQr+0VaF5TKWaSFAeezpdm6+cwFGtqAA5POhFXFoK4YyLTHGyPY2hjAREQfGEBBLAKB1z+GH3qnftksAQs6I6Gi6bkpmggDc4uvS2kG/BTL9FvzlKt6VdFS15cAntXAtK07h5yY60a0jASXJdhP+koknxTAP8iG2285vPH297B+5qDd2dwy1YVLIAOEhYv0/CYotpR74ZVPKQb1jzBeX8+AXx28zQIWKFjLo+tfgKrc7ltUyceAQqw+Ud7kdOpePSj1jRPVKHMDFCik8BWay1MIQ8yOaQYtdLxUX5X6XYilkbAscOn0KPItyDDKEk3mTWChTWHp73QH9xws+FaBxh0hwcKgNFWPUMZZQEMINNwVF4IacTUgfAemEwYy+mBnANubhQpPnOLzx7Tj+DMN98NZGHMtpErd1qV8ufCA2hKM0Kyi15rbcqR/ws9NF6nlwjjvqGZlFWJTMGhAc2UWdswZEevSdkX+I/5AAZM/LtjWzYe3fuVz5/dOl7lbhAQyQFiEFPchjS/ATZcU5fTfFFD9KAP+z4UOdPcQda+vrKVUkcYVPfVPoAqeqm8EFa6iplBDfGMtClbVhIADt2vMoYDt25KhovDbbwvX9M25blkGg5LJ/ArDIYPhoNb/AoyGHAoJGKzM0pW+xzOpmE4DFUBT/1FtNHzvN9R5NYH6qLm9YHn0AhEh8IhvXlz6Coi8BDs7ChAgEBD/ihwFtee0Z+EneRWRvFZg+dfKVN8hqG7QE7yr7NVvRSQDIlJ0eyCvDBygSMCGXhqKZgAdNB+2soEGBEwQ5GAxBAnMxMRH4qEmdMBUdWrOSv7BEvg7D29t/R6DWzf24ZaXWe4hgQwQegjtQqnC4R3DB+Gfnjkp2YsHAD/CofZAAqp3sjuZPTBU2kbVEwUQO8NTSOAqbfd6Qe1iLtzwlboDIsx+GkZHhGPmcuZfS2DPyU5qSPhXGjLlvLh6KEFeQQxFlIR4pnoo/mVQDqfGXB/3XQiVn8uv67DYpBgb52WLkndpJYCGRMCA45q0wZhCM4AM0lkRUSAeQtrZZrCzIwBBAZXIaliJqwQBCOxJOqJagyyBVs03na6ts58s6z99bPIR0NaIsqcDheY7ajUwRYnbn+fTgABU+SHoyyCDL3R/CU0lWVU2GJNoQiXdNqtPQ1ndNiqm7zi4Mf0og/wK44Wy/6f0I2n9phDKZfavBD4Drzq0VFbPZ1C9CYBfg5Oi7eEn68wdtyhI60NPoOBaGFzrRWidCJUrdWwMHRFjSsgHC7j9ek6OVnN4gx06Zxb6EFYUTIGGoci9UMN4pPwaihLfjojNmzZF2QUWUpRs8zPUSYCBstzx8JTfu06/hqCC2x9pHRBXBFsF7GwXsC0AwUTlDuC1ymCIWQyRVKim0VKA3i22Ud8eEMQqeBEFTnnUqXpxuOo43GqZBi6uJ4OeZKK4d/q3ql1/oX0HNA7QEMDNa0Bb5cKaobuq/i0AuJjjerKiGNAqUtT3sWLnWLlUv/vQqSecylkR9+8e35fzDBD6Su4CrHc/vOpJdTn9hQLq6wC43fqdE54NaZR7WPCddzyS+12TWveVWWiV8H0CfIdGBQ88CwdxNZPf6QeRmmBAOJTWAoHwQ+3XCBgI35EVFDpNWhCDNQdFAUujQuZgGC+VIH0blnYiCZq6FP4CAMO8FgYqQKlrunj2JR73bxD5BkQyoq0dBttbJexsCzAgLAJKqdGgQUNRj0fMUoBe/5EztJeOyEOC9HTvncCNwx86CwahgtRnQZ/jPWBgW9OPHsnvRdkQrqjlpD7HC8CYVYD2UQCDECwhOFDXIJKe6SfnbFB9cMQ3fuDg9js/fQFudblLiRLIACFRUBdLsUfh2MHt4ZkbOK9/mHF4GgDXyZVw08f8B55SJtaC9vwJSpIWCsRP9K4VAetYawW+FeG25Sp2V7nrujo/gE8/RamHSZusA6XrPOmfOxWXzqGQSIHyOSpLGAw5lIMaRsMShgPxpPXUPD6F1mzxr/xfaxcThtn4CqWVeudc7ky4hBTSgIDouZQPhhRKVsRJXykl6UAofQWYtAZUE/E7g2nljwo6FEYN5ZIpR/njc8jGCOVvd64CdoGDSiIUWh9c8GDfIojZKbz2zJLBdpUc1RjqAa3tOvP7E8uiqGAEbQeBk/qGvL1kXRZlE2JULHBQVhc+KQp+ohhO3/ax9U/8/PPyI0udS+VCL5ABwoU+wj36JyMdBq/8lwWvX8Kg/mYG/FKjXojFwCpZeqImStzLg2h3w7hFIQosvPBIxQcBJwSYxKmGSsx3umzP2EgF2AYr3HbCR7HiAxEHDhZQYK2CFSAeopIvVZY1DIS/Q1lI4CCiKFhRg7jWUDkbxL/6NUv8WagRAyhsXgcznI4liPCqD7JG0eCYSuVO5CF/twpJKv+aC/c2qKtS+QTUANMpl1kIZZjhVH2m6HhbkfOqYcwegDxSZUt+dp5OpuRjKj+MBmiHBkqQkuvIE80ONbMcsN2Y/cJCAZREUIqEPVLbAoEYDlSg42WlQp0wLdDRUOJhKOr3FuXkF/9i86EPXQ+3VT22jlzlApNABggX2IAusjvH4dVHYLh9PeP8RYzD1wHwMg4UPGuC3HtcoGDq0dj6pKsHqnjDuAPVXwpQ3JaCKwpPQOoKAj/Upb0TdNy6YKGKJUkhSux0ba9nQk+xcOSw3dDyEB9loVSEz4MECoUFCTbZkzqoypto8b2WHTqtxzYDo2iE8jdmaEwuJCIGBAgQYEAon0ICAlFQ3ALUXH1v1Z/bggUn/ufxc7sLCSK/aSXqns+prDAKwdZ1zt5O/oAYKBEvL1rF6kMUx1kxAgzcmq6yppcsvj3ABQGWClX8FN/RmWeARhBtocaQAZtAUX+UFdVv8XLztqMbt55Y5B6Sae1vCWSAsL/Hb0+4v2/4sq8CXrwIePW9APwqOmnc07dr4heKxz1zhydwrT0itgYs6yvaOGBw1bUuEwAQhBNx8IIK0/VDozw38B8dhRissECKQglaHT9XoCAGMnTphpVL6y9kcjSwQJPthKzElWvojOcqbzfEj9oUXJWpcQ0BHhbgUYO75THireBcH2il6xsxKIozyYl8NU/6Kgct5NWXhp2W1mWTgpo2gKPoE9BFIyh8nCzNHHG4oV+K3AJW/bfRsP69kxunPvFk+PWthcyZTOSCkUAGCBfMUO5eR8RB4/PwE4eWBsN/wXn9Cgb1NwDwId2W3ROx9whUBCi4egcVulLz9m//pzhYCGMIXBBhk/f4ajeu/LGUUiu6jPgxkhrayqBFmZuhoT4LMVjg2EL0zX1ItwsEtAILb5o0Gbzb25DCMJSaAIL7eftWY2Xt5wLQCtmIwb9xRzZ8+nH+xJWA/z5CQMF0T5clbauyvgp38yeEHOnyBEC48vUlFeuLaEPUijkcimmqHk5SY6/NQ8Y45tEX76AV1V8Ch58ZTLc/chje/tju7R6Z8n6WQAYI+3n09ph38fDTSYC17eH6DVBXP8uhXsMJJDe8YDa5GRm7QiNVd9xESSFEiCliaxEIIYRnLZA8is/awAIFKpj1LlLHcXh0OVW/pYAGW9KRpTO2zSCBFptnMcc4baYXV75KQm1ceKdfp4++0rVqNq762wCBL0kGzLwPRaMfLAM21kCHPlKBmKb8iIQ4MKAgQi0L2zeXbAowoFaJ0FcCozksXU2zIW8CMP4QK6ufGy2xXz94+hceyw8s7fEmus+am2dP2WddzewuUgIiJBLK6i0A0+cDsLV4WCQqP7F9qS2MHKLItUKDOd4oc1PTUbphLddy0PabYUYrcrH1+v4KMRhhQAwBGKZPml96OqSXLj4kQZCSMi7ozEjLpsKPFPp+GX9jQFlEUGAn+Tho8ACB9l1ACOFeYXAZdEsVrWvBcPMZSBpBtsQm8IJ8oGXBh1wRMCRMENG3EhB6Yh2/5/ZzFUWg20Z0rS1Uai7i8hBlGsCTTpJEYY78OcydLrg9Daz+f1Wx/fordn75E52DlgtkCcTOfFkqWQKpEvgwvHh4RXnougKqH+HAv5IBv4TOKffNGFSV6ihnzpLeK4mu0tMmeQcouMGGCEHs2RS5V5RiUQIxx0XlL2Fb9/nA/RqVvAUPrsp02ovw7bfjKnz/2LqbECB1lJvKuRJvthz4nvN69HXXXNWnpGrBCLbtKUj5K3E4JGKKv3BI6VDqmgatH4QMhv1v7WuTMg8sK+5VB4EpdhaijChaQzDh8WmBAa4usw7OMsY+VrPJrZdPitsY/MLmvCOf6188EsgWhItnrHerp+w43HgVK6b/jjG4jgP/agZ8yVF8zizDe1LXKGrfVEBV7N7H62ORJuuf7ali95Vqsx3BQgks42gt04UmSwVCkC7BhqDB9tEAj8BPo5lqyE+gQbpYinyPXgAhKGm/NlCk5Kk3mqDRAgRrWenadppO3pGztMYpFEK41P22CG1pBfDhSMibVd4uYHGFGJMSpUVsI0bJW3oOBDJDQFvWfFohWiweBzjbwODvGUz/dHVY/drK5i3He0yKXOUil0DXSr3IxZO7nyoB8a7D/cO7vwKq+jsB6hcBg6djrrc4WBC7mhv1IBVNRFHG7/LRutB16o+dwtsARcx3gAKHkJ77ic9PrH1sgygVvRK7Ixfi9BwZR9W/+jBWO20TcG+rqf3AKDeSlUeBojbKXSCAdsJNH+x+E4ED5iMXDDTXawIFLiBoBB6eM6C5IiANNl2zWNnZsbFlzaQwIMyOoWdV0dKWzy8z/mmA+jZg0/912eTER1nOaZC6jeVyngTS9oYstiyBRAk8BMfWquGZZ9WcvQB4fQMAv9wHCu4BiuQGICosBhTibn+ovKnqo/4E7WDAVZlN6jmMk9A7duDqGFPCWJsq1Yh9xKhTjHWwixP76FoK3B6HA+QcNvXXbXV88OCrIOVFT7nqBgGuik35TcJETzy2zSbQEX5O61jZBMo32BBDi4M7f0loYvSk7xIMsh9q8jFg4HtZKDSnZo0FHTGYgtT4GQD+m8Amv8OmZz92FN51JnHZ5mJZAlEJZICQJ8auSOABeMXqzrB41qDmL+NQfxdANcbtDht0fRTEp254pNkedeSbVdOxcMEufwVXdTef1HHXV//G7Q/+p9bCoLZzqkhtSy5A8PmhSqzZ/dJfsLSteRYzhVEBMCBxH/5k8U/LMbWM/Q5VG4EwnrKl7TQb7ynFOPWCwtM7AAARVUlEQVTQThGXUgw40L44YMsb/ihoMZNbhB8KvxsVemhoqszT+o99RMlOOpeqKmtHRs0wpMY5K6v/WXL2lpOTyZ1Pg1vO5OiEXdnWLjqi8+wpF52wcodnl4AIjXxwcPabas7eCFA/h0M1agcKqJjFv3YLlRPVcyR0cyZQ9WsVNjXcxpwTY06MqpdxEDATYHA66oIG3Ozj1gUDoRyBx0/4s4RTdo8fVUtN7VEo4ypy30xO1So5BTuEfcXepMCxJfSVaN66XNWK5WPxF65lIgZkMMOhsgTY/tiyRknraYO/i38pItDtO31HYKCpOdkOcR00WgxE6aouqg+VfPKao9Nb/rJ7dHOJLIHZJJABwmzyyqV7SuAf4YWjQ+U11wHjr2C8fgqo9x1MHrjYAVIpT3zkiOysgUVBKfSY8jabesMDROHlQexRpXbAEFoGmrhx+2CBCF2GzdaHGBfucMQlkDZk7VuBpwbp6VWTtyUcq0IEDISqNuTQnpV9COKWDRV1vKaqFfdlQPBJIYiBAgYYuGAi4Fg9fhpgJ2oxsF9iWQsMkGuaWzFuNZDT/HHG+J0lq34VJtN3H4FbTqeNcS6VJTCbBDJAmE1eufScErgLfuzgSjm+ngF/AYfqq4SPgnvO0mpTKnScnup5XwQMequXBd3npq0KbTrp28y0bgn7m/uTnx3Bdr/ZwhADDAgGsFdNraMeC9vxlyo9nfuD0kw9XPBNW0ATfdUDp4+BsKkyVRCtzWHRLd0OCOzY+3w3eydY5Bjji84mPzNFzBZhYYQ3AT18oC0IZkoKT0ZqXdBCI7kMYrYCF7TwRxmDO4TzYTGc/NHRjV++f87lmKtnCbRKIAOEPEH2XALH4FjxH2HjiWVZf2sN/PkM+Ldy/WJk3KHRqlVXfUdggJdXwUIG2s2IcvdWQgwwuFca7UoZAQG275/Aw9r2uZ6wV/NYBhY5vPHtwp7iXWXb1LIq3xUWaGuHVoJmmGAd+zxFHk36os/t+iGqkF/BIx05ynMMaunP5HDR72Nya4JF/vsMkquHOePvL1j958Ny+qeXbv3SPYsc1UwrS6BtrWbpZAmcEwkI/4T74fRVrBw8l0P97Qz49wDUa0od0vfttLp19lllVXCN+VaRym9k+eaTfthpXTZaLxZ3YCm0hieaYm2KPg5JzsnAzNBoukUi5SwSD31srtkc7eDCg4i1AQ/wTl+x/bC8iOCI+Wcoo4AFGi6s8QVpLQhBn0KPXUH20QL4/wao/mQ6ZB+8devAvcfgmEkaPcMw5aJZAr0kkLJqexHOlbIEUiUgjK8n4OVH6gF7esHZ9wHU3yN8FNQebjMvUnrhfipKh3kV5Pbt6BGqpBGK4CYf+c65/whN93i6jcc7zOJAmGIlcOMjHHmkCrujXPuG0LVddH1P1Wfzqdq1SFCG6QndKmYKBtDWFLokohJ3Rwr9JfS3gZ3Bd12xFy+ez4FmoinfgcutBQouftVcsLriwH+9ZPBb1RTu/CSsnXweHJsuaIgzmSyBZAmkr+hkkrlglkA/CQigcAe8eHDl0uGnsIr/EHD+AwC1SN8MPAIUzMWDN4uxrOLCtSqgn5pve6DXB1bp235gtIP8pMXCQOuGbSBHiqdYO92SC4EEdj8FYjTRb6fRvU0oRYv9cnvepTStj0KsB205EdC/IQIi7EDhI5xODEIcSFgAQntsufLCEUkbajxVLR/GUY8N9XMsCJEBY3yTQ/UrvKreeh9s3PdcuHWawxW7V0QusXsS6F75u9d2ppwl0CqBz49f9+TRdOt7gcMPAtSXMoDVWj7bE7l+QErBjMbcChGwEHVyREKxXAv2O8O4056BLPprpTRDINCsyt2wx34QYpHTiip+Xw3TXjS7CLp36q5i9uXQbiGgoMqK3R9wzYmTZ8CgOuIZICwAOj+BUNmRIbHWAq3UHVhHObA/q2SSzdx5lg2R7HkdAB5iRfXuwbS+5VJ46/EMChY5gzOteSSQAcI80st190QCx+HVR4rh9AW8rr+bATwLgF/BgQ/w1B+bxPErCDxxutkbZX29K8dP/fYqovmkTcoYhqyKUYKy6pFaJMJSabYA6vfgymCWZR1em1islUaHhjX6J2833oECHh8MuIqV4j0rtRgKVHTk3wEoEB/SUz8dPV2vERhQB8WQbx8QSTIaHIRScz/hwGoGcD8wuJvx6R/zUfWHV27918/vyWLKjWQJzCCBtB1gBoK5aJbAbkngfnj5ZbwsvqUA/g0c+NcAgAiTHNAMi2lgwezmJHuCNfvLb02uBVvW9ssFDG32AFMnsDRQhUghQkjNPanHuFi8xJsSJvnytdcDVE4RIBATY+StBqzZdAa3Znx81jj0KbBJqGjuQSsj+Vqz521gbVIEcFjo4QjY4aERGMRmIttkwO8CYH8LrP4Lvrz13ivP3vLw4kcvU8wSWIwEMkBYjBwzlT2UgHjvYXt49ssGFX8uZ+xbGMDXc6iPqr3aJlZqmtyuFdhXyPRcHiprqcCiyp4KwNZrV/2u0Bw/B/yqdYW2WRpSlnaXpaKFRrRqSpu++2BUkbq4KmoZ8CGETwcN9WFApWWdggFa36XVBAgoxFMMh30RrRcApzjjf1lw9n5WwIdguvz3l8Oxs3u4ZHJTWQK9JJC2onuRzpWyBHZXAir64VVfxAfVM1jNvhGAvwBY/QwAVuK7DupE6loHkCujKBoVvrUU2J746kV9g6DBb6/ZgE8T9zbFQMTk16XU4zL3rzFmG5n0baLBdqCba6JDFLVm1O9leI0RAQRkYGOWDqrEfTtB0zsHhg/5YmMsR0Fjn8SU+AwU/D18Cn8MUHxuC8YPPBmObc0m+1w6S+DcSSB95Z87HnPLWQKtEuDA2XF42XgI5YG6HFxbQ/WiAurrAPgwAAM6GiJ23kOzcywkXdGxDo8UCFDmzIIinmZNZWOgw+eXnpNjcAXLY7k+8CGlLvUlaAcb/umbAiH1nVM/ah2wo+NSawgtjFwZYDsIWOQ53vyJw5guvwL/WiIWSskANjnn74Oi+NVhVX5gCtuPXwFv2Wh49yuv7CyB81oCGSCc18OTmesrgdPw6iOni/qHCqiuB8afAcDFI1ElVcpNlgVHubSuEJWjoc1K4AARTcu9dnBrU9VF+x69fogovD4AwVXHcQqur4E7Ki7Pbu5BQ7vBMqC+bzqZU+HX0ljvnujD2UG5x/LWWoCWJNWeBQ+2HUo/niA6mBAVAJty4A9BAe8oS/67T9h+82f6zttcL0vgfJJABgjn02hkXhYuAQ7HRg8ON/4Z5/BCzutvAKivBCiOAPAxjVgXuROswogrHvm947zolxPqxT3nt1kPnMXngQcKLGJZGlNO/fMIswmoUKUZWBKIdm4CKv59vpVB3DrgA4yYxO1nNPIAa7rn/hRQgPSo9cZrdxsATjKABznAXzHG/vwJ1c3vYdFgyXlGIdfNEji3EsgA4dzKP7e+hxL4JLz6yCXl5OtqVnwT8PqZwPnTGGNXc6hXBBv2VOn7GYTqzr+OaFaoSNm1AVjggKfa0A8hCljIio0p4b4Lulmh6wGKFGizVmBCIB9EWHVNIU7IdcPjm5IZmgXDzYTowirFOdoPwjYkb/KvJijgfD7lAF8Axu/lvPhYydj7eTV9/xXwlof2cArnprIE9lQCffeTPWUyN5YlsEgJiMeifhTWL58O4Dm85l8BjD+34OxZwOBLaX4FbNNNdhQqdH8RuVcINPMiLUnVq1Kb9Kzr2iHSe9/Ugk8htVxby83WAForssXodw3cs72tE575Pb+FIFogAjAMOXt9Eb4HjuChUToTDvA5BuxjAPwTjPGPFBV86ii8+e6czCh9TuaS+1cCGSDs37HLnC9AAhx+vzwJH75ycwhXlzV7EjD+tTWvry0Ans2BL1O7gr21tuobLQHt52GXUazNGFFeuohriXAtGW0ndtpCm2+FBT14vk7dAmLqPPQ3kFSlxz+GnKbSR0mr8qGlATmP04s6GCIhY0WITRiXHgMQPgX/AFB/EBh8uK7gUwDFF66E597H4PpqAVMuk8gS2DcSSF+9+6ZLmdEsgX4SEHrtMXjVwS2YHi6BPbEelNdyXn0d8OJbgVVr9lrAN/67gEHpJfvIVNNJuYlLp3zDUTW0AODrln2XtGq1y7JgvifRB6kthhYS0aJyPAzUtIEJ4gf3CiDkVEnSXPuQa4M22wKhvM45fAhY8b5hXf/JFOqHJ1CdehDWz3w13DrpN5tyrSyB/S+B1LW9/3uae5AlMKMExHPUtwMUlwMUl8LOtbyYXscAvp2z+osBeOECBkdFOS0ZxSU/dYGDq/5mZDASO9d3QVPrRF8a5sBOVDpeyNDriBAM+JcyfQBBCCRcafq9Yic58D9grPi/VcXeexUsnRKDw/JzyrNPwlzjgpXAPHvBBSuU3LEsgTYJfBZee824nF4LwL+eMf6NwOtLaoAxAyYiI5ZsrAMFDVR9uide+437tPWilPaiRjPGD70E6fZJoBco4aWM+0m4NRkYIa0XMRBBeyq/F08krzNgWxzgFHD4OGfF+6sBu/2Ldv7Lxxcll0wnS+BClUAGCBfqyOZ+7YkEOLywfAie8uVVyb+ccf5sYOyZAPUTOeeHgMERADhk8y9Y47j/JHAsl2KzE1/ojbCohRyjPBttqubpqV6lPPZBRtN1AQ6eLK8rhRELdogZsJoDiJcRH+HAHme8eAgKfqIG+Guo2CcZLH3kiXBMJCzKf7IEsgQSJTDb2k8kmotlCVysEvgwvHh4FI48fTyorprW/BkFFE8CVl1ZA1zFOFxRMLi6Bn5AWOHpeTr2fFCYqS/VTdFKP1aj36KP1fIhDAVAVHnjz80tO3wSHwIXYhiJcIBiEwCOc8YfEc8lA2ci2uBEzfinB2X5uct3Rp9mOa3xxboMc78XJIF+e8WCGs9ksgQudAmIkMr/AHC4hs0rRwN2lHH+xJrzg6zgTwbOruFQX82APRUALhMvU8bk0ZXxcdEybIICSlmnbxnUs8AYArw3Dbqhg7QMnAYOdxcAx2vGHmbA7ioYewAYPzGdwqMA5SNPhOF92X9g0TMh07vYJZC+2i92SeX+ZwksSAJCR56EYwc2YHKggMlaMYRDnLMxcH4Z48VzONRXAOPXMGBfAgCXA9Tj6FOBC+KnLxnfOmEsItoCELtsaLo2EemKAdjjNWN3FZx/igN7jAN8ltVwdwnsVC1eRISddQajjbNw9vTT4RaRzTD/yRLIEthFCWSAsIvCzaSzBGaRgIiaAIDRg3C2HEE52ILpsISlsoLtMS8Hzyk4PJ0DvxRYfbiA4mk1h6cDg8sZ8DEHLnMV91nQbRcXjpInBaklocl50YtWmHJgZ8U1AGf888DrOwEGAhDcM6rg4ww2HpzC8nQH+HQZTk+mcHn9GMD0S+HYJCclmmUW5bJZAouTQJ/9ZHGtZ0pZAlkCc0tAJHs6Af94VTWonlLw+grOq0sA+EohXrMs2GWcsytLYJdxBpfwmh8EYOOC8QEHGHDgpQjZBC7SNrl/yBWBMHoIU7/4SCQLEtEB20VRnKk5P1MAe7Tm/CGAWrxNcAaAbQErzk6heGRcFfc8Ao9+5svgbWfn7mgmkCWQJbCnEsgAYU/FnRvLEsgSyBLIEsgS2B8SyABhf4xT5jJLIEsgSyBLIEtgTyWQAcKeijs3liWQJZAlkCWQJbA/JJABwv4Yp8xllkCWQJZAlkCWwJ5KIAOEPRV3bixLIEsgSyBLIEtgf0ggA4T9MU6ZyyyBLIEsgSyBLIE9lUAGCHsq7txYlkCWQJZAlkCWwP6QQAYI+2OcMpdZAlkCWQJZAlkCeyqBDBD2VNy5sSyBLIEsgSyBLIH9IYEMEPbHOGUuswSyBLIEsgSyBPZUAhkg7Km4c2NZAlkCWQJZAlkC+0MCGSDsj3HKXGYJZAlkCWQJZAnsqQT+P4Y6z8LxDyTrAAAAAElFTkSuQmCC" vertex="1" parent="1">
          <mxGeometry x="290" y="20" width="233.47" height="220" as="geometry" />
        </mxCell>
      </root>
    </mxGraphModel>
  </diagram>
</mxfile>
